%TF.GenerationSoftware,KiCad,Pcbnew,9.0.5-9.0.5~ubuntu24.04.1*%
%TF.CreationDate,2025-10-25T11:16:37+03:00*%
%TF.ProjectId,Blood pressure sensor,426c6f6f-6420-4707-9265-737375726520,rev?*%
%TF.SameCoordinates,Original*%
%TF.FileFunction,Paste,Top*%
%TF.FilePolarity,Positive*%
%FSLAX46Y46*%
G04 Gerber Fmt 4.6, Leading zero omitted, Abs format (unit mm)*
G04 Created by KiCad (PCBNEW 9.0.5-9.0.5~ubuntu24.04.1) date 2025-10-25 11:16:37*
%MOMM*%
%LPD*%
G01*
G04 APERTURE LIST*
G04 Aperture macros list*
%AMRoundRect*
0 Rectangle with rounded corners*
0 $1 Rounding radius*
0 $2 $3 $4 $5 $6 $7 $8 $9 X,Y pos of 4 corners*
0 Add a 4 corners polygon primitive as box body*
4,1,4,$2,$3,$4,$5,$6,$7,$8,$9,$2,$3,0*
0 Add four circle primitives for the rounded corners*
1,1,$1+$1,$2,$3*
1,1,$1+$1,$4,$5*
1,1,$1+$1,$6,$7*
1,1,$1+$1,$8,$9*
0 Add four rect primitives between the rounded corners*
20,1,$1+$1,$2,$3,$4,$5,0*
20,1,$1+$1,$4,$5,$6,$7,0*
20,1,$1+$1,$6,$7,$8,$9,0*
20,1,$1+$1,$8,$9,$2,$3,0*%
G04 Aperture macros list end*
%ADD10RoundRect,0.250000X-0.550000X1.500000X-0.550000X-1.500000X0.550000X-1.500000X0.550000X1.500000X0*%
%ADD11RoundRect,0.200000X-0.200000X-0.275000X0.200000X-0.275000X0.200000X0.275000X-0.200000X0.275000X0*%
%ADD12RoundRect,0.225000X-0.225000X-0.250000X0.225000X-0.250000X0.225000X0.250000X-0.225000X0.250000X0*%
%ADD13R,0.700000X0.300000*%
%ADD14R,1.000000X1.700000*%
%ADD15RoundRect,0.200000X0.275000X-0.200000X0.275000X0.200000X-0.275000X0.200000X-0.275000X-0.200000X0*%
%ADD16R,2.100000X1.500000*%
%ADD17RoundRect,0.225000X0.250000X-0.225000X0.250000X0.225000X-0.250000X0.225000X-0.250000X-0.225000X0*%
%ADD18RoundRect,0.200000X0.200000X0.275000X-0.200000X0.275000X-0.200000X-0.275000X0.200000X-0.275000X0*%
%ADD19R,0.600000X1.300000*%
%ADD20R,1.750000X0.650000*%
%ADD21RoundRect,0.200000X-0.275000X0.200000X-0.275000X-0.200000X0.275000X-0.200000X0.275000X0.200000X0*%
%ADD22RoundRect,0.250000X-0.650000X1.000000X-0.650000X-1.000000X0.650000X-1.000000X0.650000X1.000000X0*%
G04 APERTURE END LIST*
D10*
%TO.C,C5*%
X138500000Y-77000000D03*
X138500000Y-82400000D03*
%TD*%
D11*
%TO.C,R5*%
X119000000Y-91500000D03*
X120650000Y-91500000D03*
%TD*%
D12*
%TO.C,C3*%
X132500000Y-90000000D03*
X134050000Y-90000000D03*
%TD*%
D13*
%TO.C,IC3*%
X134100000Y-88000000D03*
X134100000Y-87500000D03*
X134100000Y-87000000D03*
X134100000Y-86500000D03*
X132000000Y-86500000D03*
X132000000Y-87000000D03*
X132000000Y-87500000D03*
X132000000Y-88000000D03*
D14*
X133050000Y-87250000D03*
%TD*%
D15*
%TO.C,R7*%
X131000000Y-102000000D03*
X131000000Y-100350000D03*
%TD*%
D11*
%TO.C,R2*%
X115000000Y-87500000D03*
X116650000Y-87500000D03*
%TD*%
D16*
%TO.C,D2*%
X130625000Y-92900000D03*
X134825000Y-92900000D03*
%TD*%
D17*
%TO.C,C1*%
X128000000Y-80225000D03*
X128000000Y-78675000D03*
%TD*%
D18*
%TO.C,R3*%
X120650000Y-87500000D03*
X119000000Y-87500000D03*
%TD*%
D19*
%TO.C,Q1*%
X131100000Y-98000000D03*
X133000000Y-98000000D03*
X132050000Y-95900000D03*
%TD*%
D20*
%TO.C,IC2*%
X124100000Y-95000000D03*
X124100000Y-97540000D03*
X124100000Y-100080000D03*
X113500000Y-100080000D03*
X113500000Y-97540000D03*
X113500000Y-95000000D03*
%TD*%
D21*
%TO.C,R1*%
X128000000Y-82850000D03*
X128000000Y-84500000D03*
%TD*%
D22*
%TO.C,D1*%
X132000000Y-79500000D03*
X132000000Y-83500000D03*
%TD*%
D17*
%TO.C,C2*%
X127000000Y-96500000D03*
X127000000Y-94950000D03*
%TD*%
%TO.C,C4*%
X130275000Y-89550000D03*
X130275000Y-88000000D03*
%TD*%
D11*
%TO.C,R6*%
X115000000Y-91500000D03*
X116650000Y-91500000D03*
%TD*%
D21*
%TO.C,R4*%
X127000000Y-98350000D03*
X127000000Y-100000000D03*
%TD*%
D18*
%TO.C,R8*%
X134500000Y-100500000D03*
X132850000Y-100500000D03*
%TD*%
D20*
%TO.C,IC1*%
X125000000Y-78595000D03*
X125000000Y-81135000D03*
X125000000Y-83675000D03*
X114400000Y-83675000D03*
X114400000Y-81135000D03*
X114400000Y-78595000D03*
%TD*%
M02*
