%TF.GenerationSoftware,KiCad,Pcbnew,9.0.4-9.0.4-0~ubuntu24.04.1*%
%TF.CreationDate,2025-09-24T17:28:49+03:00*%
%TF.ProjectId,Linear_actuator_MCU_Bridge_circuit,4c696e65-6172-45f6-9163-747561746f72,rev?*%
%TF.SameCoordinates,Original*%
%TF.FileFunction,Copper,L1,Top*%
%TF.FilePolarity,Positive*%
%FSLAX46Y46*%
G04 Gerber Fmt 4.6, Leading zero omitted, Abs format (unit mm)*
G04 Created by KiCad (PCBNEW 9.0.4-9.0.4-0~ubuntu24.04.1) date 2025-09-24 17:28:49*
%MOMM*%
%LPD*%
G01*
G04 APERTURE LIST*
%TA.AperFunction,ComponentPad*%
%ADD10C,2.700000*%
%TD*%
%TA.AperFunction,ComponentPad*%
%ADD11C,2.108200*%
%TD*%
%TA.AperFunction,Conductor*%
%ADD12C,0.200000*%
%TD*%
G04 APERTURE END LIST*
D10*
%TO.P,U1,P$1,+*%
%TO.N,+24V*%
X134424200Y-60840100D03*
%TO.P,U1,P$2,-*%
%TO.N,GNDPWR*%
X139424200Y-60840100D03*
%TD*%
D11*
%TO.P,J2,1*%
%TO.N,+24V*%
X117757200Y-68555500D03*
%TO.P,J2,2*%
%TO.N,GNDPWR*%
X122761000Y-68555500D03*
%TD*%
%TO.P,J3,1*%
%TO.N,+24V*%
X99757200Y-68555500D03*
%TO.P,J3,2*%
%TO.N,GNDPWR*%
X104761000Y-68555500D03*
%TD*%
D10*
%TO.P,U2,P$1,+*%
%TO.N,+24V*%
X118090700Y-60840100D03*
%TO.P,U2,P$2,-*%
%TO.N,GNDPWR*%
X123090700Y-60840100D03*
%TD*%
%TO.P,U4,P$1,+*%
%TO.N,+24V*%
X82590700Y-60840100D03*
%TO.P,U4,P$2,-*%
%TO.N,GNDPWR*%
X87590700Y-60840100D03*
%TD*%
%TO.P,U3,P$1,+*%
%TO.N,+24V*%
X99590700Y-60840100D03*
%TO.P,U3,P$2,-*%
%TO.N,GNDPWR*%
X104590700Y-60840100D03*
%TD*%
D11*
%TO.P,J4,1*%
%TO.N,+24V*%
X82608000Y-68555500D03*
%TO.P,J4,2*%
%TO.N,GNDPWR*%
X87611800Y-68555500D03*
%TD*%
%TO.P,J1,1*%
%TO.N,+24V*%
X134590700Y-68555500D03*
%TO.P,J1,2*%
%TO.N,GNDPWR*%
X139594500Y-68555500D03*
%TD*%
D12*
%TO.N,GNDPWR*%
X139424200Y-68385200D02*
X139594500Y-68555500D01*
X87590700Y-68534400D02*
X87611800Y-68555500D01*
X123090700Y-68225800D02*
X122761000Y-68555500D01*
X104590700Y-68385200D02*
X104761000Y-68555500D01*
%TO.N,+24V*%
X134424200Y-68389000D02*
X134590700Y-68555500D01*
X82590700Y-68538200D02*
X82608000Y-68555500D01*
X99590700Y-68389000D02*
X99757200Y-68555500D01*
X118090700Y-68222000D02*
X117757200Y-68555500D01*
%TD*%
%TA.AperFunction,Conductor*%
%TO.N,+24V*%
G36*
X146033239Y-56860285D02*
G01*
X146078994Y-56913089D01*
X146090200Y-56964600D01*
X146090200Y-80715600D01*
X146070515Y-80782639D01*
X146017711Y-80828394D01*
X145966200Y-80839600D01*
X76215200Y-80839600D01*
X76148161Y-80819915D01*
X76102406Y-80767111D01*
X76091200Y-80715600D01*
X76091200Y-68433184D01*
X81053900Y-68433184D01*
X81053900Y-68677815D01*
X81092166Y-68919419D01*
X81167761Y-69152071D01*
X81278814Y-69370026D01*
X81346609Y-69463336D01*
X81346609Y-69463337D01*
X81892077Y-68917869D01*
X81898961Y-68934489D01*
X81986522Y-69065534D01*
X82097966Y-69176978D01*
X82229011Y-69264539D01*
X82245629Y-69271422D01*
X81700161Y-69816889D01*
X81793473Y-69884685D01*
X82011428Y-69995738D01*
X82244080Y-70071333D01*
X82485685Y-70109600D01*
X82730315Y-70109600D01*
X82971919Y-70071333D01*
X83204571Y-69995738D01*
X83422526Y-69884685D01*
X83515836Y-69816889D01*
X82970369Y-69271422D01*
X82986989Y-69264539D01*
X83118034Y-69176978D01*
X83229478Y-69065534D01*
X83317039Y-68934489D01*
X83323922Y-68917869D01*
X83869389Y-69463336D01*
X83937185Y-69370026D01*
X84048238Y-69152071D01*
X84123833Y-68919419D01*
X84162100Y-68677815D01*
X84162100Y-68433184D01*
X84162095Y-68433150D01*
X86057200Y-68433150D01*
X86057200Y-68677849D01*
X86095480Y-68919537D01*
X86095480Y-68919540D01*
X86171094Y-69152256D01*
X86171096Y-69152259D01*
X86282187Y-69370288D01*
X86426018Y-69568254D01*
X86599046Y-69741282D01*
X86797012Y-69885113D01*
X87015041Y-69996204D01*
X87015043Y-69996205D01*
X87232111Y-70066734D01*
X87247764Y-70071820D01*
X87489450Y-70110100D01*
X87489451Y-70110100D01*
X87734149Y-70110100D01*
X87734150Y-70110100D01*
X87975836Y-70071820D01*
X87975839Y-70071819D01*
X87975840Y-70071819D01*
X88208556Y-69996205D01*
X88208556Y-69996204D01*
X88208559Y-69996204D01*
X88426588Y-69885113D01*
X88624554Y-69741282D01*
X88797582Y-69568254D01*
X88941413Y-69370288D01*
X89052504Y-69152259D01*
X89080683Y-69065534D01*
X89128119Y-68919540D01*
X89128119Y-68919539D01*
X89128120Y-68919536D01*
X89166400Y-68677850D01*
X89166400Y-68433184D01*
X98203100Y-68433184D01*
X98203100Y-68677815D01*
X98241366Y-68919419D01*
X98316961Y-69152071D01*
X98428014Y-69370026D01*
X98495809Y-69463336D01*
X98495809Y-69463337D01*
X99041277Y-68917869D01*
X99048161Y-68934489D01*
X99135722Y-69065534D01*
X99247166Y-69176978D01*
X99378211Y-69264539D01*
X99394829Y-69271422D01*
X98849361Y-69816889D01*
X98942673Y-69884685D01*
X99160628Y-69995738D01*
X99393280Y-70071333D01*
X99634885Y-70109600D01*
X99879515Y-70109600D01*
X100121119Y-70071333D01*
X100353771Y-69995738D01*
X100571726Y-69884685D01*
X100665036Y-69816889D01*
X100119569Y-69271422D01*
X100136189Y-69264539D01*
X100267234Y-69176978D01*
X100378678Y-69065534D01*
X100466239Y-68934489D01*
X100473122Y-68917870D01*
X101018589Y-69463337D01*
X101018589Y-69463336D01*
X101086385Y-69370026D01*
X101197438Y-69152071D01*
X101273033Y-68919419D01*
X101311300Y-68677815D01*
X101311300Y-68433184D01*
X101311295Y-68433150D01*
X103206400Y-68433150D01*
X103206400Y-68677849D01*
X103244680Y-68919537D01*
X103244680Y-68919540D01*
X103320294Y-69152256D01*
X103320296Y-69152259D01*
X103431387Y-69370288D01*
X103575218Y-69568254D01*
X103748246Y-69741282D01*
X103946212Y-69885113D01*
X104164241Y-69996204D01*
X104164243Y-69996205D01*
X104381311Y-70066734D01*
X104396964Y-70071820D01*
X104638650Y-70110100D01*
X104638651Y-70110100D01*
X104883349Y-70110100D01*
X104883350Y-70110100D01*
X105125036Y-70071820D01*
X105125039Y-70071819D01*
X105125040Y-70071819D01*
X105357756Y-69996205D01*
X105357756Y-69996204D01*
X105357759Y-69996204D01*
X105575788Y-69885113D01*
X105773754Y-69741282D01*
X105946782Y-69568254D01*
X106090613Y-69370288D01*
X106201704Y-69152259D01*
X106229883Y-69065534D01*
X106277319Y-68919540D01*
X106277319Y-68919539D01*
X106277320Y-68919536D01*
X106315600Y-68677850D01*
X106315600Y-68433184D01*
X116203100Y-68433184D01*
X116203100Y-68677815D01*
X116241366Y-68919419D01*
X116316961Y-69152071D01*
X116428014Y-69370026D01*
X116495809Y-69463336D01*
X116495809Y-69463337D01*
X117041277Y-68917869D01*
X117048161Y-68934489D01*
X117135722Y-69065534D01*
X117247166Y-69176978D01*
X117378211Y-69264539D01*
X117394829Y-69271422D01*
X116849361Y-69816889D01*
X116942673Y-69884685D01*
X117160628Y-69995738D01*
X117393280Y-70071333D01*
X117634885Y-70109600D01*
X117879515Y-70109600D01*
X118121119Y-70071333D01*
X118353771Y-69995738D01*
X118571726Y-69884685D01*
X118665037Y-69816889D01*
X118119570Y-69271422D01*
X118136189Y-69264539D01*
X118267234Y-69176978D01*
X118378678Y-69065534D01*
X118466239Y-68934489D01*
X118473122Y-68917870D01*
X119018589Y-69463337D01*
X119018589Y-69463336D01*
X119086385Y-69370026D01*
X119197438Y-69152071D01*
X119273033Y-68919419D01*
X119311300Y-68677815D01*
X119311300Y-68433184D01*
X119311295Y-68433150D01*
X121206400Y-68433150D01*
X121206400Y-68677849D01*
X121244680Y-68919537D01*
X121244680Y-68919540D01*
X121320294Y-69152256D01*
X121320296Y-69152259D01*
X121431387Y-69370288D01*
X121575218Y-69568254D01*
X121748246Y-69741282D01*
X121946212Y-69885113D01*
X122164241Y-69996204D01*
X122164243Y-69996205D01*
X122381311Y-70066734D01*
X122396964Y-70071820D01*
X122638650Y-70110100D01*
X122638651Y-70110100D01*
X122883349Y-70110100D01*
X122883350Y-70110100D01*
X123125036Y-70071820D01*
X123125039Y-70071819D01*
X123125040Y-70071819D01*
X123357756Y-69996205D01*
X123357756Y-69996204D01*
X123357759Y-69996204D01*
X123575788Y-69885113D01*
X123773754Y-69741282D01*
X123946782Y-69568254D01*
X124090613Y-69370288D01*
X124201704Y-69152259D01*
X124229883Y-69065534D01*
X124277319Y-68919540D01*
X124277319Y-68919539D01*
X124277320Y-68919536D01*
X124315600Y-68677850D01*
X124315600Y-68433184D01*
X133036600Y-68433184D01*
X133036600Y-68677815D01*
X133074866Y-68919419D01*
X133150461Y-69152071D01*
X133261514Y-69370026D01*
X133329309Y-69463336D01*
X133329309Y-69463337D01*
X133874777Y-68917869D01*
X133881661Y-68934489D01*
X133969222Y-69065534D01*
X134080666Y-69176978D01*
X134211711Y-69264539D01*
X134228329Y-69271422D01*
X133682861Y-69816889D01*
X133776173Y-69884685D01*
X133994128Y-69995738D01*
X134226780Y-70071333D01*
X134468385Y-70109600D01*
X134713015Y-70109600D01*
X134954619Y-70071333D01*
X135187271Y-69995738D01*
X135405226Y-69884685D01*
X135498537Y-69816889D01*
X134953070Y-69271422D01*
X134969689Y-69264539D01*
X135100734Y-69176978D01*
X135212178Y-69065534D01*
X135299739Y-68934489D01*
X135306622Y-68917869D01*
X135852089Y-69463336D01*
X135919885Y-69370026D01*
X136030938Y-69152071D01*
X136106533Y-68919419D01*
X136144800Y-68677815D01*
X136144800Y-68433184D01*
X136144795Y-68433150D01*
X138039900Y-68433150D01*
X138039900Y-68677849D01*
X138078180Y-68919537D01*
X138078180Y-68919540D01*
X138153794Y-69152256D01*
X138153796Y-69152259D01*
X138264887Y-69370288D01*
X138408718Y-69568254D01*
X138581746Y-69741282D01*
X138779712Y-69885113D01*
X138997741Y-69996204D01*
X138997743Y-69996205D01*
X139214811Y-70066734D01*
X139230464Y-70071820D01*
X139472150Y-70110100D01*
X139472151Y-70110100D01*
X139716849Y-70110100D01*
X139716850Y-70110100D01*
X139958536Y-70071820D01*
X139958539Y-70071819D01*
X139958540Y-70071819D01*
X140191256Y-69996205D01*
X140191256Y-69996204D01*
X140191259Y-69996204D01*
X140409288Y-69885113D01*
X140607254Y-69741282D01*
X140780282Y-69568254D01*
X140924113Y-69370288D01*
X141035204Y-69152259D01*
X141063383Y-69065534D01*
X141110819Y-68919540D01*
X141110819Y-68919539D01*
X141110820Y-68919536D01*
X141149100Y-68677850D01*
X141149100Y-68433150D01*
X141110820Y-68191464D01*
X141110819Y-68191460D01*
X141110819Y-68191459D01*
X141035205Y-67958743D01*
X141035203Y-67958740D01*
X140977995Y-67846461D01*
X140924113Y-67740712D01*
X140780282Y-67542746D01*
X140607254Y-67369718D01*
X140409288Y-67225887D01*
X140191259Y-67114796D01*
X140191256Y-67114794D01*
X139958538Y-67039180D01*
X139797412Y-67013660D01*
X139716850Y-67000900D01*
X139472150Y-67000900D01*
X139391588Y-67013660D01*
X139230462Y-67039180D01*
X139230459Y-67039180D01*
X138997743Y-67114794D01*
X138997740Y-67114796D01*
X138779711Y-67225887D01*
X138666765Y-67307947D01*
X138581746Y-67369718D01*
X138581744Y-67369720D01*
X138581743Y-67369720D01*
X138408720Y-67542743D01*
X138408720Y-67542744D01*
X138408718Y-67542746D01*
X138346947Y-67627765D01*
X138264887Y-67740711D01*
X138153796Y-67958740D01*
X138153794Y-67958743D01*
X138078180Y-68191459D01*
X138078180Y-68191462D01*
X138039900Y-68433150D01*
X136144795Y-68433150D01*
X136106533Y-68191580D01*
X136030938Y-67958928D01*
X135919885Y-67740973D01*
X135852089Y-67647662D01*
X135852089Y-67647661D01*
X135306622Y-68193128D01*
X135299739Y-68176511D01*
X135212178Y-68045466D01*
X135100734Y-67934022D01*
X134969689Y-67846461D01*
X134953068Y-67839576D01*
X135498537Y-67294109D01*
X135405226Y-67226314D01*
X135187271Y-67115261D01*
X134954619Y-67039666D01*
X134713015Y-67001400D01*
X134468385Y-67001400D01*
X134226780Y-67039666D01*
X133994128Y-67115261D01*
X133776169Y-67226316D01*
X133682862Y-67294107D01*
X133682861Y-67294109D01*
X134228329Y-67839577D01*
X134211711Y-67846461D01*
X134080666Y-67934022D01*
X133969222Y-68045466D01*
X133881661Y-68176511D01*
X133874777Y-68193129D01*
X133329309Y-67647661D01*
X133329307Y-67647662D01*
X133261516Y-67740969D01*
X133150461Y-67958928D01*
X133074866Y-68191580D01*
X133036600Y-68433184D01*
X124315600Y-68433184D01*
X124315600Y-68433150D01*
X124277320Y-68191464D01*
X124277319Y-68191460D01*
X124277319Y-68191459D01*
X124201705Y-67958743D01*
X124201703Y-67958740D01*
X124144495Y-67846461D01*
X124090613Y-67740712D01*
X123946782Y-67542746D01*
X123773754Y-67369718D01*
X123575788Y-67225887D01*
X123357759Y-67114796D01*
X123357756Y-67114794D01*
X123125038Y-67039180D01*
X122963912Y-67013660D01*
X122883350Y-67000900D01*
X122638650Y-67000900D01*
X122558088Y-67013660D01*
X122396962Y-67039180D01*
X122396959Y-67039180D01*
X122164243Y-67114794D01*
X122164240Y-67114796D01*
X121946211Y-67225887D01*
X121833265Y-67307947D01*
X121748246Y-67369718D01*
X121748244Y-67369720D01*
X121748243Y-67369720D01*
X121575220Y-67542743D01*
X121575220Y-67542744D01*
X121575218Y-67542746D01*
X121513447Y-67627765D01*
X121431387Y-67740711D01*
X121320296Y-67958740D01*
X121320294Y-67958743D01*
X121244680Y-68191459D01*
X121244680Y-68191462D01*
X121206400Y-68433150D01*
X119311295Y-68433150D01*
X119273033Y-68191580D01*
X119197438Y-67958928D01*
X119086385Y-67740973D01*
X119018589Y-67647662D01*
X119018589Y-67647661D01*
X118473122Y-68193128D01*
X118466239Y-68176511D01*
X118378678Y-68045466D01*
X118267234Y-67934022D01*
X118136189Y-67846461D01*
X118119568Y-67839576D01*
X118665037Y-67294109D01*
X118571726Y-67226314D01*
X118353771Y-67115261D01*
X118121119Y-67039666D01*
X117879515Y-67001400D01*
X117634885Y-67001400D01*
X117393280Y-67039666D01*
X117160628Y-67115261D01*
X116942669Y-67226316D01*
X116849362Y-67294107D01*
X116849361Y-67294109D01*
X117394829Y-67839577D01*
X117378211Y-67846461D01*
X117247166Y-67934022D01*
X117135722Y-68045466D01*
X117048161Y-68176511D01*
X117041277Y-68193129D01*
X116495809Y-67647661D01*
X116495807Y-67647662D01*
X116428016Y-67740969D01*
X116316961Y-67958928D01*
X116241366Y-68191580D01*
X116203100Y-68433184D01*
X106315600Y-68433184D01*
X106315600Y-68433150D01*
X106277320Y-68191464D01*
X106277319Y-68191460D01*
X106277319Y-68191459D01*
X106201705Y-67958743D01*
X106201703Y-67958740D01*
X106144495Y-67846461D01*
X106090613Y-67740712D01*
X105946782Y-67542746D01*
X105773754Y-67369718D01*
X105575788Y-67225887D01*
X105357759Y-67114796D01*
X105357756Y-67114794D01*
X105125038Y-67039180D01*
X104963912Y-67013660D01*
X104883350Y-67000900D01*
X104638650Y-67000900D01*
X104558088Y-67013660D01*
X104396962Y-67039180D01*
X104396959Y-67039180D01*
X104164243Y-67114794D01*
X104164240Y-67114796D01*
X103946211Y-67225887D01*
X103833265Y-67307947D01*
X103748246Y-67369718D01*
X103748244Y-67369720D01*
X103748243Y-67369720D01*
X103575220Y-67542743D01*
X103575220Y-67542744D01*
X103575218Y-67542746D01*
X103513447Y-67627765D01*
X103431387Y-67740711D01*
X103320296Y-67958740D01*
X103320294Y-67958743D01*
X103244680Y-68191459D01*
X103244680Y-68191462D01*
X103206400Y-68433150D01*
X101311295Y-68433150D01*
X101273033Y-68191580D01*
X101197438Y-67958928D01*
X101086385Y-67740973D01*
X101018589Y-67647662D01*
X101018589Y-67647661D01*
X100473122Y-68193128D01*
X100466239Y-68176511D01*
X100378678Y-68045466D01*
X100267234Y-67934022D01*
X100136189Y-67846461D01*
X100119568Y-67839576D01*
X100665037Y-67294109D01*
X100571726Y-67226314D01*
X100353771Y-67115261D01*
X100121119Y-67039666D01*
X99879515Y-67001400D01*
X99634885Y-67001400D01*
X99393280Y-67039666D01*
X99160628Y-67115261D01*
X98942669Y-67226316D01*
X98849362Y-67294107D01*
X98849361Y-67294109D01*
X99394829Y-67839577D01*
X99378211Y-67846461D01*
X99247166Y-67934022D01*
X99135722Y-68045466D01*
X99048161Y-68176511D01*
X99041277Y-68193129D01*
X98495809Y-67647661D01*
X98495807Y-67647662D01*
X98428016Y-67740969D01*
X98316961Y-67958928D01*
X98241366Y-68191580D01*
X98203100Y-68433184D01*
X89166400Y-68433184D01*
X89166400Y-68433150D01*
X89128120Y-68191464D01*
X89128119Y-68191460D01*
X89128119Y-68191459D01*
X89052505Y-67958743D01*
X89052503Y-67958740D01*
X88995295Y-67846461D01*
X88941413Y-67740712D01*
X88797582Y-67542746D01*
X88624554Y-67369718D01*
X88426588Y-67225887D01*
X88208559Y-67114796D01*
X88208556Y-67114794D01*
X87975838Y-67039180D01*
X87814712Y-67013660D01*
X87734150Y-67000900D01*
X87489450Y-67000900D01*
X87408888Y-67013660D01*
X87247762Y-67039180D01*
X87247759Y-67039180D01*
X87015043Y-67114794D01*
X87015040Y-67114796D01*
X86797011Y-67225887D01*
X86684065Y-67307947D01*
X86599046Y-67369718D01*
X86599044Y-67369720D01*
X86599043Y-67369720D01*
X86426020Y-67542743D01*
X86426020Y-67542744D01*
X86426018Y-67542746D01*
X86364247Y-67627765D01*
X86282187Y-67740711D01*
X86171096Y-67958740D01*
X86171094Y-67958743D01*
X86095480Y-68191459D01*
X86095480Y-68191462D01*
X86057200Y-68433150D01*
X84162095Y-68433150D01*
X84123833Y-68191580D01*
X84048238Y-67958928D01*
X83937185Y-67740973D01*
X83869389Y-67647662D01*
X83869389Y-67647661D01*
X83323922Y-68193128D01*
X83317039Y-68176511D01*
X83229478Y-68045466D01*
X83118034Y-67934022D01*
X82986989Y-67846461D01*
X82970368Y-67839576D01*
X83515837Y-67294109D01*
X83422526Y-67226314D01*
X83204571Y-67115261D01*
X82971919Y-67039666D01*
X82730315Y-67001400D01*
X82485685Y-67001400D01*
X82244080Y-67039666D01*
X82011428Y-67115261D01*
X81793469Y-67226316D01*
X81700162Y-67294107D01*
X81700161Y-67294109D01*
X82245629Y-67839577D01*
X82229011Y-67846461D01*
X82097966Y-67934022D01*
X81986522Y-68045466D01*
X81898961Y-68176511D01*
X81892077Y-68193129D01*
X81346609Y-67647661D01*
X81346607Y-67647662D01*
X81278816Y-67740969D01*
X81167761Y-67958928D01*
X81092166Y-68191580D01*
X81053900Y-68433184D01*
X76091200Y-68433184D01*
X76091200Y-64237748D01*
X77290200Y-64237748D01*
X77290200Y-64442451D01*
X77322222Y-64644634D01*
X77385481Y-64839323D01*
X77478415Y-65021713D01*
X77598728Y-65187313D01*
X77743486Y-65332071D01*
X77898449Y-65444656D01*
X77909090Y-65452387D01*
X78025307Y-65511603D01*
X78091476Y-65545318D01*
X78091478Y-65545318D01*
X78091481Y-65545320D01*
X78195837Y-65579227D01*
X78286165Y-65608577D01*
X78387257Y-65624588D01*
X78488348Y-65640600D01*
X78488349Y-65640600D01*
X78693051Y-65640600D01*
X78693052Y-65640600D01*
X78895234Y-65608577D01*
X79089919Y-65545320D01*
X79272310Y-65452387D01*
X79427931Y-65339323D01*
X79437913Y-65332071D01*
X79437915Y-65332068D01*
X79437919Y-65332066D01*
X79582666Y-65187319D01*
X79582668Y-65187315D01*
X79582671Y-65187313D01*
X79635432Y-65114690D01*
X79702987Y-65021710D01*
X79795920Y-64839319D01*
X79828922Y-64737748D01*
X109790200Y-64737748D01*
X109790200Y-64942451D01*
X109822222Y-65144634D01*
X109885481Y-65339323D01*
X109978415Y-65521713D01*
X110098728Y-65687313D01*
X110243486Y-65832071D01*
X110398449Y-65944656D01*
X110409090Y-65952387D01*
X110525307Y-66011603D01*
X110591476Y-66045318D01*
X110591478Y-66045318D01*
X110591481Y-66045320D01*
X110695837Y-66079227D01*
X110786165Y-66108577D01*
X110887257Y-66124588D01*
X110988348Y-66140600D01*
X110988349Y-66140600D01*
X111193051Y-66140600D01*
X111193052Y-66140600D01*
X111395234Y-66108577D01*
X111589919Y-66045320D01*
X111772310Y-65952387D01*
X111865290Y-65884832D01*
X111937913Y-65832071D01*
X111937915Y-65832068D01*
X111937919Y-65832066D01*
X112082666Y-65687319D01*
X112082668Y-65687315D01*
X112082671Y-65687313D01*
X112185833Y-65545320D01*
X112202987Y-65521710D01*
X112295920Y-65339319D01*
X112359177Y-65144634D01*
X112391200Y-64942452D01*
X112391200Y-64737748D01*
X112359177Y-64535566D01*
X112295920Y-64340881D01*
X112295917Y-64340877D01*
X112295917Y-64340874D01*
X112269573Y-64289172D01*
X112269572Y-64289171D01*
X112243371Y-64237748D01*
X142290200Y-64237748D01*
X142290200Y-64442451D01*
X142322222Y-64644634D01*
X142385481Y-64839323D01*
X142478415Y-65021713D01*
X142598728Y-65187313D01*
X142743486Y-65332071D01*
X142898449Y-65444656D01*
X142909090Y-65452387D01*
X143025307Y-65511603D01*
X143091476Y-65545318D01*
X143091478Y-65545318D01*
X143091481Y-65545320D01*
X143195837Y-65579227D01*
X143286165Y-65608577D01*
X143387257Y-65624588D01*
X143488348Y-65640600D01*
X143488349Y-65640600D01*
X143693051Y-65640600D01*
X143693052Y-65640600D01*
X143895234Y-65608577D01*
X144089919Y-65545320D01*
X144272310Y-65452387D01*
X144427931Y-65339323D01*
X144437913Y-65332071D01*
X144437915Y-65332068D01*
X144437919Y-65332066D01*
X144582666Y-65187319D01*
X144582668Y-65187315D01*
X144582671Y-65187313D01*
X144635432Y-65114690D01*
X144702987Y-65021710D01*
X144795920Y-64839319D01*
X144859177Y-64644634D01*
X144891200Y-64442452D01*
X144891200Y-64237748D01*
X144859177Y-64035566D01*
X144845309Y-63992886D01*
X144829827Y-63945237D01*
X144795920Y-63840881D01*
X144795918Y-63840878D01*
X144795918Y-63840876D01*
X144738310Y-63727815D01*
X144702987Y-63658490D01*
X144685834Y-63634881D01*
X144582671Y-63492886D01*
X144437913Y-63348128D01*
X144272313Y-63227815D01*
X144272312Y-63227814D01*
X144272310Y-63227813D01*
X144215353Y-63198791D01*
X144089923Y-63134881D01*
X143895234Y-63071622D01*
X143720695Y-63043978D01*
X143693052Y-63039600D01*
X143488348Y-63039600D01*
X143464029Y-63043451D01*
X143286165Y-63071622D01*
X143091476Y-63134881D01*
X142909086Y-63227815D01*
X142743486Y-63348128D01*
X142598728Y-63492886D01*
X142478415Y-63658486D01*
X142385481Y-63840876D01*
X142322222Y-64035565D01*
X142290200Y-64237748D01*
X112243371Y-64237748D01*
X112202984Y-64158485D01*
X112082671Y-63992886D01*
X111937913Y-63848128D01*
X111772313Y-63727815D01*
X111772312Y-63727814D01*
X111772310Y-63727813D01*
X111715353Y-63698791D01*
X111589923Y-63634881D01*
X111395234Y-63571622D01*
X111220695Y-63543978D01*
X111193052Y-63539600D01*
X110988348Y-63539600D01*
X110964029Y-63543451D01*
X110786165Y-63571622D01*
X110591476Y-63634881D01*
X110409086Y-63727815D01*
X110243486Y-63848128D01*
X110098728Y-63992886D01*
X109978415Y-64158486D01*
X109885481Y-64340876D01*
X109822222Y-64535565D01*
X109790200Y-64737748D01*
X79828922Y-64737748D01*
X79859177Y-64644634D01*
X79891200Y-64442452D01*
X79891200Y-64237748D01*
X79859177Y-64035566D01*
X79845309Y-63992886D01*
X79829827Y-63945237D01*
X79795920Y-63840881D01*
X79795918Y-63840878D01*
X79795918Y-63840876D01*
X79738310Y-63727815D01*
X79702987Y-63658490D01*
X79685834Y-63634881D01*
X79582671Y-63492886D01*
X79437913Y-63348128D01*
X79272313Y-63227815D01*
X79272312Y-63227814D01*
X79272310Y-63227813D01*
X79215353Y-63198791D01*
X79089923Y-63134881D01*
X78895234Y-63071622D01*
X78720695Y-63043978D01*
X78693052Y-63039600D01*
X78488348Y-63039600D01*
X78464029Y-63043451D01*
X78286165Y-63071622D01*
X78091476Y-63134881D01*
X77909086Y-63227815D01*
X77743486Y-63348128D01*
X77598728Y-63492886D01*
X77478415Y-63658486D01*
X77385481Y-63840876D01*
X77322222Y-64035565D01*
X77290200Y-64237748D01*
X76091200Y-64237748D01*
X76091200Y-60718851D01*
X80740700Y-60718851D01*
X80740700Y-60961348D01*
X80740701Y-60961364D01*
X80772353Y-61201787D01*
X80835121Y-61436039D01*
X80927920Y-61660078D01*
X80927927Y-61660092D01*
X81049181Y-61870110D01*
X81117761Y-61959484D01*
X81800221Y-61277023D01*
X81891624Y-61413817D01*
X82016983Y-61539176D01*
X82153774Y-61630577D01*
X81471314Y-62313036D01*
X81471314Y-62313037D01*
X81560689Y-62381617D01*
X81560696Y-62381622D01*
X81770707Y-62502872D01*
X81770721Y-62502879D01*
X81994760Y-62595678D01*
X82229012Y-62658446D01*
X82469435Y-62690098D01*
X82469452Y-62690100D01*
X82711948Y-62690100D01*
X82711964Y-62690098D01*
X82952387Y-62658446D01*
X83186639Y-62595678D01*
X83410678Y-62502879D01*
X83410692Y-62502872D01*
X83620716Y-62381615D01*
X83710084Y-62313039D01*
X83710084Y-62313036D01*
X83027624Y-61630577D01*
X83164417Y-61539176D01*
X83289776Y-61413817D01*
X83381177Y-61277024D01*
X84063636Y-61959484D01*
X84063639Y-61959484D01*
X84132215Y-61870116D01*
X84253472Y-61660092D01*
X84253479Y-61660078D01*
X84346278Y-61436039D01*
X84409046Y-61201787D01*
X84440698Y-60961364D01*
X84440700Y-60961348D01*
X84440700Y-60718843D01*
X84440696Y-60718811D01*
X85740200Y-60718811D01*
X85740200Y-60961388D01*
X85771861Y-61201885D01*
X85834647Y-61436204D01*
X85877300Y-61539176D01*
X85927476Y-61660312D01*
X86048764Y-61870389D01*
X86048766Y-61870392D01*
X86048767Y-61870393D01*
X86196433Y-62062836D01*
X86196439Y-62062843D01*
X86367956Y-62234360D01*
X86367962Y-62234365D01*
X86560411Y-62382036D01*
X86770488Y-62503324D01*
X86994600Y-62596154D01*
X87228911Y-62658938D01*
X87409286Y-62682684D01*
X87469411Y-62690600D01*
X87469412Y-62690600D01*
X87711989Y-62690600D01*
X87760088Y-62684267D01*
X87952489Y-62658938D01*
X88186800Y-62596154D01*
X88410912Y-62503324D01*
X88620989Y-62382036D01*
X88813438Y-62234365D01*
X88813443Y-62234360D01*
X88870401Y-62177403D01*
X88984960Y-62062843D01*
X88984965Y-62062838D01*
X89132636Y-61870389D01*
X89253924Y-61660312D01*
X89346754Y-61436200D01*
X89409538Y-61201889D01*
X89441200Y-60961388D01*
X89441200Y-60718851D01*
X97740700Y-60718851D01*
X97740700Y-60961348D01*
X97740701Y-60961364D01*
X97772353Y-61201787D01*
X97835121Y-61436039D01*
X97927920Y-61660078D01*
X97927927Y-61660092D01*
X98049181Y-61870110D01*
X98117761Y-61959484D01*
X98800221Y-61277023D01*
X98891624Y-61413817D01*
X99016983Y-61539176D01*
X99153774Y-61630577D01*
X98471314Y-62313036D01*
X98471314Y-62313037D01*
X98560689Y-62381617D01*
X98560696Y-62381622D01*
X98770707Y-62502872D01*
X98770721Y-62502879D01*
X98994760Y-62595678D01*
X99229012Y-62658446D01*
X99469435Y-62690098D01*
X99469452Y-62690100D01*
X99711948Y-62690100D01*
X99711964Y-62690098D01*
X99952387Y-62658446D01*
X100186639Y-62595678D01*
X100410678Y-62502879D01*
X100410692Y-62502872D01*
X100620716Y-62381615D01*
X100710084Y-62313039D01*
X100710084Y-62313036D01*
X100027624Y-61630577D01*
X100164417Y-61539176D01*
X100289776Y-61413817D01*
X100381177Y-61277024D01*
X101063636Y-61959484D01*
X101063639Y-61959484D01*
X101132215Y-61870116D01*
X101253472Y-61660092D01*
X101253479Y-61660078D01*
X101346278Y-61436039D01*
X101409046Y-61201787D01*
X101440698Y-60961364D01*
X101440700Y-60961348D01*
X101440700Y-60718843D01*
X101440696Y-60718811D01*
X102740200Y-60718811D01*
X102740200Y-60961388D01*
X102771861Y-61201885D01*
X102834647Y-61436204D01*
X102877300Y-61539176D01*
X102927476Y-61660312D01*
X103048764Y-61870389D01*
X103048766Y-61870392D01*
X103048767Y-61870393D01*
X103196433Y-62062836D01*
X103196439Y-62062843D01*
X103367956Y-62234360D01*
X103367962Y-62234365D01*
X103560411Y-62382036D01*
X103770488Y-62503324D01*
X103994600Y-62596154D01*
X104228911Y-62658938D01*
X104409286Y-62682684D01*
X104469411Y-62690600D01*
X104469412Y-62690600D01*
X104711989Y-62690600D01*
X104760088Y-62684267D01*
X104952489Y-62658938D01*
X105186800Y-62596154D01*
X105410912Y-62503324D01*
X105620989Y-62382036D01*
X105813438Y-62234365D01*
X105813443Y-62234360D01*
X105870401Y-62177403D01*
X105984960Y-62062843D01*
X105984965Y-62062838D01*
X106132636Y-61870389D01*
X106253924Y-61660312D01*
X106346754Y-61436200D01*
X106409538Y-61201889D01*
X106441200Y-60961388D01*
X106441200Y-60718851D01*
X116240700Y-60718851D01*
X116240700Y-60961348D01*
X116240701Y-60961364D01*
X116272353Y-61201787D01*
X116335121Y-61436039D01*
X116427920Y-61660078D01*
X116427927Y-61660092D01*
X116549181Y-61870110D01*
X116617761Y-61959484D01*
X117300221Y-61277023D01*
X117391624Y-61413817D01*
X117516983Y-61539176D01*
X117653774Y-61630577D01*
X116971314Y-62313036D01*
X116971314Y-62313037D01*
X117060689Y-62381617D01*
X117060696Y-62381622D01*
X117270707Y-62502872D01*
X117270721Y-62502879D01*
X117494760Y-62595678D01*
X117729012Y-62658446D01*
X117969435Y-62690098D01*
X117969452Y-62690100D01*
X118211948Y-62690100D01*
X118211964Y-62690098D01*
X118452387Y-62658446D01*
X118686639Y-62595678D01*
X118910678Y-62502879D01*
X118910692Y-62502872D01*
X119120716Y-62381615D01*
X119210084Y-62313039D01*
X119210084Y-62313036D01*
X118527624Y-61630577D01*
X118664417Y-61539176D01*
X118789776Y-61413817D01*
X118881177Y-61277024D01*
X119563636Y-61959484D01*
X119563639Y-61959484D01*
X119632215Y-61870116D01*
X119753472Y-61660092D01*
X119753479Y-61660078D01*
X119846278Y-61436039D01*
X119909046Y-61201787D01*
X119940698Y-60961364D01*
X119940700Y-60961348D01*
X119940700Y-60718843D01*
X119940696Y-60718811D01*
X121240200Y-60718811D01*
X121240200Y-60961388D01*
X121271861Y-61201885D01*
X121334647Y-61436204D01*
X121377300Y-61539176D01*
X121427476Y-61660312D01*
X121548764Y-61870389D01*
X121548766Y-61870392D01*
X121548767Y-61870393D01*
X121696433Y-62062836D01*
X121696439Y-62062843D01*
X121867956Y-62234360D01*
X121867962Y-62234365D01*
X122060411Y-62382036D01*
X122270488Y-62503324D01*
X122494600Y-62596154D01*
X122728911Y-62658938D01*
X122909286Y-62682684D01*
X122969411Y-62690600D01*
X122969412Y-62690600D01*
X123211989Y-62690600D01*
X123260088Y-62684267D01*
X123452489Y-62658938D01*
X123686800Y-62596154D01*
X123910912Y-62503324D01*
X124120989Y-62382036D01*
X124313438Y-62234365D01*
X124313443Y-62234360D01*
X124370401Y-62177403D01*
X124484960Y-62062843D01*
X124484965Y-62062838D01*
X124632636Y-61870389D01*
X124753924Y-61660312D01*
X124846754Y-61436200D01*
X124909538Y-61201889D01*
X124941200Y-60961388D01*
X124941200Y-60718851D01*
X132574200Y-60718851D01*
X132574200Y-60961348D01*
X132574201Y-60961364D01*
X132605853Y-61201787D01*
X132668621Y-61436039D01*
X132761420Y-61660078D01*
X132761427Y-61660092D01*
X132882681Y-61870110D01*
X132951261Y-61959484D01*
X133633721Y-61277023D01*
X133725124Y-61413817D01*
X133850483Y-61539176D01*
X133987274Y-61630577D01*
X133304814Y-62313036D01*
X133304814Y-62313037D01*
X133394189Y-62381617D01*
X133394196Y-62381622D01*
X133604207Y-62502872D01*
X133604221Y-62502879D01*
X133828260Y-62595678D01*
X134062512Y-62658446D01*
X134302935Y-62690098D01*
X134302952Y-62690100D01*
X134545448Y-62690100D01*
X134545464Y-62690098D01*
X134785887Y-62658446D01*
X135020139Y-62595678D01*
X135244178Y-62502879D01*
X135244192Y-62502872D01*
X135454216Y-62381615D01*
X135543584Y-62313039D01*
X135543584Y-62313036D01*
X134861124Y-61630577D01*
X134997917Y-61539176D01*
X135123276Y-61413817D01*
X135214677Y-61277024D01*
X135897136Y-61959484D01*
X135897139Y-61959484D01*
X135965715Y-61870116D01*
X136086972Y-61660092D01*
X136086979Y-61660078D01*
X136179778Y-61436039D01*
X136242546Y-61201787D01*
X136274198Y-60961364D01*
X136274200Y-60961348D01*
X136274200Y-60718843D01*
X136274196Y-60718811D01*
X137573700Y-60718811D01*
X137573700Y-60961388D01*
X137605361Y-61201885D01*
X137668147Y-61436204D01*
X137710800Y-61539176D01*
X137760976Y-61660312D01*
X137882264Y-61870389D01*
X137882266Y-61870392D01*
X137882267Y-61870393D01*
X138029933Y-62062836D01*
X138029939Y-62062843D01*
X138201456Y-62234360D01*
X138201462Y-62234365D01*
X138393911Y-62382036D01*
X138603988Y-62503324D01*
X138828100Y-62596154D01*
X139062411Y-62658938D01*
X139242786Y-62682684D01*
X139302911Y-62690600D01*
X139302912Y-62690600D01*
X139545489Y-62690600D01*
X139593588Y-62684267D01*
X139785989Y-62658938D01*
X140020300Y-62596154D01*
X140244412Y-62503324D01*
X140454489Y-62382036D01*
X140646938Y-62234365D01*
X140818465Y-62062838D01*
X140966136Y-61870389D01*
X141087424Y-61660312D01*
X141180254Y-61436200D01*
X141243038Y-61201889D01*
X141274700Y-60961388D01*
X141274700Y-60718812D01*
X141243038Y-60478311D01*
X141180254Y-60244000D01*
X141087424Y-60019888D01*
X140966136Y-59809811D01*
X140818465Y-59617362D01*
X140818460Y-59617356D01*
X140646943Y-59445839D01*
X140646936Y-59445833D01*
X140454493Y-59298167D01*
X140454492Y-59298166D01*
X140454489Y-59298164D01*
X140244412Y-59176876D01*
X140244405Y-59176873D01*
X140020304Y-59084047D01*
X139785985Y-59021261D01*
X139545489Y-58989600D01*
X139545488Y-58989600D01*
X139302912Y-58989600D01*
X139302911Y-58989600D01*
X139062414Y-59021261D01*
X138828095Y-59084047D01*
X138603994Y-59176873D01*
X138603985Y-59176877D01*
X138393906Y-59298167D01*
X138201463Y-59445833D01*
X138201456Y-59445839D01*
X138029939Y-59617356D01*
X138029933Y-59617363D01*
X137882267Y-59809806D01*
X137882264Y-59809810D01*
X137882264Y-59809811D01*
X137866017Y-59837951D01*
X137760977Y-60019885D01*
X137760973Y-60019894D01*
X137668147Y-60243995D01*
X137605361Y-60478314D01*
X137573700Y-60718811D01*
X136274196Y-60718811D01*
X136242546Y-60478412D01*
X136179778Y-60244160D01*
X136086979Y-60020121D01*
X136086972Y-60020107D01*
X135965722Y-59810096D01*
X135965717Y-59810089D01*
X135897137Y-59720714D01*
X135897136Y-59720714D01*
X135214676Y-60403174D01*
X135123276Y-60266383D01*
X134997917Y-60141024D01*
X134861123Y-60049621D01*
X135543584Y-59367161D01*
X135454210Y-59298581D01*
X135244192Y-59177327D01*
X135244178Y-59177320D01*
X135020139Y-59084521D01*
X134785887Y-59021753D01*
X134545464Y-58990101D01*
X134545448Y-58990100D01*
X134302952Y-58990100D01*
X134302935Y-58990101D01*
X134062512Y-59021753D01*
X133828260Y-59084521D01*
X133604221Y-59177320D01*
X133604206Y-59177327D01*
X133394190Y-59298580D01*
X133304814Y-59367160D01*
X133304814Y-59367161D01*
X133987275Y-60049622D01*
X133850483Y-60141024D01*
X133725124Y-60266383D01*
X133633722Y-60403175D01*
X132951261Y-59720714D01*
X132951260Y-59720714D01*
X132882680Y-59810090D01*
X132761427Y-60020106D01*
X132761420Y-60020121D01*
X132668621Y-60244160D01*
X132605853Y-60478412D01*
X132574201Y-60718835D01*
X132574200Y-60718851D01*
X124941200Y-60718851D01*
X124941200Y-60718812D01*
X124909538Y-60478311D01*
X124846754Y-60244000D01*
X124753924Y-60019888D01*
X124632636Y-59809811D01*
X124484965Y-59617362D01*
X124484960Y-59617356D01*
X124313443Y-59445839D01*
X124313436Y-59445833D01*
X124120993Y-59298167D01*
X124120992Y-59298166D01*
X124120989Y-59298164D01*
X123910912Y-59176876D01*
X123910905Y-59176873D01*
X123686804Y-59084047D01*
X123452485Y-59021261D01*
X123211989Y-58989600D01*
X123211988Y-58989600D01*
X122969412Y-58989600D01*
X122969411Y-58989600D01*
X122728914Y-59021261D01*
X122494595Y-59084047D01*
X122270494Y-59176873D01*
X122270485Y-59176877D01*
X122060406Y-59298167D01*
X121867963Y-59445833D01*
X121867956Y-59445839D01*
X121696439Y-59617356D01*
X121696433Y-59617363D01*
X121548767Y-59809806D01*
X121548764Y-59809810D01*
X121548764Y-59809811D01*
X121532517Y-59837951D01*
X121427477Y-60019885D01*
X121427473Y-60019894D01*
X121334647Y-60243995D01*
X121271861Y-60478314D01*
X121240200Y-60718811D01*
X119940696Y-60718811D01*
X119909046Y-60478412D01*
X119846278Y-60244160D01*
X119753479Y-60020121D01*
X119753472Y-60020107D01*
X119632222Y-59810096D01*
X119632217Y-59810089D01*
X119563637Y-59720714D01*
X119563636Y-59720714D01*
X118881176Y-60403174D01*
X118789776Y-60266383D01*
X118664417Y-60141024D01*
X118527623Y-60049621D01*
X119210084Y-59367161D01*
X119120710Y-59298581D01*
X118910692Y-59177327D01*
X118910678Y-59177320D01*
X118686639Y-59084521D01*
X118452387Y-59021753D01*
X118211964Y-58990101D01*
X118211948Y-58990100D01*
X117969452Y-58990100D01*
X117969435Y-58990101D01*
X117729012Y-59021753D01*
X117494760Y-59084521D01*
X117270721Y-59177320D01*
X117270706Y-59177327D01*
X117060690Y-59298580D01*
X116971314Y-59367160D01*
X116971314Y-59367161D01*
X117653775Y-60049622D01*
X117516983Y-60141024D01*
X117391624Y-60266383D01*
X117300222Y-60403175D01*
X116617761Y-59720714D01*
X116617760Y-59720714D01*
X116549180Y-59810090D01*
X116427927Y-60020106D01*
X116427920Y-60020121D01*
X116335121Y-60244160D01*
X116272353Y-60478412D01*
X116240701Y-60718835D01*
X116240700Y-60718851D01*
X106441200Y-60718851D01*
X106441200Y-60718812D01*
X106409538Y-60478311D01*
X106346754Y-60244000D01*
X106253924Y-60019888D01*
X106132636Y-59809811D01*
X105984965Y-59617362D01*
X105984960Y-59617356D01*
X105813443Y-59445839D01*
X105813436Y-59445833D01*
X105620993Y-59298167D01*
X105620992Y-59298166D01*
X105620989Y-59298164D01*
X105410912Y-59176876D01*
X105410905Y-59176873D01*
X105186804Y-59084047D01*
X104952485Y-59021261D01*
X104711989Y-58989600D01*
X104711988Y-58989600D01*
X104469412Y-58989600D01*
X104469411Y-58989600D01*
X104228914Y-59021261D01*
X103994595Y-59084047D01*
X103770494Y-59176873D01*
X103770485Y-59176877D01*
X103560406Y-59298167D01*
X103367963Y-59445833D01*
X103367956Y-59445839D01*
X103196439Y-59617356D01*
X103196433Y-59617363D01*
X103048767Y-59809806D01*
X103048764Y-59809810D01*
X103048764Y-59809811D01*
X103032517Y-59837951D01*
X102927477Y-60019885D01*
X102927473Y-60019894D01*
X102834647Y-60243995D01*
X102771861Y-60478314D01*
X102740200Y-60718811D01*
X101440696Y-60718811D01*
X101409046Y-60478412D01*
X101346278Y-60244160D01*
X101253479Y-60020121D01*
X101253472Y-60020107D01*
X101132222Y-59810096D01*
X101132217Y-59810089D01*
X101063637Y-59720714D01*
X101063636Y-59720714D01*
X100381176Y-60403174D01*
X100289776Y-60266383D01*
X100164417Y-60141024D01*
X100027623Y-60049621D01*
X100710084Y-59367161D01*
X100620710Y-59298581D01*
X100410692Y-59177327D01*
X100410678Y-59177320D01*
X100186639Y-59084521D01*
X99952387Y-59021753D01*
X99711964Y-58990101D01*
X99711948Y-58990100D01*
X99469452Y-58990100D01*
X99469435Y-58990101D01*
X99229012Y-59021753D01*
X98994760Y-59084521D01*
X98770721Y-59177320D01*
X98770706Y-59177327D01*
X98560690Y-59298580D01*
X98471314Y-59367160D01*
X98471314Y-59367161D01*
X99153775Y-60049622D01*
X99016983Y-60141024D01*
X98891624Y-60266383D01*
X98800222Y-60403175D01*
X98117761Y-59720714D01*
X98117760Y-59720714D01*
X98049180Y-59810090D01*
X97927927Y-60020106D01*
X97927920Y-60020121D01*
X97835121Y-60244160D01*
X97772353Y-60478412D01*
X97740701Y-60718835D01*
X97740700Y-60718851D01*
X89441200Y-60718851D01*
X89441200Y-60718812D01*
X89409538Y-60478311D01*
X89346754Y-60244000D01*
X89253924Y-60019888D01*
X89132636Y-59809811D01*
X88984965Y-59617362D01*
X88984960Y-59617356D01*
X88813443Y-59445839D01*
X88813436Y-59445833D01*
X88620993Y-59298167D01*
X88620992Y-59298166D01*
X88620989Y-59298164D01*
X88410912Y-59176876D01*
X88410905Y-59176873D01*
X88186804Y-59084047D01*
X87952485Y-59021261D01*
X87711989Y-58989600D01*
X87711988Y-58989600D01*
X87469412Y-58989600D01*
X87469411Y-58989600D01*
X87228914Y-59021261D01*
X86994595Y-59084047D01*
X86770494Y-59176873D01*
X86770485Y-59176877D01*
X86560406Y-59298167D01*
X86367963Y-59445833D01*
X86367956Y-59445839D01*
X86196439Y-59617356D01*
X86196433Y-59617363D01*
X86048767Y-59809806D01*
X86048764Y-59809810D01*
X86048764Y-59809811D01*
X86032517Y-59837951D01*
X85927477Y-60019885D01*
X85927473Y-60019894D01*
X85834647Y-60243995D01*
X85771861Y-60478314D01*
X85740200Y-60718811D01*
X84440696Y-60718811D01*
X84409046Y-60478412D01*
X84346278Y-60244160D01*
X84253479Y-60020121D01*
X84253472Y-60020107D01*
X84132222Y-59810096D01*
X84132217Y-59810089D01*
X84063637Y-59720714D01*
X84063636Y-59720714D01*
X83381176Y-60403174D01*
X83289776Y-60266383D01*
X83164417Y-60141024D01*
X83027623Y-60049621D01*
X83710084Y-59367161D01*
X83620710Y-59298581D01*
X83410692Y-59177327D01*
X83410678Y-59177320D01*
X83186639Y-59084521D01*
X82952387Y-59021753D01*
X82711964Y-58990101D01*
X82711948Y-58990100D01*
X82469452Y-58990100D01*
X82469435Y-58990101D01*
X82229012Y-59021753D01*
X81994760Y-59084521D01*
X81770721Y-59177320D01*
X81770706Y-59177327D01*
X81560690Y-59298580D01*
X81471314Y-59367160D01*
X81471314Y-59367161D01*
X82153775Y-60049622D01*
X82016983Y-60141024D01*
X81891624Y-60266383D01*
X81800222Y-60403175D01*
X81117761Y-59720714D01*
X81117760Y-59720714D01*
X81049180Y-59810090D01*
X80927927Y-60020106D01*
X80927920Y-60020121D01*
X80835121Y-60244160D01*
X80772353Y-60478412D01*
X80740701Y-60718835D01*
X80740700Y-60718851D01*
X76091200Y-60718851D01*
X76091200Y-56964600D01*
X76110885Y-56897561D01*
X76163689Y-56851806D01*
X76215200Y-56840600D01*
X145966200Y-56840600D01*
X146033239Y-56860285D01*
G37*
%TD.AperFunction*%
%TD*%
M02*
