%TF.GenerationSoftware,KiCad,Pcbnew,9.0.4-9.0.4-0~ubuntu24.04.1*%
%TF.CreationDate,2025-09-24T17:28:49+03:00*%
%TF.ProjectId,Linear_actuator_MCU_Bridge_circuit,4c696e65-6172-45f6-9163-747561746f72,rev?*%
%TF.SameCoordinates,Original*%
%TF.FileFunction,Copper,L2,Bot*%
%TF.FilePolarity,Positive*%
%FSLAX46Y46*%
G04 Gerber Fmt 4.6, Leading zero omitted, Abs format (unit mm)*
G04 Created by KiCad (PCBNEW 9.0.4-9.0.4-0~ubuntu24.04.1) date 2025-09-24 17:28:49*
%MOMM*%
%LPD*%
G01*
G04 APERTURE LIST*
%TA.AperFunction,ComponentPad*%
%ADD10C,2.700000*%
%TD*%
%TA.AperFunction,ComponentPad*%
%ADD11C,2.108200*%
%TD*%
G04 APERTURE END LIST*
D10*
%TO.P,U1,P$1,+*%
%TO.N,+24V*%
X134424200Y-60840100D03*
%TO.P,U1,P$2,-*%
%TO.N,GNDPWR*%
X139424200Y-60840100D03*
%TD*%
D11*
%TO.P,J2,1*%
%TO.N,+24V*%
X117757200Y-68555500D03*
%TO.P,J2,2*%
%TO.N,GNDPWR*%
X122761000Y-68555500D03*
%TD*%
%TO.P,J3,1*%
%TO.N,+24V*%
X99757200Y-68555500D03*
%TO.P,J3,2*%
%TO.N,GNDPWR*%
X104761000Y-68555500D03*
%TD*%
D10*
%TO.P,U2,P$1,+*%
%TO.N,+24V*%
X118090700Y-60840100D03*
%TO.P,U2,P$2,-*%
%TO.N,GNDPWR*%
X123090700Y-60840100D03*
%TD*%
%TO.P,U4,P$1,+*%
%TO.N,+24V*%
X82590700Y-60840100D03*
%TO.P,U4,P$2,-*%
%TO.N,GNDPWR*%
X87590700Y-60840100D03*
%TD*%
%TO.P,U3,P$1,+*%
%TO.N,+24V*%
X99590700Y-60840100D03*
%TO.P,U3,P$2,-*%
%TO.N,GNDPWR*%
X104590700Y-60840100D03*
%TD*%
D11*
%TO.P,J4,1*%
%TO.N,+24V*%
X82608000Y-68555500D03*
%TO.P,J4,2*%
%TO.N,GNDPWR*%
X87611800Y-68555500D03*
%TD*%
%TO.P,J1,1*%
%TO.N,+24V*%
X134590700Y-68555500D03*
%TO.P,J1,2*%
%TO.N,GNDPWR*%
X139594500Y-68555500D03*
%TD*%
%TA.AperFunction,Conductor*%
%TO.N,GNDPWR*%
G36*
X146033239Y-56860285D02*
G01*
X146078994Y-56913089D01*
X146090200Y-56964600D01*
X146090200Y-80715600D01*
X146070515Y-80782639D01*
X146017711Y-80828394D01*
X145966200Y-80839600D01*
X76215200Y-80839600D01*
X76148161Y-80819915D01*
X76102406Y-80767111D01*
X76091200Y-80715600D01*
X76091200Y-68433150D01*
X81053400Y-68433150D01*
X81053400Y-68677849D01*
X81091680Y-68919537D01*
X81091680Y-68919540D01*
X81167294Y-69152256D01*
X81167296Y-69152259D01*
X81278387Y-69370288D01*
X81422218Y-69568254D01*
X81595246Y-69741282D01*
X81793212Y-69885113D01*
X82011241Y-69996204D01*
X82011243Y-69996205D01*
X82228311Y-70066734D01*
X82243964Y-70071820D01*
X82485650Y-70110100D01*
X82485651Y-70110100D01*
X82730349Y-70110100D01*
X82730350Y-70110100D01*
X82972036Y-70071820D01*
X82972039Y-70071819D01*
X82972040Y-70071819D01*
X83204756Y-69996205D01*
X83204756Y-69996204D01*
X83204759Y-69996204D01*
X83422788Y-69885113D01*
X83620754Y-69741282D01*
X83793782Y-69568254D01*
X83937613Y-69370288D01*
X84048704Y-69152259D01*
X84076883Y-69065534D01*
X84124319Y-68919540D01*
X84124319Y-68919539D01*
X84124320Y-68919536D01*
X84162600Y-68677850D01*
X84162600Y-68433184D01*
X86057700Y-68433184D01*
X86057700Y-68677815D01*
X86095966Y-68919419D01*
X86171561Y-69152071D01*
X86282614Y-69370026D01*
X86350409Y-69463336D01*
X86350409Y-69463337D01*
X86895877Y-68917869D01*
X86902761Y-68934489D01*
X86990322Y-69065534D01*
X87101766Y-69176978D01*
X87232811Y-69264539D01*
X87249429Y-69271422D01*
X86703961Y-69816889D01*
X86797273Y-69884685D01*
X87015228Y-69995738D01*
X87247880Y-70071333D01*
X87489485Y-70109600D01*
X87734115Y-70109600D01*
X87975719Y-70071333D01*
X88208371Y-69995738D01*
X88426326Y-69884685D01*
X88519637Y-69816889D01*
X87974170Y-69271422D01*
X87990789Y-69264539D01*
X88121834Y-69176978D01*
X88233278Y-69065534D01*
X88320839Y-68934489D01*
X88327722Y-68917870D01*
X88873189Y-69463337D01*
X88873189Y-69463336D01*
X88940985Y-69370026D01*
X89052038Y-69152071D01*
X89127633Y-68919419D01*
X89165900Y-68677815D01*
X89165900Y-68433184D01*
X89165895Y-68433150D01*
X98202600Y-68433150D01*
X98202600Y-68677849D01*
X98240880Y-68919537D01*
X98240880Y-68919540D01*
X98316494Y-69152256D01*
X98316496Y-69152259D01*
X98427587Y-69370288D01*
X98571418Y-69568254D01*
X98744446Y-69741282D01*
X98942412Y-69885113D01*
X99160441Y-69996204D01*
X99160443Y-69996205D01*
X99377511Y-70066734D01*
X99393164Y-70071820D01*
X99634850Y-70110100D01*
X99634851Y-70110100D01*
X99879549Y-70110100D01*
X99879550Y-70110100D01*
X100121236Y-70071820D01*
X100121239Y-70071819D01*
X100121240Y-70071819D01*
X100353956Y-69996205D01*
X100353956Y-69996204D01*
X100353959Y-69996204D01*
X100571988Y-69885113D01*
X100769954Y-69741282D01*
X100942982Y-69568254D01*
X101086813Y-69370288D01*
X101197904Y-69152259D01*
X101226083Y-69065534D01*
X101273519Y-68919540D01*
X101273519Y-68919539D01*
X101273520Y-68919536D01*
X101311800Y-68677850D01*
X101311800Y-68433184D01*
X103206900Y-68433184D01*
X103206900Y-68677815D01*
X103245166Y-68919419D01*
X103320761Y-69152071D01*
X103431814Y-69370026D01*
X103499609Y-69463336D01*
X103499609Y-69463337D01*
X104045077Y-68917869D01*
X104051961Y-68934489D01*
X104139522Y-69065534D01*
X104250966Y-69176978D01*
X104382011Y-69264539D01*
X104398629Y-69271422D01*
X103853161Y-69816889D01*
X103946473Y-69884685D01*
X104164428Y-69995738D01*
X104397080Y-70071333D01*
X104638685Y-70109600D01*
X104883315Y-70109600D01*
X105124919Y-70071333D01*
X105357571Y-69995738D01*
X105575526Y-69884685D01*
X105668836Y-69816889D01*
X105123369Y-69271422D01*
X105139989Y-69264539D01*
X105271034Y-69176978D01*
X105382478Y-69065534D01*
X105470039Y-68934489D01*
X105476922Y-68917870D01*
X106022389Y-69463337D01*
X106022389Y-69463336D01*
X106090185Y-69370026D01*
X106201238Y-69152071D01*
X106276833Y-68919419D01*
X106315100Y-68677815D01*
X106315100Y-68433184D01*
X106315095Y-68433150D01*
X116202600Y-68433150D01*
X116202600Y-68677849D01*
X116240880Y-68919537D01*
X116240880Y-68919540D01*
X116316494Y-69152256D01*
X116316496Y-69152259D01*
X116427587Y-69370288D01*
X116571418Y-69568254D01*
X116744446Y-69741282D01*
X116942412Y-69885113D01*
X117160441Y-69996204D01*
X117160443Y-69996205D01*
X117377511Y-70066734D01*
X117393164Y-70071820D01*
X117634850Y-70110100D01*
X117634851Y-70110100D01*
X117879549Y-70110100D01*
X117879550Y-70110100D01*
X118121236Y-70071820D01*
X118121239Y-70071819D01*
X118121240Y-70071819D01*
X118353956Y-69996205D01*
X118353956Y-69996204D01*
X118353959Y-69996204D01*
X118571988Y-69885113D01*
X118769954Y-69741282D01*
X118942982Y-69568254D01*
X119086813Y-69370288D01*
X119197904Y-69152259D01*
X119226083Y-69065534D01*
X119273519Y-68919540D01*
X119273519Y-68919539D01*
X119273520Y-68919536D01*
X119311800Y-68677850D01*
X119311800Y-68433184D01*
X121206900Y-68433184D01*
X121206900Y-68677815D01*
X121245166Y-68919419D01*
X121320761Y-69152071D01*
X121431814Y-69370026D01*
X121499609Y-69463336D01*
X121499609Y-69463337D01*
X122045077Y-68917869D01*
X122051961Y-68934489D01*
X122139522Y-69065534D01*
X122250966Y-69176978D01*
X122382011Y-69264539D01*
X122398629Y-69271422D01*
X121853161Y-69816889D01*
X121946473Y-69884685D01*
X122164428Y-69995738D01*
X122397080Y-70071333D01*
X122638685Y-70109600D01*
X122883315Y-70109600D01*
X123124919Y-70071333D01*
X123357571Y-69995738D01*
X123575526Y-69884685D01*
X123668836Y-69816889D01*
X123123369Y-69271422D01*
X123139989Y-69264539D01*
X123271034Y-69176978D01*
X123382478Y-69065534D01*
X123470039Y-68934489D01*
X123476922Y-68917869D01*
X124022389Y-69463336D01*
X124090185Y-69370026D01*
X124201238Y-69152071D01*
X124276833Y-68919419D01*
X124315100Y-68677815D01*
X124315100Y-68433184D01*
X124315095Y-68433150D01*
X133036100Y-68433150D01*
X133036100Y-68677849D01*
X133074380Y-68919537D01*
X133074380Y-68919540D01*
X133149994Y-69152256D01*
X133149996Y-69152259D01*
X133261087Y-69370288D01*
X133404918Y-69568254D01*
X133577946Y-69741282D01*
X133775912Y-69885113D01*
X133993941Y-69996204D01*
X133993943Y-69996205D01*
X134211011Y-70066734D01*
X134226664Y-70071820D01*
X134468350Y-70110100D01*
X134468351Y-70110100D01*
X134713049Y-70110100D01*
X134713050Y-70110100D01*
X134954736Y-70071820D01*
X134954739Y-70071819D01*
X134954740Y-70071819D01*
X135187456Y-69996205D01*
X135187456Y-69996204D01*
X135187459Y-69996204D01*
X135405488Y-69885113D01*
X135603454Y-69741282D01*
X135776482Y-69568254D01*
X135920313Y-69370288D01*
X136031404Y-69152259D01*
X136059583Y-69065534D01*
X136107019Y-68919540D01*
X136107019Y-68919539D01*
X136107020Y-68919536D01*
X136145300Y-68677850D01*
X136145300Y-68433184D01*
X138040400Y-68433184D01*
X138040400Y-68677815D01*
X138078666Y-68919419D01*
X138154261Y-69152071D01*
X138265314Y-69370026D01*
X138333109Y-69463336D01*
X138333109Y-69463337D01*
X138878577Y-68917869D01*
X138885461Y-68934489D01*
X138973022Y-69065534D01*
X139084466Y-69176978D01*
X139215511Y-69264539D01*
X139232129Y-69271422D01*
X138686661Y-69816889D01*
X138779973Y-69884685D01*
X138997928Y-69995738D01*
X139230580Y-70071333D01*
X139472185Y-70109600D01*
X139716815Y-70109600D01*
X139958419Y-70071333D01*
X140191071Y-69995738D01*
X140409026Y-69884685D01*
X140502336Y-69816889D01*
X139956869Y-69271422D01*
X139973489Y-69264539D01*
X140104534Y-69176978D01*
X140215978Y-69065534D01*
X140303539Y-68934489D01*
X140310422Y-68917869D01*
X140855889Y-69463336D01*
X140923685Y-69370026D01*
X141034738Y-69152071D01*
X141110333Y-68919419D01*
X141148600Y-68677815D01*
X141148600Y-68433184D01*
X141110333Y-68191580D01*
X141034738Y-67958928D01*
X140923685Y-67740973D01*
X140855889Y-67647662D01*
X140855889Y-67647661D01*
X140310422Y-68193128D01*
X140303539Y-68176511D01*
X140215978Y-68045466D01*
X140104534Y-67934022D01*
X139973489Y-67846461D01*
X139956868Y-67839576D01*
X140502337Y-67294109D01*
X140409026Y-67226314D01*
X140191071Y-67115261D01*
X139958419Y-67039666D01*
X139716815Y-67001400D01*
X139472185Y-67001400D01*
X139230580Y-67039666D01*
X138997928Y-67115261D01*
X138779969Y-67226316D01*
X138686662Y-67294107D01*
X138686661Y-67294109D01*
X139232129Y-67839577D01*
X139215511Y-67846461D01*
X139084466Y-67934022D01*
X138973022Y-68045466D01*
X138885461Y-68176511D01*
X138878577Y-68193129D01*
X138333109Y-67647661D01*
X138333107Y-67647662D01*
X138265316Y-67740969D01*
X138154261Y-67958928D01*
X138078666Y-68191580D01*
X138040400Y-68433184D01*
X136145300Y-68433184D01*
X136145300Y-68433150D01*
X136107020Y-68191464D01*
X136107019Y-68191460D01*
X136107019Y-68191459D01*
X136031405Y-67958743D01*
X136031403Y-67958740D01*
X135974195Y-67846461D01*
X135920313Y-67740712D01*
X135776482Y-67542746D01*
X135603454Y-67369718D01*
X135405488Y-67225887D01*
X135187459Y-67114796D01*
X135187456Y-67114794D01*
X134954738Y-67039180D01*
X134793612Y-67013660D01*
X134713050Y-67000900D01*
X134468350Y-67000900D01*
X134387788Y-67013660D01*
X134226662Y-67039180D01*
X134226659Y-67039180D01*
X133993943Y-67114794D01*
X133993940Y-67114796D01*
X133775911Y-67225887D01*
X133662965Y-67307947D01*
X133577946Y-67369718D01*
X133577944Y-67369720D01*
X133577943Y-67369720D01*
X133404920Y-67542743D01*
X133404920Y-67542744D01*
X133404918Y-67542746D01*
X133343147Y-67627765D01*
X133261087Y-67740711D01*
X133149996Y-67958740D01*
X133149994Y-67958743D01*
X133074380Y-68191459D01*
X133074380Y-68191462D01*
X133036100Y-68433150D01*
X124315095Y-68433150D01*
X124276833Y-68191580D01*
X124201238Y-67958928D01*
X124090185Y-67740973D01*
X124022389Y-67647662D01*
X124022389Y-67647661D01*
X123476922Y-68193128D01*
X123470039Y-68176511D01*
X123382478Y-68045466D01*
X123271034Y-67934022D01*
X123139989Y-67846461D01*
X123123368Y-67839576D01*
X123668837Y-67294109D01*
X123575526Y-67226314D01*
X123357571Y-67115261D01*
X123124919Y-67039666D01*
X122883315Y-67001400D01*
X122638685Y-67001400D01*
X122397080Y-67039666D01*
X122164428Y-67115261D01*
X121946469Y-67226316D01*
X121853162Y-67294107D01*
X121853161Y-67294109D01*
X122398629Y-67839577D01*
X122382011Y-67846461D01*
X122250966Y-67934022D01*
X122139522Y-68045466D01*
X122051961Y-68176511D01*
X122045077Y-68193129D01*
X121499609Y-67647661D01*
X121499607Y-67647662D01*
X121431816Y-67740969D01*
X121320761Y-67958928D01*
X121245166Y-68191580D01*
X121206900Y-68433184D01*
X119311800Y-68433184D01*
X119311800Y-68433150D01*
X119273520Y-68191464D01*
X119273519Y-68191460D01*
X119273519Y-68191459D01*
X119197905Y-67958743D01*
X119197903Y-67958740D01*
X119140695Y-67846461D01*
X119086813Y-67740712D01*
X118942982Y-67542746D01*
X118769954Y-67369718D01*
X118571988Y-67225887D01*
X118353959Y-67114796D01*
X118353956Y-67114794D01*
X118121238Y-67039180D01*
X117960112Y-67013660D01*
X117879550Y-67000900D01*
X117634850Y-67000900D01*
X117554288Y-67013660D01*
X117393162Y-67039180D01*
X117393159Y-67039180D01*
X117160443Y-67114794D01*
X117160440Y-67114796D01*
X116942411Y-67225887D01*
X116829465Y-67307947D01*
X116744446Y-67369718D01*
X116744444Y-67369720D01*
X116744443Y-67369720D01*
X116571420Y-67542743D01*
X116571420Y-67542744D01*
X116571418Y-67542746D01*
X116509647Y-67627765D01*
X116427587Y-67740711D01*
X116316496Y-67958740D01*
X116316494Y-67958743D01*
X116240880Y-68191459D01*
X116240880Y-68191462D01*
X116202600Y-68433150D01*
X106315095Y-68433150D01*
X106276833Y-68191580D01*
X106201238Y-67958928D01*
X106090185Y-67740973D01*
X106022389Y-67647662D01*
X106022389Y-67647661D01*
X105476922Y-68193128D01*
X105470039Y-68176511D01*
X105382478Y-68045466D01*
X105271034Y-67934022D01*
X105139989Y-67846461D01*
X105123368Y-67839576D01*
X105668837Y-67294109D01*
X105575526Y-67226314D01*
X105357571Y-67115261D01*
X105124919Y-67039666D01*
X104883315Y-67001400D01*
X104638685Y-67001400D01*
X104397080Y-67039666D01*
X104164428Y-67115261D01*
X103946469Y-67226316D01*
X103853162Y-67294107D01*
X103853161Y-67294109D01*
X104398629Y-67839577D01*
X104382011Y-67846461D01*
X104250966Y-67934022D01*
X104139522Y-68045466D01*
X104051961Y-68176511D01*
X104045077Y-68193129D01*
X103499609Y-67647661D01*
X103499607Y-67647662D01*
X103431816Y-67740969D01*
X103320761Y-67958928D01*
X103245166Y-68191580D01*
X103206900Y-68433184D01*
X101311800Y-68433184D01*
X101311800Y-68433150D01*
X101273520Y-68191464D01*
X101273519Y-68191460D01*
X101273519Y-68191459D01*
X101197905Y-67958743D01*
X101197903Y-67958740D01*
X101140695Y-67846461D01*
X101086813Y-67740712D01*
X100942982Y-67542746D01*
X100769954Y-67369718D01*
X100571988Y-67225887D01*
X100353959Y-67114796D01*
X100353956Y-67114794D01*
X100121238Y-67039180D01*
X99960112Y-67013660D01*
X99879550Y-67000900D01*
X99634850Y-67000900D01*
X99554288Y-67013660D01*
X99393162Y-67039180D01*
X99393159Y-67039180D01*
X99160443Y-67114794D01*
X99160440Y-67114796D01*
X98942411Y-67225887D01*
X98829465Y-67307947D01*
X98744446Y-67369718D01*
X98744444Y-67369720D01*
X98744443Y-67369720D01*
X98571420Y-67542743D01*
X98571420Y-67542744D01*
X98571418Y-67542746D01*
X98509647Y-67627765D01*
X98427587Y-67740711D01*
X98316496Y-67958740D01*
X98316494Y-67958743D01*
X98240880Y-68191459D01*
X98240880Y-68191462D01*
X98202600Y-68433150D01*
X89165895Y-68433150D01*
X89127633Y-68191580D01*
X89052038Y-67958928D01*
X88940985Y-67740973D01*
X88873189Y-67647662D01*
X88873189Y-67647661D01*
X88327722Y-68193128D01*
X88320839Y-68176511D01*
X88233278Y-68045466D01*
X88121834Y-67934022D01*
X87990789Y-67846461D01*
X87974168Y-67839576D01*
X88519637Y-67294109D01*
X88426326Y-67226314D01*
X88208371Y-67115261D01*
X87975719Y-67039666D01*
X87734115Y-67001400D01*
X87489485Y-67001400D01*
X87247880Y-67039666D01*
X87015228Y-67115261D01*
X86797269Y-67226316D01*
X86703962Y-67294107D01*
X86703961Y-67294109D01*
X87249429Y-67839577D01*
X87232811Y-67846461D01*
X87101766Y-67934022D01*
X86990322Y-68045466D01*
X86902761Y-68176511D01*
X86895877Y-68193129D01*
X86350409Y-67647661D01*
X86350407Y-67647662D01*
X86282616Y-67740969D01*
X86171561Y-67958928D01*
X86095966Y-68191580D01*
X86057700Y-68433184D01*
X84162600Y-68433184D01*
X84162600Y-68433150D01*
X84124320Y-68191464D01*
X84124319Y-68191460D01*
X84124319Y-68191459D01*
X84048705Y-67958743D01*
X84048703Y-67958740D01*
X83991495Y-67846461D01*
X83937613Y-67740712D01*
X83793782Y-67542746D01*
X83620754Y-67369718D01*
X83422788Y-67225887D01*
X83204759Y-67114796D01*
X83204756Y-67114794D01*
X82972038Y-67039180D01*
X82810912Y-67013660D01*
X82730350Y-67000900D01*
X82485650Y-67000900D01*
X82405088Y-67013660D01*
X82243962Y-67039180D01*
X82243959Y-67039180D01*
X82011243Y-67114794D01*
X82011240Y-67114796D01*
X81793211Y-67225887D01*
X81680265Y-67307947D01*
X81595246Y-67369718D01*
X81595244Y-67369720D01*
X81595243Y-67369720D01*
X81422220Y-67542743D01*
X81422220Y-67542744D01*
X81422218Y-67542746D01*
X81360447Y-67627765D01*
X81278387Y-67740711D01*
X81167296Y-67958740D01*
X81167294Y-67958743D01*
X81091680Y-68191459D01*
X81091680Y-68191462D01*
X81053400Y-68433150D01*
X76091200Y-68433150D01*
X76091200Y-64237748D01*
X77290200Y-64237748D01*
X77290200Y-64442451D01*
X77322222Y-64644634D01*
X77385481Y-64839323D01*
X77478415Y-65021713D01*
X77598728Y-65187313D01*
X77743486Y-65332071D01*
X77898449Y-65444656D01*
X77909090Y-65452387D01*
X78025307Y-65511603D01*
X78091476Y-65545318D01*
X78091478Y-65545318D01*
X78091481Y-65545320D01*
X78195837Y-65579227D01*
X78286165Y-65608577D01*
X78387257Y-65624588D01*
X78488348Y-65640600D01*
X78488349Y-65640600D01*
X78693051Y-65640600D01*
X78693052Y-65640600D01*
X78895234Y-65608577D01*
X79089919Y-65545320D01*
X79272310Y-65452387D01*
X79427931Y-65339323D01*
X79437913Y-65332071D01*
X79437915Y-65332068D01*
X79437919Y-65332066D01*
X79582666Y-65187319D01*
X79582668Y-65187315D01*
X79582671Y-65187313D01*
X79635432Y-65114690D01*
X79702987Y-65021710D01*
X79795920Y-64839319D01*
X79828922Y-64737748D01*
X109790200Y-64737748D01*
X109790200Y-64942451D01*
X109822222Y-65144634D01*
X109885481Y-65339323D01*
X109978415Y-65521713D01*
X110098728Y-65687313D01*
X110243486Y-65832071D01*
X110398449Y-65944656D01*
X110409090Y-65952387D01*
X110525307Y-66011603D01*
X110591476Y-66045318D01*
X110591478Y-66045318D01*
X110591481Y-66045320D01*
X110695837Y-66079227D01*
X110786165Y-66108577D01*
X110887257Y-66124588D01*
X110988348Y-66140600D01*
X110988349Y-66140600D01*
X111193051Y-66140600D01*
X111193052Y-66140600D01*
X111395234Y-66108577D01*
X111589919Y-66045320D01*
X111772310Y-65952387D01*
X111865290Y-65884832D01*
X111937913Y-65832071D01*
X111937915Y-65832068D01*
X111937919Y-65832066D01*
X112082666Y-65687319D01*
X112082668Y-65687315D01*
X112082671Y-65687313D01*
X112185833Y-65545320D01*
X112202987Y-65521710D01*
X112295920Y-65339319D01*
X112359177Y-65144634D01*
X112391200Y-64942452D01*
X112391200Y-64737748D01*
X112359177Y-64535566D01*
X112295920Y-64340881D01*
X112295917Y-64340877D01*
X112295917Y-64340874D01*
X112269573Y-64289172D01*
X112269572Y-64289171D01*
X112243371Y-64237748D01*
X142290200Y-64237748D01*
X142290200Y-64442451D01*
X142322222Y-64644634D01*
X142385481Y-64839323D01*
X142478415Y-65021713D01*
X142598728Y-65187313D01*
X142743486Y-65332071D01*
X142898449Y-65444656D01*
X142909090Y-65452387D01*
X143025307Y-65511603D01*
X143091476Y-65545318D01*
X143091478Y-65545318D01*
X143091481Y-65545320D01*
X143195837Y-65579227D01*
X143286165Y-65608577D01*
X143387257Y-65624588D01*
X143488348Y-65640600D01*
X143488349Y-65640600D01*
X143693051Y-65640600D01*
X143693052Y-65640600D01*
X143895234Y-65608577D01*
X144089919Y-65545320D01*
X144272310Y-65452387D01*
X144427931Y-65339323D01*
X144437913Y-65332071D01*
X144437915Y-65332068D01*
X144437919Y-65332066D01*
X144582666Y-65187319D01*
X144582668Y-65187315D01*
X144582671Y-65187313D01*
X144635432Y-65114690D01*
X144702987Y-65021710D01*
X144795920Y-64839319D01*
X144859177Y-64644634D01*
X144891200Y-64442452D01*
X144891200Y-64237748D01*
X144859177Y-64035566D01*
X144845309Y-63992886D01*
X144829827Y-63945237D01*
X144795920Y-63840881D01*
X144795918Y-63840878D01*
X144795918Y-63840876D01*
X144738310Y-63727815D01*
X144702987Y-63658490D01*
X144685834Y-63634881D01*
X144582671Y-63492886D01*
X144437913Y-63348128D01*
X144272313Y-63227815D01*
X144272312Y-63227814D01*
X144272310Y-63227813D01*
X144215353Y-63198791D01*
X144089923Y-63134881D01*
X143895234Y-63071622D01*
X143720695Y-63043978D01*
X143693052Y-63039600D01*
X143488348Y-63039600D01*
X143464029Y-63043451D01*
X143286165Y-63071622D01*
X143091476Y-63134881D01*
X142909086Y-63227815D01*
X142743486Y-63348128D01*
X142598728Y-63492886D01*
X142478415Y-63658486D01*
X142385481Y-63840876D01*
X142322222Y-64035565D01*
X142290200Y-64237748D01*
X112243371Y-64237748D01*
X112202984Y-64158485D01*
X112082671Y-63992886D01*
X111937913Y-63848128D01*
X111772313Y-63727815D01*
X111772312Y-63727814D01*
X111772310Y-63727813D01*
X111715353Y-63698791D01*
X111589923Y-63634881D01*
X111395234Y-63571622D01*
X111220695Y-63543978D01*
X111193052Y-63539600D01*
X110988348Y-63539600D01*
X110964029Y-63543451D01*
X110786165Y-63571622D01*
X110591476Y-63634881D01*
X110409086Y-63727815D01*
X110243486Y-63848128D01*
X110098728Y-63992886D01*
X109978415Y-64158486D01*
X109885481Y-64340876D01*
X109822222Y-64535565D01*
X109790200Y-64737748D01*
X79828922Y-64737748D01*
X79859177Y-64644634D01*
X79891200Y-64442452D01*
X79891200Y-64237748D01*
X79859177Y-64035566D01*
X79845309Y-63992886D01*
X79829827Y-63945237D01*
X79795920Y-63840881D01*
X79795918Y-63840878D01*
X79795918Y-63840876D01*
X79738310Y-63727815D01*
X79702987Y-63658490D01*
X79685834Y-63634881D01*
X79582671Y-63492886D01*
X79437913Y-63348128D01*
X79272313Y-63227815D01*
X79272312Y-63227814D01*
X79272310Y-63227813D01*
X79215353Y-63198791D01*
X79089923Y-63134881D01*
X78895234Y-63071622D01*
X78720695Y-63043978D01*
X78693052Y-63039600D01*
X78488348Y-63039600D01*
X78464029Y-63043451D01*
X78286165Y-63071622D01*
X78091476Y-63134881D01*
X77909086Y-63227815D01*
X77743486Y-63348128D01*
X77598728Y-63492886D01*
X77478415Y-63658486D01*
X77385481Y-63840876D01*
X77322222Y-64035565D01*
X77290200Y-64237748D01*
X76091200Y-64237748D01*
X76091200Y-60718811D01*
X80740200Y-60718811D01*
X80740200Y-60961388D01*
X80771861Y-61201885D01*
X80834647Y-61436204D01*
X80877300Y-61539176D01*
X80927476Y-61660312D01*
X81048764Y-61870389D01*
X81048766Y-61870392D01*
X81048767Y-61870393D01*
X81196433Y-62062836D01*
X81196439Y-62062843D01*
X81367956Y-62234360D01*
X81367962Y-62234365D01*
X81560411Y-62382036D01*
X81770488Y-62503324D01*
X81994600Y-62596154D01*
X82228911Y-62658938D01*
X82409286Y-62682684D01*
X82469411Y-62690600D01*
X82469412Y-62690600D01*
X82711989Y-62690600D01*
X82760088Y-62684267D01*
X82952489Y-62658938D01*
X83186800Y-62596154D01*
X83410912Y-62503324D01*
X83620989Y-62382036D01*
X83813438Y-62234365D01*
X83813443Y-62234360D01*
X83870401Y-62177403D01*
X83984960Y-62062843D01*
X83984965Y-62062838D01*
X84132636Y-61870389D01*
X84253924Y-61660312D01*
X84346754Y-61436200D01*
X84409538Y-61201889D01*
X84441200Y-60961388D01*
X84441200Y-60718851D01*
X85740700Y-60718851D01*
X85740700Y-60961348D01*
X85740701Y-60961364D01*
X85772353Y-61201787D01*
X85835121Y-61436039D01*
X85927920Y-61660078D01*
X85927927Y-61660092D01*
X86049181Y-61870110D01*
X86117761Y-61959484D01*
X86800221Y-61277023D01*
X86891624Y-61413817D01*
X87016983Y-61539176D01*
X87153774Y-61630577D01*
X86471314Y-62313036D01*
X86471314Y-62313037D01*
X86560689Y-62381617D01*
X86560696Y-62381622D01*
X86770707Y-62502872D01*
X86770721Y-62502879D01*
X86994760Y-62595678D01*
X87229012Y-62658446D01*
X87469435Y-62690098D01*
X87469452Y-62690100D01*
X87711948Y-62690100D01*
X87711964Y-62690098D01*
X87952387Y-62658446D01*
X88186639Y-62595678D01*
X88410678Y-62502879D01*
X88410692Y-62502872D01*
X88620716Y-62381615D01*
X88710084Y-62313039D01*
X88710084Y-62313036D01*
X88027624Y-61630577D01*
X88164417Y-61539176D01*
X88289776Y-61413817D01*
X88381177Y-61277024D01*
X89063636Y-61959484D01*
X89063639Y-61959484D01*
X89132215Y-61870116D01*
X89253472Y-61660092D01*
X89253479Y-61660078D01*
X89346278Y-61436039D01*
X89409046Y-61201787D01*
X89440698Y-60961364D01*
X89440700Y-60961348D01*
X89440700Y-60718843D01*
X89440696Y-60718811D01*
X97740200Y-60718811D01*
X97740200Y-60961388D01*
X97771861Y-61201885D01*
X97834647Y-61436204D01*
X97877300Y-61539176D01*
X97927476Y-61660312D01*
X98048764Y-61870389D01*
X98048766Y-61870392D01*
X98048767Y-61870393D01*
X98196433Y-62062836D01*
X98196439Y-62062843D01*
X98367956Y-62234360D01*
X98367962Y-62234365D01*
X98560411Y-62382036D01*
X98770488Y-62503324D01*
X98994600Y-62596154D01*
X99228911Y-62658938D01*
X99409286Y-62682684D01*
X99469411Y-62690600D01*
X99469412Y-62690600D01*
X99711989Y-62690600D01*
X99760088Y-62684267D01*
X99952489Y-62658938D01*
X100186800Y-62596154D01*
X100410912Y-62503324D01*
X100620989Y-62382036D01*
X100813438Y-62234365D01*
X100813443Y-62234360D01*
X100870401Y-62177403D01*
X100984960Y-62062843D01*
X100984965Y-62062838D01*
X101132636Y-61870389D01*
X101253924Y-61660312D01*
X101346754Y-61436200D01*
X101409538Y-61201889D01*
X101441200Y-60961388D01*
X101441200Y-60718851D01*
X102740700Y-60718851D01*
X102740700Y-60961348D01*
X102740701Y-60961364D01*
X102772353Y-61201787D01*
X102835121Y-61436039D01*
X102927920Y-61660078D01*
X102927927Y-61660092D01*
X103049181Y-61870110D01*
X103117761Y-61959484D01*
X103800221Y-61277023D01*
X103891624Y-61413817D01*
X104016983Y-61539176D01*
X104153774Y-61630577D01*
X103471314Y-62313036D01*
X103471314Y-62313037D01*
X103560689Y-62381617D01*
X103560696Y-62381622D01*
X103770707Y-62502872D01*
X103770721Y-62502879D01*
X103994760Y-62595678D01*
X104229012Y-62658446D01*
X104469435Y-62690098D01*
X104469452Y-62690100D01*
X104711948Y-62690100D01*
X104711964Y-62690098D01*
X104952387Y-62658446D01*
X105186639Y-62595678D01*
X105410678Y-62502879D01*
X105410692Y-62502872D01*
X105620716Y-62381615D01*
X105710084Y-62313039D01*
X105710084Y-62313036D01*
X105027624Y-61630577D01*
X105164417Y-61539176D01*
X105289776Y-61413817D01*
X105381177Y-61277024D01*
X106063636Y-61959484D01*
X106063639Y-61959484D01*
X106132215Y-61870116D01*
X106253472Y-61660092D01*
X106253479Y-61660078D01*
X106346278Y-61436039D01*
X106409046Y-61201787D01*
X106440698Y-60961364D01*
X106440700Y-60961348D01*
X106440700Y-60718843D01*
X106440696Y-60718811D01*
X116240200Y-60718811D01*
X116240200Y-60961388D01*
X116271861Y-61201885D01*
X116334647Y-61436204D01*
X116377300Y-61539176D01*
X116427476Y-61660312D01*
X116548764Y-61870389D01*
X116548766Y-61870392D01*
X116548767Y-61870393D01*
X116696433Y-62062836D01*
X116696439Y-62062843D01*
X116867956Y-62234360D01*
X116867962Y-62234365D01*
X117060411Y-62382036D01*
X117270488Y-62503324D01*
X117494600Y-62596154D01*
X117728911Y-62658938D01*
X117909286Y-62682684D01*
X117969411Y-62690600D01*
X117969412Y-62690600D01*
X118211989Y-62690600D01*
X118260088Y-62684267D01*
X118452489Y-62658938D01*
X118686800Y-62596154D01*
X118910912Y-62503324D01*
X119120989Y-62382036D01*
X119313438Y-62234365D01*
X119313443Y-62234360D01*
X119370401Y-62177403D01*
X119484960Y-62062843D01*
X119484965Y-62062838D01*
X119632636Y-61870389D01*
X119753924Y-61660312D01*
X119846754Y-61436200D01*
X119909538Y-61201889D01*
X119941200Y-60961388D01*
X119941200Y-60718851D01*
X121240700Y-60718851D01*
X121240700Y-60961348D01*
X121240701Y-60961364D01*
X121272353Y-61201787D01*
X121335121Y-61436039D01*
X121427920Y-61660078D01*
X121427927Y-61660092D01*
X121549181Y-61870110D01*
X121617761Y-61959484D01*
X122300221Y-61277023D01*
X122391624Y-61413817D01*
X122516983Y-61539176D01*
X122653774Y-61630577D01*
X121971314Y-62313036D01*
X121971314Y-62313037D01*
X122060689Y-62381617D01*
X122060696Y-62381622D01*
X122270707Y-62502872D01*
X122270721Y-62502879D01*
X122494760Y-62595678D01*
X122729012Y-62658446D01*
X122969435Y-62690098D01*
X122969452Y-62690100D01*
X123211948Y-62690100D01*
X123211964Y-62690098D01*
X123452387Y-62658446D01*
X123686639Y-62595678D01*
X123910678Y-62502879D01*
X123910692Y-62502872D01*
X124120716Y-62381615D01*
X124210084Y-62313039D01*
X124210084Y-62313036D01*
X123527624Y-61630577D01*
X123664417Y-61539176D01*
X123789776Y-61413817D01*
X123881177Y-61277024D01*
X124563636Y-61959484D01*
X124563639Y-61959484D01*
X124632215Y-61870116D01*
X124753472Y-61660092D01*
X124753479Y-61660078D01*
X124846278Y-61436039D01*
X124909046Y-61201787D01*
X124940698Y-60961364D01*
X124940700Y-60961348D01*
X124940700Y-60718843D01*
X124940696Y-60718811D01*
X132573700Y-60718811D01*
X132573700Y-60961388D01*
X132605361Y-61201885D01*
X132668147Y-61436204D01*
X132710800Y-61539176D01*
X132760976Y-61660312D01*
X132882264Y-61870389D01*
X132882266Y-61870392D01*
X132882267Y-61870393D01*
X133029933Y-62062836D01*
X133029939Y-62062843D01*
X133201456Y-62234360D01*
X133201462Y-62234365D01*
X133393911Y-62382036D01*
X133603988Y-62503324D01*
X133828100Y-62596154D01*
X134062411Y-62658938D01*
X134242786Y-62682684D01*
X134302911Y-62690600D01*
X134302912Y-62690600D01*
X134545489Y-62690600D01*
X134593588Y-62684267D01*
X134785989Y-62658938D01*
X135020300Y-62596154D01*
X135244412Y-62503324D01*
X135454489Y-62382036D01*
X135646938Y-62234365D01*
X135646943Y-62234360D01*
X135703901Y-62177403D01*
X135818460Y-62062843D01*
X135818465Y-62062838D01*
X135966136Y-61870389D01*
X136087424Y-61660312D01*
X136180254Y-61436200D01*
X136243038Y-61201889D01*
X136274700Y-60961388D01*
X136274700Y-60718851D01*
X137574200Y-60718851D01*
X137574200Y-60961348D01*
X137574201Y-60961364D01*
X137605853Y-61201787D01*
X137668621Y-61436039D01*
X137761420Y-61660078D01*
X137761427Y-61660092D01*
X137882681Y-61870110D01*
X137951261Y-61959484D01*
X138633721Y-61277023D01*
X138725124Y-61413817D01*
X138850483Y-61539176D01*
X138987274Y-61630577D01*
X138304814Y-62313036D01*
X138304814Y-62313037D01*
X138394189Y-62381617D01*
X138394196Y-62381622D01*
X138604207Y-62502872D01*
X138604221Y-62502879D01*
X138828260Y-62595678D01*
X139062512Y-62658446D01*
X139302935Y-62690098D01*
X139302952Y-62690100D01*
X139545448Y-62690100D01*
X139545464Y-62690098D01*
X139785887Y-62658446D01*
X140020139Y-62595678D01*
X140244178Y-62502879D01*
X140244192Y-62502872D01*
X140454216Y-62381615D01*
X140543584Y-62313039D01*
X140543584Y-62313036D01*
X139861124Y-61630577D01*
X139997917Y-61539176D01*
X140123276Y-61413817D01*
X140214677Y-61277025D01*
X140897136Y-61959484D01*
X140897139Y-61959484D01*
X140965715Y-61870116D01*
X141086972Y-61660092D01*
X141086979Y-61660078D01*
X141179778Y-61436039D01*
X141242546Y-61201787D01*
X141274198Y-60961364D01*
X141274200Y-60961348D01*
X141274200Y-60718851D01*
X141274198Y-60718835D01*
X141242546Y-60478412D01*
X141179778Y-60244160D01*
X141086979Y-60020121D01*
X141086972Y-60020107D01*
X140965722Y-59810096D01*
X140965717Y-59810089D01*
X140897137Y-59720714D01*
X140897136Y-59720714D01*
X140214676Y-60403174D01*
X140123276Y-60266383D01*
X139997917Y-60141024D01*
X139861123Y-60049621D01*
X140543584Y-59367161D01*
X140454210Y-59298581D01*
X140244192Y-59177327D01*
X140244178Y-59177320D01*
X140020139Y-59084521D01*
X139785887Y-59021753D01*
X139545464Y-58990101D01*
X139545448Y-58990100D01*
X139302952Y-58990100D01*
X139302935Y-58990101D01*
X139062512Y-59021753D01*
X138828260Y-59084521D01*
X138604221Y-59177320D01*
X138604206Y-59177327D01*
X138394190Y-59298580D01*
X138304814Y-59367160D01*
X138304814Y-59367161D01*
X138987275Y-60049622D01*
X138850483Y-60141024D01*
X138725124Y-60266383D01*
X138633722Y-60403175D01*
X137951261Y-59720714D01*
X137951260Y-59720714D01*
X137882680Y-59810090D01*
X137761427Y-60020106D01*
X137761420Y-60020121D01*
X137668621Y-60244160D01*
X137605853Y-60478412D01*
X137574201Y-60718835D01*
X137574200Y-60718851D01*
X136274700Y-60718851D01*
X136274700Y-60718812D01*
X136243038Y-60478311D01*
X136180254Y-60244000D01*
X136087424Y-60019888D01*
X135966136Y-59809811D01*
X135818465Y-59617362D01*
X135818460Y-59617356D01*
X135646943Y-59445839D01*
X135646936Y-59445833D01*
X135454493Y-59298167D01*
X135454492Y-59298166D01*
X135454489Y-59298164D01*
X135244412Y-59176876D01*
X135244405Y-59176873D01*
X135020304Y-59084047D01*
X134785985Y-59021261D01*
X134545489Y-58989600D01*
X134545488Y-58989600D01*
X134302912Y-58989600D01*
X134302911Y-58989600D01*
X134062414Y-59021261D01*
X133828095Y-59084047D01*
X133603994Y-59176873D01*
X133603985Y-59176877D01*
X133393906Y-59298167D01*
X133201463Y-59445833D01*
X133201456Y-59445839D01*
X133029939Y-59617356D01*
X133029933Y-59617363D01*
X132882267Y-59809806D01*
X132882264Y-59809810D01*
X132882264Y-59809811D01*
X132866017Y-59837951D01*
X132760977Y-60019885D01*
X132760973Y-60019894D01*
X132668147Y-60243995D01*
X132605361Y-60478314D01*
X132573700Y-60718811D01*
X124940696Y-60718811D01*
X124909046Y-60478412D01*
X124846278Y-60244160D01*
X124753479Y-60020121D01*
X124753472Y-60020107D01*
X124632222Y-59810096D01*
X124632217Y-59810089D01*
X124563637Y-59720714D01*
X124563636Y-59720714D01*
X123881176Y-60403174D01*
X123789776Y-60266383D01*
X123664417Y-60141024D01*
X123527623Y-60049621D01*
X124210084Y-59367161D01*
X124120710Y-59298581D01*
X123910692Y-59177327D01*
X123910678Y-59177320D01*
X123686639Y-59084521D01*
X123452387Y-59021753D01*
X123211964Y-58990101D01*
X123211948Y-58990100D01*
X122969452Y-58990100D01*
X122969435Y-58990101D01*
X122729012Y-59021753D01*
X122494760Y-59084521D01*
X122270721Y-59177320D01*
X122270706Y-59177327D01*
X122060690Y-59298580D01*
X121971314Y-59367160D01*
X121971314Y-59367161D01*
X122653775Y-60049622D01*
X122516983Y-60141024D01*
X122391624Y-60266383D01*
X122300222Y-60403175D01*
X121617761Y-59720714D01*
X121617760Y-59720714D01*
X121549180Y-59810090D01*
X121427927Y-60020106D01*
X121427920Y-60020121D01*
X121335121Y-60244160D01*
X121272353Y-60478412D01*
X121240701Y-60718835D01*
X121240700Y-60718851D01*
X119941200Y-60718851D01*
X119941200Y-60718812D01*
X119909538Y-60478311D01*
X119846754Y-60244000D01*
X119753924Y-60019888D01*
X119632636Y-59809811D01*
X119484965Y-59617362D01*
X119484960Y-59617356D01*
X119313443Y-59445839D01*
X119313436Y-59445833D01*
X119120993Y-59298167D01*
X119120992Y-59298166D01*
X119120989Y-59298164D01*
X118910912Y-59176876D01*
X118910905Y-59176873D01*
X118686804Y-59084047D01*
X118452485Y-59021261D01*
X118211989Y-58989600D01*
X118211988Y-58989600D01*
X117969412Y-58989600D01*
X117969411Y-58989600D01*
X117728914Y-59021261D01*
X117494595Y-59084047D01*
X117270494Y-59176873D01*
X117270485Y-59176877D01*
X117060406Y-59298167D01*
X116867963Y-59445833D01*
X116867956Y-59445839D01*
X116696439Y-59617356D01*
X116696433Y-59617363D01*
X116548767Y-59809806D01*
X116548764Y-59809810D01*
X116548764Y-59809811D01*
X116532517Y-59837951D01*
X116427477Y-60019885D01*
X116427473Y-60019894D01*
X116334647Y-60243995D01*
X116271861Y-60478314D01*
X116240200Y-60718811D01*
X106440696Y-60718811D01*
X106409046Y-60478412D01*
X106346278Y-60244160D01*
X106253479Y-60020121D01*
X106253472Y-60020107D01*
X106132222Y-59810096D01*
X106132217Y-59810089D01*
X106063637Y-59720714D01*
X106063636Y-59720714D01*
X105381176Y-60403174D01*
X105289776Y-60266383D01*
X105164417Y-60141024D01*
X105027623Y-60049621D01*
X105710084Y-59367161D01*
X105620710Y-59298581D01*
X105410692Y-59177327D01*
X105410678Y-59177320D01*
X105186639Y-59084521D01*
X104952387Y-59021753D01*
X104711964Y-58990101D01*
X104711948Y-58990100D01*
X104469452Y-58990100D01*
X104469435Y-58990101D01*
X104229012Y-59021753D01*
X103994760Y-59084521D01*
X103770721Y-59177320D01*
X103770706Y-59177327D01*
X103560690Y-59298580D01*
X103471314Y-59367160D01*
X103471314Y-59367161D01*
X104153775Y-60049622D01*
X104016983Y-60141024D01*
X103891624Y-60266383D01*
X103800222Y-60403175D01*
X103117761Y-59720714D01*
X103117760Y-59720714D01*
X103049180Y-59810090D01*
X102927927Y-60020106D01*
X102927920Y-60020121D01*
X102835121Y-60244160D01*
X102772353Y-60478412D01*
X102740701Y-60718835D01*
X102740700Y-60718851D01*
X101441200Y-60718851D01*
X101441200Y-60718812D01*
X101409538Y-60478311D01*
X101346754Y-60244000D01*
X101253924Y-60019888D01*
X101132636Y-59809811D01*
X100984965Y-59617362D01*
X100984960Y-59617356D01*
X100813443Y-59445839D01*
X100813436Y-59445833D01*
X100620993Y-59298167D01*
X100620992Y-59298166D01*
X100620989Y-59298164D01*
X100410912Y-59176876D01*
X100410905Y-59176873D01*
X100186804Y-59084047D01*
X99952485Y-59021261D01*
X99711989Y-58989600D01*
X99711988Y-58989600D01*
X99469412Y-58989600D01*
X99469411Y-58989600D01*
X99228914Y-59021261D01*
X98994595Y-59084047D01*
X98770494Y-59176873D01*
X98770485Y-59176877D01*
X98560406Y-59298167D01*
X98367963Y-59445833D01*
X98367956Y-59445839D01*
X98196439Y-59617356D01*
X98196433Y-59617363D01*
X98048767Y-59809806D01*
X98048764Y-59809810D01*
X98048764Y-59809811D01*
X98032517Y-59837951D01*
X97927477Y-60019885D01*
X97927473Y-60019894D01*
X97834647Y-60243995D01*
X97771861Y-60478314D01*
X97740200Y-60718811D01*
X89440696Y-60718811D01*
X89409046Y-60478412D01*
X89346278Y-60244160D01*
X89253479Y-60020121D01*
X89253472Y-60020107D01*
X89132222Y-59810096D01*
X89132217Y-59810089D01*
X89063637Y-59720714D01*
X89063636Y-59720714D01*
X88381176Y-60403174D01*
X88289776Y-60266383D01*
X88164417Y-60141024D01*
X88027623Y-60049621D01*
X88710084Y-59367161D01*
X88620710Y-59298581D01*
X88410692Y-59177327D01*
X88410678Y-59177320D01*
X88186639Y-59084521D01*
X87952387Y-59021753D01*
X87711964Y-58990101D01*
X87711948Y-58990100D01*
X87469452Y-58990100D01*
X87469435Y-58990101D01*
X87229012Y-59021753D01*
X86994760Y-59084521D01*
X86770721Y-59177320D01*
X86770706Y-59177327D01*
X86560690Y-59298580D01*
X86471314Y-59367160D01*
X86471314Y-59367161D01*
X87153775Y-60049622D01*
X87016983Y-60141024D01*
X86891624Y-60266383D01*
X86800222Y-60403175D01*
X86117761Y-59720714D01*
X86117760Y-59720714D01*
X86049180Y-59810090D01*
X85927927Y-60020106D01*
X85927920Y-60020121D01*
X85835121Y-60244160D01*
X85772353Y-60478412D01*
X85740701Y-60718835D01*
X85740700Y-60718851D01*
X84441200Y-60718851D01*
X84441200Y-60718812D01*
X84409538Y-60478311D01*
X84346754Y-60244000D01*
X84253924Y-60019888D01*
X84132636Y-59809811D01*
X83984965Y-59617362D01*
X83984960Y-59617356D01*
X83813443Y-59445839D01*
X83813436Y-59445833D01*
X83620993Y-59298167D01*
X83620992Y-59298166D01*
X83620989Y-59298164D01*
X83410912Y-59176876D01*
X83410905Y-59176873D01*
X83186804Y-59084047D01*
X82952485Y-59021261D01*
X82711989Y-58989600D01*
X82711988Y-58989600D01*
X82469412Y-58989600D01*
X82469411Y-58989600D01*
X82228914Y-59021261D01*
X81994595Y-59084047D01*
X81770494Y-59176873D01*
X81770485Y-59176877D01*
X81560406Y-59298167D01*
X81367963Y-59445833D01*
X81367956Y-59445839D01*
X81196439Y-59617356D01*
X81196433Y-59617363D01*
X81048767Y-59809806D01*
X81048764Y-59809810D01*
X81048764Y-59809811D01*
X81032517Y-59837951D01*
X80927477Y-60019885D01*
X80927473Y-60019894D01*
X80834647Y-60243995D01*
X80771861Y-60478314D01*
X80740200Y-60718811D01*
X76091200Y-60718811D01*
X76091200Y-56964600D01*
X76110885Y-56897561D01*
X76163689Y-56851806D01*
X76215200Y-56840600D01*
X145966200Y-56840600D01*
X146033239Y-56860285D01*
G37*
%TD.AperFunction*%
%TD*%
M02*
