%TF.GenerationSoftware,KiCad,Pcbnew,9.0.4-9.0.4-0~ubuntu24.04.1*%
%TF.CreationDate,2025-09-24T17:28:50+03:00*%
%TF.ProjectId,Linear_actuator_MCU_Bridge_circuit,4c696e65-6172-45f6-9163-747561746f72,rev?*%
%TF.SameCoordinates,Original*%
%TF.FileFunction,Legend,Top*%
%TF.FilePolarity,Positive*%
%FSLAX46Y46*%
G04 Gerber Fmt 4.6, Leading zero omitted, Abs format (unit mm)*
G04 Created by KiCad (PCBNEW 9.0.4-9.0.4-0~ubuntu24.04.1) date 2025-09-24 17:28:50*
%MOMM*%
%LPD*%
G01*
G04 APERTURE LIST*
%ADD10C,0.100000*%
%ADD11C,0.125000*%
%ADD12C,0.150000*%
%ADD13C,0.127000*%
%ADD14C,0.152400*%
%ADD15C,0.508000*%
G04 APERTURE END LIST*
D10*
X94602566Y-76382079D02*
X94602566Y-77905889D01*
X93840661Y-77143984D02*
X95364471Y-77143984D01*
X96102566Y-59882079D02*
X96102566Y-61405889D01*
X95340661Y-60643984D02*
X96864471Y-60643984D01*
X77602566Y-75882079D02*
X77602566Y-77405889D01*
X76840661Y-76643984D02*
X78364471Y-76643984D01*
X130602566Y-59882079D02*
X130602566Y-61405889D01*
X129840661Y-60643984D02*
X131364471Y-60643984D01*
X108055709Y-60245412D02*
X108093804Y-60169222D01*
X108093804Y-60169222D02*
X108093804Y-60054936D01*
X108093804Y-60054936D02*
X108055709Y-59940650D01*
X108055709Y-59940650D02*
X107979519Y-59864460D01*
X107979519Y-59864460D02*
X107903328Y-59826365D01*
X107903328Y-59826365D02*
X107750947Y-59788269D01*
X107750947Y-59788269D02*
X107636661Y-59788269D01*
X107636661Y-59788269D02*
X107484280Y-59826365D01*
X107484280Y-59826365D02*
X107408090Y-59864460D01*
X107408090Y-59864460D02*
X107331900Y-59940650D01*
X107331900Y-59940650D02*
X107293804Y-60054936D01*
X107293804Y-60054936D02*
X107293804Y-60131127D01*
X107293804Y-60131127D02*
X107331900Y-60245412D01*
X107331900Y-60245412D02*
X107369995Y-60283508D01*
X107369995Y-60283508D02*
X107636661Y-60283508D01*
X107636661Y-60283508D02*
X107636661Y-60131127D01*
X107293804Y-60626365D02*
X108093804Y-60626365D01*
X108093804Y-60626365D02*
X107293804Y-61083508D01*
X107293804Y-61083508D02*
X108093804Y-61083508D01*
X107293804Y-61464460D02*
X108093804Y-61464460D01*
X108093804Y-61464460D02*
X108093804Y-61654936D01*
X108093804Y-61654936D02*
X108055709Y-61769222D01*
X108055709Y-61769222D02*
X107979519Y-61845412D01*
X107979519Y-61845412D02*
X107903328Y-61883507D01*
X107903328Y-61883507D02*
X107750947Y-61921603D01*
X107750947Y-61921603D02*
X107636661Y-61921603D01*
X107636661Y-61921603D02*
X107484280Y-61883507D01*
X107484280Y-61883507D02*
X107408090Y-61845412D01*
X107408090Y-61845412D02*
X107331900Y-61769222D01*
X107331900Y-61769222D02*
X107293804Y-61654936D01*
X107293804Y-61654936D02*
X107293804Y-61464460D01*
X91055709Y-60245412D02*
X91093804Y-60169222D01*
X91093804Y-60169222D02*
X91093804Y-60054936D01*
X91093804Y-60054936D02*
X91055709Y-59940650D01*
X91055709Y-59940650D02*
X90979519Y-59864460D01*
X90979519Y-59864460D02*
X90903328Y-59826365D01*
X90903328Y-59826365D02*
X90750947Y-59788269D01*
X90750947Y-59788269D02*
X90636661Y-59788269D01*
X90636661Y-59788269D02*
X90484280Y-59826365D01*
X90484280Y-59826365D02*
X90408090Y-59864460D01*
X90408090Y-59864460D02*
X90331900Y-59940650D01*
X90331900Y-59940650D02*
X90293804Y-60054936D01*
X90293804Y-60054936D02*
X90293804Y-60131127D01*
X90293804Y-60131127D02*
X90331900Y-60245412D01*
X90331900Y-60245412D02*
X90369995Y-60283508D01*
X90369995Y-60283508D02*
X90636661Y-60283508D01*
X90636661Y-60283508D02*
X90636661Y-60131127D01*
X90293804Y-60626365D02*
X91093804Y-60626365D01*
X91093804Y-60626365D02*
X90293804Y-61083508D01*
X90293804Y-61083508D02*
X91093804Y-61083508D01*
X90293804Y-61464460D02*
X91093804Y-61464460D01*
X91093804Y-61464460D02*
X91093804Y-61654936D01*
X91093804Y-61654936D02*
X91055709Y-61769222D01*
X91055709Y-61769222D02*
X90979519Y-61845412D01*
X90979519Y-61845412D02*
X90903328Y-61883507D01*
X90903328Y-61883507D02*
X90750947Y-61921603D01*
X90750947Y-61921603D02*
X90636661Y-61921603D01*
X90636661Y-61921603D02*
X90484280Y-61883507D01*
X90484280Y-61883507D02*
X90408090Y-61845412D01*
X90408090Y-61845412D02*
X90331900Y-61769222D01*
X90331900Y-61769222D02*
X90293804Y-61654936D01*
X90293804Y-61654936D02*
X90293804Y-61464460D01*
X129602566Y-76382079D02*
X129602566Y-77905889D01*
X128840661Y-77143984D02*
X130364471Y-77143984D01*
X113102566Y-76382079D02*
X113102566Y-77905889D01*
X112340661Y-77143984D02*
X113864471Y-77143984D01*
X142889209Y-60245412D02*
X142927304Y-60169222D01*
X142927304Y-60169222D02*
X142927304Y-60054936D01*
X142927304Y-60054936D02*
X142889209Y-59940650D01*
X142889209Y-59940650D02*
X142813019Y-59864460D01*
X142813019Y-59864460D02*
X142736828Y-59826365D01*
X142736828Y-59826365D02*
X142584447Y-59788269D01*
X142584447Y-59788269D02*
X142470161Y-59788269D01*
X142470161Y-59788269D02*
X142317780Y-59826365D01*
X142317780Y-59826365D02*
X142241590Y-59864460D01*
X142241590Y-59864460D02*
X142165400Y-59940650D01*
X142165400Y-59940650D02*
X142127304Y-60054936D01*
X142127304Y-60054936D02*
X142127304Y-60131127D01*
X142127304Y-60131127D02*
X142165400Y-60245412D01*
X142165400Y-60245412D02*
X142203495Y-60283508D01*
X142203495Y-60283508D02*
X142470161Y-60283508D01*
X142470161Y-60283508D02*
X142470161Y-60131127D01*
X142127304Y-60626365D02*
X142927304Y-60626365D01*
X142927304Y-60626365D02*
X142127304Y-61083508D01*
X142127304Y-61083508D02*
X142927304Y-61083508D01*
X142127304Y-61464460D02*
X142927304Y-61464460D01*
X142927304Y-61464460D02*
X142927304Y-61654936D01*
X142927304Y-61654936D02*
X142889209Y-61769222D01*
X142889209Y-61769222D02*
X142813019Y-61845412D01*
X142813019Y-61845412D02*
X142736828Y-61883507D01*
X142736828Y-61883507D02*
X142584447Y-61921603D01*
X142584447Y-61921603D02*
X142470161Y-61921603D01*
X142470161Y-61921603D02*
X142317780Y-61883507D01*
X142317780Y-61883507D02*
X142241590Y-61845412D01*
X142241590Y-61845412D02*
X142165400Y-61769222D01*
X142165400Y-61769222D02*
X142127304Y-61654936D01*
X142127304Y-61654936D02*
X142127304Y-61464460D01*
X114602566Y-59882079D02*
X114602566Y-61405889D01*
X113840661Y-60643984D02*
X115364471Y-60643984D01*
X79102566Y-60382079D02*
X79102566Y-61905889D01*
X78340661Y-61143984D02*
X79864471Y-61143984D01*
X126555709Y-60245412D02*
X126593804Y-60169222D01*
X126593804Y-60169222D02*
X126593804Y-60054936D01*
X126593804Y-60054936D02*
X126555709Y-59940650D01*
X126555709Y-59940650D02*
X126479519Y-59864460D01*
X126479519Y-59864460D02*
X126403328Y-59826365D01*
X126403328Y-59826365D02*
X126250947Y-59788269D01*
X126250947Y-59788269D02*
X126136661Y-59788269D01*
X126136661Y-59788269D02*
X125984280Y-59826365D01*
X125984280Y-59826365D02*
X125908090Y-59864460D01*
X125908090Y-59864460D02*
X125831900Y-59940650D01*
X125831900Y-59940650D02*
X125793804Y-60054936D01*
X125793804Y-60054936D02*
X125793804Y-60131127D01*
X125793804Y-60131127D02*
X125831900Y-60245412D01*
X125831900Y-60245412D02*
X125869995Y-60283508D01*
X125869995Y-60283508D02*
X126136661Y-60283508D01*
X126136661Y-60283508D02*
X126136661Y-60131127D01*
X125793804Y-60626365D02*
X126593804Y-60626365D01*
X126593804Y-60626365D02*
X125793804Y-61083508D01*
X125793804Y-61083508D02*
X126593804Y-61083508D01*
X125793804Y-61464460D02*
X126593804Y-61464460D01*
X126593804Y-61464460D02*
X126593804Y-61654936D01*
X126593804Y-61654936D02*
X126555709Y-61769222D01*
X126555709Y-61769222D02*
X126479519Y-61845412D01*
X126479519Y-61845412D02*
X126403328Y-61883507D01*
X126403328Y-61883507D02*
X126250947Y-61921603D01*
X126250947Y-61921603D02*
X126136661Y-61921603D01*
X126136661Y-61921603D02*
X125984280Y-61883507D01*
X125984280Y-61883507D02*
X125908090Y-61845412D01*
X125908090Y-61845412D02*
X125831900Y-61769222D01*
X125831900Y-61769222D02*
X125793804Y-61654936D01*
X125793804Y-61654936D02*
X125793804Y-61464460D01*
D11*
X136314676Y-60403695D02*
X136314676Y-61051314D01*
X136314676Y-61051314D02*
X136352771Y-61127504D01*
X136352771Y-61127504D02*
X136390866Y-61165600D01*
X136390866Y-61165600D02*
X136467057Y-61203695D01*
X136467057Y-61203695D02*
X136619438Y-61203695D01*
X136619438Y-61203695D02*
X136695628Y-61165600D01*
X136695628Y-61165600D02*
X136733723Y-61127504D01*
X136733723Y-61127504D02*
X136771819Y-61051314D01*
X136771819Y-61051314D02*
X136771819Y-60403695D01*
X137571818Y-61203695D02*
X137114675Y-61203695D01*
X137343247Y-61203695D02*
X137343247Y-60403695D01*
X137343247Y-60403695D02*
X137267056Y-60517980D01*
X137267056Y-60517980D02*
X137190866Y-60594171D01*
X137190866Y-60594171D02*
X137114675Y-60632266D01*
D12*
X134848008Y-57283347D02*
X134962294Y-57321442D01*
X134962294Y-57321442D02*
X135000389Y-57359538D01*
X135000389Y-57359538D02*
X135038485Y-57435728D01*
X135038485Y-57435728D02*
X135038485Y-57550014D01*
X135038485Y-57550014D02*
X135000389Y-57626204D01*
X135000389Y-57626204D02*
X134962294Y-57664300D01*
X134962294Y-57664300D02*
X134886104Y-57702395D01*
X134886104Y-57702395D02*
X134581342Y-57702395D01*
X134581342Y-57702395D02*
X134581342Y-56902395D01*
X134581342Y-56902395D02*
X134848008Y-56902395D01*
X134848008Y-56902395D02*
X134924199Y-56940490D01*
X134924199Y-56940490D02*
X134962294Y-56978585D01*
X134962294Y-56978585D02*
X135000389Y-57054776D01*
X135000389Y-57054776D02*
X135000389Y-57130966D01*
X135000389Y-57130966D02*
X134962294Y-57207157D01*
X134962294Y-57207157D02*
X134924199Y-57245252D01*
X134924199Y-57245252D02*
X134848008Y-57283347D01*
X134848008Y-57283347D02*
X134581342Y-57283347D01*
X135267056Y-56902395D02*
X135724199Y-56902395D01*
X135495627Y-57702395D02*
X135495627Y-56902395D01*
X135952770Y-57664300D02*
X136067056Y-57702395D01*
X136067056Y-57702395D02*
X136257532Y-57702395D01*
X136257532Y-57702395D02*
X136333723Y-57664300D01*
X136333723Y-57664300D02*
X136371818Y-57626204D01*
X136371818Y-57626204D02*
X136409913Y-57550014D01*
X136409913Y-57550014D02*
X136409913Y-57473823D01*
X136409913Y-57473823D02*
X136371818Y-57397633D01*
X136371818Y-57397633D02*
X136333723Y-57359538D01*
X136333723Y-57359538D02*
X136257532Y-57321442D01*
X136257532Y-57321442D02*
X136105151Y-57283347D01*
X136105151Y-57283347D02*
X136028961Y-57245252D01*
X136028961Y-57245252D02*
X135990866Y-57207157D01*
X135990866Y-57207157D02*
X135952770Y-57130966D01*
X135952770Y-57130966D02*
X135952770Y-57054776D01*
X135952770Y-57054776D02*
X135990866Y-56978585D01*
X135990866Y-56978585D02*
X136028961Y-56940490D01*
X136028961Y-56940490D02*
X136105151Y-56902395D01*
X136105151Y-56902395D02*
X136295628Y-56902395D01*
X136295628Y-56902395D02*
X136409913Y-56940490D01*
X136562295Y-57778585D02*
X137171818Y-57778585D01*
X137362295Y-57702395D02*
X137362295Y-56902395D01*
X137362295Y-56902395D02*
X137628961Y-57473823D01*
X137628961Y-57473823D02*
X137895628Y-56902395D01*
X137895628Y-56902395D02*
X137895628Y-57702395D01*
X138086105Y-57778585D02*
X138695628Y-57778585D01*
X139305152Y-57702395D02*
X138848009Y-57702395D01*
X139076581Y-57702395D02*
X139076581Y-56902395D01*
X139076581Y-56902395D02*
X139000390Y-57016680D01*
X139000390Y-57016680D02*
X138924200Y-57092871D01*
X138924200Y-57092871D02*
X138848009Y-57130966D01*
X119836866Y-68010319D02*
X119836866Y-68724604D01*
X119836866Y-68724604D02*
X119789247Y-68867461D01*
X119789247Y-68867461D02*
X119694009Y-68962700D01*
X119694009Y-68962700D02*
X119551152Y-69010319D01*
X119551152Y-69010319D02*
X119455914Y-69010319D01*
X120265438Y-68105557D02*
X120313057Y-68057938D01*
X120313057Y-68057938D02*
X120408295Y-68010319D01*
X120408295Y-68010319D02*
X120646390Y-68010319D01*
X120646390Y-68010319D02*
X120741628Y-68057938D01*
X120741628Y-68057938D02*
X120789247Y-68105557D01*
X120789247Y-68105557D02*
X120836866Y-68200795D01*
X120836866Y-68200795D02*
X120836866Y-68296033D01*
X120836866Y-68296033D02*
X120789247Y-68438890D01*
X120789247Y-68438890D02*
X120217819Y-69010319D01*
X120217819Y-69010319D02*
X120836866Y-69010319D01*
X115543080Y-80294919D02*
X115543080Y-79294919D01*
X116114508Y-80294919D02*
X115685937Y-79723490D01*
X116114508Y-79294919D02*
X115543080Y-79866347D01*
X116543080Y-79628252D02*
X116543080Y-80294919D01*
X116543080Y-79723490D02*
X116590699Y-79675871D01*
X116590699Y-79675871D02*
X116685937Y-79628252D01*
X116685937Y-79628252D02*
X116828794Y-79628252D01*
X116828794Y-79628252D02*
X116924032Y-79675871D01*
X116924032Y-79675871D02*
X116971651Y-79771109D01*
X116971651Y-79771109D02*
X116971651Y-80294919D01*
X117828794Y-80247300D02*
X117733556Y-80294919D01*
X117733556Y-80294919D02*
X117543080Y-80294919D01*
X117543080Y-80294919D02*
X117447842Y-80247300D01*
X117447842Y-80247300D02*
X117400223Y-80152061D01*
X117400223Y-80152061D02*
X117400223Y-79771109D01*
X117400223Y-79771109D02*
X117447842Y-79675871D01*
X117447842Y-79675871D02*
X117543080Y-79628252D01*
X117543080Y-79628252D02*
X117733556Y-79628252D01*
X117733556Y-79628252D02*
X117828794Y-79675871D01*
X117828794Y-79675871D02*
X117876413Y-79771109D01*
X117876413Y-79771109D02*
X117876413Y-79866347D01*
X117876413Y-79866347D02*
X117400223Y-79961585D01*
X118685937Y-80247300D02*
X118590699Y-80294919D01*
X118590699Y-80294919D02*
X118400223Y-80294919D01*
X118400223Y-80294919D02*
X118304985Y-80247300D01*
X118304985Y-80247300D02*
X118257366Y-80152061D01*
X118257366Y-80152061D02*
X118257366Y-79771109D01*
X118257366Y-79771109D02*
X118304985Y-79675871D01*
X118304985Y-79675871D02*
X118400223Y-79628252D01*
X118400223Y-79628252D02*
X118590699Y-79628252D01*
X118590699Y-79628252D02*
X118685937Y-79675871D01*
X118685937Y-79675871D02*
X118733556Y-79771109D01*
X118733556Y-79771109D02*
X118733556Y-79866347D01*
X118733556Y-79866347D02*
X118257366Y-79961585D01*
X118924033Y-80390157D02*
X119685937Y-80390157D01*
X119876414Y-80009204D02*
X120352604Y-80009204D01*
X119781176Y-80294919D02*
X120114509Y-79294919D01*
X120114509Y-79294919D02*
X120447842Y-80294919D01*
X121209747Y-80247300D02*
X121114509Y-80294919D01*
X121114509Y-80294919D02*
X120924033Y-80294919D01*
X120924033Y-80294919D02*
X120828795Y-80247300D01*
X120828795Y-80247300D02*
X120781176Y-80199680D01*
X120781176Y-80199680D02*
X120733557Y-80104442D01*
X120733557Y-80104442D02*
X120733557Y-79818728D01*
X120733557Y-79818728D02*
X120781176Y-79723490D01*
X120781176Y-79723490D02*
X120828795Y-79675871D01*
X120828795Y-79675871D02*
X120924033Y-79628252D01*
X120924033Y-79628252D02*
X121114509Y-79628252D01*
X121114509Y-79628252D02*
X121209747Y-79675871D01*
X121495462Y-79628252D02*
X121876414Y-79628252D01*
X121638319Y-79294919D02*
X121638319Y-80152061D01*
X121638319Y-80152061D02*
X121685938Y-80247300D01*
X121685938Y-80247300D02*
X121781176Y-80294919D01*
X121781176Y-80294919D02*
X121876414Y-80294919D01*
X122638319Y-79628252D02*
X122638319Y-80294919D01*
X122209748Y-79628252D02*
X122209748Y-80152061D01*
X122209748Y-80152061D02*
X122257367Y-80247300D01*
X122257367Y-80247300D02*
X122352605Y-80294919D01*
X122352605Y-80294919D02*
X122495462Y-80294919D01*
X122495462Y-80294919D02*
X122590700Y-80247300D01*
X122590700Y-80247300D02*
X122638319Y-80199680D01*
X123543081Y-80294919D02*
X123543081Y-79771109D01*
X123543081Y-79771109D02*
X123495462Y-79675871D01*
X123495462Y-79675871D02*
X123400224Y-79628252D01*
X123400224Y-79628252D02*
X123209748Y-79628252D01*
X123209748Y-79628252D02*
X123114510Y-79675871D01*
X123543081Y-80247300D02*
X123447843Y-80294919D01*
X123447843Y-80294919D02*
X123209748Y-80294919D01*
X123209748Y-80294919D02*
X123114510Y-80247300D01*
X123114510Y-80247300D02*
X123066891Y-80152061D01*
X123066891Y-80152061D02*
X123066891Y-80056823D01*
X123066891Y-80056823D02*
X123114510Y-79961585D01*
X123114510Y-79961585D02*
X123209748Y-79913966D01*
X123209748Y-79913966D02*
X123447843Y-79913966D01*
X123447843Y-79913966D02*
X123543081Y-79866347D01*
X123876415Y-79628252D02*
X124257367Y-79628252D01*
X124019272Y-79294919D02*
X124019272Y-80152061D01*
X124019272Y-80152061D02*
X124066891Y-80247300D01*
X124066891Y-80247300D02*
X124162129Y-80294919D01*
X124162129Y-80294919D02*
X124257367Y-80294919D01*
X124733558Y-80294919D02*
X124638320Y-80247300D01*
X124638320Y-80247300D02*
X124590701Y-80199680D01*
X124590701Y-80199680D02*
X124543082Y-80104442D01*
X124543082Y-80104442D02*
X124543082Y-79818728D01*
X124543082Y-79818728D02*
X124590701Y-79723490D01*
X124590701Y-79723490D02*
X124638320Y-79675871D01*
X124638320Y-79675871D02*
X124733558Y-79628252D01*
X124733558Y-79628252D02*
X124876415Y-79628252D01*
X124876415Y-79628252D02*
X124971653Y-79675871D01*
X124971653Y-79675871D02*
X125019272Y-79723490D01*
X125019272Y-79723490D02*
X125066891Y-79818728D01*
X125066891Y-79818728D02*
X125066891Y-80104442D01*
X125066891Y-80104442D02*
X125019272Y-80199680D01*
X125019272Y-80199680D02*
X124971653Y-80247300D01*
X124971653Y-80247300D02*
X124876415Y-80294919D01*
X124876415Y-80294919D02*
X124733558Y-80294919D01*
X125495463Y-80294919D02*
X125495463Y-79628252D01*
X125495463Y-79818728D02*
X125543082Y-79723490D01*
X125543082Y-79723490D02*
X125590701Y-79675871D01*
X125590701Y-79675871D02*
X125685939Y-79628252D01*
X125685939Y-79628252D02*
X125781177Y-79628252D01*
X101836866Y-68010319D02*
X101836866Y-68724604D01*
X101836866Y-68724604D02*
X101789247Y-68867461D01*
X101789247Y-68867461D02*
X101694009Y-68962700D01*
X101694009Y-68962700D02*
X101551152Y-69010319D01*
X101551152Y-69010319D02*
X101455914Y-69010319D01*
X102217819Y-68010319D02*
X102836866Y-68010319D01*
X102836866Y-68010319D02*
X102503533Y-68391271D01*
X102503533Y-68391271D02*
X102646390Y-68391271D01*
X102646390Y-68391271D02*
X102741628Y-68438890D01*
X102741628Y-68438890D02*
X102789247Y-68486509D01*
X102789247Y-68486509D02*
X102836866Y-68581747D01*
X102836866Y-68581747D02*
X102836866Y-68819842D01*
X102836866Y-68819842D02*
X102789247Y-68915080D01*
X102789247Y-68915080D02*
X102741628Y-68962700D01*
X102741628Y-68962700D02*
X102646390Y-69010319D01*
X102646390Y-69010319D02*
X102360676Y-69010319D01*
X102360676Y-69010319D02*
X102265438Y-68962700D01*
X102265438Y-68962700D02*
X102217819Y-68915080D01*
X95900222Y-80294919D02*
X95566889Y-79818728D01*
X95328794Y-80294919D02*
X95328794Y-79294919D01*
X95328794Y-79294919D02*
X95709746Y-79294919D01*
X95709746Y-79294919D02*
X95804984Y-79342538D01*
X95804984Y-79342538D02*
X95852603Y-79390157D01*
X95852603Y-79390157D02*
X95900222Y-79485395D01*
X95900222Y-79485395D02*
X95900222Y-79628252D01*
X95900222Y-79628252D02*
X95852603Y-79723490D01*
X95852603Y-79723490D02*
X95804984Y-79771109D01*
X95804984Y-79771109D02*
X95709746Y-79818728D01*
X95709746Y-79818728D02*
X95328794Y-79818728D01*
X96328794Y-80294919D02*
X96328794Y-79628252D01*
X96328794Y-79294919D02*
X96281175Y-79342538D01*
X96281175Y-79342538D02*
X96328794Y-79390157D01*
X96328794Y-79390157D02*
X96376413Y-79342538D01*
X96376413Y-79342538D02*
X96328794Y-79294919D01*
X96328794Y-79294919D02*
X96328794Y-79390157D01*
X97233555Y-79628252D02*
X97233555Y-80437776D01*
X97233555Y-80437776D02*
X97185936Y-80533014D01*
X97185936Y-80533014D02*
X97138317Y-80580633D01*
X97138317Y-80580633D02*
X97043079Y-80628252D01*
X97043079Y-80628252D02*
X96900222Y-80628252D01*
X96900222Y-80628252D02*
X96804984Y-80580633D01*
X97233555Y-80247300D02*
X97138317Y-80294919D01*
X97138317Y-80294919D02*
X96947841Y-80294919D01*
X96947841Y-80294919D02*
X96852603Y-80247300D01*
X96852603Y-80247300D02*
X96804984Y-80199680D01*
X96804984Y-80199680D02*
X96757365Y-80104442D01*
X96757365Y-80104442D02*
X96757365Y-79818728D01*
X96757365Y-79818728D02*
X96804984Y-79723490D01*
X96804984Y-79723490D02*
X96852603Y-79675871D01*
X96852603Y-79675871D02*
X96947841Y-79628252D01*
X96947841Y-79628252D02*
X97138317Y-79628252D01*
X97138317Y-79628252D02*
X97233555Y-79675871D01*
X97709746Y-80294919D02*
X97709746Y-79294919D01*
X98138317Y-80294919D02*
X98138317Y-79771109D01*
X98138317Y-79771109D02*
X98090698Y-79675871D01*
X98090698Y-79675871D02*
X97995460Y-79628252D01*
X97995460Y-79628252D02*
X97852603Y-79628252D01*
X97852603Y-79628252D02*
X97757365Y-79675871D01*
X97757365Y-79675871D02*
X97709746Y-79723490D01*
X98471651Y-79628252D02*
X98852603Y-79628252D01*
X98614508Y-79294919D02*
X98614508Y-80152061D01*
X98614508Y-80152061D02*
X98662127Y-80247300D01*
X98662127Y-80247300D02*
X98757365Y-80294919D01*
X98757365Y-80294919D02*
X98852603Y-80294919D01*
X98947842Y-80390157D02*
X99709746Y-80390157D01*
X100424032Y-80294919D02*
X99947842Y-80294919D01*
X99947842Y-80294919D02*
X99947842Y-79294919D01*
X100757366Y-80294919D02*
X100757366Y-79628252D01*
X100757366Y-79294919D02*
X100709747Y-79342538D01*
X100709747Y-79342538D02*
X100757366Y-79390157D01*
X100757366Y-79390157D02*
X100804985Y-79342538D01*
X100804985Y-79342538D02*
X100757366Y-79294919D01*
X100757366Y-79294919D02*
X100757366Y-79390157D01*
X101090699Y-79628252D02*
X101471651Y-79628252D01*
X101233556Y-80294919D02*
X101233556Y-79437776D01*
X101233556Y-79437776D02*
X101281175Y-79342538D01*
X101281175Y-79342538D02*
X101376413Y-79294919D01*
X101376413Y-79294919D02*
X101471651Y-79294919D01*
X101662128Y-79628252D02*
X102043080Y-79628252D01*
X101804985Y-79294919D02*
X101804985Y-80152061D01*
X101804985Y-80152061D02*
X101852604Y-80247300D01*
X101852604Y-80247300D02*
X101947842Y-80294919D01*
X101947842Y-80294919D02*
X102043080Y-80294919D01*
X102138319Y-80390157D02*
X102900223Y-80390157D01*
X103090700Y-80009204D02*
X103566890Y-80009204D01*
X102995462Y-80294919D02*
X103328795Y-79294919D01*
X103328795Y-79294919D02*
X103662128Y-80294919D01*
X104424033Y-80247300D02*
X104328795Y-80294919D01*
X104328795Y-80294919D02*
X104138319Y-80294919D01*
X104138319Y-80294919D02*
X104043081Y-80247300D01*
X104043081Y-80247300D02*
X103995462Y-80199680D01*
X103995462Y-80199680D02*
X103947843Y-80104442D01*
X103947843Y-80104442D02*
X103947843Y-79818728D01*
X103947843Y-79818728D02*
X103995462Y-79723490D01*
X103995462Y-79723490D02*
X104043081Y-79675871D01*
X104043081Y-79675871D02*
X104138319Y-79628252D01*
X104138319Y-79628252D02*
X104328795Y-79628252D01*
X104328795Y-79628252D02*
X104424033Y-79675871D01*
X104709748Y-79628252D02*
X105090700Y-79628252D01*
X104852605Y-79294919D02*
X104852605Y-80152061D01*
X104852605Y-80152061D02*
X104900224Y-80247300D01*
X104900224Y-80247300D02*
X104995462Y-80294919D01*
X104995462Y-80294919D02*
X105090700Y-80294919D01*
X105852605Y-79628252D02*
X105852605Y-80294919D01*
X105424034Y-79628252D02*
X105424034Y-80152061D01*
X105424034Y-80152061D02*
X105471653Y-80247300D01*
X105471653Y-80247300D02*
X105566891Y-80294919D01*
X105566891Y-80294919D02*
X105709748Y-80294919D01*
X105709748Y-80294919D02*
X105804986Y-80247300D01*
X105804986Y-80247300D02*
X105852605Y-80199680D01*
X106757367Y-80294919D02*
X106757367Y-79771109D01*
X106757367Y-79771109D02*
X106709748Y-79675871D01*
X106709748Y-79675871D02*
X106614510Y-79628252D01*
X106614510Y-79628252D02*
X106424034Y-79628252D01*
X106424034Y-79628252D02*
X106328796Y-79675871D01*
X106757367Y-80247300D02*
X106662129Y-80294919D01*
X106662129Y-80294919D02*
X106424034Y-80294919D01*
X106424034Y-80294919D02*
X106328796Y-80247300D01*
X106328796Y-80247300D02*
X106281177Y-80152061D01*
X106281177Y-80152061D02*
X106281177Y-80056823D01*
X106281177Y-80056823D02*
X106328796Y-79961585D01*
X106328796Y-79961585D02*
X106424034Y-79913966D01*
X106424034Y-79913966D02*
X106662129Y-79913966D01*
X106662129Y-79913966D02*
X106757367Y-79866347D01*
X107090701Y-79628252D02*
X107471653Y-79628252D01*
X107233558Y-79294919D02*
X107233558Y-80152061D01*
X107233558Y-80152061D02*
X107281177Y-80247300D01*
X107281177Y-80247300D02*
X107376415Y-80294919D01*
X107376415Y-80294919D02*
X107471653Y-80294919D01*
X107947844Y-80294919D02*
X107852606Y-80247300D01*
X107852606Y-80247300D02*
X107804987Y-80199680D01*
X107804987Y-80199680D02*
X107757368Y-80104442D01*
X107757368Y-80104442D02*
X107757368Y-79818728D01*
X107757368Y-79818728D02*
X107804987Y-79723490D01*
X107804987Y-79723490D02*
X107852606Y-79675871D01*
X107852606Y-79675871D02*
X107947844Y-79628252D01*
X107947844Y-79628252D02*
X108090701Y-79628252D01*
X108090701Y-79628252D02*
X108185939Y-79675871D01*
X108185939Y-79675871D02*
X108233558Y-79723490D01*
X108233558Y-79723490D02*
X108281177Y-79818728D01*
X108281177Y-79818728D02*
X108281177Y-80104442D01*
X108281177Y-80104442D02*
X108233558Y-80199680D01*
X108233558Y-80199680D02*
X108185939Y-80247300D01*
X108185939Y-80247300D02*
X108090701Y-80294919D01*
X108090701Y-80294919D02*
X107947844Y-80294919D01*
X108709749Y-80294919D02*
X108709749Y-79628252D01*
X108709749Y-79818728D02*
X108757368Y-79723490D01*
X108757368Y-79723490D02*
X108804987Y-79675871D01*
X108804987Y-79675871D02*
X108900225Y-79628252D01*
X108900225Y-79628252D02*
X108995463Y-79628252D01*
D11*
X119981176Y-60403695D02*
X119981176Y-61051314D01*
X119981176Y-61051314D02*
X120019271Y-61127504D01*
X120019271Y-61127504D02*
X120057366Y-61165600D01*
X120057366Y-61165600D02*
X120133557Y-61203695D01*
X120133557Y-61203695D02*
X120285938Y-61203695D01*
X120285938Y-61203695D02*
X120362128Y-61165600D01*
X120362128Y-61165600D02*
X120400223Y-61127504D01*
X120400223Y-61127504D02*
X120438319Y-61051314D01*
X120438319Y-61051314D02*
X120438319Y-60403695D01*
X120781175Y-60479885D02*
X120819271Y-60441790D01*
X120819271Y-60441790D02*
X120895461Y-60403695D01*
X120895461Y-60403695D02*
X121085937Y-60403695D01*
X121085937Y-60403695D02*
X121162128Y-60441790D01*
X121162128Y-60441790D02*
X121200223Y-60479885D01*
X121200223Y-60479885D02*
X121238318Y-60556076D01*
X121238318Y-60556076D02*
X121238318Y-60632266D01*
X121238318Y-60632266D02*
X121200223Y-60746552D01*
X121200223Y-60746552D02*
X120743080Y-61203695D01*
X120743080Y-61203695D02*
X121238318Y-61203695D01*
D12*
X118514508Y-57283347D02*
X118628794Y-57321442D01*
X118628794Y-57321442D02*
X118666889Y-57359538D01*
X118666889Y-57359538D02*
X118704985Y-57435728D01*
X118704985Y-57435728D02*
X118704985Y-57550014D01*
X118704985Y-57550014D02*
X118666889Y-57626204D01*
X118666889Y-57626204D02*
X118628794Y-57664300D01*
X118628794Y-57664300D02*
X118552604Y-57702395D01*
X118552604Y-57702395D02*
X118247842Y-57702395D01*
X118247842Y-57702395D02*
X118247842Y-56902395D01*
X118247842Y-56902395D02*
X118514508Y-56902395D01*
X118514508Y-56902395D02*
X118590699Y-56940490D01*
X118590699Y-56940490D02*
X118628794Y-56978585D01*
X118628794Y-56978585D02*
X118666889Y-57054776D01*
X118666889Y-57054776D02*
X118666889Y-57130966D01*
X118666889Y-57130966D02*
X118628794Y-57207157D01*
X118628794Y-57207157D02*
X118590699Y-57245252D01*
X118590699Y-57245252D02*
X118514508Y-57283347D01*
X118514508Y-57283347D02*
X118247842Y-57283347D01*
X118933556Y-56902395D02*
X119390699Y-56902395D01*
X119162127Y-57702395D02*
X119162127Y-56902395D01*
X119619270Y-57664300D02*
X119733556Y-57702395D01*
X119733556Y-57702395D02*
X119924032Y-57702395D01*
X119924032Y-57702395D02*
X120000223Y-57664300D01*
X120000223Y-57664300D02*
X120038318Y-57626204D01*
X120038318Y-57626204D02*
X120076413Y-57550014D01*
X120076413Y-57550014D02*
X120076413Y-57473823D01*
X120076413Y-57473823D02*
X120038318Y-57397633D01*
X120038318Y-57397633D02*
X120000223Y-57359538D01*
X120000223Y-57359538D02*
X119924032Y-57321442D01*
X119924032Y-57321442D02*
X119771651Y-57283347D01*
X119771651Y-57283347D02*
X119695461Y-57245252D01*
X119695461Y-57245252D02*
X119657366Y-57207157D01*
X119657366Y-57207157D02*
X119619270Y-57130966D01*
X119619270Y-57130966D02*
X119619270Y-57054776D01*
X119619270Y-57054776D02*
X119657366Y-56978585D01*
X119657366Y-56978585D02*
X119695461Y-56940490D01*
X119695461Y-56940490D02*
X119771651Y-56902395D01*
X119771651Y-56902395D02*
X119962128Y-56902395D01*
X119962128Y-56902395D02*
X120076413Y-56940490D01*
X120228795Y-57778585D02*
X120838318Y-57778585D01*
X121028795Y-57702395D02*
X121028795Y-56902395D01*
X121028795Y-56902395D02*
X121295461Y-57473823D01*
X121295461Y-57473823D02*
X121562128Y-56902395D01*
X121562128Y-56902395D02*
X121562128Y-57702395D01*
X121752605Y-57778585D02*
X122362128Y-57778585D01*
X122514509Y-56978585D02*
X122552605Y-56940490D01*
X122552605Y-56940490D02*
X122628795Y-56902395D01*
X122628795Y-56902395D02*
X122819271Y-56902395D01*
X122819271Y-56902395D02*
X122895462Y-56940490D01*
X122895462Y-56940490D02*
X122933557Y-56978585D01*
X122933557Y-56978585D02*
X122971652Y-57054776D01*
X122971652Y-57054776D02*
X122971652Y-57130966D01*
X122971652Y-57130966D02*
X122933557Y-57245252D01*
X122933557Y-57245252D02*
X122476414Y-57702395D01*
X122476414Y-57702395D02*
X122971652Y-57702395D01*
X84481176Y-60402395D02*
X84481176Y-61050014D01*
X84481176Y-61050014D02*
X84519271Y-61126204D01*
X84519271Y-61126204D02*
X84557366Y-61164300D01*
X84557366Y-61164300D02*
X84633557Y-61202395D01*
X84633557Y-61202395D02*
X84785938Y-61202395D01*
X84785938Y-61202395D02*
X84862128Y-61164300D01*
X84862128Y-61164300D02*
X84900223Y-61126204D01*
X84900223Y-61126204D02*
X84938319Y-61050014D01*
X84938319Y-61050014D02*
X84938319Y-60402395D01*
X85662128Y-60669061D02*
X85662128Y-61202395D01*
X85471652Y-60364300D02*
X85281175Y-60935728D01*
X85281175Y-60935728D02*
X85776414Y-60935728D01*
X83014508Y-57283347D02*
X83128794Y-57321442D01*
X83128794Y-57321442D02*
X83166889Y-57359538D01*
X83166889Y-57359538D02*
X83204985Y-57435728D01*
X83204985Y-57435728D02*
X83204985Y-57550014D01*
X83204985Y-57550014D02*
X83166889Y-57626204D01*
X83166889Y-57626204D02*
X83128794Y-57664300D01*
X83128794Y-57664300D02*
X83052604Y-57702395D01*
X83052604Y-57702395D02*
X82747842Y-57702395D01*
X82747842Y-57702395D02*
X82747842Y-56902395D01*
X82747842Y-56902395D02*
X83014508Y-56902395D01*
X83014508Y-56902395D02*
X83090699Y-56940490D01*
X83090699Y-56940490D02*
X83128794Y-56978585D01*
X83128794Y-56978585D02*
X83166889Y-57054776D01*
X83166889Y-57054776D02*
X83166889Y-57130966D01*
X83166889Y-57130966D02*
X83128794Y-57207157D01*
X83128794Y-57207157D02*
X83090699Y-57245252D01*
X83090699Y-57245252D02*
X83014508Y-57283347D01*
X83014508Y-57283347D02*
X82747842Y-57283347D01*
X83433556Y-56902395D02*
X83890699Y-56902395D01*
X83662127Y-57702395D02*
X83662127Y-56902395D01*
X84119270Y-57664300D02*
X84233556Y-57702395D01*
X84233556Y-57702395D02*
X84424032Y-57702395D01*
X84424032Y-57702395D02*
X84500223Y-57664300D01*
X84500223Y-57664300D02*
X84538318Y-57626204D01*
X84538318Y-57626204D02*
X84576413Y-57550014D01*
X84576413Y-57550014D02*
X84576413Y-57473823D01*
X84576413Y-57473823D02*
X84538318Y-57397633D01*
X84538318Y-57397633D02*
X84500223Y-57359538D01*
X84500223Y-57359538D02*
X84424032Y-57321442D01*
X84424032Y-57321442D02*
X84271651Y-57283347D01*
X84271651Y-57283347D02*
X84195461Y-57245252D01*
X84195461Y-57245252D02*
X84157366Y-57207157D01*
X84157366Y-57207157D02*
X84119270Y-57130966D01*
X84119270Y-57130966D02*
X84119270Y-57054776D01*
X84119270Y-57054776D02*
X84157366Y-56978585D01*
X84157366Y-56978585D02*
X84195461Y-56940490D01*
X84195461Y-56940490D02*
X84271651Y-56902395D01*
X84271651Y-56902395D02*
X84462128Y-56902395D01*
X84462128Y-56902395D02*
X84576413Y-56940490D01*
X84728795Y-57778585D02*
X85338318Y-57778585D01*
X85528795Y-57702395D02*
X85528795Y-56902395D01*
X85528795Y-56902395D02*
X85795461Y-57473823D01*
X85795461Y-57473823D02*
X86062128Y-56902395D01*
X86062128Y-56902395D02*
X86062128Y-57702395D01*
X86252605Y-57778585D02*
X86862128Y-57778585D01*
X87395462Y-57169061D02*
X87395462Y-57702395D01*
X87204986Y-56864300D02*
X87014509Y-57435728D01*
X87014509Y-57435728D02*
X87509748Y-57435728D01*
X101481176Y-60402395D02*
X101481176Y-61050014D01*
X101481176Y-61050014D02*
X101519271Y-61126204D01*
X101519271Y-61126204D02*
X101557366Y-61164300D01*
X101557366Y-61164300D02*
X101633557Y-61202395D01*
X101633557Y-61202395D02*
X101785938Y-61202395D01*
X101785938Y-61202395D02*
X101862128Y-61164300D01*
X101862128Y-61164300D02*
X101900223Y-61126204D01*
X101900223Y-61126204D02*
X101938319Y-61050014D01*
X101938319Y-61050014D02*
X101938319Y-60402395D01*
X102243080Y-60402395D02*
X102738318Y-60402395D01*
X102738318Y-60402395D02*
X102471652Y-60707157D01*
X102471652Y-60707157D02*
X102585937Y-60707157D01*
X102585937Y-60707157D02*
X102662128Y-60745252D01*
X102662128Y-60745252D02*
X102700223Y-60783347D01*
X102700223Y-60783347D02*
X102738318Y-60859538D01*
X102738318Y-60859538D02*
X102738318Y-61050014D01*
X102738318Y-61050014D02*
X102700223Y-61126204D01*
X102700223Y-61126204D02*
X102662128Y-61164300D01*
X102662128Y-61164300D02*
X102585937Y-61202395D01*
X102585937Y-61202395D02*
X102357366Y-61202395D01*
X102357366Y-61202395D02*
X102281175Y-61164300D01*
X102281175Y-61164300D02*
X102243080Y-61126204D01*
X100014508Y-57283347D02*
X100128794Y-57321442D01*
X100128794Y-57321442D02*
X100166889Y-57359538D01*
X100166889Y-57359538D02*
X100204985Y-57435728D01*
X100204985Y-57435728D02*
X100204985Y-57550014D01*
X100204985Y-57550014D02*
X100166889Y-57626204D01*
X100166889Y-57626204D02*
X100128794Y-57664300D01*
X100128794Y-57664300D02*
X100052604Y-57702395D01*
X100052604Y-57702395D02*
X99747842Y-57702395D01*
X99747842Y-57702395D02*
X99747842Y-56902395D01*
X99747842Y-56902395D02*
X100014508Y-56902395D01*
X100014508Y-56902395D02*
X100090699Y-56940490D01*
X100090699Y-56940490D02*
X100128794Y-56978585D01*
X100128794Y-56978585D02*
X100166889Y-57054776D01*
X100166889Y-57054776D02*
X100166889Y-57130966D01*
X100166889Y-57130966D02*
X100128794Y-57207157D01*
X100128794Y-57207157D02*
X100090699Y-57245252D01*
X100090699Y-57245252D02*
X100014508Y-57283347D01*
X100014508Y-57283347D02*
X99747842Y-57283347D01*
X100433556Y-56902395D02*
X100890699Y-56902395D01*
X100662127Y-57702395D02*
X100662127Y-56902395D01*
X101119270Y-57664300D02*
X101233556Y-57702395D01*
X101233556Y-57702395D02*
X101424032Y-57702395D01*
X101424032Y-57702395D02*
X101500223Y-57664300D01*
X101500223Y-57664300D02*
X101538318Y-57626204D01*
X101538318Y-57626204D02*
X101576413Y-57550014D01*
X101576413Y-57550014D02*
X101576413Y-57473823D01*
X101576413Y-57473823D02*
X101538318Y-57397633D01*
X101538318Y-57397633D02*
X101500223Y-57359538D01*
X101500223Y-57359538D02*
X101424032Y-57321442D01*
X101424032Y-57321442D02*
X101271651Y-57283347D01*
X101271651Y-57283347D02*
X101195461Y-57245252D01*
X101195461Y-57245252D02*
X101157366Y-57207157D01*
X101157366Y-57207157D02*
X101119270Y-57130966D01*
X101119270Y-57130966D02*
X101119270Y-57054776D01*
X101119270Y-57054776D02*
X101157366Y-56978585D01*
X101157366Y-56978585D02*
X101195461Y-56940490D01*
X101195461Y-56940490D02*
X101271651Y-56902395D01*
X101271651Y-56902395D02*
X101462128Y-56902395D01*
X101462128Y-56902395D02*
X101576413Y-56940490D01*
X101728795Y-57778585D02*
X102338318Y-57778585D01*
X102528795Y-57702395D02*
X102528795Y-56902395D01*
X102528795Y-56902395D02*
X102795461Y-57473823D01*
X102795461Y-57473823D02*
X103062128Y-56902395D01*
X103062128Y-56902395D02*
X103062128Y-57702395D01*
X103252605Y-57778585D02*
X103862128Y-57778585D01*
X103976414Y-56902395D02*
X104471652Y-56902395D01*
X104471652Y-56902395D02*
X104204986Y-57207157D01*
X104204986Y-57207157D02*
X104319271Y-57207157D01*
X104319271Y-57207157D02*
X104395462Y-57245252D01*
X104395462Y-57245252D02*
X104433557Y-57283347D01*
X104433557Y-57283347D02*
X104471652Y-57359538D01*
X104471652Y-57359538D02*
X104471652Y-57550014D01*
X104471652Y-57550014D02*
X104433557Y-57626204D01*
X104433557Y-57626204D02*
X104395462Y-57664300D01*
X104395462Y-57664300D02*
X104319271Y-57702395D01*
X104319271Y-57702395D02*
X104090700Y-57702395D01*
X104090700Y-57702395D02*
X104014509Y-57664300D01*
X104014509Y-57664300D02*
X103976414Y-57626204D01*
X84687666Y-68010319D02*
X84687666Y-68724604D01*
X84687666Y-68724604D02*
X84640047Y-68867461D01*
X84640047Y-68867461D02*
X84544809Y-68962700D01*
X84544809Y-68962700D02*
X84401952Y-69010319D01*
X84401952Y-69010319D02*
X84306714Y-69010319D01*
X85592428Y-68343652D02*
X85592428Y-69010319D01*
X85354333Y-67962700D02*
X85116238Y-68676985D01*
X85116238Y-68676985D02*
X85735285Y-68676985D01*
X78828793Y-80294919D02*
X78352603Y-80294919D01*
X78352603Y-80294919D02*
X78352603Y-79294919D01*
X79543079Y-80247300D02*
X79447841Y-80294919D01*
X79447841Y-80294919D02*
X79257365Y-80294919D01*
X79257365Y-80294919D02*
X79162127Y-80247300D01*
X79162127Y-80247300D02*
X79114508Y-80152061D01*
X79114508Y-80152061D02*
X79114508Y-79771109D01*
X79114508Y-79771109D02*
X79162127Y-79675871D01*
X79162127Y-79675871D02*
X79257365Y-79628252D01*
X79257365Y-79628252D02*
X79447841Y-79628252D01*
X79447841Y-79628252D02*
X79543079Y-79675871D01*
X79543079Y-79675871D02*
X79590698Y-79771109D01*
X79590698Y-79771109D02*
X79590698Y-79866347D01*
X79590698Y-79866347D02*
X79114508Y-79961585D01*
X79876413Y-79628252D02*
X80257365Y-79628252D01*
X80019270Y-80294919D02*
X80019270Y-79437776D01*
X80019270Y-79437776D02*
X80066889Y-79342538D01*
X80066889Y-79342538D02*
X80162127Y-79294919D01*
X80162127Y-79294919D02*
X80257365Y-79294919D01*
X80447842Y-79628252D02*
X80828794Y-79628252D01*
X80590699Y-79294919D02*
X80590699Y-80152061D01*
X80590699Y-80152061D02*
X80638318Y-80247300D01*
X80638318Y-80247300D02*
X80733556Y-80294919D01*
X80733556Y-80294919D02*
X80828794Y-80294919D01*
X80924033Y-80390157D02*
X81685937Y-80390157D01*
X82400223Y-80294919D02*
X81924033Y-80294919D01*
X81924033Y-80294919D02*
X81924033Y-79294919D01*
X82733557Y-80294919D02*
X82733557Y-79628252D01*
X82733557Y-79294919D02*
X82685938Y-79342538D01*
X82685938Y-79342538D02*
X82733557Y-79390157D01*
X82733557Y-79390157D02*
X82781176Y-79342538D01*
X82781176Y-79342538D02*
X82733557Y-79294919D01*
X82733557Y-79294919D02*
X82733557Y-79390157D01*
X83066890Y-79628252D02*
X83447842Y-79628252D01*
X83209747Y-80294919D02*
X83209747Y-79437776D01*
X83209747Y-79437776D02*
X83257366Y-79342538D01*
X83257366Y-79342538D02*
X83352604Y-79294919D01*
X83352604Y-79294919D02*
X83447842Y-79294919D01*
X83638319Y-79628252D02*
X84019271Y-79628252D01*
X83781176Y-79294919D02*
X83781176Y-80152061D01*
X83781176Y-80152061D02*
X83828795Y-80247300D01*
X83828795Y-80247300D02*
X83924033Y-80294919D01*
X83924033Y-80294919D02*
X84019271Y-80294919D01*
X84114510Y-80390157D02*
X84876414Y-80390157D01*
X85066891Y-80009204D02*
X85543081Y-80009204D01*
X84971653Y-80294919D02*
X85304986Y-79294919D01*
X85304986Y-79294919D02*
X85638319Y-80294919D01*
X86400224Y-80247300D02*
X86304986Y-80294919D01*
X86304986Y-80294919D02*
X86114510Y-80294919D01*
X86114510Y-80294919D02*
X86019272Y-80247300D01*
X86019272Y-80247300D02*
X85971653Y-80199680D01*
X85971653Y-80199680D02*
X85924034Y-80104442D01*
X85924034Y-80104442D02*
X85924034Y-79818728D01*
X85924034Y-79818728D02*
X85971653Y-79723490D01*
X85971653Y-79723490D02*
X86019272Y-79675871D01*
X86019272Y-79675871D02*
X86114510Y-79628252D01*
X86114510Y-79628252D02*
X86304986Y-79628252D01*
X86304986Y-79628252D02*
X86400224Y-79675871D01*
X86685939Y-79628252D02*
X87066891Y-79628252D01*
X86828796Y-79294919D02*
X86828796Y-80152061D01*
X86828796Y-80152061D02*
X86876415Y-80247300D01*
X86876415Y-80247300D02*
X86971653Y-80294919D01*
X86971653Y-80294919D02*
X87066891Y-80294919D01*
X87828796Y-79628252D02*
X87828796Y-80294919D01*
X87400225Y-79628252D02*
X87400225Y-80152061D01*
X87400225Y-80152061D02*
X87447844Y-80247300D01*
X87447844Y-80247300D02*
X87543082Y-80294919D01*
X87543082Y-80294919D02*
X87685939Y-80294919D01*
X87685939Y-80294919D02*
X87781177Y-80247300D01*
X87781177Y-80247300D02*
X87828796Y-80199680D01*
X88733558Y-80294919D02*
X88733558Y-79771109D01*
X88733558Y-79771109D02*
X88685939Y-79675871D01*
X88685939Y-79675871D02*
X88590701Y-79628252D01*
X88590701Y-79628252D02*
X88400225Y-79628252D01*
X88400225Y-79628252D02*
X88304987Y-79675871D01*
X88733558Y-80247300D02*
X88638320Y-80294919D01*
X88638320Y-80294919D02*
X88400225Y-80294919D01*
X88400225Y-80294919D02*
X88304987Y-80247300D01*
X88304987Y-80247300D02*
X88257368Y-80152061D01*
X88257368Y-80152061D02*
X88257368Y-80056823D01*
X88257368Y-80056823D02*
X88304987Y-79961585D01*
X88304987Y-79961585D02*
X88400225Y-79913966D01*
X88400225Y-79913966D02*
X88638320Y-79913966D01*
X88638320Y-79913966D02*
X88733558Y-79866347D01*
X89066892Y-79628252D02*
X89447844Y-79628252D01*
X89209749Y-79294919D02*
X89209749Y-80152061D01*
X89209749Y-80152061D02*
X89257368Y-80247300D01*
X89257368Y-80247300D02*
X89352606Y-80294919D01*
X89352606Y-80294919D02*
X89447844Y-80294919D01*
X89924035Y-80294919D02*
X89828797Y-80247300D01*
X89828797Y-80247300D02*
X89781178Y-80199680D01*
X89781178Y-80199680D02*
X89733559Y-80104442D01*
X89733559Y-80104442D02*
X89733559Y-79818728D01*
X89733559Y-79818728D02*
X89781178Y-79723490D01*
X89781178Y-79723490D02*
X89828797Y-79675871D01*
X89828797Y-79675871D02*
X89924035Y-79628252D01*
X89924035Y-79628252D02*
X90066892Y-79628252D01*
X90066892Y-79628252D02*
X90162130Y-79675871D01*
X90162130Y-79675871D02*
X90209749Y-79723490D01*
X90209749Y-79723490D02*
X90257368Y-79818728D01*
X90257368Y-79818728D02*
X90257368Y-80104442D01*
X90257368Y-80104442D02*
X90209749Y-80199680D01*
X90209749Y-80199680D02*
X90162130Y-80247300D01*
X90162130Y-80247300D02*
X90066892Y-80294919D01*
X90066892Y-80294919D02*
X89924035Y-80294919D01*
X90685940Y-80294919D02*
X90685940Y-79628252D01*
X90685940Y-79818728D02*
X90733559Y-79723490D01*
X90733559Y-79723490D02*
X90781178Y-79675871D01*
X90781178Y-79675871D02*
X90876416Y-79628252D01*
X90876416Y-79628252D02*
X90971654Y-79628252D01*
X136670366Y-68010319D02*
X136670366Y-68724604D01*
X136670366Y-68724604D02*
X136622747Y-68867461D01*
X136622747Y-68867461D02*
X136527509Y-68962700D01*
X136527509Y-68962700D02*
X136384652Y-69010319D01*
X136384652Y-69010319D02*
X136289414Y-69010319D01*
X137670366Y-69010319D02*
X137098938Y-69010319D01*
X137384652Y-69010319D02*
X137384652Y-68010319D01*
X137384652Y-68010319D02*
X137289414Y-68153176D01*
X137289414Y-68153176D02*
X137194176Y-68248414D01*
X137194176Y-68248414D02*
X137098938Y-68296033D01*
X131471650Y-79771109D02*
X131614507Y-79818728D01*
X131614507Y-79818728D02*
X131662126Y-79866347D01*
X131662126Y-79866347D02*
X131709745Y-79961585D01*
X131709745Y-79961585D02*
X131709745Y-80104442D01*
X131709745Y-80104442D02*
X131662126Y-80199680D01*
X131662126Y-80199680D02*
X131614507Y-80247300D01*
X131614507Y-80247300D02*
X131519269Y-80294919D01*
X131519269Y-80294919D02*
X131138317Y-80294919D01*
X131138317Y-80294919D02*
X131138317Y-79294919D01*
X131138317Y-79294919D02*
X131471650Y-79294919D01*
X131471650Y-79294919D02*
X131566888Y-79342538D01*
X131566888Y-79342538D02*
X131614507Y-79390157D01*
X131614507Y-79390157D02*
X131662126Y-79485395D01*
X131662126Y-79485395D02*
X131662126Y-79580633D01*
X131662126Y-79580633D02*
X131614507Y-79675871D01*
X131614507Y-79675871D02*
X131566888Y-79723490D01*
X131566888Y-79723490D02*
X131471650Y-79771109D01*
X131471650Y-79771109D02*
X131138317Y-79771109D01*
X132566888Y-80294919D02*
X132566888Y-79771109D01*
X132566888Y-79771109D02*
X132519269Y-79675871D01*
X132519269Y-79675871D02*
X132424031Y-79628252D01*
X132424031Y-79628252D02*
X132233555Y-79628252D01*
X132233555Y-79628252D02*
X132138317Y-79675871D01*
X132566888Y-80247300D02*
X132471650Y-80294919D01*
X132471650Y-80294919D02*
X132233555Y-80294919D01*
X132233555Y-80294919D02*
X132138317Y-80247300D01*
X132138317Y-80247300D02*
X132090698Y-80152061D01*
X132090698Y-80152061D02*
X132090698Y-80056823D01*
X132090698Y-80056823D02*
X132138317Y-79961585D01*
X132138317Y-79961585D02*
X132233555Y-79913966D01*
X132233555Y-79913966D02*
X132471650Y-79913966D01*
X132471650Y-79913966D02*
X132566888Y-79866347D01*
X133471650Y-80247300D02*
X133376412Y-80294919D01*
X133376412Y-80294919D02*
X133185936Y-80294919D01*
X133185936Y-80294919D02*
X133090698Y-80247300D01*
X133090698Y-80247300D02*
X133043079Y-80199680D01*
X133043079Y-80199680D02*
X132995460Y-80104442D01*
X132995460Y-80104442D02*
X132995460Y-79818728D01*
X132995460Y-79818728D02*
X133043079Y-79723490D01*
X133043079Y-79723490D02*
X133090698Y-79675871D01*
X133090698Y-79675871D02*
X133185936Y-79628252D01*
X133185936Y-79628252D02*
X133376412Y-79628252D01*
X133376412Y-79628252D02*
X133471650Y-79675871D01*
X133900222Y-80294919D02*
X133900222Y-79294919D01*
X133995460Y-79913966D02*
X134281174Y-80294919D01*
X134281174Y-79628252D02*
X133900222Y-80009204D01*
X134709746Y-80294919D02*
X134709746Y-79628252D01*
X134709746Y-79818728D02*
X134757365Y-79723490D01*
X134757365Y-79723490D02*
X134804984Y-79675871D01*
X134804984Y-79675871D02*
X134900222Y-79628252D01*
X134900222Y-79628252D02*
X134995460Y-79628252D01*
X135709746Y-80247300D02*
X135614508Y-80294919D01*
X135614508Y-80294919D02*
X135424032Y-80294919D01*
X135424032Y-80294919D02*
X135328794Y-80247300D01*
X135328794Y-80247300D02*
X135281175Y-80152061D01*
X135281175Y-80152061D02*
X135281175Y-79771109D01*
X135281175Y-79771109D02*
X135328794Y-79675871D01*
X135328794Y-79675871D02*
X135424032Y-79628252D01*
X135424032Y-79628252D02*
X135614508Y-79628252D01*
X135614508Y-79628252D02*
X135709746Y-79675871D01*
X135709746Y-79675871D02*
X135757365Y-79771109D01*
X135757365Y-79771109D02*
X135757365Y-79866347D01*
X135757365Y-79866347D02*
X135281175Y-79961585D01*
X136138318Y-80247300D02*
X136233556Y-80294919D01*
X136233556Y-80294919D02*
X136424032Y-80294919D01*
X136424032Y-80294919D02*
X136519270Y-80247300D01*
X136519270Y-80247300D02*
X136566889Y-80152061D01*
X136566889Y-80152061D02*
X136566889Y-80104442D01*
X136566889Y-80104442D02*
X136519270Y-80009204D01*
X136519270Y-80009204D02*
X136424032Y-79961585D01*
X136424032Y-79961585D02*
X136281175Y-79961585D01*
X136281175Y-79961585D02*
X136185937Y-79913966D01*
X136185937Y-79913966D02*
X136138318Y-79818728D01*
X136138318Y-79818728D02*
X136138318Y-79771109D01*
X136138318Y-79771109D02*
X136185937Y-79675871D01*
X136185937Y-79675871D02*
X136281175Y-79628252D01*
X136281175Y-79628252D02*
X136424032Y-79628252D01*
X136424032Y-79628252D02*
X136519270Y-79675871D01*
X136852604Y-79628252D02*
X137233556Y-79628252D01*
X136995461Y-79294919D02*
X136995461Y-80152061D01*
X136995461Y-80152061D02*
X137043080Y-80247300D01*
X137043080Y-80247300D02*
X137138318Y-80294919D01*
X137138318Y-80294919D02*
X137233556Y-80294919D01*
X137328795Y-80390157D02*
X138090699Y-80390157D01*
X138281176Y-80009204D02*
X138757366Y-80009204D01*
X138185938Y-80294919D02*
X138519271Y-79294919D01*
X138519271Y-79294919D02*
X138852604Y-80294919D01*
X139614509Y-80247300D02*
X139519271Y-80294919D01*
X139519271Y-80294919D02*
X139328795Y-80294919D01*
X139328795Y-80294919D02*
X139233557Y-80247300D01*
X139233557Y-80247300D02*
X139185938Y-80199680D01*
X139185938Y-80199680D02*
X139138319Y-80104442D01*
X139138319Y-80104442D02*
X139138319Y-79818728D01*
X139138319Y-79818728D02*
X139185938Y-79723490D01*
X139185938Y-79723490D02*
X139233557Y-79675871D01*
X139233557Y-79675871D02*
X139328795Y-79628252D01*
X139328795Y-79628252D02*
X139519271Y-79628252D01*
X139519271Y-79628252D02*
X139614509Y-79675871D01*
X139900224Y-79628252D02*
X140281176Y-79628252D01*
X140043081Y-79294919D02*
X140043081Y-80152061D01*
X140043081Y-80152061D02*
X140090700Y-80247300D01*
X140090700Y-80247300D02*
X140185938Y-80294919D01*
X140185938Y-80294919D02*
X140281176Y-80294919D01*
X141043081Y-79628252D02*
X141043081Y-80294919D01*
X140614510Y-79628252D02*
X140614510Y-80152061D01*
X140614510Y-80152061D02*
X140662129Y-80247300D01*
X140662129Y-80247300D02*
X140757367Y-80294919D01*
X140757367Y-80294919D02*
X140900224Y-80294919D01*
X140900224Y-80294919D02*
X140995462Y-80247300D01*
X140995462Y-80247300D02*
X141043081Y-80199680D01*
X141947843Y-80294919D02*
X141947843Y-79771109D01*
X141947843Y-79771109D02*
X141900224Y-79675871D01*
X141900224Y-79675871D02*
X141804986Y-79628252D01*
X141804986Y-79628252D02*
X141614510Y-79628252D01*
X141614510Y-79628252D02*
X141519272Y-79675871D01*
X141947843Y-80247300D02*
X141852605Y-80294919D01*
X141852605Y-80294919D02*
X141614510Y-80294919D01*
X141614510Y-80294919D02*
X141519272Y-80247300D01*
X141519272Y-80247300D02*
X141471653Y-80152061D01*
X141471653Y-80152061D02*
X141471653Y-80056823D01*
X141471653Y-80056823D02*
X141519272Y-79961585D01*
X141519272Y-79961585D02*
X141614510Y-79913966D01*
X141614510Y-79913966D02*
X141852605Y-79913966D01*
X141852605Y-79913966D02*
X141947843Y-79866347D01*
X142281177Y-79628252D02*
X142662129Y-79628252D01*
X142424034Y-79294919D02*
X142424034Y-80152061D01*
X142424034Y-80152061D02*
X142471653Y-80247300D01*
X142471653Y-80247300D02*
X142566891Y-80294919D01*
X142566891Y-80294919D02*
X142662129Y-80294919D01*
X143138320Y-80294919D02*
X143043082Y-80247300D01*
X143043082Y-80247300D02*
X142995463Y-80199680D01*
X142995463Y-80199680D02*
X142947844Y-80104442D01*
X142947844Y-80104442D02*
X142947844Y-79818728D01*
X142947844Y-79818728D02*
X142995463Y-79723490D01*
X142995463Y-79723490D02*
X143043082Y-79675871D01*
X143043082Y-79675871D02*
X143138320Y-79628252D01*
X143138320Y-79628252D02*
X143281177Y-79628252D01*
X143281177Y-79628252D02*
X143376415Y-79675871D01*
X143376415Y-79675871D02*
X143424034Y-79723490D01*
X143424034Y-79723490D02*
X143471653Y-79818728D01*
X143471653Y-79818728D02*
X143471653Y-80104442D01*
X143471653Y-80104442D02*
X143424034Y-80199680D01*
X143424034Y-80199680D02*
X143376415Y-80247300D01*
X143376415Y-80247300D02*
X143281177Y-80294919D01*
X143281177Y-80294919D02*
X143138320Y-80294919D01*
X143900225Y-80294919D02*
X143900225Y-79628252D01*
X143900225Y-79818728D02*
X143947844Y-79723490D01*
X143947844Y-79723490D02*
X143995463Y-79675871D01*
X143995463Y-79675871D02*
X144090701Y-79628252D01*
X144090701Y-79628252D02*
X144185939Y-79628252D01*
D13*
%TO.C,U1*%
X131824200Y-58240100D02*
X131824200Y-63440100D01*
X131824200Y-63440100D02*
X140734200Y-63440100D01*
X132124200Y-60840100D02*
X132824200Y-60840100D01*
X132479200Y-60490100D02*
X132479200Y-61190100D01*
X140734200Y-58240100D02*
X131824200Y-58240100D01*
X140734200Y-63440100D02*
X142024200Y-62110100D01*
X140988200Y-60840100D02*
X141623200Y-60840100D01*
X142024200Y-59570100D02*
X140734200Y-58240100D01*
X142024200Y-62110100D02*
X142024200Y-59570100D01*
D14*
%TO.C,J2*%
X114150400Y-66396500D02*
X114150400Y-78588500D01*
X114150400Y-78588500D02*
X126393200Y-78588500D01*
X126393200Y-66396500D02*
X114150400Y-66396500D01*
X126393200Y-78588500D02*
X126393200Y-66396500D01*
D15*
X111966000Y-68555500D02*
G75*
G02*
X112728000Y-68555500I381000J0D01*
G01*
X112728000Y-68555500D02*
G75*
G02*
X111966000Y-68555500I-381000J0D01*
G01*
D14*
%TO.C,J3*%
X96150400Y-66396500D02*
X96150400Y-78588500D01*
X96150400Y-78588500D02*
X108393200Y-78588500D01*
X108393200Y-66396500D02*
X96150400Y-66396500D01*
X108393200Y-78588500D02*
X108393200Y-66396500D01*
D15*
X93966000Y-68555500D02*
G75*
G02*
X94728000Y-68555500I381000J0D01*
G01*
X94728000Y-68555500D02*
G75*
G02*
X93966000Y-68555500I-381000J0D01*
G01*
D13*
%TO.C,U2*%
X115490700Y-58240100D02*
X115490700Y-63440100D01*
X115490700Y-63440100D02*
X124400700Y-63440100D01*
X115790700Y-60840100D02*
X116490700Y-60840100D01*
X116145700Y-60490100D02*
X116145700Y-61190100D01*
X124400700Y-58240100D02*
X115490700Y-58240100D01*
X124400700Y-63440100D02*
X125690700Y-62110100D01*
X124654700Y-60840100D02*
X125289700Y-60840100D01*
X125690700Y-59570100D02*
X124400700Y-58240100D01*
X125690700Y-62110100D02*
X125690700Y-59570100D01*
%TO.C,U4*%
X79990700Y-58240100D02*
X79990700Y-63440100D01*
X79990700Y-63440100D02*
X88900700Y-63440100D01*
X80290700Y-60840100D02*
X80990700Y-60840100D01*
X80645700Y-60490100D02*
X80645700Y-61190100D01*
X88900700Y-58240100D02*
X79990700Y-58240100D01*
X88900700Y-63440100D02*
X90190700Y-62110100D01*
X89154700Y-60840100D02*
X89789700Y-60840100D01*
X90190700Y-59570100D02*
X88900700Y-58240100D01*
X90190700Y-62110100D02*
X90190700Y-59570100D01*
%TO.C,U3*%
X96990700Y-58240100D02*
X96990700Y-63440100D01*
X96990700Y-63440100D02*
X105900700Y-63440100D01*
X97290700Y-60840100D02*
X97990700Y-60840100D01*
X97645700Y-60490100D02*
X97645700Y-61190100D01*
X105900700Y-58240100D02*
X96990700Y-58240100D01*
X105900700Y-63440100D02*
X107190700Y-62110100D01*
X106154700Y-60840100D02*
X106789700Y-60840100D01*
X107190700Y-59570100D02*
X105900700Y-58240100D01*
X107190700Y-62110100D02*
X107190700Y-59570100D01*
D14*
%TO.C,J4*%
X79001200Y-66396500D02*
X79001200Y-78588500D01*
X79001200Y-78588500D02*
X91244000Y-78588500D01*
X91244000Y-66396500D02*
X79001200Y-66396500D01*
X91244000Y-78588500D02*
X91244000Y-66396500D01*
D15*
X76816800Y-68555500D02*
G75*
G02*
X77578800Y-68555500I381000J0D01*
G01*
X77578800Y-68555500D02*
G75*
G02*
X76816800Y-68555500I-381000J0D01*
G01*
D14*
%TO.C,J1*%
X130983900Y-66396500D02*
X130983900Y-78588500D01*
X130983900Y-78588500D02*
X143226700Y-78588500D01*
X143226700Y-66396500D02*
X130983900Y-66396500D01*
X143226700Y-78588500D02*
X143226700Y-66396500D01*
D15*
X128799500Y-68555500D02*
G75*
G02*
X129561500Y-68555500I381000J0D01*
G01*
X129561500Y-68555500D02*
G75*
G02*
X128799500Y-68555500I-381000J0D01*
G01*
%TD*%
M02*
