M48
; DRILL file {KiCad 9.0.4} date 2025-09-24T03:04:45+0300
; FORMAT={-:-/ absolute / metric / decimal}
; #@! TF.CreationDate,2025-09-24T03:04:45+03:00
; #@! TF.GenerationSoftware,Kicad,Pcbnew,9.0.4
; #@! TF.FileFunction,Plated,1,2,PTH
FMAT,2
METRIC
; #@! TA.AperFunction,Plated,PTH,ViaDrill
T1C0.300
; #@! TA.AperFunction,Plated,PTH,ComponentDrill
T2C0.330
; #@! TA.AperFunction,Plated,PTH,ComponentDrill
T3C1.850
%
G90
G05
T1
X116.0Y-74.0
X120.5Y-73.5
X128.0Y-82.0
X128.5Y-80.5
X130.0Y-84.5
X131.5Y-73.0
X132.5Y-80.5
X134.0Y-73.5
X137.0Y-73.5
X140.5Y-73.5
X141.0Y-70.0
X142.0Y-76.0
X142.5Y-80.5
X144.0Y-74.0
X147.0Y-74.5
T2
X127.475Y-75.795
X127.475Y-77.095
X127.475Y-78.395
X128.775Y-75.795
X128.775Y-77.095
X128.775Y-78.395
T3
X104.5Y-73.5
X104.5Y-81.75
X158.5Y-73.5
X158.5Y-81.75
M30
