%TF.GenerationSoftware,KiCad,Pcbnew,9.0.4*%
%TF.CreationDate,2025-09-24T03:04:27+03:00*%
%TF.ProjectId,TPS54331DDAR_Buck_converter,54505335-3433-4333-9144-4441525f4275,rev?*%
%TF.SameCoordinates,Original*%
%TF.FileFunction,Paste,Top*%
%TF.FilePolarity,Positive*%
%FSLAX46Y46*%
G04 Gerber Fmt 4.6, Leading zero omitted, Abs format (unit mm)*
G04 Created by KiCad (PCBNEW 9.0.4) date 2025-09-24 03:04:27*
%MOMM*%
%LPD*%
G01*
G04 APERTURE LIST*
G04 Aperture macros list*
%AMRoundRect*
0 Rectangle with rounded corners*
0 $1 Rounding radius*
0 $2 $3 $4 $5 $6 $7 $8 $9 X,Y pos of 4 corners*
0 Add a 4 corners polygon primitive as box body*
4,1,4,$2,$3,$4,$5,$6,$7,$8,$9,$2,$3,0*
0 Add four circle primitives for the rounded corners*
1,1,$1+$1,$2,$3*
1,1,$1+$1,$4,$5*
1,1,$1+$1,$6,$7*
1,1,$1+$1,$8,$9*
0 Add four rect primitives between the rounded corners*
20,1,$1+$1,$2,$3,$4,$5,0*
20,1,$1+$1,$4,$5,$6,$7,0*
20,1,$1+$1,$6,$7,$8,$9,0*
20,1,$1+$1,$8,$9,$2,$3,0*%
G04 Aperture macros list end*
%ADD10C,0.010000*%
%ADD11RoundRect,0.250000X1.100000X-0.325000X1.100000X0.325000X-1.100000X0.325000X-1.100000X-0.325000X0*%
%ADD12RoundRect,0.079500X-0.079500X-0.100500X0.079500X-0.100500X0.079500X0.100500X-0.079500X0.100500X0*%
%ADD13RoundRect,0.140000X-0.140000X-0.170000X0.140000X-0.170000X0.140000X0.170000X-0.140000X0.170000X0*%
%ADD14RoundRect,0.140000X-0.170000X0.140000X-0.170000X-0.140000X0.170000X-0.140000X0.170000X0.140000X0*%
%ADD15RoundRect,0.250000X0.475000X-0.250000X0.475000X0.250000X-0.475000X0.250000X-0.475000X-0.250000X0*%
%ADD16R,1.180000X4.700000*%
%ADD17RoundRect,0.291250X-0.873750X-1.243750X0.873750X-1.243750X0.873750X1.243750X-0.873750X1.243750X0*%
G04 APERTURE END LIST*
D10*
%TO.C,U1*%
X126325000Y-75415000D02*
X124175000Y-75415000D01*
X124175000Y-74965000D01*
X126325000Y-74965000D01*
X126325000Y-75415000D01*
G36*
X126325000Y-75415000D02*
G01*
X124175000Y-75415000D01*
X124175000Y-74965000D01*
X126325000Y-74965000D01*
X126325000Y-75415000D01*
G37*
X126325000Y-76685000D02*
X124175000Y-76685000D01*
X124175000Y-76235000D01*
X126325000Y-76235000D01*
X126325000Y-76685000D01*
G36*
X126325000Y-76685000D02*
G01*
X124175000Y-76685000D01*
X124175000Y-76235000D01*
X126325000Y-76235000D01*
X126325000Y-76685000D01*
G37*
X126325000Y-77955000D02*
X124175000Y-77955000D01*
X124175000Y-77505000D01*
X126325000Y-77505000D01*
X126325000Y-77955000D01*
G36*
X126325000Y-77955000D02*
G01*
X124175000Y-77955000D01*
X124175000Y-77505000D01*
X126325000Y-77505000D01*
X126325000Y-77955000D01*
G37*
X126325000Y-79225000D02*
X124175000Y-79225000D01*
X124175000Y-78775000D01*
X126325000Y-78775000D01*
X126325000Y-79225000D01*
G36*
X126325000Y-79225000D02*
G01*
X124175000Y-79225000D01*
X124175000Y-78775000D01*
X126325000Y-78775000D01*
X126325000Y-79225000D01*
G37*
X129325000Y-78645000D02*
X126925000Y-78645000D01*
X126925000Y-75545000D01*
X129325000Y-75545000D01*
X129325000Y-78645000D01*
G36*
X129325000Y-78645000D02*
G01*
X126925000Y-78645000D01*
X126925000Y-75545000D01*
X129325000Y-75545000D01*
X129325000Y-78645000D01*
G37*
X132075000Y-75415000D02*
X129925000Y-75415000D01*
X129925000Y-74965000D01*
X132075000Y-74965000D01*
X132075000Y-75415000D01*
G36*
X132075000Y-75415000D02*
G01*
X129925000Y-75415000D01*
X129925000Y-74965000D01*
X132075000Y-74965000D01*
X132075000Y-75415000D01*
G37*
X132075000Y-76685000D02*
X129925000Y-76685000D01*
X129925000Y-76235000D01*
X132075000Y-76235000D01*
X132075000Y-76685000D01*
G36*
X132075000Y-76685000D02*
G01*
X129925000Y-76685000D01*
X129925000Y-76235000D01*
X132075000Y-76235000D01*
X132075000Y-76685000D01*
G37*
X132075000Y-77955000D02*
X129925000Y-77955000D01*
X129925000Y-77505000D01*
X132075000Y-77505000D01*
X132075000Y-77955000D01*
G36*
X132075000Y-77955000D02*
G01*
X129925000Y-77955000D01*
X129925000Y-77505000D01*
X132075000Y-77505000D01*
X132075000Y-77955000D01*
G37*
X132075000Y-79225000D02*
X129925000Y-79225000D01*
X129925000Y-78775000D01*
X132075000Y-78775000D01*
X132075000Y-79225000D01*
G36*
X132075000Y-79225000D02*
G01*
X129925000Y-79225000D01*
X129925000Y-78775000D01*
X132075000Y-78775000D01*
X132075000Y-79225000D01*
G37*
%TD*%
D11*
%TO.C,Cin2*%
X121000000Y-78975000D03*
X121000000Y-76025000D03*
%TD*%
D12*
%TO.C,Css1*%
X125335000Y-81500000D03*
X126025000Y-81500000D03*
%TD*%
D13*
%TO.C,Cboot1*%
X125520000Y-72500000D03*
X126480000Y-72500000D03*
%TD*%
D11*
%TO.C,Cout1*%
X146500000Y-78975000D03*
X146500000Y-76025000D03*
%TD*%
D14*
%TO.C,Rcomp1*%
X134000000Y-77520000D03*
X134000000Y-78480000D03*
%TD*%
D13*
%TO.C,Rfbt1*%
X142020000Y-79000000D03*
X142980000Y-79000000D03*
%TD*%
D11*
%TO.C,Cin1*%
X116500000Y-78950000D03*
X116500000Y-76000000D03*
%TD*%
D13*
%TO.C,Rfbb1*%
X142000000Y-75000000D03*
X142960000Y-75000000D03*
%TD*%
D15*
%TO.C,Ccomp1*%
X136000000Y-77450000D03*
X136000000Y-75550000D03*
%TD*%
D16*
%TO.C,L1*%
X132845000Y-85500000D03*
X136155000Y-85500000D03*
%TD*%
D15*
%TO.C,Ccomp2*%
X139000000Y-77450000D03*
X139000000Y-75550000D03*
%TD*%
D17*
%TO.C,D1*%
X137365000Y-68500000D03*
X130635000Y-68500000D03*
%TD*%
M02*
