M48
; DRILL file {KiCad 9.0.5-9.0.5~ubuntu24.04.1} date 2025-11-05T16:31:49+0300
; FORMAT={-:-/ absolute / metric / decimal}
; #@! TF.CreationDate,2025-11-05T16:31:49+03:00
; #@! TF.GenerationSoftware,Kicad,Pcbnew,9.0.5-9.0.5~ubuntu24.04.1
; #@! TF.FileFunction,Plated,1,2,PTH
FMAT,2
METRIC
; #@! TA.AperFunction,Plated,PTH,ViaDrill
T1C0.300
; #@! TA.AperFunction,Plated,PTH,ComponentDrill
T2C0.600
; #@! TA.AperFunction,Plated,PTH,ComponentDrill
T3C0.700
; #@! TA.AperFunction,Plated,PTH,ComponentDrill
T4C0.733
; #@! TA.AperFunction,Plated,PTH,ComponentDrill
T5C0.800
; #@! TA.AperFunction,Plated,PTH,ComponentDrill
T6C0.900
; #@! TA.AperFunction,Plated,PTH,ComponentDrill
T7C1.000
; #@! TA.AperFunction,Plated,PTH,ComponentDrill
T8C1.100
; #@! TA.AperFunction,Plated,PTH,ComponentDrill
T9C1.200
%
G90
G05
T1
X120.21Y-105.0
X138.0Y-81.0
X138.5Y-89.25
X141.0Y-62.5
X143.25Y-92.0
X149.5Y-106.0
X155.5Y-95.5
X163.0Y-95.5
T2
X114.5Y-68.25
X116.0Y-68.25
X131.75Y-68.25
X133.25Y-68.25
X153.75Y-83.25
X153.75Y-84.75
X167.75Y-76.75
X169.25Y-76.75
T3
X137.5Y-64.67
X137.5Y-69.75
X140.25Y-64.67
X140.25Y-69.75
X143.0Y-64.67
X143.0Y-69.75
T4
X136.562Y-72.56
X136.562Y-75.1
X136.562Y-77.64
X136.562Y-80.18
X136.562Y-82.72
X136.562Y-85.26
X136.562Y-87.8
X136.562Y-90.34
X136.562Y-92.88
X136.562Y-95.42
X136.562Y-97.96
X136.562Y-100.5
X136.562Y-103.04
X136.562Y-105.58
X144.5Y-72.56
X144.5Y-75.1
X144.5Y-77.64
X144.5Y-80.18
X144.5Y-82.72
X144.5Y-85.26
X144.5Y-87.8
X144.5Y-90.34
X144.5Y-92.88
X144.5Y-95.42
X144.5Y-97.96
X144.5Y-100.5
X144.5Y-103.04
X144.5Y-105.58
T5
X114.25Y-72.5
X114.25Y-77.5
X124.5Y-96.75
X124.5Y-101.25
X127.0Y-96.75
X127.0Y-101.25
X128.75Y-72.0
X128.75Y-77.0
X131.5Y-96.62
X131.5Y-101.5
X131.75Y-72.0
X131.75Y-77.0
X133.0Y-86.57
X133.0Y-91.57
X147.5Y-87.25
X147.5Y-92.25
X158.75Y-88.0
X163.75Y-88.0
X167.25Y-81.0
X167.25Y-86.0
X169.55Y-97.75
X169.55Y-102.75
T6
X117.46Y-107.75
X117.46Y-114.75
X120.0Y-107.75
X120.0Y-114.75
T7
X118.0Y-95.13
X118.0Y-97.67
X118.0Y-100.21
X118.0Y-102.75
X149.45Y-70.43
X149.45Y-72.97
X149.45Y-75.51
X149.45Y-78.05
X161.25Y-110.5
T8
X118.96Y-72.7
X121.5Y-72.7
X124.04Y-72.7
X125.0Y-111.0
X125.0Y-115.5
X131.5Y-111.0
X131.5Y-115.5
X137.5Y-111.0
X137.5Y-115.5
X144.0Y-111.0
X144.0Y-115.5
X150.0Y-111.25
X150.0Y-115.75
X156.5Y-111.25
X156.5Y-115.75
X157.92Y-85.0
X160.46Y-85.0
X163.0Y-85.0
T9
X121.5Y-67.0
X126.58Y-67.0
M30
