%TF.GenerationSoftware,KiCad,Pcbnew,9.0.5-9.0.5~ubuntu24.04.1*%
%TF.CreationDate,2025-11-05T16:31:42+03:00*%
%TF.ProjectId,Lora-Based pump control circuit,4c6f7261-2d42-4617-9365-642070756d70,1.0*%
%TF.SameCoordinates,Original*%
%TF.FileFunction,Soldermask,Top*%
%TF.FilePolarity,Negative*%
%FSLAX46Y46*%
G04 Gerber Fmt 4.6, Leading zero omitted, Abs format (unit mm)*
G04 Created by KiCad (PCBNEW 9.0.5-9.0.5~ubuntu24.04.1) date 2025-11-05 16:31:42*
%MOMM*%
%LPD*%
G01*
G04 APERTURE LIST*
G04 Aperture macros list*
%AMRoundRect*
0 Rectangle with rounded corners*
0 $1 Rounding radius*
0 $2 $3 $4 $5 $6 $7 $8 $9 X,Y pos of 4 corners*
0 Add a 4 corners polygon primitive as box body*
4,1,4,$2,$3,$4,$5,$6,$7,$8,$9,$2,$3,0*
0 Add four circle primitives for the rounded corners*
1,1,$1+$1,$2,$3*
1,1,$1+$1,$4,$5*
1,1,$1+$1,$6,$7*
1,1,$1+$1,$8,$9*
0 Add four rect primitives between the rounded corners*
20,1,$1+$1,$2,$3,$4,$5,0*
20,1,$1+$1,$4,$5,$6,$7,0*
20,1,$1+$1,$6,$7,$8,$9,0*
20,1,$1+$1,$8,$9,$2,$3,0*%
G04 Aperture macros list end*
%ADD10C,1.600000*%
%ADD11RoundRect,0.250000X0.350000X0.350000X-0.350000X0.350000X-0.350000X-0.350000X0.350000X-0.350000X0*%
%ADD12C,1.200000*%
%ADD13C,2.000000*%
%ADD14C,1.400000*%
%ADD15R,1.700000X1.700000*%
%ADD16C,1.700000*%
%ADD17RoundRect,0.250000X-0.650000X-1.550000X0.650000X-1.550000X0.650000X1.550000X-0.650000X1.550000X0*%
%ADD18O,1.800000X3.600000*%
%ADD19RoundRect,0.102000X-0.975000X-0.525000X0.975000X-0.525000X0.975000X0.525000X-0.975000X0.525000X0*%
%ADD20C,1.500000*%
%ADD21C,3.500000*%
%ADD22R,1.905000X2.000000*%
%ADD23O,1.905000X2.000000*%
%ADD24RoundRect,0.250000X-0.350000X-0.350000X0.350000X-0.350000X0.350000X0.350000X-0.350000X0.350000X0*%
%ADD25R,1.800000X1.800000*%
%ADD26C,1.800000*%
%ADD27R,1.000000X1.000000*%
%ADD28R,1.050000X2.000000*%
%ADD29RoundRect,0.250000X-0.350000X0.350000X-0.350000X-0.350000X0.350000X-0.350000X0.350000X0.350000X0*%
%ADD30R,1.133000X1.133000*%
%ADD31C,1.133000*%
G04 APERTURE END LIST*
D10*
%TO.C,C2*%
X127000000Y-101250000D03*
X124500000Y-101250000D03*
%TD*%
%TO.C,C12*%
X167250000Y-81000000D03*
X167250000Y-86000000D03*
%TD*%
D11*
%TO.C,C10*%
X133250000Y-68250000D03*
D12*
X131750000Y-68250000D03*
%TD*%
D13*
%TO.C,SW3*%
X137500000Y-111000000D03*
X144000000Y-111000000D03*
X137500000Y-115500000D03*
X144000000Y-115500000D03*
%TD*%
D10*
%TO.C,C3*%
X133000000Y-86570000D03*
X133000000Y-91570000D03*
%TD*%
D14*
%TO.C,R2*%
X140250000Y-69750000D03*
X140250000Y-64670000D03*
%TD*%
D10*
%TO.C,C1*%
X127000000Y-96750000D03*
X124500000Y-96750000D03*
%TD*%
D15*
%TO.C,J1*%
X118000000Y-102750000D03*
D16*
X118000000Y-100210000D03*
X118000000Y-97670000D03*
X118000000Y-95130000D03*
%TD*%
D14*
%TO.C,R1*%
X137500000Y-64670000D03*
X137500000Y-69750000D03*
%TD*%
%TO.C,R3*%
X143000000Y-69750000D03*
X143000000Y-64670000D03*
%TD*%
D10*
%TO.C,C6*%
X131750000Y-77000000D03*
X131750000Y-72000000D03*
%TD*%
D15*
%TO.C,J3*%
X149450000Y-78050000D03*
D16*
X149450000Y-75510000D03*
X149450000Y-72970000D03*
X149450000Y-70430000D03*
%TD*%
D17*
%TO.C,J2*%
X121500000Y-67000000D03*
D18*
X126580000Y-67000000D03*
%TD*%
D13*
%TO.C,SW2*%
X150000000Y-111250000D03*
X156500000Y-111250000D03*
X150000000Y-115750000D03*
X156500000Y-115750000D03*
%TD*%
D19*
%TO.C,U1*%
X151750000Y-91500000D03*
X151750000Y-93500000D03*
X151750000Y-95500000D03*
X151750000Y-97500000D03*
X151750000Y-99500000D03*
X151750000Y-101500000D03*
X151750000Y-103500000D03*
X151750000Y-105500000D03*
X166550000Y-105500000D03*
X166550000Y-103500000D03*
X166550000Y-101500000D03*
X166550000Y-99500000D03*
X166550000Y-97500000D03*
X166550000Y-95500000D03*
X166550000Y-93500000D03*
X166550000Y-91500000D03*
%TD*%
D20*
%TO.C,Y1*%
X131500000Y-101500000D03*
X131500000Y-96620000D03*
%TD*%
D21*
%TO.C,U3*%
X121500000Y-89360000D03*
D22*
X124040000Y-72700000D03*
D23*
X121500000Y-72700000D03*
X118960000Y-72700000D03*
%TD*%
D24*
%TO.C,C11*%
X114500000Y-68250000D03*
D12*
X116000000Y-68250000D03*
%TD*%
D25*
%TO.C,D2*%
X120000000Y-114750000D03*
D26*
X117460000Y-114750000D03*
%TD*%
D15*
%TO.C,J5*%
X161250000Y-110500000D03*
%TD*%
D10*
%TO.C,C13*%
X158750000Y-88000000D03*
X163750000Y-88000000D03*
%TD*%
D27*
%TO.C,J4*%
X167225000Y-109000000D03*
D28*
X165750000Y-110500000D03*
D27*
X167225000Y-112000000D03*
D28*
X168700000Y-110500000D03*
%TD*%
D21*
%TO.C,U2*%
X160460000Y-68340000D03*
D22*
X157920000Y-85000000D03*
D23*
X160460000Y-85000000D03*
X163000000Y-85000000D03*
%TD*%
D25*
%TO.C,D1*%
X120000000Y-107750000D03*
D26*
X117460000Y-107750000D03*
%TD*%
D10*
%TO.C,C9*%
X128750000Y-77000000D03*
X128750000Y-72000000D03*
%TD*%
%TO.C,C5*%
X114250000Y-77500000D03*
X114250000Y-72500000D03*
%TD*%
D11*
%TO.C,C7*%
X169250000Y-76750000D03*
D12*
X167750000Y-76750000D03*
%TD*%
D13*
%TO.C,SW1*%
X125000000Y-111000000D03*
X131500000Y-111000000D03*
X125000000Y-115500000D03*
X131500000Y-115500000D03*
%TD*%
D29*
%TO.C,C8*%
X153750000Y-83250000D03*
D12*
X153750000Y-84750000D03*
%TD*%
D30*
%TO.C,IC1*%
X136562000Y-72560000D03*
D31*
X136562000Y-75100000D03*
X136562000Y-77640000D03*
X136562000Y-80180000D03*
X136562000Y-82720000D03*
X136562000Y-85260000D03*
X136562000Y-87800000D03*
X136562000Y-90340000D03*
X136562000Y-92880000D03*
X136562000Y-95420000D03*
X136562000Y-97960000D03*
X136562000Y-100500000D03*
X136562000Y-103040000D03*
X136562000Y-105580000D03*
X144500000Y-105580000D03*
X144500000Y-103040000D03*
X144500000Y-100500000D03*
X144500000Y-97960000D03*
X144500000Y-95420000D03*
X144500000Y-92880000D03*
X144500000Y-90340000D03*
X144500000Y-87800000D03*
X144500000Y-85260000D03*
X144500000Y-82720000D03*
X144500000Y-80180000D03*
X144500000Y-77640000D03*
X144500000Y-75100000D03*
X144500000Y-72560000D03*
%TD*%
D10*
%TO.C,C14*%
X169550000Y-102750000D03*
X169550000Y-97750000D03*
%TD*%
%TO.C,C4*%
X147500000Y-92250000D03*
X147500000Y-87250000D03*
%TD*%
M02*
