M48
; DRILL file {KiCad 9.0.4-9.0.4-0~ubuntu24.04.1} date 2025-09-24T17:36:10+0300
; FORMAT={-:-/ absolute / metric / decimal}
; #@! TF.CreationDate,2025-09-24T17:36:10+03:00
; #@! TF.GenerationSoftware,Kicad,Pcbnew,9.0.4-9.0.4-0~ubuntu24.04.1
; #@! TF.FileFunction,Plated,1,2,PTH
FMAT,2
METRIC
; #@! TA.AperFunction,Plated,PTH,ViaDrill
T1C0.300
; #@! TA.AperFunction,Plated,PTH,ComponentDrill
T2C1.100
; #@! TA.AperFunction,Plated,PTH,ComponentDrill
T3C1.194
%
G90
G05
T1
X89.0Y-61.5
X92.0Y-63.5
X109.0Y-64.0
X110.5Y-65.5
X110.5Y-67.602
X113.73Y-64.302
T2
X86.198Y-45.225
X86.198Y-49.725
X86.198Y-71.412
X86.198Y-75.912
X86.203Y-97.568
X86.203Y-102.068
X92.698Y-45.225
X92.698Y-49.725
X92.698Y-71.412
X92.698Y-75.912
X92.703Y-97.568
X92.703Y-102.068
X126.125Y-97.484
X126.125Y-101.984
X126.133Y-45.172
X126.133Y-49.672
X126.156Y-71.402
X126.156Y-75.902
X132.625Y-97.484
X132.625Y-101.984
X132.633Y-45.172
X132.633Y-49.672
X132.656Y-71.402
X132.656Y-75.902
X166.073Y-97.496
X166.073Y-101.996
X166.087Y-45.199
X166.087Y-49.699
X166.1Y-71.379
X166.1Y-75.879
X172.573Y-97.496
X172.573Y-101.996
X172.587Y-45.199
X172.587Y-49.699
X172.6Y-71.379
X172.6Y-75.879
X206.004Y-97.514
X206.004Y-102.014
X206.005Y-71.38
X206.005Y-75.88
X206.009Y-45.198
X206.009Y-49.698
X212.504Y-97.514
X212.504Y-102.014
X212.505Y-71.38
X212.505Y-75.88
X212.509Y-45.198
X212.509Y-49.698
T3
X78.5Y-63.88
X78.5Y-66.42
X78.5Y-68.96
X78.5Y-71.5
M30
