%TF.GenerationSoftware,KiCad,Pcbnew,9.0.4-9.0.4-0~ubuntu24.04.1*%
%TF.CreationDate,2025-09-24T17:36:06+03:00*%
%TF.ProjectId,Nurse remote control,4e757273-6520-4726-956d-6f746520636f,rev?*%
%TF.SameCoordinates,Original*%
%TF.FileFunction,Soldermask,Bot*%
%TF.FilePolarity,Negative*%
%FSLAX46Y46*%
G04 Gerber Fmt 4.6, Leading zero omitted, Abs format (unit mm)*
G04 Created by KiCad (PCBNEW 9.0.4-9.0.4-0~ubuntu24.04.1) date 2025-09-24 17:36:06*
%MOMM*%
%LPD*%
G01*
G04 APERTURE LIST*
%ADD10C,2.000000*%
%ADD11C,2.100000*%
%ADD12C,1.905800*%
G04 APERTURE END LIST*
D10*
%TO.C,SW9*%
X86203000Y-97568000D03*
X92703000Y-97568000D03*
X86203000Y-102068000D03*
X92703000Y-102068000D03*
%TD*%
%TO.C,SW7*%
X166100000Y-71379000D03*
X172600000Y-71379000D03*
X166100000Y-75879000D03*
X172600000Y-75879000D03*
%TD*%
%TO.C,SW11*%
X166073000Y-97496000D03*
X172573000Y-97496000D03*
X166073000Y-101996000D03*
X172573000Y-101996000D03*
%TD*%
%TO.C,SW6*%
X126156000Y-71402000D03*
X132656000Y-71402000D03*
X126156000Y-75902000D03*
X132656000Y-75902000D03*
%TD*%
D11*
%TO.C,REF3*%
X149463000Y-40355000D03*
%TD*%
D10*
%TO.C,SW5*%
X86198000Y-71412000D03*
X92698000Y-71412000D03*
X86198000Y-75912000D03*
X92698000Y-75912000D03*
%TD*%
D11*
%TO.C,REF6*%
X227915000Y-109612000D03*
%TD*%
D10*
%TO.C,SW4*%
X206009000Y-45198000D03*
X212509000Y-45198000D03*
X206009000Y-49698000D03*
X212509000Y-49698000D03*
%TD*%
D12*
%TO.C,J1*%
X78500000Y-71500000D03*
X78500000Y-68960000D03*
X78500000Y-66420000D03*
X78500000Y-63880000D03*
%TD*%
D10*
%TO.C,SW1*%
X86198000Y-45225000D03*
X92698000Y-45225000D03*
X86198000Y-49725000D03*
X92698000Y-49725000D03*
%TD*%
D11*
%TO.C,REF1*%
X79831000Y-40473000D03*
%TD*%
D10*
%TO.C,SW10*%
X126125000Y-97484000D03*
X132625000Y-97484000D03*
X126125000Y-101984000D03*
X132625000Y-101984000D03*
%TD*%
D11*
%TO.C,REF5*%
X228194000Y-40310000D03*
%TD*%
%TO.C,REF2*%
X80000000Y-109500000D03*
%TD*%
D10*
%TO.C,SW2*%
X126133000Y-45172000D03*
X132633000Y-45172000D03*
X126133000Y-49672000D03*
X132633000Y-49672000D03*
%TD*%
%TO.C,SW8*%
X206005000Y-71380000D03*
X212505000Y-71380000D03*
X206005000Y-75880000D03*
X212505000Y-75880000D03*
%TD*%
%TO.C,SW12*%
X206004000Y-97514000D03*
X212504000Y-97514000D03*
X206004000Y-102014000D03*
X212504000Y-102014000D03*
%TD*%
%TO.C,SW3*%
X166087000Y-45199000D03*
X172587000Y-45199000D03*
X166087000Y-49699000D03*
X172587000Y-49699000D03*
%TD*%
D11*
%TO.C,REF4*%
X149463000Y-109329000D03*
%TD*%
M02*
