%TF.GenerationSoftware,KiCad,Pcbnew,9.0.4-9.0.4-0~ubuntu24.04.1*%
%TF.CreationDate,2025-09-24T17:36:05+03:00*%
%TF.ProjectId,Nurse remote control,4e757273-6520-4726-956d-6f746520636f,rev?*%
%TF.SameCoordinates,Original*%
%TF.FileFunction,Copper,L2,Bot*%
%TF.FilePolarity,Positive*%
%FSLAX46Y46*%
G04 Gerber Fmt 4.6, Leading zero omitted, Abs format (unit mm)*
G04 Created by KiCad (PCBNEW 9.0.4-9.0.4-0~ubuntu24.04.1) date 2025-09-24 17:36:05*
%MOMM*%
%LPD*%
G01*
G04 APERTURE LIST*
%TA.AperFunction,ComponentPad*%
%ADD10C,2.000000*%
%TD*%
%TA.AperFunction,ComponentPad*%
%ADD11C,1.701800*%
%TD*%
%TA.AperFunction,ViaPad*%
%ADD12C,0.600000*%
%TD*%
%TA.AperFunction,Conductor*%
%ADD13C,0.400000*%
%TD*%
%TA.AperFunction,Conductor*%
%ADD14C,0.200000*%
%TD*%
G04 APERTURE END LIST*
D10*
%TO.P,SW9,1,1*%
%TO.N,/C1*%
X86203000Y-97568000D03*
X92703000Y-97568000D03*
%TO.P,SW9,2,2*%
%TO.N,/R3*%
X86203000Y-102068000D03*
X92703000Y-102068000D03*
%TD*%
%TO.P,SW7,1,1*%
%TO.N,/C3*%
X166100000Y-71379000D03*
X172600000Y-71379000D03*
%TO.P,SW7,2,2*%
%TO.N,/R2*%
X166100000Y-75879000D03*
X172600000Y-75879000D03*
%TD*%
%TO.P,SW11,1,1*%
%TO.N,/C3*%
X166073000Y-97496000D03*
X172573000Y-97496000D03*
%TO.P,SW11,2,2*%
%TO.N,/R3*%
X166073000Y-101996000D03*
X172573000Y-101996000D03*
%TD*%
%TO.P,SW6,1,1*%
%TO.N,/C2*%
X126156000Y-71402000D03*
X132656000Y-71402000D03*
%TO.P,SW6,2,2*%
%TO.N,/R2*%
X126156000Y-75902000D03*
X132656000Y-75902000D03*
%TD*%
%TO.P,SW5,1,1*%
%TO.N,/C1*%
X86198000Y-71412000D03*
X92698000Y-71412000D03*
%TO.P,SW5,2,2*%
%TO.N,/R2*%
X86198000Y-75912000D03*
X92698000Y-75912000D03*
%TD*%
%TO.P,SW4,1,1*%
%TO.N,/C4*%
X206009000Y-45198000D03*
X212509000Y-45198000D03*
%TO.P,SW4,2,2*%
%TO.N,/R1*%
X206009000Y-49698000D03*
X212509000Y-49698000D03*
%TD*%
D11*
%TO.P,J1,1*%
%TO.N,+3.3V*%
X78500000Y-71500000D03*
%TO.P,J1,2*%
%TO.N,/SDA*%
X78500000Y-68960000D03*
%TO.P,J1,3*%
%TO.N,/SCL*%
X78500000Y-66420000D03*
%TO.P,J1,4*%
%TO.N,GND*%
X78500000Y-63880000D03*
%TD*%
D10*
%TO.P,SW1,1,1*%
%TO.N,/C1*%
X86198000Y-45225000D03*
X92698000Y-45225000D03*
%TO.P,SW1,2,2*%
%TO.N,/R1*%
X86198000Y-49725000D03*
X92698000Y-49725000D03*
%TD*%
%TO.P,SW10,1,1*%
%TO.N,/C2*%
X126125000Y-97484000D03*
X132625000Y-97484000D03*
%TO.P,SW10,2,2*%
%TO.N,/R3*%
X126125000Y-101984000D03*
X132625000Y-101984000D03*
%TD*%
%TO.P,SW2,1,1*%
%TO.N,/C2*%
X126133000Y-45172000D03*
X132633000Y-45172000D03*
%TO.P,SW2,2,2*%
%TO.N,/R1*%
X126133000Y-49672000D03*
X132633000Y-49672000D03*
%TD*%
%TO.P,SW8,1,1*%
%TO.N,/C4*%
X206005000Y-71380000D03*
X212505000Y-71380000D03*
%TO.P,SW8,2,2*%
%TO.N,/R2*%
X206005000Y-75880000D03*
X212505000Y-75880000D03*
%TD*%
%TO.P,SW12,1,1*%
%TO.N,/C4*%
X206004000Y-97514000D03*
X212504000Y-97514000D03*
%TO.P,SW12,2,2*%
%TO.N,/R3*%
X206004000Y-102014000D03*
X212504000Y-102014000D03*
%TD*%
%TO.P,SW3,1,1*%
%TO.N,/C3*%
X166087000Y-45199000D03*
X172587000Y-45199000D03*
%TO.P,SW3,2,2*%
%TO.N,/R1*%
X166087000Y-49699000D03*
X172587000Y-49699000D03*
%TD*%
D12*
%TO.N,+3.3V*%
X89000000Y-61500000D03*
%TO.N,GND*%
X92000000Y-63500000D03*
X110500000Y-67602000D03*
X110500000Y-65500000D03*
%TO.N,/R3*%
X109000000Y-64000000D03*
%TO.N,/R1*%
X113730200Y-64302000D03*
%TD*%
D13*
%TO.N,+3.3V*%
X88500000Y-61500000D02*
X89000000Y-61500000D01*
X78500000Y-71500000D02*
X88500000Y-61500000D01*
D14*
%TO.N,/R3*%
X109000000Y-64000000D02*
X109000000Y-84859000D01*
X109000000Y-84859000D02*
X109456000Y-85315000D01*
X109456000Y-85315000D02*
X126125000Y-101984000D01*
X92703000Y-102068000D02*
X109456000Y-85315000D01*
%TO.N,/C1*%
X91364100Y-96229100D02*
X92703000Y-97568000D01*
X88885800Y-71412000D02*
X87541900Y-72755900D01*
X92698000Y-45225000D02*
X91397800Y-46525200D01*
X87541900Y-96229100D02*
X91364100Y-96229100D01*
X92698000Y-71412000D02*
X91397800Y-71412000D01*
X91397800Y-71412000D02*
X88885800Y-71412000D01*
X86198000Y-45225000D02*
X90097600Y-45225000D01*
X91397800Y-46525200D02*
X91397800Y-71412000D01*
X86198000Y-71412000D02*
X87541900Y-72755900D01*
X87541900Y-96229100D02*
X86203000Y-97568000D01*
X90097600Y-45225000D02*
X91397800Y-46525200D01*
X87541900Y-72755900D02*
X87541900Y-96229100D01*
%TO.N,/C2*%
X131317300Y-96176300D02*
X127432700Y-96176300D01*
X131317300Y-71402000D02*
X131317300Y-96176300D01*
X131317300Y-96176300D02*
X132625000Y-97484000D01*
X131317300Y-71402000D02*
X126156000Y-71402000D01*
X127432700Y-96176300D02*
X126125000Y-97484000D01*
X132656000Y-71402000D02*
X131317300Y-71402000D01*
%TO.N,/C4*%
X213810000Y-72685000D02*
X213810000Y-96208000D01*
X212505000Y-71380000D02*
X213810000Y-72685000D01*
X213810000Y-96208000D02*
X212504000Y-97514000D01*
%TO.N,/C3*%
X166100000Y-71379000D02*
X166767200Y-70711800D01*
X172587000Y-45199000D02*
X171239600Y-46546400D01*
X171246500Y-96169500D02*
X167399500Y-96169500D01*
X167434400Y-46546400D02*
X166087000Y-45199000D01*
X171246500Y-72732500D02*
X171246500Y-96169500D01*
X166767200Y-70711800D02*
X167434400Y-70711800D01*
X171239600Y-46546400D02*
X167434400Y-46546400D01*
X171246500Y-96169500D02*
X172573000Y-97496000D01*
X167434400Y-70711800D02*
X169225800Y-70711800D01*
X169225800Y-70711800D02*
X171246500Y-72732500D01*
X171246500Y-72732500D02*
X172600000Y-71379000D01*
X167434400Y-70711800D02*
X167434400Y-46546400D01*
X167399500Y-96169500D02*
X166073000Y-97496000D01*
%TO.N,/R1*%
X113949300Y-64082900D02*
X113730200Y-64302000D01*
X101818600Y-49725000D02*
X92698000Y-49725000D01*
X113949300Y-61855700D02*
X101818600Y-49725000D01*
X113949300Y-61855700D02*
X113949300Y-64082900D01*
X126133000Y-49672000D02*
X113949300Y-61855700D01*
%TD*%
%TA.AperFunction,Conductor*%
%TO.N,GND*%
G36*
X236975539Y-34204185D02*
G01*
X237021294Y-34256989D01*
X237032500Y-34308500D01*
X237032500Y-112896500D01*
X237012815Y-112963539D01*
X236960011Y-113009294D01*
X236908500Y-113020500D01*
X70517500Y-113020500D01*
X70450461Y-113000815D01*
X70404706Y-112948011D01*
X70393500Y-112896500D01*
X70393500Y-109397648D01*
X78699500Y-109397648D01*
X78699500Y-109602351D01*
X78731522Y-109804534D01*
X78794781Y-109999223D01*
X78851847Y-110111219D01*
X78884966Y-110176219D01*
X78887715Y-110181613D01*
X79008028Y-110347213D01*
X79152786Y-110491971D01*
X79306937Y-110603966D01*
X79318390Y-110612287D01*
X79434607Y-110671503D01*
X79500776Y-110705218D01*
X79500778Y-110705218D01*
X79500781Y-110705220D01*
X79605137Y-110739127D01*
X79695465Y-110768477D01*
X79796557Y-110784488D01*
X79897648Y-110800500D01*
X79897649Y-110800500D01*
X80102351Y-110800500D01*
X80102352Y-110800500D01*
X80304534Y-110768477D01*
X80499219Y-110705220D01*
X80681610Y-110612287D01*
X80789064Y-110534218D01*
X80847213Y-110491971D01*
X80847215Y-110491968D01*
X80847219Y-110491966D01*
X80991966Y-110347219D01*
X80991968Y-110347215D01*
X80991971Y-110347213D01*
X81044732Y-110274590D01*
X81112287Y-110181610D01*
X81205220Y-109999219D01*
X81268477Y-109804534D01*
X81300500Y-109602352D01*
X81300500Y-109397648D01*
X81275717Y-109241174D01*
X81273415Y-109226648D01*
X148162500Y-109226648D01*
X148162500Y-109431351D01*
X148194522Y-109633534D01*
X148257781Y-109828223D01*
X148350715Y-110010613D01*
X148471028Y-110176213D01*
X148615786Y-110320971D01*
X148770749Y-110433556D01*
X148781390Y-110441287D01*
X148880853Y-110491966D01*
X148963776Y-110534218D01*
X148963778Y-110534218D01*
X148963781Y-110534220D01*
X149068137Y-110568127D01*
X149158465Y-110597477D01*
X149251952Y-110612284D01*
X149360648Y-110629500D01*
X149360649Y-110629500D01*
X149565351Y-110629500D01*
X149565352Y-110629500D01*
X149767534Y-110597477D01*
X149962219Y-110534220D01*
X150144610Y-110441287D01*
X150274093Y-110347213D01*
X150310213Y-110320971D01*
X150310215Y-110320968D01*
X150310219Y-110320966D01*
X150454966Y-110176219D01*
X150454968Y-110176215D01*
X150454971Y-110176213D01*
X150507732Y-110103590D01*
X150575287Y-110010610D01*
X150668220Y-109828219D01*
X150731477Y-109633534D01*
X150751099Y-109509648D01*
X226614500Y-109509648D01*
X226614500Y-109714351D01*
X226646522Y-109916534D01*
X226709781Y-110111223D01*
X226802715Y-110293613D01*
X226923028Y-110459213D01*
X227067786Y-110603971D01*
X227207146Y-110705220D01*
X227233390Y-110724287D01*
X227320118Y-110768477D01*
X227415776Y-110817218D01*
X227415778Y-110817218D01*
X227415781Y-110817220D01*
X227520137Y-110851127D01*
X227610465Y-110880477D01*
X227711557Y-110896488D01*
X227812648Y-110912500D01*
X227812649Y-110912500D01*
X228017351Y-110912500D01*
X228017352Y-110912500D01*
X228219534Y-110880477D01*
X228414219Y-110817220D01*
X228596610Y-110724287D01*
X228689590Y-110656732D01*
X228762213Y-110603971D01*
X228762215Y-110603968D01*
X228762219Y-110603966D01*
X228906966Y-110459219D01*
X228906968Y-110459215D01*
X228906971Y-110459213D01*
X229007408Y-110320971D01*
X229027287Y-110293610D01*
X229120220Y-110111219D01*
X229183477Y-109916534D01*
X229215500Y-109714352D01*
X229215500Y-109509648D01*
X229183477Y-109307466D01*
X229161937Y-109241174D01*
X229120218Y-109112776D01*
X229075221Y-109024466D01*
X229027287Y-108930390D01*
X229019556Y-108919749D01*
X228906971Y-108764786D01*
X228762213Y-108620028D01*
X228596613Y-108499715D01*
X228596612Y-108499714D01*
X228596610Y-108499713D01*
X228539653Y-108470691D01*
X228414223Y-108406781D01*
X228219534Y-108343522D01*
X228044995Y-108315878D01*
X228017352Y-108311500D01*
X227812648Y-108311500D01*
X227788329Y-108315351D01*
X227610465Y-108343522D01*
X227415776Y-108406781D01*
X227233386Y-108499715D01*
X227067786Y-108620028D01*
X226923028Y-108764786D01*
X226802715Y-108930386D01*
X226709781Y-109112776D01*
X226646522Y-109307465D01*
X226614500Y-109509648D01*
X150751099Y-109509648D01*
X150763500Y-109431352D01*
X150763500Y-109226648D01*
X150731477Y-109024466D01*
X150723781Y-109000781D01*
X150668218Y-108829776D01*
X150634503Y-108763607D01*
X150575287Y-108647390D01*
X150555408Y-108620028D01*
X150454971Y-108481786D01*
X150310213Y-108337028D01*
X150144613Y-108216715D01*
X150144612Y-108216714D01*
X150144610Y-108216713D01*
X150087653Y-108187691D01*
X149962223Y-108123781D01*
X149767534Y-108060522D01*
X149592995Y-108032878D01*
X149565352Y-108028500D01*
X149360648Y-108028500D01*
X149336329Y-108032351D01*
X149158465Y-108060522D01*
X148963776Y-108123781D01*
X148781386Y-108216715D01*
X148615786Y-108337028D01*
X148471028Y-108481786D01*
X148350715Y-108647386D01*
X148257781Y-108829776D01*
X148194522Y-109024465D01*
X148162500Y-109226648D01*
X81273415Y-109226648D01*
X81272852Y-109223093D01*
X81268477Y-109195466D01*
X81205220Y-109000781D01*
X81205218Y-109000778D01*
X81205218Y-109000776D01*
X81169352Y-108930386D01*
X81112287Y-108818390D01*
X81073338Y-108764781D01*
X80991971Y-108652786D01*
X80847213Y-108508028D01*
X80681613Y-108387715D01*
X80681612Y-108387714D01*
X80681610Y-108387713D01*
X80624653Y-108358691D01*
X80499223Y-108294781D01*
X80304534Y-108231522D01*
X80129995Y-108203878D01*
X80102352Y-108199500D01*
X79897648Y-108199500D01*
X79873329Y-108203351D01*
X79695465Y-108231522D01*
X79500776Y-108294781D01*
X79318386Y-108387715D01*
X79152786Y-108508028D01*
X79008028Y-108652786D01*
X78887715Y-108818386D01*
X78794781Y-109000776D01*
X78731522Y-109195465D01*
X78699500Y-109397648D01*
X70393500Y-109397648D01*
X70393500Y-101949902D01*
X84702500Y-101949902D01*
X84702500Y-102186097D01*
X84739446Y-102419368D01*
X84812433Y-102643996D01*
X84919657Y-102854433D01*
X85058483Y-103045510D01*
X85225490Y-103212517D01*
X85416567Y-103351343D01*
X85462145Y-103374566D01*
X85627003Y-103458566D01*
X85627005Y-103458566D01*
X85627008Y-103458568D01*
X85743750Y-103496500D01*
X85851631Y-103531553D01*
X86084903Y-103568500D01*
X86084908Y-103568500D01*
X86321097Y-103568500D01*
X86554368Y-103531553D01*
X86778992Y-103458568D01*
X86989433Y-103351343D01*
X87180510Y-103212517D01*
X87347517Y-103045510D01*
X87486343Y-102854433D01*
X87593568Y-102643992D01*
X87666553Y-102419368D01*
X87679857Y-102335368D01*
X87703500Y-102186097D01*
X87703500Y-101949902D01*
X91202500Y-101949902D01*
X91202500Y-102186097D01*
X91239446Y-102419368D01*
X91312433Y-102643996D01*
X91419657Y-102854433D01*
X91558483Y-103045510D01*
X91725490Y-103212517D01*
X91916567Y-103351343D01*
X91962145Y-103374566D01*
X92127003Y-103458566D01*
X92127005Y-103458566D01*
X92127008Y-103458568D01*
X92243750Y-103496500D01*
X92351631Y-103531553D01*
X92584903Y-103568500D01*
X92584908Y-103568500D01*
X92821097Y-103568500D01*
X93054368Y-103531553D01*
X93278992Y-103458568D01*
X93489433Y-103351343D01*
X93680510Y-103212517D01*
X93847517Y-103045510D01*
X93986343Y-102854433D01*
X94093568Y-102643992D01*
X94166553Y-102419368D01*
X94179857Y-102335368D01*
X94203500Y-102186097D01*
X94203500Y-101949902D01*
X94166553Y-101716635D01*
X94166553Y-101716632D01*
X94125547Y-101590433D01*
X94123553Y-101520593D01*
X94155796Y-101464437D01*
X109368322Y-86251912D01*
X109429641Y-86218430D01*
X109499333Y-86223414D01*
X109543680Y-86251915D01*
X124672200Y-101380435D01*
X124705685Y-101441758D01*
X124702450Y-101506433D01*
X124661447Y-101632628D01*
X124624500Y-101865902D01*
X124624500Y-102102097D01*
X124661446Y-102335368D01*
X124734433Y-102559996D01*
X124777234Y-102643996D01*
X124841657Y-102770433D01*
X124980483Y-102961510D01*
X125147490Y-103128517D01*
X125338567Y-103267343D01*
X125437991Y-103318002D01*
X125549003Y-103374566D01*
X125549005Y-103374566D01*
X125549008Y-103374568D01*
X125641332Y-103404566D01*
X125773631Y-103447553D01*
X126006903Y-103484500D01*
X126006908Y-103484500D01*
X126243097Y-103484500D01*
X126476368Y-103447553D01*
X126700992Y-103374568D01*
X126911433Y-103267343D01*
X127102510Y-103128517D01*
X127269517Y-102961510D01*
X127408343Y-102770433D01*
X127515568Y-102559992D01*
X127588553Y-102335368D01*
X127625500Y-102102097D01*
X127625500Y-101865902D01*
X131124500Y-101865902D01*
X131124500Y-102102097D01*
X131161446Y-102335368D01*
X131234433Y-102559996D01*
X131277234Y-102643996D01*
X131341657Y-102770433D01*
X131480483Y-102961510D01*
X131647490Y-103128517D01*
X131838567Y-103267343D01*
X131937991Y-103318002D01*
X132049003Y-103374566D01*
X132049005Y-103374566D01*
X132049008Y-103374568D01*
X132141332Y-103404566D01*
X132273631Y-103447553D01*
X132506903Y-103484500D01*
X132506908Y-103484500D01*
X132743097Y-103484500D01*
X132976368Y-103447553D01*
X133200992Y-103374568D01*
X133411433Y-103267343D01*
X133602510Y-103128517D01*
X133769517Y-102961510D01*
X133908343Y-102770433D01*
X134015568Y-102559992D01*
X134088553Y-102335368D01*
X134125500Y-102102097D01*
X134125500Y-101877902D01*
X164572500Y-101877902D01*
X164572500Y-102114097D01*
X164609446Y-102347368D01*
X164682433Y-102571996D01*
X164783543Y-102770433D01*
X164789657Y-102782433D01*
X164928483Y-102973510D01*
X165095490Y-103140517D01*
X165286567Y-103279343D01*
X165385991Y-103330002D01*
X165497003Y-103386566D01*
X165497005Y-103386566D01*
X165497008Y-103386568D01*
X165617412Y-103425689D01*
X165721631Y-103459553D01*
X165954903Y-103496500D01*
X165954908Y-103496500D01*
X166191097Y-103496500D01*
X166424368Y-103459553D01*
X166648992Y-103386568D01*
X166859433Y-103279343D01*
X167050510Y-103140517D01*
X167217517Y-102973510D01*
X167356343Y-102782433D01*
X167463568Y-102571992D01*
X167536553Y-102347368D01*
X167562096Y-102186097D01*
X167573500Y-102114097D01*
X167573500Y-101877902D01*
X171072500Y-101877902D01*
X171072500Y-102114097D01*
X171109446Y-102347368D01*
X171182433Y-102571996D01*
X171283543Y-102770433D01*
X171289657Y-102782433D01*
X171428483Y-102973510D01*
X171595490Y-103140517D01*
X171786567Y-103279343D01*
X171885991Y-103330002D01*
X171997003Y-103386566D01*
X171997005Y-103386566D01*
X171997008Y-103386568D01*
X172117412Y-103425689D01*
X172221631Y-103459553D01*
X172454903Y-103496500D01*
X172454908Y-103496500D01*
X172691097Y-103496500D01*
X172924368Y-103459553D01*
X173148992Y-103386568D01*
X173359433Y-103279343D01*
X173550510Y-103140517D01*
X173717517Y-102973510D01*
X173856343Y-102782433D01*
X173963568Y-102571992D01*
X174036553Y-102347368D01*
X174062096Y-102186097D01*
X174073500Y-102114097D01*
X174073500Y-101895902D01*
X204503500Y-101895902D01*
X204503500Y-102132097D01*
X204540446Y-102365368D01*
X204613433Y-102589996D01*
X204720657Y-102800433D01*
X204859483Y-102991510D01*
X205026490Y-103158517D01*
X205217567Y-103297343D01*
X205316991Y-103348002D01*
X205428003Y-103404566D01*
X205428005Y-103404566D01*
X205428008Y-103404568D01*
X205548412Y-103443689D01*
X205652631Y-103477553D01*
X205885903Y-103514500D01*
X205885908Y-103514500D01*
X206122097Y-103514500D01*
X206355368Y-103477553D01*
X206410766Y-103459553D01*
X206579992Y-103404568D01*
X206790433Y-103297343D01*
X206981510Y-103158517D01*
X207148517Y-102991510D01*
X207287343Y-102800433D01*
X207394568Y-102589992D01*
X207467553Y-102365368D01*
X207470404Y-102347368D01*
X207504500Y-102132097D01*
X207504500Y-101895902D01*
X211003500Y-101895902D01*
X211003500Y-102132097D01*
X211040446Y-102365368D01*
X211113433Y-102589996D01*
X211220657Y-102800433D01*
X211359483Y-102991510D01*
X211526490Y-103158517D01*
X211717567Y-103297343D01*
X211816991Y-103348002D01*
X211928003Y-103404566D01*
X211928005Y-103404566D01*
X211928008Y-103404568D01*
X212048412Y-103443689D01*
X212152631Y-103477553D01*
X212385903Y-103514500D01*
X212385908Y-103514500D01*
X212622097Y-103514500D01*
X212855368Y-103477553D01*
X212910766Y-103459553D01*
X213079992Y-103404568D01*
X213290433Y-103297343D01*
X213481510Y-103158517D01*
X213648517Y-102991510D01*
X213787343Y-102800433D01*
X213894568Y-102589992D01*
X213967553Y-102365368D01*
X213970404Y-102347368D01*
X214004500Y-102132097D01*
X214004500Y-101895902D01*
X213967553Y-101662631D01*
X213933689Y-101558412D01*
X213894568Y-101438008D01*
X213894566Y-101438005D01*
X213894566Y-101438003D01*
X213787342Y-101227566D01*
X213774264Y-101209566D01*
X213648517Y-101036490D01*
X213481510Y-100869483D01*
X213290433Y-100730657D01*
X213231555Y-100700657D01*
X213079996Y-100623433D01*
X212855368Y-100550446D01*
X212622097Y-100513500D01*
X212622092Y-100513500D01*
X212385908Y-100513500D01*
X212385903Y-100513500D01*
X212152631Y-100550446D01*
X211928003Y-100623433D01*
X211717566Y-100730657D01*
X211608550Y-100809862D01*
X211526490Y-100869483D01*
X211526488Y-100869485D01*
X211526487Y-100869485D01*
X211359485Y-101036487D01*
X211359485Y-101036488D01*
X211359483Y-101036490D01*
X211320252Y-101090487D01*
X211220657Y-101227566D01*
X211113433Y-101438003D01*
X211040446Y-101662631D01*
X211003500Y-101895902D01*
X207504500Y-101895902D01*
X207467553Y-101662631D01*
X207433689Y-101558412D01*
X207394568Y-101438008D01*
X207394566Y-101438005D01*
X207394566Y-101438003D01*
X207287342Y-101227566D01*
X207274264Y-101209566D01*
X207148517Y-101036490D01*
X206981510Y-100869483D01*
X206790433Y-100730657D01*
X206731555Y-100700657D01*
X206579996Y-100623433D01*
X206355368Y-100550446D01*
X206122097Y-100513500D01*
X206122092Y-100513500D01*
X205885908Y-100513500D01*
X205885903Y-100513500D01*
X205652631Y-100550446D01*
X205428003Y-100623433D01*
X205217566Y-100730657D01*
X205108550Y-100809862D01*
X205026490Y-100869483D01*
X205026488Y-100869485D01*
X205026487Y-100869485D01*
X204859485Y-101036487D01*
X204859485Y-101036488D01*
X204859483Y-101036490D01*
X204820252Y-101090487D01*
X204720657Y-101227566D01*
X204613433Y-101438003D01*
X204540446Y-101662631D01*
X204503500Y-101895902D01*
X174073500Y-101895902D01*
X174073500Y-101877902D01*
X174036553Y-101644631D01*
X173970635Y-101441758D01*
X173963568Y-101420008D01*
X173963566Y-101420005D01*
X173963566Y-101420003D01*
X173856342Y-101209566D01*
X173847624Y-101197567D01*
X173717517Y-101018490D01*
X173550510Y-100851483D01*
X173359433Y-100712657D01*
X173335882Y-100700657D01*
X173148996Y-100605433D01*
X172924368Y-100532446D01*
X172691097Y-100495500D01*
X172691092Y-100495500D01*
X172454908Y-100495500D01*
X172454903Y-100495500D01*
X172221631Y-100532446D01*
X171997003Y-100605433D01*
X171786566Y-100712657D01*
X171687468Y-100784657D01*
X171595490Y-100851483D01*
X171595488Y-100851485D01*
X171595487Y-100851485D01*
X171428485Y-101018487D01*
X171428485Y-101018488D01*
X171428483Y-101018490D01*
X171376174Y-101090487D01*
X171289657Y-101209566D01*
X171182433Y-101420003D01*
X171109446Y-101644631D01*
X171072500Y-101877902D01*
X167573500Y-101877902D01*
X167536553Y-101644631D01*
X167470635Y-101441758D01*
X167463568Y-101420008D01*
X167463566Y-101420005D01*
X167463566Y-101420003D01*
X167356342Y-101209566D01*
X167347624Y-101197567D01*
X167217517Y-101018490D01*
X167050510Y-100851483D01*
X166859433Y-100712657D01*
X166835882Y-100700657D01*
X166648996Y-100605433D01*
X166424368Y-100532446D01*
X166191097Y-100495500D01*
X166191092Y-100495500D01*
X165954908Y-100495500D01*
X165954903Y-100495500D01*
X165721631Y-100532446D01*
X165497003Y-100605433D01*
X165286566Y-100712657D01*
X165187468Y-100784657D01*
X165095490Y-100851483D01*
X165095488Y-100851485D01*
X165095487Y-100851485D01*
X164928485Y-101018487D01*
X164928485Y-101018488D01*
X164928483Y-101018490D01*
X164876174Y-101090487D01*
X164789657Y-101209566D01*
X164682433Y-101420003D01*
X164609446Y-101644631D01*
X164572500Y-101877902D01*
X134125500Y-101877902D01*
X134125500Y-101865902D01*
X134088553Y-101632631D01*
X134026534Y-101441758D01*
X134015568Y-101408008D01*
X134015566Y-101408005D01*
X134015566Y-101408003D01*
X133951143Y-101281566D01*
X133908343Y-101197567D01*
X133769517Y-101006490D01*
X133602510Y-100839483D01*
X133411433Y-100700657D01*
X133200996Y-100593433D01*
X132976368Y-100520446D01*
X132743097Y-100483500D01*
X132743092Y-100483500D01*
X132506908Y-100483500D01*
X132506903Y-100483500D01*
X132273631Y-100520446D01*
X132049003Y-100593433D01*
X131838566Y-100700657D01*
X131729550Y-100779862D01*
X131647490Y-100839483D01*
X131647488Y-100839485D01*
X131647487Y-100839485D01*
X131480485Y-101006487D01*
X131480485Y-101006488D01*
X131480483Y-101006490D01*
X131458689Y-101036487D01*
X131341657Y-101197566D01*
X131234433Y-101408003D01*
X131161446Y-101632631D01*
X131124500Y-101865902D01*
X127625500Y-101865902D01*
X127588553Y-101632631D01*
X127526534Y-101441758D01*
X127515568Y-101408008D01*
X127515566Y-101408005D01*
X127515566Y-101408003D01*
X127451143Y-101281566D01*
X127408343Y-101197567D01*
X127269517Y-101006490D01*
X127102510Y-100839483D01*
X126911433Y-100700657D01*
X126700996Y-100593433D01*
X126476368Y-100520446D01*
X126243097Y-100483500D01*
X126243092Y-100483500D01*
X126006908Y-100483500D01*
X126006903Y-100483500D01*
X125773628Y-100520447D01*
X125647433Y-100561450D01*
X125577592Y-100563445D01*
X125521435Y-100531200D01*
X122356137Y-97365902D01*
X124624500Y-97365902D01*
X124624500Y-97602097D01*
X124661446Y-97835368D01*
X124734433Y-98059996D01*
X124777234Y-98143996D01*
X124841657Y-98270433D01*
X124980483Y-98461510D01*
X125147490Y-98628517D01*
X125338567Y-98767343D01*
X125437991Y-98818002D01*
X125549003Y-98874566D01*
X125549005Y-98874566D01*
X125549008Y-98874568D01*
X125641332Y-98904566D01*
X125773631Y-98947553D01*
X126006903Y-98984500D01*
X126006908Y-98984500D01*
X126243097Y-98984500D01*
X126476368Y-98947553D01*
X126700992Y-98874568D01*
X126911433Y-98767343D01*
X127102510Y-98628517D01*
X127269517Y-98461510D01*
X127408343Y-98270433D01*
X127515568Y-98059992D01*
X127588553Y-97835368D01*
X127625500Y-97602097D01*
X127625500Y-97365902D01*
X127601857Y-97216631D01*
X127588553Y-97132632D01*
X127547547Y-97006432D01*
X127547113Y-96991220D01*
X127541795Y-96976961D01*
X127546136Y-96957007D01*
X127545553Y-96936595D01*
X127553641Y-96922507D01*
X127556648Y-96908689D01*
X127577795Y-96880439D01*
X127645118Y-96813117D01*
X127706442Y-96779633D01*
X127732798Y-96776800D01*
X131017203Y-96776800D01*
X131084242Y-96796485D01*
X131104884Y-96813119D01*
X131172200Y-96880435D01*
X131205685Y-96941758D01*
X131202450Y-97006433D01*
X131161447Y-97132628D01*
X131124500Y-97365902D01*
X131124500Y-97602097D01*
X131161446Y-97835368D01*
X131234433Y-98059996D01*
X131277234Y-98143996D01*
X131341657Y-98270433D01*
X131480483Y-98461510D01*
X131647490Y-98628517D01*
X131838567Y-98767343D01*
X131937991Y-98818002D01*
X132049003Y-98874566D01*
X132049005Y-98874566D01*
X132049008Y-98874568D01*
X132141332Y-98904566D01*
X132273631Y-98947553D01*
X132506903Y-98984500D01*
X132506908Y-98984500D01*
X132743097Y-98984500D01*
X132976368Y-98947553D01*
X133200992Y-98874568D01*
X133411433Y-98767343D01*
X133602510Y-98628517D01*
X133769517Y-98461510D01*
X133908343Y-98270433D01*
X134015568Y-98059992D01*
X134088553Y-97835368D01*
X134125500Y-97602097D01*
X134125500Y-97377902D01*
X164572500Y-97377902D01*
X164572500Y-97614097D01*
X164609446Y-97847368D01*
X164682433Y-98071996D01*
X164783543Y-98270433D01*
X164789657Y-98282433D01*
X164928483Y-98473510D01*
X165095490Y-98640517D01*
X165286567Y-98779343D01*
X165385991Y-98830002D01*
X165497003Y-98886566D01*
X165497005Y-98886566D01*
X165497008Y-98886568D01*
X165617412Y-98925689D01*
X165721631Y-98959553D01*
X165954903Y-98996500D01*
X165954908Y-98996500D01*
X166191097Y-98996500D01*
X166424368Y-98959553D01*
X166648992Y-98886568D01*
X166859433Y-98779343D01*
X167050510Y-98640517D01*
X167217517Y-98473510D01*
X167356343Y-98282433D01*
X167463568Y-98071992D01*
X167536553Y-97847368D01*
X167562096Y-97686097D01*
X167573500Y-97614097D01*
X167573500Y-97377902D01*
X167539404Y-97162632D01*
X167536553Y-97144632D01*
X167495547Y-97018433D01*
X167495113Y-97003220D01*
X167489795Y-96988961D01*
X167494136Y-96969005D01*
X167493553Y-96948593D01*
X167501640Y-96934507D01*
X167504647Y-96920688D01*
X167525795Y-96892439D01*
X167611917Y-96806318D01*
X167673240Y-96772833D01*
X167699597Y-96770000D01*
X170946403Y-96770000D01*
X171013442Y-96789685D01*
X171034084Y-96806319D01*
X171120200Y-96892435D01*
X171153685Y-96953758D01*
X171150450Y-97018433D01*
X171109447Y-97144628D01*
X171072500Y-97377902D01*
X171072500Y-97614097D01*
X171109446Y-97847368D01*
X171182433Y-98071996D01*
X171283543Y-98270433D01*
X171289657Y-98282433D01*
X171428483Y-98473510D01*
X171595490Y-98640517D01*
X171786567Y-98779343D01*
X171885991Y-98830002D01*
X171997003Y-98886566D01*
X171997005Y-98886566D01*
X171997008Y-98886568D01*
X172117412Y-98925689D01*
X172221631Y-98959553D01*
X172454903Y-98996500D01*
X172454908Y-98996500D01*
X172691097Y-98996500D01*
X172924368Y-98959553D01*
X173148992Y-98886568D01*
X173359433Y-98779343D01*
X173550510Y-98640517D01*
X173717517Y-98473510D01*
X173856343Y-98282433D01*
X173963568Y-98071992D01*
X174036553Y-97847368D01*
X174062096Y-97686097D01*
X174073500Y-97614097D01*
X174073500Y-97395902D01*
X204503500Y-97395902D01*
X204503500Y-97632097D01*
X204540446Y-97865368D01*
X204613433Y-98089996D01*
X204720657Y-98300433D01*
X204859483Y-98491510D01*
X205026490Y-98658517D01*
X205217567Y-98797343D01*
X205316991Y-98848002D01*
X205428003Y-98904566D01*
X205428005Y-98904566D01*
X205428008Y-98904568D01*
X205548412Y-98943689D01*
X205652631Y-98977553D01*
X205885903Y-99014500D01*
X205885908Y-99014500D01*
X206122097Y-99014500D01*
X206355368Y-98977553D01*
X206410766Y-98959553D01*
X206579992Y-98904568D01*
X206790433Y-98797343D01*
X206981510Y-98658517D01*
X207148517Y-98491510D01*
X207287343Y-98300433D01*
X207394568Y-98089992D01*
X207467553Y-97865368D01*
X207470404Y-97847368D01*
X207504500Y-97632097D01*
X207504500Y-97395902D01*
X211003500Y-97395902D01*
X211003500Y-97632097D01*
X211040446Y-97865368D01*
X211113433Y-98089996D01*
X211220657Y-98300433D01*
X211359483Y-98491510D01*
X211526490Y-98658517D01*
X211717567Y-98797343D01*
X211816991Y-98848002D01*
X211928003Y-98904566D01*
X211928005Y-98904566D01*
X211928008Y-98904568D01*
X212048412Y-98943689D01*
X212152631Y-98977553D01*
X212385903Y-99014500D01*
X212385908Y-99014500D01*
X212622097Y-99014500D01*
X212855368Y-98977553D01*
X212910766Y-98959553D01*
X213079992Y-98904568D01*
X213290433Y-98797343D01*
X213481510Y-98658517D01*
X213648517Y-98491510D01*
X213787343Y-98300433D01*
X213894568Y-98089992D01*
X213967553Y-97865368D01*
X213970404Y-97847368D01*
X214004500Y-97632097D01*
X214004500Y-97395902D01*
X213976106Y-97216632D01*
X213967553Y-97162632D01*
X213926547Y-97036433D01*
X213924553Y-96966593D01*
X213956796Y-96910437D01*
X214178713Y-96688521D01*
X214178716Y-96688520D01*
X214290520Y-96576716D01*
X214340639Y-96489904D01*
X214369577Y-96439785D01*
X214410501Y-96287057D01*
X214410501Y-96128943D01*
X214410501Y-96121348D01*
X214410500Y-96121330D01*
X214410500Y-72774060D01*
X214410501Y-72774047D01*
X214410501Y-72605944D01*
X214394577Y-72546517D01*
X214369577Y-72453216D01*
X214332798Y-72389512D01*
X214290524Y-72316290D01*
X214290518Y-72316282D01*
X214139669Y-72165433D01*
X213957797Y-71983562D01*
X213924313Y-71922240D01*
X213927547Y-71857566D01*
X213968553Y-71731368D01*
X214000432Y-71530092D01*
X214005500Y-71498097D01*
X214005500Y-71261902D01*
X213968553Y-71028631D01*
X213902716Y-70826008D01*
X213895568Y-70804008D01*
X213895566Y-70804005D01*
X213895566Y-70804003D01*
X213836204Y-70687500D01*
X213788343Y-70593567D01*
X213649517Y-70402490D01*
X213482510Y-70235483D01*
X213291433Y-70096657D01*
X213267503Y-70084464D01*
X213080996Y-69989433D01*
X212856368Y-69916446D01*
X212623097Y-69879500D01*
X212623092Y-69879500D01*
X212386908Y-69879500D01*
X212386903Y-69879500D01*
X212153631Y-69916446D01*
X211929003Y-69989433D01*
X211718566Y-70096657D01*
X211642087Y-70152223D01*
X211527490Y-70235483D01*
X211527488Y-70235485D01*
X211527487Y-70235485D01*
X211360485Y-70402487D01*
X211360485Y-70402488D01*
X211360483Y-70402490D01*
X211300862Y-70484550D01*
X211221657Y-70593566D01*
X211114433Y-70804003D01*
X211041446Y-71028631D01*
X211004500Y-71261902D01*
X211004500Y-71498097D01*
X211041446Y-71731368D01*
X211114433Y-71955996D01*
X211201310Y-72126500D01*
X211221657Y-72166433D01*
X211360483Y-72357510D01*
X211527490Y-72524517D01*
X211718567Y-72663343D01*
X211781369Y-72695342D01*
X211929003Y-72770566D01*
X211929005Y-72770566D01*
X211929008Y-72770568D01*
X212027494Y-72802568D01*
X212153631Y-72843553D01*
X212386903Y-72880500D01*
X212386908Y-72880500D01*
X212623097Y-72880500D01*
X212729126Y-72863705D01*
X212856368Y-72843553D01*
X212982566Y-72802547D01*
X212997776Y-72802113D01*
X213012036Y-72796795D01*
X213031991Y-72801136D01*
X213052404Y-72800553D01*
X213066490Y-72808640D01*
X213080309Y-72811647D01*
X213108563Y-72832798D01*
X213173181Y-72897416D01*
X213206666Y-72958739D01*
X213209500Y-72985097D01*
X213209500Y-74360515D01*
X213189815Y-74427554D01*
X213137011Y-74473309D01*
X213067853Y-74483253D01*
X213047182Y-74478446D01*
X212856370Y-74416447D01*
X212623097Y-74379500D01*
X212623092Y-74379500D01*
X212386908Y-74379500D01*
X212386903Y-74379500D01*
X212153631Y-74416446D01*
X211929003Y-74489433D01*
X211718566Y-74596657D01*
X211609550Y-74675862D01*
X211527490Y-74735483D01*
X211527488Y-74735485D01*
X211527487Y-74735485D01*
X211360485Y-74902487D01*
X211360485Y-74902488D01*
X211360483Y-74902490D01*
X211344499Y-74924490D01*
X211221657Y-75093566D01*
X211114433Y-75304003D01*
X211041446Y-75528631D01*
X211004500Y-75761902D01*
X211004500Y-75998097D01*
X211041446Y-76231368D01*
X211114433Y-76455996D01*
X211221147Y-76665433D01*
X211221657Y-76666433D01*
X211360483Y-76857510D01*
X211527490Y-77024517D01*
X211718567Y-77163343D01*
X211781369Y-77195342D01*
X211929003Y-77270566D01*
X211929005Y-77270566D01*
X211929008Y-77270568D01*
X212027494Y-77302568D01*
X212153631Y-77343553D01*
X212386903Y-77380500D01*
X212386908Y-77380500D01*
X212623097Y-77380500D01*
X212856368Y-77343553D01*
X212859446Y-77342553D01*
X213047184Y-77281552D01*
X213117022Y-77279558D01*
X213176855Y-77315638D01*
X213207684Y-77378338D01*
X213209500Y-77399484D01*
X213209500Y-95907901D01*
X213200855Y-95937338D01*
X213194332Y-95967329D01*
X213190576Y-95972345D01*
X213189815Y-95974940D01*
X213173181Y-95995583D01*
X213107562Y-96061201D01*
X213046238Y-96094685D01*
X212981563Y-96091450D01*
X212855370Y-96050447D01*
X212622097Y-96013500D01*
X212622092Y-96013500D01*
X212385908Y-96013500D01*
X212385903Y-96013500D01*
X212152631Y-96050446D01*
X211928003Y-96123433D01*
X211717566Y-96230657D01*
X211639943Y-96287054D01*
X211526490Y-96369483D01*
X211526488Y-96369485D01*
X211526487Y-96369485D01*
X211359485Y-96536487D01*
X211359485Y-96536488D01*
X211359483Y-96536490D01*
X211330257Y-96576716D01*
X211220657Y-96727566D01*
X211113433Y-96938003D01*
X211040446Y-97162631D01*
X211003500Y-97395902D01*
X207504500Y-97395902D01*
X207467553Y-97162631D01*
X207415757Y-97003220D01*
X207394568Y-96938008D01*
X207394566Y-96938005D01*
X207394566Y-96938003D01*
X207310407Y-96772833D01*
X207287343Y-96727567D01*
X207148517Y-96536490D01*
X206981510Y-96369483D01*
X206790433Y-96230657D01*
X206731555Y-96200657D01*
X206579996Y-96123433D01*
X206355368Y-96050446D01*
X206122097Y-96013500D01*
X206122092Y-96013500D01*
X205885908Y-96013500D01*
X205885903Y-96013500D01*
X205652631Y-96050446D01*
X205428003Y-96123433D01*
X205217566Y-96230657D01*
X205139943Y-96287054D01*
X205026490Y-96369483D01*
X205026488Y-96369485D01*
X205026487Y-96369485D01*
X204859485Y-96536487D01*
X204859485Y-96536488D01*
X204859483Y-96536490D01*
X204830257Y-96576716D01*
X204720657Y-96727566D01*
X204613433Y-96938003D01*
X204540446Y-97162631D01*
X204503500Y-97395902D01*
X174073500Y-97395902D01*
X174073500Y-97377902D01*
X174036553Y-97144631D01*
X173977916Y-96964167D01*
X173963568Y-96920008D01*
X173963566Y-96920005D01*
X173963566Y-96920003D01*
X173890600Y-96776800D01*
X173856343Y-96709567D01*
X173717517Y-96518490D01*
X173550510Y-96351483D01*
X173359433Y-96212657D01*
X173335882Y-96200657D01*
X173148996Y-96105433D01*
X172924368Y-96032446D01*
X172691097Y-95995500D01*
X172691092Y-95995500D01*
X172454908Y-95995500D01*
X172454903Y-95995500D01*
X172221628Y-96032447D01*
X172095433Y-96073450D01*
X172080221Y-96073884D01*
X172065962Y-96079203D01*
X172046006Y-96074861D01*
X172025592Y-96075445D01*
X172011505Y-96067356D01*
X171997689Y-96064351D01*
X171969435Y-96043200D01*
X171883319Y-95957084D01*
X171849834Y-95895761D01*
X171847000Y-95869403D01*
X171847000Y-77381726D01*
X171866685Y-77314687D01*
X171919489Y-77268932D01*
X171988647Y-77258988D01*
X172019113Y-77268659D01*
X172019509Y-77267704D01*
X172024004Y-77269566D01*
X172024008Y-77269568D01*
X172177441Y-77319421D01*
X172248631Y-77342553D01*
X172481903Y-77379500D01*
X172481908Y-77379500D01*
X172718097Y-77379500D01*
X172951368Y-77342553D01*
X172996065Y-77328030D01*
X173175992Y-77269568D01*
X173386433Y-77162343D01*
X173577510Y-77023517D01*
X173744517Y-76856510D01*
X173883343Y-76665433D01*
X173990056Y-76455996D01*
X173990566Y-76454996D01*
X173990566Y-76454995D01*
X173990568Y-76454992D01*
X174063553Y-76230368D01*
X174095273Y-76030097D01*
X174100500Y-75997097D01*
X174100500Y-75761902D01*
X204504500Y-75761902D01*
X204504500Y-75998097D01*
X204541446Y-76231368D01*
X204614433Y-76455996D01*
X204721147Y-76665433D01*
X204721657Y-76666433D01*
X204860483Y-76857510D01*
X205027490Y-77024517D01*
X205218567Y-77163343D01*
X205281369Y-77195342D01*
X205429003Y-77270566D01*
X205429005Y-77270566D01*
X205429008Y-77270568D01*
X205527494Y-77302568D01*
X205653631Y-77343553D01*
X205886903Y-77380500D01*
X205886908Y-77380500D01*
X206123097Y-77380500D01*
X206356368Y-77343553D01*
X206359446Y-77342553D01*
X206580992Y-77270568D01*
X206791433Y-77163343D01*
X206982510Y-77024517D01*
X207149517Y-76857510D01*
X207288343Y-76666433D01*
X207395568Y-76455992D01*
X207468553Y-76231368D01*
X207468711Y-76230368D01*
X207505500Y-75998097D01*
X207505500Y-75761902D01*
X207468553Y-75528631D01*
X207402716Y-75326008D01*
X207395568Y-75304008D01*
X207395566Y-75304005D01*
X207395566Y-75304003D01*
X207339002Y-75192991D01*
X207288343Y-75093567D01*
X207149517Y-74902490D01*
X206982510Y-74735483D01*
X206791433Y-74596657D01*
X206786377Y-74594081D01*
X206580996Y-74489433D01*
X206356368Y-74416446D01*
X206123097Y-74379500D01*
X206123092Y-74379500D01*
X205886908Y-74379500D01*
X205886903Y-74379500D01*
X205653631Y-74416446D01*
X205429003Y-74489433D01*
X205218566Y-74596657D01*
X205109550Y-74675862D01*
X205027490Y-74735483D01*
X205027488Y-74735485D01*
X205027487Y-74735485D01*
X204860485Y-74902487D01*
X204860485Y-74902488D01*
X204860483Y-74902490D01*
X204844499Y-74924490D01*
X204721657Y-75093566D01*
X204614433Y-75304003D01*
X204541446Y-75528631D01*
X204504500Y-75761902D01*
X174100500Y-75761902D01*
X174100500Y-75760902D01*
X174063553Y-75527631D01*
X174001290Y-75336008D01*
X173990568Y-75303008D01*
X173990566Y-75303005D01*
X173990566Y-75303003D01*
X173900157Y-75125567D01*
X173883343Y-75092567D01*
X173744517Y-74901490D01*
X173577510Y-74734483D01*
X173386433Y-74595657D01*
X173353000Y-74578622D01*
X173175996Y-74488433D01*
X172951368Y-74415446D01*
X172718097Y-74378500D01*
X172718092Y-74378500D01*
X172481908Y-74378500D01*
X172481903Y-74378500D01*
X172248631Y-74415446D01*
X172078638Y-74470681D01*
X172024008Y-74488432D01*
X172024005Y-74488433D01*
X172023997Y-74488436D01*
X172019499Y-74490299D01*
X172018700Y-74488371D01*
X171958622Y-74499653D01*
X171893882Y-74473374D01*
X171853627Y-74416267D01*
X171847000Y-74376272D01*
X171847000Y-73032596D01*
X171855645Y-73003152D01*
X171862168Y-72973170D01*
X171865922Y-72968154D01*
X171866685Y-72965557D01*
X171883310Y-72944924D01*
X171996438Y-72831795D01*
X172057757Y-72798313D01*
X172122433Y-72801547D01*
X172248632Y-72842553D01*
X172336110Y-72856408D01*
X172481903Y-72879500D01*
X172481908Y-72879500D01*
X172718097Y-72879500D01*
X172951368Y-72842553D01*
X172976005Y-72834548D01*
X173175992Y-72769568D01*
X173386433Y-72662343D01*
X173577510Y-72523517D01*
X173744517Y-72356510D01*
X173883343Y-72165433D01*
X173990056Y-71955996D01*
X173990566Y-71954996D01*
X173990566Y-71954995D01*
X173990568Y-71954992D01*
X174063553Y-71730368D01*
X174100500Y-71497097D01*
X174100500Y-71261902D01*
X204504500Y-71261902D01*
X204504500Y-71498097D01*
X204541446Y-71731368D01*
X204614433Y-71955996D01*
X204701310Y-72126500D01*
X204721657Y-72166433D01*
X204860483Y-72357510D01*
X205027490Y-72524517D01*
X205218567Y-72663343D01*
X205281369Y-72695342D01*
X205429003Y-72770566D01*
X205429005Y-72770566D01*
X205429008Y-72770568D01*
X205527494Y-72802568D01*
X205653631Y-72843553D01*
X205886903Y-72880500D01*
X205886908Y-72880500D01*
X206123097Y-72880500D01*
X206356368Y-72843553D01*
X206401788Y-72828795D01*
X206580992Y-72770568D01*
X206791433Y-72663343D01*
X206982510Y-72524517D01*
X207149517Y-72357510D01*
X207288343Y-72166433D01*
X207395568Y-71955992D01*
X207468553Y-71731368D01*
X207468711Y-71730368D01*
X207505500Y-71498097D01*
X207505500Y-71261902D01*
X207468553Y-71028631D01*
X207402716Y-70826008D01*
X207395568Y-70804008D01*
X207395566Y-70804005D01*
X207395566Y-70804003D01*
X207336204Y-70687500D01*
X207288343Y-70593567D01*
X207149517Y-70402490D01*
X206982510Y-70235483D01*
X206791433Y-70096657D01*
X206767503Y-70084464D01*
X206580996Y-69989433D01*
X206356368Y-69916446D01*
X206123097Y-69879500D01*
X206123092Y-69879500D01*
X205886908Y-69879500D01*
X205886903Y-69879500D01*
X205653631Y-69916446D01*
X205429003Y-69989433D01*
X205218566Y-70096657D01*
X205142087Y-70152223D01*
X205027490Y-70235483D01*
X205027488Y-70235485D01*
X205027487Y-70235485D01*
X204860485Y-70402487D01*
X204860485Y-70402488D01*
X204860483Y-70402490D01*
X204800862Y-70484550D01*
X204721657Y-70593566D01*
X204614433Y-70804003D01*
X204541446Y-71028631D01*
X204504500Y-71261902D01*
X174100500Y-71261902D01*
X174100500Y-71260902D01*
X174063553Y-71027631D01*
X174001290Y-70836008D01*
X173990568Y-70803008D01*
X173990566Y-70803005D01*
X173990566Y-70803003D01*
X173900157Y-70625567D01*
X173883343Y-70592567D01*
X173744517Y-70401490D01*
X173577510Y-70234483D01*
X173386433Y-70095657D01*
X173378500Y-70091615D01*
X173175996Y-69988433D01*
X172951368Y-69915446D01*
X172718097Y-69878500D01*
X172718092Y-69878500D01*
X172481908Y-69878500D01*
X172481903Y-69878500D01*
X172248631Y-69915446D01*
X172024003Y-69988433D01*
X171813566Y-70095657D01*
X171735711Y-70152223D01*
X171622490Y-70234483D01*
X171622488Y-70234485D01*
X171622487Y-70234485D01*
X171455485Y-70401487D01*
X171455485Y-70401488D01*
X171455483Y-70401490D01*
X171431507Y-70434490D01*
X171316657Y-70592566D01*
X171209433Y-70803003D01*
X171136446Y-71027631D01*
X171099500Y-71260902D01*
X171099500Y-71436903D01*
X171079815Y-71503942D01*
X171027011Y-71549697D01*
X170957853Y-71559641D01*
X170894297Y-71530616D01*
X170887819Y-71524584D01*
X169713390Y-70350155D01*
X169713388Y-70350152D01*
X169594517Y-70231281D01*
X169594516Y-70231280D01*
X169507704Y-70181160D01*
X169507704Y-70181159D01*
X169507700Y-70181158D01*
X169457585Y-70152223D01*
X169304857Y-70111299D01*
X169146743Y-70111299D01*
X169139147Y-70111299D01*
X169139131Y-70111300D01*
X168158900Y-70111300D01*
X168091861Y-70091615D01*
X168046106Y-70038811D01*
X168034900Y-69987300D01*
X168034900Y-49580902D01*
X171086500Y-49580902D01*
X171086500Y-49817097D01*
X171123446Y-50050368D01*
X171196433Y-50274996D01*
X171289900Y-50458433D01*
X171303657Y-50485433D01*
X171442483Y-50676510D01*
X171609490Y-50843517D01*
X171800567Y-50982343D01*
X171840100Y-51002486D01*
X172011003Y-51089566D01*
X172011005Y-51089566D01*
X172011008Y-51089568D01*
X172129637Y-51128113D01*
X172235631Y-51162553D01*
X172468903Y-51199500D01*
X172468908Y-51199500D01*
X172705097Y-51199500D01*
X172938368Y-51162553D01*
X172941446Y-51161553D01*
X173162992Y-51089568D01*
X173373433Y-50982343D01*
X173564510Y-50843517D01*
X173731517Y-50676510D01*
X173870343Y-50485433D01*
X173977568Y-50274992D01*
X174050553Y-50050368D01*
X174054829Y-50023368D01*
X174087500Y-49817097D01*
X174087500Y-49580912D01*
X174087498Y-49580893D01*
X174087341Y-49579902D01*
X204508500Y-49579902D01*
X204508500Y-49816097D01*
X204545446Y-50049368D01*
X204618433Y-50273996D01*
X204679174Y-50393205D01*
X204725657Y-50484433D01*
X204864483Y-50675510D01*
X205031490Y-50842517D01*
X205222567Y-50981343D01*
X205275556Y-51008342D01*
X205433003Y-51088566D01*
X205433005Y-51088566D01*
X205433008Y-51088568D01*
X205539920Y-51123306D01*
X205657631Y-51161553D01*
X205890903Y-51198500D01*
X205890908Y-51198500D01*
X206127097Y-51198500D01*
X206360368Y-51161553D01*
X206584992Y-51088568D01*
X206795433Y-50981343D01*
X206986510Y-50842517D01*
X207153517Y-50675510D01*
X207292343Y-50484433D01*
X207399056Y-50274996D01*
X207399566Y-50273996D01*
X207399566Y-50273995D01*
X207399568Y-50273992D01*
X207472553Y-50049368D01*
X207476671Y-50023368D01*
X207509500Y-49816097D01*
X207509500Y-49579902D01*
X211008500Y-49579902D01*
X211008500Y-49816097D01*
X211045446Y-50049368D01*
X211118433Y-50273996D01*
X211179174Y-50393205D01*
X211225657Y-50484433D01*
X211364483Y-50675510D01*
X211531490Y-50842517D01*
X211722567Y-50981343D01*
X211775556Y-51008342D01*
X211933003Y-51088566D01*
X211933005Y-51088566D01*
X211933008Y-51088568D01*
X212039920Y-51123306D01*
X212157631Y-51161553D01*
X212390903Y-51198500D01*
X212390908Y-51198500D01*
X212627097Y-51198500D01*
X212860368Y-51161553D01*
X213084992Y-51088568D01*
X213295433Y-50981343D01*
X213486510Y-50842517D01*
X213653517Y-50675510D01*
X213792343Y-50484433D01*
X213899056Y-50274996D01*
X213899566Y-50273996D01*
X213899566Y-50273995D01*
X213899568Y-50273992D01*
X213972553Y-50049368D01*
X213976671Y-50023368D01*
X214009500Y-49816097D01*
X214009500Y-49579902D01*
X213972553Y-49346631D01*
X213908339Y-49149003D01*
X213899568Y-49122008D01*
X213899566Y-49122005D01*
X213899566Y-49122003D01*
X213806100Y-48938567D01*
X213792343Y-48911567D01*
X213653517Y-48720490D01*
X213486510Y-48553483D01*
X213295433Y-48414657D01*
X213257861Y-48395513D01*
X213084996Y-48307433D01*
X212860368Y-48234446D01*
X212627097Y-48197500D01*
X212627092Y-48197500D01*
X212390908Y-48197500D01*
X212390903Y-48197500D01*
X212157631Y-48234446D01*
X211933003Y-48307433D01*
X211722566Y-48414657D01*
X211613550Y-48493862D01*
X211531490Y-48553483D01*
X211531488Y-48553485D01*
X211531487Y-48553485D01*
X211364485Y-48720487D01*
X211364485Y-48720488D01*
X211364483Y-48720490D01*
X211304862Y-48802550D01*
X211225657Y-48911566D01*
X211118433Y-49122003D01*
X211045446Y-49346631D01*
X211008500Y-49579902D01*
X207509500Y-49579902D01*
X207472553Y-49346631D01*
X207408339Y-49149003D01*
X207399568Y-49122008D01*
X207399566Y-49122005D01*
X207399566Y-49122003D01*
X207306100Y-48938567D01*
X207292343Y-48911567D01*
X207153517Y-48720490D01*
X206986510Y-48553483D01*
X206795433Y-48414657D01*
X206757861Y-48395513D01*
X206584996Y-48307433D01*
X206360368Y-48234446D01*
X206127097Y-48197500D01*
X206127092Y-48197500D01*
X205890908Y-48197500D01*
X205890903Y-48197500D01*
X205657631Y-48234446D01*
X205433003Y-48307433D01*
X205222566Y-48414657D01*
X205113550Y-48493862D01*
X205031490Y-48553483D01*
X205031488Y-48553485D01*
X205031487Y-48553485D01*
X204864485Y-48720487D01*
X204864485Y-48720488D01*
X204864483Y-48720490D01*
X204804862Y-48802550D01*
X204725657Y-48911566D01*
X204618433Y-49122003D01*
X204545446Y-49346631D01*
X204508500Y-49579902D01*
X174087341Y-49579902D01*
X174050553Y-49347631D01*
X174000751Y-49194358D01*
X173977568Y-49123008D01*
X173977566Y-49123005D01*
X173977566Y-49123003D01*
X173921002Y-49011991D01*
X173870343Y-48912567D01*
X173731517Y-48721490D01*
X173564510Y-48554483D01*
X173373433Y-48415657D01*
X173371470Y-48414657D01*
X173162996Y-48308433D01*
X172938368Y-48235446D01*
X172705097Y-48198500D01*
X172705092Y-48198500D01*
X172468908Y-48198500D01*
X172468903Y-48198500D01*
X172235631Y-48235446D01*
X172011003Y-48308433D01*
X171800566Y-48415657D01*
X171764781Y-48441657D01*
X171609490Y-48554483D01*
X171609488Y-48554485D01*
X171609487Y-48554485D01*
X171442485Y-48721487D01*
X171442485Y-48721488D01*
X171442483Y-48721490D01*
X171423593Y-48747490D01*
X171303657Y-48912566D01*
X171196433Y-49123003D01*
X171123446Y-49347631D01*
X171086500Y-49580902D01*
X168034900Y-49580902D01*
X168034900Y-47270900D01*
X168054585Y-47203861D01*
X168107389Y-47158106D01*
X168158900Y-47146900D01*
X171152931Y-47146900D01*
X171152947Y-47146901D01*
X171160543Y-47146901D01*
X171318654Y-47146901D01*
X171318657Y-47146901D01*
X171471385Y-47105977D01*
X171521504Y-47077039D01*
X171608316Y-47026920D01*
X171720120Y-46915116D01*
X171720120Y-46915114D01*
X171730328Y-46904907D01*
X171730330Y-46904904D01*
X171983437Y-46651796D01*
X172044758Y-46618313D01*
X172109433Y-46621547D01*
X172235632Y-46662553D01*
X172323110Y-46676408D01*
X172468903Y-46699500D01*
X172468908Y-46699500D01*
X172705097Y-46699500D01*
X172938368Y-46662553D01*
X172984548Y-46647548D01*
X173162992Y-46589568D01*
X173373433Y-46482343D01*
X173564510Y-46343517D01*
X173731517Y-46176510D01*
X173870343Y-45985433D01*
X173977568Y-45774992D01*
X174050553Y-45550368D01*
X174054829Y-45523368D01*
X174087500Y-45317097D01*
X174087500Y-45080912D01*
X174087498Y-45080893D01*
X174087341Y-45079902D01*
X204508500Y-45079902D01*
X204508500Y-45316097D01*
X204545446Y-45549368D01*
X204618433Y-45773996D01*
X204687518Y-45909581D01*
X204725657Y-45984433D01*
X204864483Y-46175510D01*
X205031490Y-46342517D01*
X205222567Y-46481343D01*
X205275556Y-46508342D01*
X205433003Y-46588566D01*
X205433005Y-46588566D01*
X205433008Y-46588568D01*
X205528370Y-46619553D01*
X205657631Y-46661553D01*
X205890903Y-46698500D01*
X205890908Y-46698500D01*
X206127097Y-46698500D01*
X206360368Y-46661553D01*
X206584992Y-46588568D01*
X206795433Y-46481343D01*
X206986510Y-46342517D01*
X207153517Y-46175510D01*
X207292343Y-45984433D01*
X207399056Y-45774996D01*
X207399566Y-45773996D01*
X207399566Y-45773995D01*
X207399568Y-45773992D01*
X207472553Y-45549368D01*
X207480275Y-45500613D01*
X207509500Y-45316097D01*
X207509500Y-45079902D01*
X211008500Y-45079902D01*
X211008500Y-45316097D01*
X211045446Y-45549368D01*
X211118433Y-45773996D01*
X211187518Y-45909581D01*
X211225657Y-45984433D01*
X211364483Y-46175510D01*
X211531490Y-46342517D01*
X211722567Y-46481343D01*
X211775556Y-46508342D01*
X211933003Y-46588566D01*
X211933005Y-46588566D01*
X211933008Y-46588568D01*
X212028370Y-46619553D01*
X212157631Y-46661553D01*
X212390903Y-46698500D01*
X212390908Y-46698500D01*
X212627097Y-46698500D01*
X212860368Y-46661553D01*
X213084992Y-46588568D01*
X213295433Y-46481343D01*
X213486510Y-46342517D01*
X213653517Y-46175510D01*
X213792343Y-45984433D01*
X213899056Y-45774996D01*
X213899566Y-45773996D01*
X213899566Y-45773995D01*
X213899568Y-45773992D01*
X213972553Y-45549368D01*
X213980275Y-45500613D01*
X214009500Y-45316097D01*
X214009500Y-45079902D01*
X213972553Y-44846631D01*
X213908339Y-44649003D01*
X213899568Y-44622008D01*
X213899566Y-44622005D01*
X213899566Y-44622003D01*
X213806100Y-44438567D01*
X213792343Y-44411567D01*
X213653517Y-44220490D01*
X213486510Y-44053483D01*
X213295433Y-43914657D01*
X213084996Y-43807433D01*
X212860368Y-43734446D01*
X212627097Y-43697500D01*
X212627092Y-43697500D01*
X212390908Y-43697500D01*
X212390903Y-43697500D01*
X212157631Y-43734446D01*
X211933003Y-43807433D01*
X211722566Y-43914657D01*
X211613550Y-43993862D01*
X211531490Y-44053483D01*
X211531488Y-44053485D01*
X211531487Y-44053485D01*
X211364485Y-44220487D01*
X211364485Y-44220488D01*
X211364483Y-44220490D01*
X211304862Y-44302550D01*
X211225657Y-44411566D01*
X211118433Y-44622003D01*
X211045446Y-44846631D01*
X211008500Y-45079902D01*
X207509500Y-45079902D01*
X207472553Y-44846631D01*
X207408339Y-44649003D01*
X207399568Y-44622008D01*
X207399566Y-44622005D01*
X207399566Y-44622003D01*
X207306100Y-44438567D01*
X207292343Y-44411567D01*
X207153517Y-44220490D01*
X206986510Y-44053483D01*
X206795433Y-43914657D01*
X206584996Y-43807433D01*
X206360368Y-43734446D01*
X206127097Y-43697500D01*
X206127092Y-43697500D01*
X205890908Y-43697500D01*
X205890903Y-43697500D01*
X205657631Y-43734446D01*
X205433003Y-43807433D01*
X205222566Y-43914657D01*
X205113550Y-43993862D01*
X205031490Y-44053483D01*
X205031488Y-44053485D01*
X205031487Y-44053485D01*
X204864485Y-44220487D01*
X204864485Y-44220488D01*
X204864483Y-44220490D01*
X204804862Y-44302550D01*
X204725657Y-44411566D01*
X204618433Y-44622003D01*
X204545446Y-44846631D01*
X204508500Y-45079902D01*
X174087341Y-45079902D01*
X174050553Y-44847631D01*
X174000751Y-44694358D01*
X173977568Y-44623008D01*
X173977566Y-44623005D01*
X173977566Y-44623003D01*
X173921002Y-44511991D01*
X173870343Y-44412567D01*
X173731517Y-44221490D01*
X173564510Y-44054483D01*
X173373433Y-43915657D01*
X173371470Y-43914657D01*
X173162996Y-43808433D01*
X172938368Y-43735446D01*
X172705097Y-43698500D01*
X172705092Y-43698500D01*
X172468908Y-43698500D01*
X172468903Y-43698500D01*
X172235631Y-43735446D01*
X172011003Y-43808433D01*
X171800566Y-43915657D01*
X171764781Y-43941657D01*
X171609490Y-44054483D01*
X171609488Y-44054485D01*
X171609487Y-44054485D01*
X171442485Y-44221487D01*
X171442485Y-44221488D01*
X171442483Y-44221490D01*
X171423593Y-44247490D01*
X171303657Y-44412566D01*
X171196433Y-44623003D01*
X171123446Y-44847631D01*
X171086500Y-45080902D01*
X171086500Y-45317097D01*
X171123447Y-45550369D01*
X171123447Y-45550372D01*
X171164450Y-45676564D01*
X171164884Y-45691776D01*
X171170203Y-45706035D01*
X171165861Y-45725991D01*
X171166445Y-45746405D01*
X171158357Y-45760489D01*
X171155352Y-45774308D01*
X171134201Y-45802562D01*
X171027185Y-45909580D01*
X170965862Y-45943066D01*
X170939503Y-45945900D01*
X167734497Y-45945900D01*
X167667458Y-45926215D01*
X167646816Y-45909581D01*
X167539798Y-45802563D01*
X167506313Y-45741240D01*
X167509547Y-45676566D01*
X167550553Y-45550368D01*
X167570705Y-45423126D01*
X167587500Y-45317097D01*
X167587500Y-45080902D01*
X167550553Y-44847631D01*
X167500751Y-44694358D01*
X167477568Y-44623008D01*
X167477566Y-44623005D01*
X167477566Y-44623003D01*
X167421002Y-44511991D01*
X167370343Y-44412567D01*
X167231517Y-44221490D01*
X167064510Y-44054483D01*
X166873433Y-43915657D01*
X166871470Y-43914657D01*
X166662996Y-43808433D01*
X166438368Y-43735446D01*
X166205097Y-43698500D01*
X166205092Y-43698500D01*
X165968908Y-43698500D01*
X165968903Y-43698500D01*
X165735631Y-43735446D01*
X165511003Y-43808433D01*
X165300566Y-43915657D01*
X165264781Y-43941657D01*
X165109490Y-44054483D01*
X165109488Y-44054485D01*
X165109487Y-44054485D01*
X164942485Y-44221487D01*
X164942485Y-44221488D01*
X164942483Y-44221490D01*
X164923593Y-44247490D01*
X164803657Y-44412566D01*
X164696433Y-44623003D01*
X164623446Y-44847631D01*
X164586500Y-45080902D01*
X164586500Y-45317097D01*
X164623446Y-45550368D01*
X164696433Y-45774996D01*
X164765008Y-45909580D01*
X164803657Y-45985433D01*
X164942483Y-46176510D01*
X165109490Y-46343517D01*
X165300567Y-46482343D01*
X165351593Y-46508342D01*
X165511003Y-46589566D01*
X165511005Y-46589566D01*
X165511008Y-46589568D01*
X165608093Y-46621113D01*
X165735631Y-46662553D01*
X165968903Y-46699500D01*
X165968908Y-46699500D01*
X166205097Y-46699500D01*
X166311126Y-46682705D01*
X166438368Y-46662553D01*
X166564566Y-46621547D01*
X166579776Y-46621113D01*
X166594036Y-46615795D01*
X166613991Y-46620136D01*
X166634404Y-46619553D01*
X166648490Y-46627640D01*
X166662309Y-46630647D01*
X166690563Y-46651798D01*
X166797581Y-46758816D01*
X166831066Y-46820139D01*
X166833900Y-46846497D01*
X166833900Y-48193645D01*
X166814215Y-48260684D01*
X166761411Y-48306439D01*
X166692253Y-48316383D01*
X166667717Y-48309653D01*
X166667625Y-48309938D01*
X166662995Y-48308433D01*
X166662992Y-48308432D01*
X166577977Y-48280808D01*
X166438368Y-48235446D01*
X166205097Y-48198500D01*
X166205092Y-48198500D01*
X165968908Y-48198500D01*
X165968903Y-48198500D01*
X165735631Y-48235446D01*
X165511003Y-48308433D01*
X165300566Y-48415657D01*
X165264781Y-48441657D01*
X165109490Y-48554483D01*
X165109488Y-48554485D01*
X165109487Y-48554485D01*
X164942485Y-48721487D01*
X164942485Y-48721488D01*
X164942483Y-48721490D01*
X164923593Y-48747490D01*
X164803657Y-48912566D01*
X164696433Y-49123003D01*
X164623446Y-49347631D01*
X164586500Y-49580902D01*
X164586500Y-49817097D01*
X164623446Y-50050368D01*
X164696433Y-50274996D01*
X164789900Y-50458433D01*
X164803657Y-50485433D01*
X164942483Y-50676510D01*
X165109490Y-50843517D01*
X165300567Y-50982343D01*
X165340100Y-51002486D01*
X165511003Y-51089566D01*
X165511005Y-51089566D01*
X165511008Y-51089568D01*
X165629637Y-51128113D01*
X165735631Y-51162553D01*
X165968903Y-51199500D01*
X165968908Y-51199500D01*
X166205097Y-51199500D01*
X166438368Y-51162553D01*
X166441446Y-51161553D01*
X166662992Y-51089568D01*
X166662995Y-51089566D01*
X166667625Y-51088062D01*
X166667994Y-51089199D01*
X166731907Y-51082322D01*
X166794389Y-51113592D01*
X166830046Y-51173678D01*
X166833900Y-51204354D01*
X166833900Y-69869068D01*
X166814215Y-69936107D01*
X166761411Y-69981862D01*
X166692253Y-69991806D01*
X166671582Y-69986999D01*
X166451370Y-69915447D01*
X166218097Y-69878500D01*
X166218092Y-69878500D01*
X165981908Y-69878500D01*
X165981903Y-69878500D01*
X165748631Y-69915446D01*
X165524003Y-69988433D01*
X165313566Y-70095657D01*
X165235711Y-70152223D01*
X165122490Y-70234483D01*
X165122488Y-70234485D01*
X165122487Y-70234485D01*
X164955485Y-70401487D01*
X164955485Y-70401488D01*
X164955483Y-70401490D01*
X164931507Y-70434490D01*
X164816657Y-70592566D01*
X164709433Y-70803003D01*
X164636446Y-71027631D01*
X164599500Y-71260902D01*
X164599500Y-71497097D01*
X164636446Y-71730368D01*
X164709433Y-71954996D01*
X164816657Y-72165433D01*
X164955483Y-72356510D01*
X165122490Y-72523517D01*
X165313567Y-72662343D01*
X165406938Y-72709918D01*
X165524003Y-72769566D01*
X165524005Y-72769566D01*
X165524008Y-72769568D01*
X165612476Y-72798313D01*
X165748631Y-72842553D01*
X165981903Y-72879500D01*
X165981908Y-72879500D01*
X166218097Y-72879500D01*
X166451368Y-72842553D01*
X166476005Y-72834548D01*
X166675992Y-72769568D01*
X166886433Y-72662343D01*
X167077510Y-72523517D01*
X167244517Y-72356510D01*
X167383343Y-72165433D01*
X167490056Y-71955996D01*
X167490566Y-71954996D01*
X167490566Y-71954995D01*
X167490568Y-71954992D01*
X167563553Y-71730368D01*
X167600500Y-71497097D01*
X167600500Y-71436300D01*
X167620185Y-71369261D01*
X167672989Y-71323506D01*
X167724500Y-71312300D01*
X168925703Y-71312300D01*
X168992742Y-71331985D01*
X169013384Y-71348619D01*
X170609681Y-72944916D01*
X170643166Y-73006239D01*
X170646000Y-73032597D01*
X170646000Y-95445000D01*
X170626315Y-95512039D01*
X170573511Y-95557794D01*
X170522000Y-95569000D01*
X167478557Y-95569000D01*
X167320442Y-95569000D01*
X167167715Y-95609923D01*
X167142203Y-95624652D01*
X167135366Y-95628600D01*
X167135365Y-95628599D01*
X167030787Y-95688977D01*
X166918978Y-95800786D01*
X166676563Y-96043200D01*
X166615240Y-96076685D01*
X166550564Y-96073450D01*
X166424370Y-96032447D01*
X166191097Y-95995500D01*
X166191092Y-95995500D01*
X165954908Y-95995500D01*
X165954903Y-95995500D01*
X165721631Y-96032446D01*
X165497003Y-96105433D01*
X165286566Y-96212657D01*
X165177550Y-96291862D01*
X165095490Y-96351483D01*
X165095488Y-96351485D01*
X165095487Y-96351485D01*
X164928485Y-96518487D01*
X164928485Y-96518488D01*
X164928483Y-96518490D01*
X164886179Y-96576716D01*
X164789657Y-96709566D01*
X164682433Y-96920003D01*
X164609446Y-97144631D01*
X164572500Y-97377902D01*
X134125500Y-97377902D01*
X134125500Y-97365902D01*
X134088553Y-97132631D01*
X134028755Y-96948593D01*
X134015568Y-96908008D01*
X134015566Y-96908005D01*
X134015566Y-96908003D01*
X133945249Y-96770000D01*
X133908343Y-96697567D01*
X133769517Y-96506490D01*
X133602510Y-96339483D01*
X133411433Y-96200657D01*
X133200996Y-96093433D01*
X132976368Y-96020446D01*
X132743097Y-95983500D01*
X132743092Y-95983500D01*
X132506908Y-95983500D01*
X132506903Y-95983500D01*
X132273628Y-96020447D01*
X132147433Y-96061450D01*
X132132221Y-96061884D01*
X132117962Y-96067203D01*
X132098006Y-96062861D01*
X132077592Y-96063445D01*
X132063505Y-96055356D01*
X132049689Y-96052351D01*
X132021435Y-96031200D01*
X131954119Y-95963884D01*
X131920634Y-95902561D01*
X131917800Y-95876203D01*
X131917800Y-77410534D01*
X131937485Y-77343495D01*
X131990289Y-77297740D01*
X132059447Y-77287796D01*
X132080107Y-77292600D01*
X132233846Y-77342553D01*
X132304631Y-77365553D01*
X132537903Y-77402500D01*
X132537908Y-77402500D01*
X132774097Y-77402500D01*
X133007368Y-77365553D01*
X133231992Y-77292568D01*
X133442433Y-77185343D01*
X133633510Y-77046517D01*
X133800517Y-76879510D01*
X133939343Y-76688433D01*
X134046568Y-76477992D01*
X134119553Y-76253368D01*
X134156500Y-76020097D01*
X134156500Y-75783905D01*
X134155158Y-75775431D01*
X134155158Y-75775429D01*
X134152857Y-75760902D01*
X164599500Y-75760902D01*
X164599500Y-75997097D01*
X164636446Y-76230368D01*
X164709433Y-76454996D01*
X164816657Y-76665433D01*
X164955483Y-76856510D01*
X165122490Y-77023517D01*
X165313567Y-77162343D01*
X165397461Y-77205089D01*
X165524003Y-77269566D01*
X165524005Y-77269566D01*
X165524008Y-77269568D01*
X165644412Y-77308689D01*
X165748631Y-77342553D01*
X165981903Y-77379500D01*
X165981908Y-77379500D01*
X166218097Y-77379500D01*
X166451368Y-77342553D01*
X166496065Y-77328030D01*
X166675992Y-77269568D01*
X166886433Y-77162343D01*
X167077510Y-77023517D01*
X167244517Y-76856510D01*
X167383343Y-76665433D01*
X167490056Y-76455996D01*
X167490566Y-76454996D01*
X167490566Y-76454995D01*
X167490568Y-76454992D01*
X167563553Y-76230368D01*
X167595273Y-76030097D01*
X167600500Y-75997097D01*
X167600500Y-75760902D01*
X167563553Y-75527631D01*
X167501290Y-75336008D01*
X167490568Y-75303008D01*
X167490566Y-75303005D01*
X167490566Y-75303003D01*
X167400157Y-75125567D01*
X167383343Y-75092567D01*
X167244517Y-74901490D01*
X167077510Y-74734483D01*
X166886433Y-74595657D01*
X166853000Y-74578622D01*
X166675996Y-74488433D01*
X166451368Y-74415446D01*
X166218097Y-74378500D01*
X166218092Y-74378500D01*
X165981908Y-74378500D01*
X165981903Y-74378500D01*
X165748631Y-74415446D01*
X165524003Y-74488433D01*
X165313566Y-74595657D01*
X165204550Y-74674862D01*
X165122490Y-74734483D01*
X165122488Y-74734485D01*
X165122487Y-74734485D01*
X164955485Y-74901487D01*
X164955485Y-74901488D01*
X164955483Y-74901490D01*
X164931507Y-74934490D01*
X164816657Y-75092566D01*
X164709433Y-75303003D01*
X164636446Y-75527631D01*
X164599500Y-75760902D01*
X134152857Y-75760902D01*
X134119553Y-75550631D01*
X134049817Y-75336008D01*
X134046568Y-75326008D01*
X134046566Y-75326005D01*
X134046566Y-75326003D01*
X133944438Y-75125567D01*
X133939343Y-75115567D01*
X133800517Y-74924490D01*
X133633510Y-74757483D01*
X133442433Y-74618657D01*
X133394200Y-74594081D01*
X133231996Y-74511433D01*
X133007368Y-74438446D01*
X132774097Y-74401500D01*
X132774092Y-74401500D01*
X132537908Y-74401500D01*
X132537903Y-74401500D01*
X132304630Y-74438447D01*
X132304627Y-74438447D01*
X132080118Y-74511396D01*
X132010277Y-74513391D01*
X131950444Y-74477311D01*
X131919616Y-74414610D01*
X131917800Y-74393465D01*
X131917800Y-72910534D01*
X131937485Y-72843495D01*
X131990289Y-72797740D01*
X132059447Y-72787796D01*
X132080107Y-72792600D01*
X132252192Y-72848514D01*
X132304631Y-72865553D01*
X132537903Y-72902500D01*
X132537908Y-72902500D01*
X132774097Y-72902500D01*
X133007368Y-72865553D01*
X133050926Y-72851400D01*
X133231992Y-72792568D01*
X133442433Y-72685343D01*
X133633510Y-72546517D01*
X133800517Y-72379510D01*
X133939343Y-72188433D01*
X134046568Y-71977992D01*
X134119553Y-71753368D01*
X134156500Y-71520097D01*
X134156500Y-71283902D01*
X134119553Y-71050631D01*
X134080836Y-70931475D01*
X134046568Y-70826008D01*
X134046566Y-70826005D01*
X134046566Y-70826003D01*
X133944438Y-70625567D01*
X133939343Y-70615567D01*
X133800517Y-70424490D01*
X133633510Y-70257483D01*
X133442433Y-70118657D01*
X133397293Y-70095657D01*
X133231996Y-70011433D01*
X133007368Y-69938446D01*
X132774097Y-69901500D01*
X132774092Y-69901500D01*
X132537908Y-69901500D01*
X132537903Y-69901500D01*
X132304631Y-69938446D01*
X132080003Y-70011433D01*
X131869566Y-70118657D01*
X131783539Y-70181160D01*
X131678490Y-70257483D01*
X131678488Y-70257485D01*
X131678487Y-70257485D01*
X131511485Y-70424487D01*
X131511485Y-70424488D01*
X131511483Y-70424490D01*
X131451862Y-70506550D01*
X131372657Y-70615566D01*
X131312417Y-70733795D01*
X131264442Y-70784591D01*
X131201932Y-70801500D01*
X127610068Y-70801500D01*
X127543029Y-70781815D01*
X127499583Y-70733795D01*
X127439343Y-70615567D01*
X127300517Y-70424490D01*
X127133510Y-70257483D01*
X126942433Y-70118657D01*
X126897293Y-70095657D01*
X126731996Y-70011433D01*
X126507368Y-69938446D01*
X126274097Y-69901500D01*
X126274092Y-69901500D01*
X126037908Y-69901500D01*
X126037903Y-69901500D01*
X125804631Y-69938446D01*
X125580003Y-70011433D01*
X125369566Y-70118657D01*
X125283539Y-70181160D01*
X125178490Y-70257483D01*
X125178488Y-70257485D01*
X125178487Y-70257485D01*
X125011485Y-70424487D01*
X125011485Y-70424488D01*
X125011483Y-70424490D01*
X124951862Y-70506550D01*
X124872657Y-70615566D01*
X124765433Y-70826003D01*
X124692446Y-71050631D01*
X124655500Y-71283902D01*
X124655500Y-71520097D01*
X124692446Y-71753368D01*
X124765433Y-71977996D01*
X124860938Y-72165433D01*
X124872657Y-72188433D01*
X125011483Y-72379510D01*
X125178490Y-72546517D01*
X125369567Y-72685343D01*
X125468991Y-72736002D01*
X125580003Y-72792566D01*
X125580005Y-72792566D01*
X125580008Y-72792568D01*
X125658658Y-72818123D01*
X125804631Y-72865553D01*
X126037903Y-72902500D01*
X126037908Y-72902500D01*
X126274097Y-72902500D01*
X126507368Y-72865553D01*
X126550926Y-72851400D01*
X126731992Y-72792568D01*
X126942433Y-72685343D01*
X127133510Y-72546517D01*
X127300517Y-72379510D01*
X127439343Y-72188433D01*
X127499583Y-72070204D01*
X127547558Y-72019409D01*
X127610068Y-72002500D01*
X130592800Y-72002500D01*
X130659839Y-72022185D01*
X130705594Y-72074989D01*
X130716800Y-72126500D01*
X130716800Y-95451800D01*
X130697115Y-95518839D01*
X130644311Y-95564594D01*
X130592800Y-95575800D01*
X127353643Y-95575800D01*
X127200915Y-95616723D01*
X127180344Y-95628600D01*
X127180343Y-95628600D01*
X127063990Y-95695775D01*
X127063982Y-95695781D01*
X126952178Y-95807586D01*
X126728563Y-96031200D01*
X126667240Y-96064685D01*
X126602564Y-96061450D01*
X126476370Y-96020447D01*
X126243097Y-95983500D01*
X126243092Y-95983500D01*
X126006908Y-95983500D01*
X126006903Y-95983500D01*
X125773631Y-96020446D01*
X125549003Y-96093433D01*
X125338566Y-96200657D01*
X125229550Y-96279862D01*
X125147490Y-96339483D01*
X125147488Y-96339485D01*
X125147487Y-96339485D01*
X124980485Y-96506487D01*
X124980485Y-96506488D01*
X124980483Y-96506490D01*
X124958689Y-96536487D01*
X124841657Y-96697566D01*
X124734433Y-96908003D01*
X124661446Y-97132631D01*
X124624500Y-97365902D01*
X122356137Y-97365902D01*
X109636819Y-84646584D01*
X109603334Y-84585261D01*
X109600500Y-84558903D01*
X109600500Y-75783902D01*
X124655500Y-75783902D01*
X124655500Y-76020097D01*
X124692446Y-76253368D01*
X124765433Y-76477996D01*
X124860938Y-76665433D01*
X124872657Y-76688433D01*
X125011483Y-76879510D01*
X125178490Y-77046517D01*
X125369567Y-77185343D01*
X125468991Y-77236002D01*
X125580003Y-77292566D01*
X125580005Y-77292566D01*
X125580008Y-77292568D01*
X125700412Y-77331689D01*
X125804631Y-77365553D01*
X126037903Y-77402500D01*
X126037908Y-77402500D01*
X126274097Y-77402500D01*
X126507368Y-77365553D01*
X126731992Y-77292568D01*
X126942433Y-77185343D01*
X127133510Y-77046517D01*
X127300517Y-76879510D01*
X127439343Y-76688433D01*
X127546568Y-76477992D01*
X127619553Y-76253368D01*
X127656500Y-76020097D01*
X127656500Y-75783902D01*
X127619553Y-75550631D01*
X127549817Y-75336008D01*
X127546568Y-75326008D01*
X127546566Y-75326005D01*
X127546566Y-75326003D01*
X127444438Y-75125567D01*
X127439343Y-75115567D01*
X127300517Y-74924490D01*
X127133510Y-74757483D01*
X126942433Y-74618657D01*
X126894200Y-74594081D01*
X126731996Y-74511433D01*
X126507368Y-74438446D01*
X126274097Y-74401500D01*
X126274092Y-74401500D01*
X126037908Y-74401500D01*
X126037903Y-74401500D01*
X125804631Y-74438446D01*
X125580003Y-74511433D01*
X125369566Y-74618657D01*
X125260550Y-74697862D01*
X125178490Y-74757483D01*
X125178488Y-74757485D01*
X125178487Y-74757485D01*
X125011485Y-74924487D01*
X125011485Y-74924488D01*
X125011483Y-74924490D01*
X125004220Y-74934487D01*
X124872657Y-75115566D01*
X124765433Y-75326003D01*
X124692446Y-75550631D01*
X124655500Y-75783902D01*
X109600500Y-75783902D01*
X109600500Y-64579765D01*
X109620185Y-64512726D01*
X109621398Y-64510874D01*
X109709390Y-64379185D01*
X109709390Y-64379184D01*
X109709394Y-64379179D01*
X109769737Y-64233497D01*
X109800500Y-64078842D01*
X109800500Y-63921158D01*
X109800500Y-63921155D01*
X109800499Y-63921153D01*
X109769738Y-63766510D01*
X109769737Y-63766503D01*
X109713574Y-63630912D01*
X109709397Y-63620827D01*
X109709390Y-63620814D01*
X109621789Y-63489711D01*
X109621786Y-63489707D01*
X109510292Y-63378213D01*
X109510288Y-63378210D01*
X109379185Y-63290609D01*
X109379172Y-63290602D01*
X109233501Y-63230264D01*
X109233489Y-63230261D01*
X109078845Y-63199500D01*
X109078842Y-63199500D01*
X108921158Y-63199500D01*
X108921155Y-63199500D01*
X108766510Y-63230261D01*
X108766498Y-63230264D01*
X108620827Y-63290602D01*
X108620814Y-63290609D01*
X108489711Y-63378210D01*
X108489707Y-63378213D01*
X108378213Y-63489707D01*
X108378210Y-63489711D01*
X108290609Y-63620814D01*
X108290602Y-63620827D01*
X108230264Y-63766498D01*
X108230261Y-63766510D01*
X108199500Y-63921153D01*
X108199500Y-64078846D01*
X108230261Y-64233489D01*
X108230264Y-64233501D01*
X108290602Y-64379172D01*
X108290609Y-64379185D01*
X108378602Y-64510874D01*
X108399480Y-64577551D01*
X108399500Y-64579765D01*
X108399500Y-84772330D01*
X108399499Y-84772348D01*
X108399499Y-84938054D01*
X108399498Y-84938054D01*
X108399499Y-84938057D01*
X108440423Y-85090785D01*
X108469360Y-85140904D01*
X108519480Y-85227716D01*
X108529250Y-85237486D01*
X108536820Y-85249708D01*
X108542437Y-85270089D01*
X108552568Y-85288642D01*
X108551534Y-85303095D01*
X108555385Y-85317066D01*
X108549091Y-85337247D01*
X108547584Y-85358334D01*
X108537741Y-85373649D01*
X108534586Y-85383768D01*
X108527332Y-85389844D01*
X108519083Y-85402681D01*
X93306563Y-100615200D01*
X93245240Y-100648685D01*
X93180564Y-100645450D01*
X93054370Y-100604447D01*
X92821097Y-100567500D01*
X92821092Y-100567500D01*
X92584908Y-100567500D01*
X92584903Y-100567500D01*
X92351631Y-100604446D01*
X92127003Y-100677433D01*
X91916566Y-100784657D01*
X91841103Y-100839485D01*
X91725490Y-100923483D01*
X91725488Y-100923485D01*
X91725487Y-100923485D01*
X91558485Y-101090487D01*
X91558485Y-101090488D01*
X91558483Y-101090490D01*
X91498862Y-101172550D01*
X91419657Y-101281566D01*
X91312433Y-101492003D01*
X91239446Y-101716631D01*
X91202500Y-101949902D01*
X87703500Y-101949902D01*
X87666553Y-101716631D01*
X87602856Y-101520593D01*
X87593568Y-101492008D01*
X87593566Y-101492005D01*
X87593566Y-101492003D01*
X87486342Y-101281566D01*
X87347517Y-101090490D01*
X87180510Y-100923483D01*
X86989433Y-100784657D01*
X86778996Y-100677433D01*
X86554368Y-100604446D01*
X86321097Y-100567500D01*
X86321092Y-100567500D01*
X86084908Y-100567500D01*
X86084903Y-100567500D01*
X85851631Y-100604446D01*
X85627003Y-100677433D01*
X85416566Y-100784657D01*
X85341103Y-100839485D01*
X85225490Y-100923483D01*
X85225488Y-100923485D01*
X85225487Y-100923485D01*
X85058485Y-101090487D01*
X85058485Y-101090488D01*
X85058483Y-101090490D01*
X84998862Y-101172550D01*
X84919657Y-101281566D01*
X84812433Y-101492003D01*
X84739446Y-101716631D01*
X84702500Y-101949902D01*
X70393500Y-101949902D01*
X70393500Y-66313642D01*
X77148600Y-66313642D01*
X77148600Y-66526357D01*
X77181876Y-66736455D01*
X77247606Y-66938755D01*
X77247607Y-66938758D01*
X77344179Y-67128288D01*
X77469210Y-67300378D01*
X77619622Y-67450790D01*
X77748689Y-67544563D01*
X77791713Y-67575822D01*
X77798963Y-67579516D01*
X77849758Y-67627490D01*
X77866553Y-67695311D01*
X77844015Y-67761446D01*
X77798963Y-67800484D01*
X77791713Y-67804177D01*
X77671323Y-67891646D01*
X77619622Y-67929210D01*
X77619620Y-67929212D01*
X77619619Y-67929212D01*
X77469212Y-68079619D01*
X77469212Y-68079620D01*
X77469210Y-68079622D01*
X77415514Y-68153527D01*
X77344179Y-68251711D01*
X77247607Y-68441241D01*
X77247606Y-68441244D01*
X77181876Y-68643544D01*
X77148600Y-68853642D01*
X77148600Y-69066357D01*
X77181876Y-69276455D01*
X77247606Y-69478755D01*
X77247607Y-69478758D01*
X77344179Y-69668288D01*
X77469210Y-69840378D01*
X77619622Y-69990790D01*
X77727117Y-70068890D01*
X77791713Y-70115822D01*
X77798963Y-70119516D01*
X77849758Y-70167490D01*
X77866553Y-70235311D01*
X77844015Y-70301446D01*
X77798963Y-70340484D01*
X77791713Y-70344177D01*
X77681178Y-70424487D01*
X77619622Y-70469210D01*
X77619620Y-70469212D01*
X77619619Y-70469212D01*
X77469212Y-70619619D01*
X77469212Y-70619620D01*
X77469210Y-70619622D01*
X77464891Y-70625567D01*
X77344179Y-70791711D01*
X77247607Y-70981241D01*
X77247606Y-70981244D01*
X77181876Y-71183544D01*
X77148600Y-71393642D01*
X77148600Y-71606357D01*
X77181876Y-71816455D01*
X77247606Y-72018755D01*
X77247607Y-72018758D01*
X77334062Y-72188433D01*
X77344179Y-72208288D01*
X77469210Y-72380378D01*
X77619622Y-72530790D01*
X77791712Y-72655821D01*
X77806475Y-72663343D01*
X77981241Y-72752392D01*
X77981244Y-72752393D01*
X78060262Y-72778067D01*
X78183546Y-72818124D01*
X78393642Y-72851400D01*
X78393643Y-72851400D01*
X78606357Y-72851400D01*
X78606358Y-72851400D01*
X78816454Y-72818124D01*
X79018758Y-72752392D01*
X79208288Y-72655821D01*
X79380378Y-72530790D01*
X79530790Y-72380378D01*
X79655821Y-72208288D01*
X79752392Y-72018758D01*
X79818124Y-71816454D01*
X79851400Y-71606358D01*
X79851400Y-71393642D01*
X79826501Y-71236438D01*
X79835455Y-71167148D01*
X79861290Y-71129365D01*
X88681616Y-62309039D01*
X88742937Y-62275556D01*
X88793486Y-62275105D01*
X88921153Y-62300499D01*
X88921156Y-62300500D01*
X88921158Y-62300500D01*
X89078844Y-62300500D01*
X89078845Y-62300499D01*
X89233497Y-62269737D01*
X89379179Y-62209394D01*
X89510289Y-62121789D01*
X89621789Y-62010289D01*
X89709394Y-61879179D01*
X89769737Y-61733497D01*
X89800500Y-61578842D01*
X89800500Y-61421158D01*
X89800500Y-61421155D01*
X89800499Y-61421153D01*
X89769738Y-61266510D01*
X89769737Y-61266503D01*
X89769735Y-61266498D01*
X89709397Y-61120827D01*
X89709390Y-61120814D01*
X89621789Y-60989711D01*
X89621786Y-60989707D01*
X89510292Y-60878213D01*
X89510288Y-60878210D01*
X89379185Y-60790609D01*
X89379172Y-60790602D01*
X89233501Y-60730264D01*
X89233489Y-60730261D01*
X89078845Y-60699500D01*
X89078842Y-60699500D01*
X88921158Y-60699500D01*
X88921155Y-60699500D01*
X88766510Y-60730261D01*
X88766498Y-60730264D01*
X88622136Y-60790061D01*
X88574684Y-60799500D01*
X88431004Y-60799500D01*
X88295677Y-60826418D01*
X88295667Y-60826421D01*
X88168192Y-60879222D01*
X88053454Y-60955887D01*
X88053453Y-60955888D01*
X80063081Y-68946261D01*
X80001758Y-68979746D01*
X79932066Y-68974762D01*
X79876133Y-68932890D01*
X79851716Y-68867426D01*
X79851400Y-68858580D01*
X79851400Y-68853642D01*
X79818124Y-68643546D01*
X79752392Y-68441242D01*
X79752392Y-68441241D01*
X79655820Y-68251711D01*
X79530790Y-68079622D01*
X79380378Y-67929210D01*
X79208288Y-67804179D01*
X79201039Y-67800485D01*
X79150243Y-67752514D01*
X79133446Y-67684693D01*
X79155981Y-67618557D01*
X79201040Y-67579514D01*
X79208288Y-67575821D01*
X79380378Y-67450790D01*
X79530790Y-67300378D01*
X79655821Y-67128288D01*
X79752392Y-66938758D01*
X79818124Y-66736454D01*
X79851400Y-66526358D01*
X79851400Y-66313642D01*
X79818124Y-66103546D01*
X79752392Y-65901242D01*
X79752392Y-65901241D01*
X79655820Y-65711711D01*
X79530790Y-65539622D01*
X79380378Y-65389210D01*
X79294333Y-65326694D01*
X79208286Y-65264177D01*
X79200487Y-65260204D01*
X79149691Y-65212231D01*
X79132895Y-65144410D01*
X79155432Y-65078275D01*
X79200491Y-65039232D01*
X79208015Y-65035398D01*
X79208031Y-65035388D01*
X79262361Y-64995915D01*
X79262362Y-64995914D01*
X78708529Y-64442081D01*
X78730395Y-64436223D01*
X78866505Y-64357639D01*
X78977639Y-64246505D01*
X79056223Y-64110395D01*
X79062081Y-64088529D01*
X79615914Y-64642362D01*
X79615915Y-64642361D01*
X79655388Y-64588031D01*
X79655396Y-64588018D01*
X79751928Y-64398566D01*
X79751929Y-64398563D01*
X79817635Y-64196337D01*
X79850900Y-63986317D01*
X79850900Y-63773682D01*
X79817635Y-63563662D01*
X79751929Y-63361436D01*
X79751928Y-63361433D01*
X79655390Y-63171970D01*
X79615915Y-63117637D01*
X79615914Y-63117636D01*
X79062081Y-63671469D01*
X79056223Y-63649605D01*
X78977639Y-63513495D01*
X78866505Y-63402361D01*
X78730395Y-63323777D01*
X78708528Y-63317917D01*
X79262361Y-62764085D01*
X79262361Y-62764083D01*
X79208029Y-62724609D01*
X79018566Y-62628071D01*
X79018563Y-62628070D01*
X78816337Y-62562364D01*
X78606317Y-62529100D01*
X78393683Y-62529100D01*
X78183662Y-62562364D01*
X77981436Y-62628070D01*
X77981433Y-62628071D01*
X77791975Y-62724606D01*
X77791973Y-62724607D01*
X77737637Y-62764083D01*
X77737637Y-62764084D01*
X78291471Y-63317917D01*
X78269605Y-63323777D01*
X78133495Y-63402361D01*
X78022361Y-63513495D01*
X77943777Y-63649605D01*
X77937918Y-63671471D01*
X77384084Y-63117637D01*
X77384083Y-63117637D01*
X77344607Y-63171973D01*
X77344606Y-63171975D01*
X77248071Y-63361433D01*
X77248070Y-63361436D01*
X77182364Y-63563662D01*
X77149100Y-63773682D01*
X77149100Y-63986317D01*
X77182364Y-64196337D01*
X77248070Y-64398563D01*
X77248071Y-64398566D01*
X77344609Y-64588029D01*
X77384083Y-64642361D01*
X77384085Y-64642361D01*
X77937918Y-64088528D01*
X77943777Y-64110395D01*
X78022361Y-64246505D01*
X78133495Y-64357639D01*
X78269605Y-64436223D01*
X78291470Y-64442081D01*
X77737636Y-64995914D01*
X77737637Y-64995915D01*
X77791972Y-65035392D01*
X77799512Y-65039234D01*
X77850308Y-65087207D01*
X77867104Y-65155028D01*
X77844567Y-65221163D01*
X77799514Y-65260203D01*
X77791712Y-65264179D01*
X77619622Y-65389210D01*
X77619620Y-65389212D01*
X77619619Y-65389212D01*
X77469212Y-65539619D01*
X77469212Y-65539620D01*
X77469210Y-65539622D01*
X77415514Y-65613527D01*
X77344179Y-65711711D01*
X77247607Y-65901241D01*
X77247606Y-65901244D01*
X77181876Y-66103544D01*
X77148600Y-66313642D01*
X70393500Y-66313642D01*
X70393500Y-49606902D01*
X84697500Y-49606902D01*
X84697500Y-49843097D01*
X84734446Y-50076368D01*
X84807433Y-50300996D01*
X84887652Y-50458433D01*
X84914657Y-50511433D01*
X85053483Y-50702510D01*
X85220490Y-50869517D01*
X85411567Y-51008343D01*
X85498299Y-51052535D01*
X85622003Y-51115566D01*
X85622005Y-51115566D01*
X85622008Y-51115568D01*
X85742412Y-51154689D01*
X85846631Y-51188553D01*
X86079903Y-51225500D01*
X86079908Y-51225500D01*
X86316097Y-51225500D01*
X86549368Y-51188553D01*
X86773992Y-51115568D01*
X86984433Y-51008343D01*
X87175510Y-50869517D01*
X87342517Y-50702510D01*
X87481343Y-50511433D01*
X87588568Y-50300992D01*
X87661553Y-50076368D01*
X87669947Y-50023368D01*
X87698500Y-49843097D01*
X87698500Y-49606902D01*
X87661553Y-49373631D01*
X87619589Y-49244480D01*
X87588568Y-49149008D01*
X87588566Y-49149005D01*
X87588566Y-49149003D01*
X87481342Y-48938566D01*
X87342517Y-48747490D01*
X87175510Y-48580483D01*
X86984433Y-48441657D01*
X86773996Y-48334433D01*
X86549368Y-48261446D01*
X86316097Y-48224500D01*
X86316092Y-48224500D01*
X86079908Y-48224500D01*
X86079903Y-48224500D01*
X85846631Y-48261446D01*
X85622003Y-48334433D01*
X85411566Y-48441657D01*
X85302550Y-48520862D01*
X85220490Y-48580483D01*
X85220488Y-48580485D01*
X85220487Y-48580485D01*
X85053485Y-48747487D01*
X85053485Y-48747488D01*
X85053483Y-48747490D01*
X84993862Y-48829550D01*
X84914657Y-48938566D01*
X84807433Y-49149003D01*
X84734446Y-49373631D01*
X84697500Y-49606902D01*
X70393500Y-49606902D01*
X70393500Y-45106902D01*
X84697500Y-45106902D01*
X84697500Y-45343097D01*
X84734446Y-45576368D01*
X84807433Y-45800996D01*
X84871236Y-45926215D01*
X84914657Y-46011433D01*
X85053483Y-46202510D01*
X85220490Y-46369517D01*
X85411567Y-46508343D01*
X85510991Y-46559002D01*
X85622003Y-46615566D01*
X85622005Y-46615566D01*
X85622008Y-46615568D01*
X85710476Y-46644313D01*
X85846631Y-46688553D01*
X86079903Y-46725500D01*
X86079908Y-46725500D01*
X86316097Y-46725500D01*
X86549368Y-46688553D01*
X86582468Y-46677798D01*
X86773992Y-46615568D01*
X86984433Y-46508343D01*
X87175510Y-46369517D01*
X87342517Y-46202510D01*
X87481343Y-46011433D01*
X87541583Y-45893204D01*
X87589558Y-45842409D01*
X87652068Y-45825500D01*
X89797503Y-45825500D01*
X89864542Y-45845185D01*
X89885184Y-45861819D01*
X90760981Y-46737616D01*
X90794466Y-46798939D01*
X90797300Y-46825297D01*
X90797300Y-70687500D01*
X90777615Y-70754539D01*
X90724811Y-70800294D01*
X90673300Y-70811500D01*
X88972470Y-70811500D01*
X88972454Y-70811499D01*
X88964858Y-70811499D01*
X88806743Y-70811499D01*
X88752615Y-70826003D01*
X88654014Y-70852423D01*
X88654009Y-70852426D01*
X88517090Y-70931475D01*
X88517082Y-70931481D01*
X87910181Y-71538383D01*
X87848858Y-71571868D01*
X87779166Y-71566884D01*
X87723233Y-71525012D01*
X87698816Y-71459548D01*
X87698500Y-71450702D01*
X87698500Y-71293902D01*
X87661553Y-71060631D01*
X87619587Y-70931475D01*
X87588568Y-70836008D01*
X87588566Y-70836005D01*
X87588566Y-70836003D01*
X87481342Y-70625566D01*
X87342517Y-70434490D01*
X87175510Y-70267483D01*
X86984433Y-70128657D01*
X86950366Y-70111299D01*
X86773996Y-70021433D01*
X86549368Y-69948446D01*
X86316097Y-69911500D01*
X86316092Y-69911500D01*
X86079908Y-69911500D01*
X86079903Y-69911500D01*
X85846631Y-69948446D01*
X85622003Y-70021433D01*
X85411566Y-70128657D01*
X85339304Y-70181159D01*
X85220490Y-70267483D01*
X85220488Y-70267485D01*
X85220487Y-70267485D01*
X85053485Y-70434487D01*
X85053485Y-70434488D01*
X85053483Y-70434490D01*
X85028256Y-70469212D01*
X84914657Y-70625566D01*
X84807433Y-70836003D01*
X84734446Y-71060631D01*
X84697500Y-71293902D01*
X84697500Y-71530097D01*
X84734446Y-71763368D01*
X84807433Y-71987996D01*
X84878005Y-72126500D01*
X84914657Y-72198433D01*
X85053483Y-72389510D01*
X85220490Y-72556517D01*
X85411567Y-72695343D01*
X85510991Y-72746002D01*
X85622003Y-72802566D01*
X85622005Y-72802566D01*
X85622008Y-72802568D01*
X85719093Y-72834113D01*
X85846631Y-72875553D01*
X86079903Y-72912500D01*
X86079908Y-72912500D01*
X86316097Y-72912500D01*
X86422126Y-72895705D01*
X86549368Y-72875553D01*
X86675566Y-72834547D01*
X86690776Y-72834113D01*
X86705036Y-72828795D01*
X86724991Y-72833136D01*
X86745404Y-72832553D01*
X86759490Y-72840640D01*
X86773309Y-72843647D01*
X86801563Y-72864798D01*
X86905081Y-72968316D01*
X86938566Y-73029639D01*
X86941400Y-73055997D01*
X86941400Y-74405195D01*
X86921715Y-74472234D01*
X86868911Y-74517989D01*
X86799753Y-74527933D01*
X86778858Y-74522219D01*
X86778625Y-74522938D01*
X86773995Y-74521433D01*
X86773992Y-74521432D01*
X86675510Y-74489433D01*
X86549368Y-74448446D01*
X86316097Y-74411500D01*
X86316092Y-74411500D01*
X86079908Y-74411500D01*
X86079903Y-74411500D01*
X85846631Y-74448446D01*
X85622003Y-74521433D01*
X85411566Y-74628657D01*
X85302550Y-74707862D01*
X85220490Y-74767483D01*
X85220488Y-74767485D01*
X85220487Y-74767485D01*
X85053485Y-74934487D01*
X85053485Y-74934488D01*
X85053483Y-74934490D01*
X84993862Y-75016550D01*
X84914657Y-75125566D01*
X84807433Y-75336003D01*
X84734446Y-75560631D01*
X84697500Y-75793902D01*
X84697500Y-76030097D01*
X84734446Y-76263368D01*
X84807433Y-76487996D01*
X84897843Y-76665433D01*
X84914657Y-76698433D01*
X85053483Y-76889510D01*
X85220490Y-77056517D01*
X85411567Y-77195343D01*
X85510991Y-77246002D01*
X85622003Y-77302566D01*
X85622005Y-77302566D01*
X85622008Y-77302568D01*
X85700372Y-77328030D01*
X85846631Y-77375553D01*
X86079903Y-77412500D01*
X86079908Y-77412500D01*
X86316097Y-77412500D01*
X86549368Y-77375553D01*
X86773992Y-77302568D01*
X86773995Y-77302566D01*
X86778625Y-77301062D01*
X86779332Y-77303239D01*
X86839390Y-77296769D01*
X86901876Y-77328030D01*
X86937541Y-77388111D01*
X86941400Y-77418804D01*
X86941400Y-95929002D01*
X86932755Y-95958441D01*
X86926232Y-95988429D01*
X86922477Y-95993444D01*
X86921715Y-95996041D01*
X86905085Y-96016678D01*
X86854561Y-96067203D01*
X86806563Y-96115201D01*
X86745239Y-96148685D01*
X86680564Y-96145450D01*
X86554370Y-96104447D01*
X86321097Y-96067500D01*
X86321092Y-96067500D01*
X86084908Y-96067500D01*
X86084903Y-96067500D01*
X85851631Y-96104446D01*
X85627003Y-96177433D01*
X85416566Y-96284657D01*
X85341103Y-96339485D01*
X85225490Y-96423483D01*
X85225488Y-96423485D01*
X85225487Y-96423485D01*
X85058485Y-96590487D01*
X85058485Y-96590488D01*
X85058483Y-96590490D01*
X84998862Y-96672550D01*
X84919657Y-96781566D01*
X84812433Y-96992003D01*
X84739446Y-97216631D01*
X84702500Y-97449902D01*
X84702500Y-97686097D01*
X84739446Y-97919368D01*
X84812433Y-98143996D01*
X84919657Y-98354433D01*
X85058483Y-98545510D01*
X85225490Y-98712517D01*
X85416567Y-98851343D01*
X85462145Y-98874566D01*
X85627003Y-98958566D01*
X85627005Y-98958566D01*
X85627008Y-98958568D01*
X85743750Y-98996500D01*
X85851631Y-99031553D01*
X86084903Y-99068500D01*
X86084908Y-99068500D01*
X86321097Y-99068500D01*
X86554368Y-99031553D01*
X86778992Y-98958568D01*
X86989433Y-98851343D01*
X87180510Y-98712517D01*
X87347517Y-98545510D01*
X87486343Y-98354433D01*
X87593568Y-98143992D01*
X87666553Y-97919368D01*
X87679857Y-97835368D01*
X87703500Y-97686097D01*
X87703500Y-97449902D01*
X87683347Y-97322666D01*
X87666553Y-97216632D01*
X87625547Y-97090432D01*
X87625113Y-97075220D01*
X87619795Y-97060961D01*
X87624136Y-97041006D01*
X87623553Y-97020595D01*
X87631641Y-97006507D01*
X87634648Y-96992688D01*
X87655794Y-96964440D01*
X87734908Y-96885326D01*
X87754319Y-96865917D01*
X87815643Y-96832433D01*
X87841999Y-96829600D01*
X91064003Y-96829600D01*
X91131042Y-96849285D01*
X91151684Y-96865919D01*
X91250200Y-96964435D01*
X91283685Y-97025758D01*
X91280450Y-97090433D01*
X91239447Y-97216628D01*
X91202500Y-97449902D01*
X91202500Y-97686097D01*
X91239446Y-97919368D01*
X91312433Y-98143996D01*
X91419657Y-98354433D01*
X91558483Y-98545510D01*
X91725490Y-98712517D01*
X91916567Y-98851343D01*
X91962145Y-98874566D01*
X92127003Y-98958566D01*
X92127005Y-98958566D01*
X92127008Y-98958568D01*
X92243750Y-98996500D01*
X92351631Y-99031553D01*
X92584903Y-99068500D01*
X92584908Y-99068500D01*
X92821097Y-99068500D01*
X93054368Y-99031553D01*
X93278992Y-98958568D01*
X93489433Y-98851343D01*
X93680510Y-98712517D01*
X93847517Y-98545510D01*
X93986343Y-98354433D01*
X94093568Y-98143992D01*
X94166553Y-97919368D01*
X94179857Y-97835368D01*
X94203500Y-97686097D01*
X94203500Y-97449902D01*
X94166553Y-97216631D01*
X94104534Y-97025758D01*
X94093568Y-96992008D01*
X94093566Y-96992005D01*
X94093566Y-96992003D01*
X94020847Y-96849285D01*
X93986343Y-96781567D01*
X93847517Y-96590490D01*
X93680510Y-96423483D01*
X93489433Y-96284657D01*
X93278996Y-96177433D01*
X93054368Y-96104446D01*
X92821097Y-96067500D01*
X92821092Y-96067500D01*
X92584908Y-96067500D01*
X92584903Y-96067500D01*
X92351628Y-96104447D01*
X92225433Y-96145450D01*
X92155592Y-96147445D01*
X92099435Y-96115200D01*
X91851690Y-95867455D01*
X91851688Y-95867452D01*
X91732817Y-95748581D01*
X91732816Y-95748580D01*
X91629585Y-95688980D01*
X91595885Y-95669523D01*
X91443157Y-95628599D01*
X91285043Y-95628599D01*
X91277447Y-95628599D01*
X91277431Y-95628600D01*
X88266400Y-95628600D01*
X88199361Y-95608915D01*
X88153606Y-95556111D01*
X88142400Y-95504600D01*
X88142400Y-75793902D01*
X91197500Y-75793902D01*
X91197500Y-76030097D01*
X91234446Y-76263368D01*
X91307433Y-76487996D01*
X91397843Y-76665433D01*
X91414657Y-76698433D01*
X91553483Y-76889510D01*
X91720490Y-77056517D01*
X91911567Y-77195343D01*
X92010991Y-77246002D01*
X92122003Y-77302566D01*
X92122005Y-77302566D01*
X92122008Y-77302568D01*
X92200372Y-77328030D01*
X92346631Y-77375553D01*
X92579903Y-77412500D01*
X92579908Y-77412500D01*
X92816097Y-77412500D01*
X93049368Y-77375553D01*
X93273992Y-77302568D01*
X93484433Y-77195343D01*
X93675510Y-77056517D01*
X93842517Y-76889510D01*
X93981343Y-76698433D01*
X94088568Y-76487992D01*
X94161553Y-76263368D01*
X94166780Y-76230368D01*
X94198500Y-76030097D01*
X94198500Y-75793902D01*
X94161553Y-75560631D01*
X94088566Y-75336003D01*
X93981342Y-75125566D01*
X93842517Y-74934490D01*
X93675510Y-74767483D01*
X93484433Y-74628657D01*
X93441399Y-74606730D01*
X93273996Y-74521433D01*
X93049368Y-74448446D01*
X92816097Y-74411500D01*
X92816092Y-74411500D01*
X92579908Y-74411500D01*
X92579903Y-74411500D01*
X92346631Y-74448446D01*
X92122003Y-74521433D01*
X91911566Y-74628657D01*
X91802550Y-74707862D01*
X91720490Y-74767483D01*
X91720488Y-74767485D01*
X91720487Y-74767485D01*
X91553485Y-74934487D01*
X91553485Y-74934488D01*
X91553483Y-74934490D01*
X91493862Y-75016550D01*
X91414657Y-75125566D01*
X91307433Y-75336003D01*
X91234446Y-75560631D01*
X91197500Y-75793902D01*
X88142400Y-75793902D01*
X88142400Y-73055997D01*
X88162085Y-72988958D01*
X88178719Y-72968316D01*
X89098217Y-72048819D01*
X89159540Y-72015334D01*
X89185898Y-72012500D01*
X91243932Y-72012500D01*
X91310971Y-72032185D01*
X91354416Y-72080203D01*
X91414657Y-72198433D01*
X91553483Y-72389510D01*
X91720490Y-72556517D01*
X91911567Y-72695343D01*
X92010991Y-72746002D01*
X92122003Y-72802566D01*
X92122005Y-72802566D01*
X92122008Y-72802568D01*
X92219093Y-72834113D01*
X92346631Y-72875553D01*
X92579903Y-72912500D01*
X92579908Y-72912500D01*
X92816097Y-72912500D01*
X93049368Y-72875553D01*
X93273992Y-72802568D01*
X93276803Y-72801136D01*
X93293622Y-72792566D01*
X93484433Y-72695343D01*
X93675510Y-72556517D01*
X93842517Y-72389510D01*
X93981343Y-72198433D01*
X94088568Y-71987992D01*
X94161553Y-71763368D01*
X94186421Y-71606357D01*
X94198500Y-71530097D01*
X94198500Y-71293902D01*
X94161553Y-71060631D01*
X94119587Y-70931475D01*
X94088568Y-70836008D01*
X94088566Y-70836005D01*
X94088566Y-70836003D01*
X93981342Y-70625566D01*
X93842517Y-70434490D01*
X93675510Y-70267483D01*
X93484433Y-70128657D01*
X93450366Y-70111299D01*
X93273996Y-70021433D01*
X93049368Y-69948446D01*
X92816097Y-69911500D01*
X92816092Y-69911500D01*
X92579908Y-69911500D01*
X92579903Y-69911500D01*
X92346630Y-69948447D01*
X92346627Y-69948447D01*
X92160618Y-70008886D01*
X92090777Y-70010881D01*
X92030944Y-69974801D01*
X92000116Y-69912100D01*
X91998300Y-69890955D01*
X91998300Y-51246044D01*
X92017985Y-51179005D01*
X92070789Y-51133250D01*
X92139947Y-51123306D01*
X92160613Y-51128111D01*
X92274700Y-51165181D01*
X92346631Y-51188553D01*
X92579903Y-51225500D01*
X92579908Y-51225500D01*
X92816097Y-51225500D01*
X93049368Y-51188553D01*
X93273992Y-51115568D01*
X93484433Y-51008343D01*
X93675510Y-50869517D01*
X93842517Y-50702510D01*
X93981343Y-50511433D01*
X94041583Y-50393204D01*
X94089558Y-50342409D01*
X94152068Y-50325500D01*
X101518503Y-50325500D01*
X101585542Y-50345185D01*
X101606184Y-50361819D01*
X113312481Y-62068116D01*
X113345966Y-62129439D01*
X113348800Y-62155797D01*
X113348800Y-63527810D01*
X113329115Y-63594849D01*
X113293691Y-63630912D01*
X113219911Y-63680210D01*
X113219907Y-63680213D01*
X113108413Y-63791707D01*
X113108410Y-63791711D01*
X113020809Y-63922814D01*
X113020802Y-63922827D01*
X112960464Y-64068498D01*
X112960461Y-64068510D01*
X112929700Y-64223153D01*
X112929700Y-64380846D01*
X112960461Y-64535489D01*
X112960464Y-64535501D01*
X113020802Y-64681172D01*
X113020809Y-64681185D01*
X113108410Y-64812288D01*
X113108413Y-64812292D01*
X113219907Y-64923786D01*
X113219911Y-64923789D01*
X113351014Y-65011390D01*
X113351027Y-65011397D01*
X113496698Y-65071735D01*
X113496703Y-65071737D01*
X113648221Y-65101876D01*
X113651353Y-65102499D01*
X113651356Y-65102500D01*
X113651358Y-65102500D01*
X113809044Y-65102500D01*
X113809045Y-65102499D01*
X113963697Y-65071737D01*
X114109379Y-65011394D01*
X114240489Y-64923789D01*
X114351989Y-64812289D01*
X114439594Y-64681179D01*
X114499937Y-64535497D01*
X114530700Y-64380842D01*
X114530700Y-64249565D01*
X114534925Y-64217472D01*
X114540588Y-64196337D01*
X114549800Y-64161958D01*
X114549800Y-64003843D01*
X114549800Y-62155796D01*
X114569485Y-62088757D01*
X114586114Y-62068120D01*
X125529437Y-51124796D01*
X125590758Y-51091313D01*
X125655433Y-51094547D01*
X125781632Y-51135553D01*
X125869110Y-51149408D01*
X126014903Y-51172500D01*
X126014908Y-51172500D01*
X126251097Y-51172500D01*
X126484368Y-51135553D01*
X126545881Y-51115566D01*
X126708992Y-51062568D01*
X126919433Y-50955343D01*
X127110510Y-50816517D01*
X127277517Y-50649510D01*
X127416343Y-50458433D01*
X127523568Y-50247992D01*
X127596553Y-50023368D01*
X127633500Y-49790097D01*
X127633500Y-49553902D01*
X131132500Y-49553902D01*
X131132500Y-49790097D01*
X131169446Y-50023368D01*
X131242433Y-50247996D01*
X131349657Y-50458433D01*
X131488483Y-50649510D01*
X131655490Y-50816517D01*
X131846567Y-50955343D01*
X131897593Y-50981342D01*
X132057003Y-51062566D01*
X132057005Y-51062566D01*
X132057008Y-51062568D01*
X132145476Y-51091313D01*
X132281631Y-51135553D01*
X132514903Y-51172500D01*
X132514908Y-51172500D01*
X132751097Y-51172500D01*
X132984368Y-51135553D01*
X133045881Y-51115566D01*
X133208992Y-51062568D01*
X133419433Y-50955343D01*
X133610510Y-50816517D01*
X133777517Y-50649510D01*
X133916343Y-50458433D01*
X134023568Y-50247992D01*
X134096553Y-50023368D01*
X134133500Y-49790097D01*
X134133500Y-49553902D01*
X134096553Y-49320631D01*
X134040787Y-49149003D01*
X134023568Y-49096008D01*
X134023566Y-49096005D01*
X134023566Y-49096003D01*
X133930100Y-48912567D01*
X133916343Y-48885567D01*
X133777517Y-48694490D01*
X133610510Y-48527483D01*
X133419433Y-48388657D01*
X133208996Y-48281433D01*
X132984368Y-48208446D01*
X132751097Y-48171500D01*
X132751092Y-48171500D01*
X132514908Y-48171500D01*
X132514903Y-48171500D01*
X132281631Y-48208446D01*
X132057003Y-48281433D01*
X131846566Y-48388657D01*
X131773619Y-48441657D01*
X131655490Y-48527483D01*
X131655488Y-48527485D01*
X131655487Y-48527485D01*
X131488485Y-48694487D01*
X131488485Y-48694488D01*
X131488483Y-48694490D01*
X131449978Y-48747487D01*
X131349657Y-48885566D01*
X131242433Y-49096003D01*
X131169446Y-49320631D01*
X131132500Y-49553902D01*
X127633500Y-49553902D01*
X127596553Y-49320631D01*
X127540787Y-49149003D01*
X127523568Y-49096008D01*
X127523566Y-49096005D01*
X127523566Y-49096003D01*
X127430100Y-48912567D01*
X127416343Y-48885567D01*
X127277517Y-48694490D01*
X127110510Y-48527483D01*
X126919433Y-48388657D01*
X126708996Y-48281433D01*
X126484368Y-48208446D01*
X126251097Y-48171500D01*
X126251092Y-48171500D01*
X126014908Y-48171500D01*
X126014903Y-48171500D01*
X125781631Y-48208446D01*
X125557003Y-48281433D01*
X125346566Y-48388657D01*
X125273619Y-48441657D01*
X125155490Y-48527483D01*
X125155488Y-48527485D01*
X125155487Y-48527485D01*
X124988485Y-48694487D01*
X124988485Y-48694488D01*
X124988483Y-48694490D01*
X124949978Y-48747487D01*
X124849657Y-48885566D01*
X124742433Y-49096003D01*
X124669446Y-49320631D01*
X124632500Y-49553902D01*
X124632500Y-49790097D01*
X124669447Y-50023369D01*
X124669447Y-50023372D01*
X124710450Y-50149564D01*
X124712445Y-50219405D01*
X124680200Y-50275563D01*
X114036980Y-60918783D01*
X113975657Y-60952268D01*
X113905965Y-60947284D01*
X113861618Y-60918783D01*
X102306190Y-49363355D01*
X102306188Y-49363352D01*
X102187317Y-49244481D01*
X102187316Y-49244480D01*
X102100504Y-49194360D01*
X102100504Y-49194359D01*
X102100500Y-49194358D01*
X102050385Y-49165423D01*
X101897657Y-49124499D01*
X101739543Y-49124499D01*
X101731947Y-49124499D01*
X101731931Y-49124500D01*
X94152068Y-49124500D01*
X94085029Y-49104815D01*
X94041583Y-49056795D01*
X93981342Y-48938566D01*
X93842517Y-48747490D01*
X93675510Y-48580483D01*
X93484433Y-48441657D01*
X93273996Y-48334433D01*
X93049368Y-48261446D01*
X92816097Y-48224500D01*
X92816092Y-48224500D01*
X92579908Y-48224500D01*
X92579903Y-48224500D01*
X92346630Y-48261447D01*
X92346627Y-48261447D01*
X92160618Y-48321886D01*
X92090777Y-48323881D01*
X92030944Y-48287801D01*
X92000116Y-48225100D01*
X91998300Y-48203955D01*
X91998300Y-46825297D01*
X92006943Y-46795860D01*
X92013467Y-46765871D01*
X92017222Y-46760853D01*
X92017985Y-46758258D01*
X92034614Y-46737619D01*
X92094437Y-46677796D01*
X92155758Y-46644313D01*
X92220432Y-46647547D01*
X92346632Y-46688553D01*
X92463270Y-46707026D01*
X92579903Y-46725500D01*
X92579908Y-46725500D01*
X92816097Y-46725500D01*
X93049368Y-46688553D01*
X93082468Y-46677798D01*
X93273992Y-46615568D01*
X93484433Y-46508343D01*
X93675510Y-46369517D01*
X93842517Y-46202510D01*
X93981343Y-46011433D01*
X94088568Y-45800992D01*
X94161553Y-45576368D01*
X94169947Y-45523368D01*
X94198500Y-45343097D01*
X94198500Y-45106902D01*
X94192407Y-45068434D01*
X94190105Y-45053902D01*
X124632500Y-45053902D01*
X124632500Y-45290097D01*
X124669446Y-45523368D01*
X124742433Y-45747996D01*
X124833241Y-45926215D01*
X124849657Y-45958433D01*
X124988483Y-46149510D01*
X125155490Y-46316517D01*
X125346567Y-46455343D01*
X125397593Y-46481342D01*
X125557003Y-46562566D01*
X125557005Y-46562566D01*
X125557008Y-46562568D01*
X125666262Y-46598067D01*
X125781631Y-46635553D01*
X126014903Y-46672500D01*
X126014908Y-46672500D01*
X126251097Y-46672500D01*
X126484368Y-46635553D01*
X126499467Y-46630647D01*
X126708992Y-46562568D01*
X126919433Y-46455343D01*
X127110510Y-46316517D01*
X127277517Y-46149510D01*
X127416343Y-45958433D01*
X127523568Y-45747992D01*
X127596553Y-45523368D01*
X127600157Y-45500613D01*
X127633500Y-45290097D01*
X127633500Y-45053902D01*
X131132500Y-45053902D01*
X131132500Y-45290097D01*
X131169446Y-45523368D01*
X131242433Y-45747996D01*
X131333241Y-45926215D01*
X131349657Y-45958433D01*
X131488483Y-46149510D01*
X131655490Y-46316517D01*
X131846567Y-46455343D01*
X131897593Y-46481342D01*
X132057003Y-46562566D01*
X132057005Y-46562566D01*
X132057008Y-46562568D01*
X132166262Y-46598067D01*
X132281631Y-46635553D01*
X132514903Y-46672500D01*
X132514908Y-46672500D01*
X132751097Y-46672500D01*
X132984368Y-46635553D01*
X132999467Y-46630647D01*
X133208992Y-46562568D01*
X133419433Y-46455343D01*
X133610510Y-46316517D01*
X133777517Y-46149510D01*
X133916343Y-45958433D01*
X134023568Y-45747992D01*
X134096553Y-45523368D01*
X134100157Y-45500613D01*
X134133500Y-45290097D01*
X134133500Y-45053902D01*
X134096553Y-44820631D01*
X134040787Y-44649003D01*
X134023568Y-44596008D01*
X134023566Y-44596005D01*
X134023566Y-44596003D01*
X133930100Y-44412567D01*
X133916343Y-44385567D01*
X133777517Y-44194490D01*
X133610510Y-44027483D01*
X133419433Y-43888657D01*
X133208996Y-43781433D01*
X132984368Y-43708446D01*
X132751097Y-43671500D01*
X132751092Y-43671500D01*
X132514908Y-43671500D01*
X132514903Y-43671500D01*
X132281631Y-43708446D01*
X132057003Y-43781433D01*
X131846566Y-43888657D01*
X131773619Y-43941657D01*
X131655490Y-44027483D01*
X131655488Y-44027485D01*
X131655487Y-44027485D01*
X131488485Y-44194487D01*
X131488485Y-44194488D01*
X131488483Y-44194490D01*
X131449978Y-44247487D01*
X131349657Y-44385566D01*
X131242433Y-44596003D01*
X131169446Y-44820631D01*
X131132500Y-45053902D01*
X127633500Y-45053902D01*
X127596553Y-44820631D01*
X127540787Y-44649003D01*
X127523568Y-44596008D01*
X127523566Y-44596005D01*
X127523566Y-44596003D01*
X127430100Y-44412567D01*
X127416343Y-44385567D01*
X127277517Y-44194490D01*
X127110510Y-44027483D01*
X126919433Y-43888657D01*
X126708996Y-43781433D01*
X126484368Y-43708446D01*
X126251097Y-43671500D01*
X126251092Y-43671500D01*
X126014908Y-43671500D01*
X126014903Y-43671500D01*
X125781631Y-43708446D01*
X125557003Y-43781433D01*
X125346566Y-43888657D01*
X125273619Y-43941657D01*
X125155490Y-44027483D01*
X125155488Y-44027485D01*
X125155487Y-44027485D01*
X124988485Y-44194487D01*
X124988485Y-44194488D01*
X124988483Y-44194490D01*
X124949978Y-44247487D01*
X124849657Y-44385566D01*
X124742433Y-44596003D01*
X124669446Y-44820631D01*
X124632500Y-45053902D01*
X94190105Y-45053902D01*
X94161553Y-44873631D01*
X94119589Y-44744480D01*
X94088568Y-44649008D01*
X94088566Y-44649005D01*
X94088566Y-44649003D01*
X93981342Y-44438566D01*
X93842517Y-44247490D01*
X93675510Y-44080483D01*
X93484433Y-43941657D01*
X93273996Y-43834433D01*
X93049368Y-43761446D01*
X92816097Y-43724500D01*
X92816092Y-43724500D01*
X92579908Y-43724500D01*
X92579903Y-43724500D01*
X92346631Y-43761446D01*
X92122003Y-43834433D01*
X91911566Y-43941657D01*
X91802550Y-44020862D01*
X91720490Y-44080483D01*
X91720488Y-44080485D01*
X91720487Y-44080485D01*
X91553485Y-44247487D01*
X91553485Y-44247488D01*
X91553483Y-44247490D01*
X91493862Y-44329550D01*
X91414657Y-44438566D01*
X91307433Y-44649003D01*
X91234446Y-44873631D01*
X91197500Y-45106902D01*
X91197500Y-45176303D01*
X91177815Y-45243342D01*
X91125011Y-45289097D01*
X91055853Y-45299041D01*
X90992297Y-45270016D01*
X90985819Y-45263984D01*
X90585190Y-44863355D01*
X90585188Y-44863352D01*
X90466317Y-44744481D01*
X90466316Y-44744480D01*
X90379504Y-44694360D01*
X90379504Y-44694359D01*
X90379500Y-44694358D01*
X90329385Y-44665423D01*
X90176657Y-44624499D01*
X90018543Y-44624499D01*
X90010947Y-44624499D01*
X90010931Y-44624500D01*
X87652068Y-44624500D01*
X87585029Y-44604815D01*
X87541583Y-44556795D01*
X87481342Y-44438566D01*
X87342517Y-44247490D01*
X87175510Y-44080483D01*
X86984433Y-43941657D01*
X86773996Y-43834433D01*
X86549368Y-43761446D01*
X86316097Y-43724500D01*
X86316092Y-43724500D01*
X86079908Y-43724500D01*
X86079903Y-43724500D01*
X85846631Y-43761446D01*
X85622003Y-43834433D01*
X85411566Y-43941657D01*
X85302550Y-44020862D01*
X85220490Y-44080483D01*
X85220488Y-44080485D01*
X85220487Y-44080485D01*
X85053485Y-44247487D01*
X85053485Y-44247488D01*
X85053483Y-44247490D01*
X84993862Y-44329550D01*
X84914657Y-44438566D01*
X84807433Y-44649003D01*
X84734446Y-44873631D01*
X84697500Y-45106902D01*
X70393500Y-45106902D01*
X70393500Y-40370648D01*
X78530500Y-40370648D01*
X78530500Y-40575351D01*
X78562522Y-40777534D01*
X78625781Y-40972223D01*
X78718715Y-41154613D01*
X78839028Y-41320213D01*
X78983786Y-41464971D01*
X79114885Y-41560218D01*
X79149390Y-41585287D01*
X79265607Y-41644503D01*
X79331776Y-41678218D01*
X79331778Y-41678218D01*
X79331781Y-41678220D01*
X79436137Y-41712127D01*
X79526465Y-41741477D01*
X79627557Y-41757488D01*
X79728648Y-41773500D01*
X79728649Y-41773500D01*
X79933351Y-41773500D01*
X79933352Y-41773500D01*
X80135534Y-41741477D01*
X80330219Y-41678220D01*
X80512610Y-41585287D01*
X80609050Y-41515220D01*
X80678213Y-41464971D01*
X80678215Y-41464968D01*
X80678219Y-41464966D01*
X80822966Y-41320219D01*
X80822968Y-41320215D01*
X80822971Y-41320213D01*
X80908697Y-41202219D01*
X80943287Y-41154610D01*
X81036220Y-40972219D01*
X81099477Y-40777534D01*
X81131500Y-40575352D01*
X81131500Y-40370648D01*
X81112810Y-40252648D01*
X148162500Y-40252648D01*
X148162500Y-40457351D01*
X148194522Y-40659534D01*
X148257781Y-40854223D01*
X148350715Y-41036613D01*
X148471028Y-41202213D01*
X148615786Y-41346971D01*
X148719448Y-41422284D01*
X148781390Y-41467287D01*
X148875460Y-41515218D01*
X148963776Y-41560218D01*
X148963778Y-41560218D01*
X148963781Y-41560220D01*
X149068137Y-41594127D01*
X149158465Y-41623477D01*
X149259557Y-41639488D01*
X149360648Y-41655500D01*
X149360649Y-41655500D01*
X149565351Y-41655500D01*
X149565352Y-41655500D01*
X149767534Y-41623477D01*
X149962219Y-41560220D01*
X150144610Y-41467287D01*
X150237590Y-41399732D01*
X150310213Y-41346971D01*
X150310215Y-41346968D01*
X150310219Y-41346966D01*
X150454966Y-41202219D01*
X150454968Y-41202215D01*
X150454971Y-41202213D01*
X150507732Y-41129590D01*
X150575287Y-41036610D01*
X150668220Y-40854219D01*
X150731477Y-40659534D01*
X150763500Y-40457352D01*
X150763500Y-40252648D01*
X150756373Y-40207648D01*
X226893500Y-40207648D01*
X226893500Y-40412351D01*
X226925522Y-40614534D01*
X226988781Y-40809223D01*
X227081715Y-40991613D01*
X227202028Y-41157213D01*
X227346786Y-41301971D01*
X227501749Y-41414556D01*
X227512390Y-41422287D01*
X227628607Y-41481503D01*
X227694776Y-41515218D01*
X227694778Y-41515218D01*
X227694781Y-41515220D01*
X227799137Y-41549127D01*
X227889465Y-41578477D01*
X227990557Y-41594488D01*
X228091648Y-41610500D01*
X228091649Y-41610500D01*
X228296351Y-41610500D01*
X228296352Y-41610500D01*
X228498534Y-41578477D01*
X228693219Y-41515220D01*
X228875610Y-41422287D01*
X228968590Y-41354732D01*
X229041213Y-41301971D01*
X229041215Y-41301968D01*
X229041219Y-41301966D01*
X229185966Y-41157219D01*
X229185968Y-41157215D01*
X229185971Y-41157213D01*
X229238732Y-41084590D01*
X229306287Y-40991610D01*
X229399220Y-40809219D01*
X229462477Y-40614534D01*
X229494500Y-40412352D01*
X229494500Y-40207648D01*
X229488294Y-40168465D01*
X229462477Y-40005465D01*
X229399218Y-39810776D01*
X229365503Y-39744607D01*
X229306287Y-39628390D01*
X229298556Y-39617749D01*
X229185971Y-39462786D01*
X229041213Y-39318028D01*
X228875613Y-39197715D01*
X228875612Y-39197714D01*
X228875610Y-39197713D01*
X228818653Y-39168691D01*
X228693223Y-39104781D01*
X228498534Y-39041522D01*
X228323995Y-39013878D01*
X228296352Y-39009500D01*
X228091648Y-39009500D01*
X228067329Y-39013351D01*
X227889465Y-39041522D01*
X227694776Y-39104781D01*
X227512386Y-39197715D01*
X227346786Y-39318028D01*
X227202028Y-39462786D01*
X227081715Y-39628386D01*
X226988781Y-39810776D01*
X226925522Y-40005465D01*
X226893500Y-40207648D01*
X150756373Y-40207648D01*
X150731477Y-40050466D01*
X150668220Y-39855781D01*
X150668218Y-39855778D01*
X150668218Y-39855776D01*
X150634503Y-39789607D01*
X150575287Y-39673390D01*
X150540701Y-39625786D01*
X150454971Y-39507786D01*
X150310213Y-39363028D01*
X150144613Y-39242715D01*
X150144612Y-39242714D01*
X150144610Y-39242713D01*
X150056293Y-39197713D01*
X149962223Y-39149781D01*
X149767534Y-39086522D01*
X149592995Y-39058878D01*
X149565352Y-39054500D01*
X149360648Y-39054500D01*
X149336329Y-39058351D01*
X149158465Y-39086522D01*
X148963776Y-39149781D01*
X148781386Y-39242715D01*
X148615786Y-39363028D01*
X148471028Y-39507786D01*
X148350715Y-39673386D01*
X148257781Y-39855776D01*
X148194522Y-40050465D01*
X148162500Y-40252648D01*
X81112810Y-40252648D01*
X81099477Y-40168466D01*
X81036220Y-39973781D01*
X81036218Y-39973778D01*
X81036218Y-39973776D01*
X81002503Y-39907607D01*
X80943287Y-39791390D01*
X80935556Y-39780749D01*
X80822971Y-39625786D01*
X80678213Y-39481028D01*
X80512613Y-39360715D01*
X80512612Y-39360714D01*
X80512610Y-39360713D01*
X80428848Y-39318034D01*
X80330223Y-39267781D01*
X80135534Y-39204522D01*
X79960995Y-39176878D01*
X79933352Y-39172500D01*
X79728648Y-39172500D01*
X79704329Y-39176351D01*
X79526465Y-39204522D01*
X79331776Y-39267781D01*
X79149386Y-39360715D01*
X78983786Y-39481028D01*
X78839028Y-39625786D01*
X78718715Y-39791386D01*
X78625781Y-39973776D01*
X78562522Y-40168465D01*
X78530500Y-40370648D01*
X70393500Y-40370648D01*
X70393500Y-34308500D01*
X70413185Y-34241461D01*
X70465989Y-34195706D01*
X70517500Y-34184500D01*
X236908500Y-34184500D01*
X236975539Y-34204185D01*
G37*
%TD.AperFunction*%
%TD*%
M02*
