%TF.GenerationSoftware,KiCad,Pcbnew,9.0.4-9.0.4-0~ubuntu24.04.1*%
%TF.CreationDate,2025-09-24T17:36:06+03:00*%
%TF.ProjectId,Nurse remote control,4e757273-6520-4726-956d-6f746520636f,rev?*%
%TF.SameCoordinates,Original*%
%TF.FileFunction,Legend,Bot*%
%TF.FilePolarity,Positive*%
%FSLAX46Y46*%
G04 Gerber Fmt 4.6, Leading zero omitted, Abs format (unit mm)*
G04 Created by KiCad (PCBNEW 9.0.4-9.0.4-0~ubuntu24.04.1) date 2025-09-24 17:36:06*
%MOMM*%
%LPD*%
G01*
G04 APERTURE LIST*
%ADD10C,1.600000*%
%ADD11C,0.508000*%
G04 APERTURE END LIST*
D10*
X220807416Y-87025276D02*
X218140749Y-87025276D01*
X217521702Y-91215752D02*
X221331226Y-91215752D01*
X221331226Y-91215752D02*
X220331226Y-83215752D01*
X220331226Y-83215752D02*
X216521702Y-83215752D01*
X214093131Y-91215752D02*
X213093131Y-83215752D01*
X213093131Y-83215752D02*
X211188369Y-83215752D01*
X211188369Y-83215752D02*
X210093131Y-83596704D01*
X210093131Y-83596704D02*
X209426464Y-84358609D01*
X209426464Y-84358609D02*
X209140750Y-85120514D01*
X209140750Y-85120514D02*
X208950274Y-86644323D01*
X208950274Y-86644323D02*
X209093131Y-87787180D01*
X209093131Y-87787180D02*
X209664559Y-89310990D01*
X209664559Y-89310990D02*
X210140750Y-90072895D01*
X210140750Y-90072895D02*
X210997893Y-90834800D01*
X210997893Y-90834800D02*
X212188369Y-91215752D01*
X212188369Y-91215752D02*
X214093131Y-91215752D01*
X206093131Y-91215752D02*
X205093131Y-83215752D01*
X197616940Y-90453847D02*
X198045511Y-90834800D01*
X198045511Y-90834800D02*
X199235988Y-91215752D01*
X199235988Y-91215752D02*
X199997892Y-91215752D01*
X199997892Y-91215752D02*
X201093130Y-90834800D01*
X201093130Y-90834800D02*
X201759797Y-90072895D01*
X201759797Y-90072895D02*
X202045511Y-89310990D01*
X202045511Y-89310990D02*
X202235988Y-87787180D01*
X202235988Y-87787180D02*
X202093130Y-86644323D01*
X202093130Y-86644323D02*
X201521702Y-85120514D01*
X201521702Y-85120514D02*
X201045511Y-84358609D01*
X201045511Y-84358609D02*
X200188369Y-83596704D01*
X200188369Y-83596704D02*
X198997892Y-83215752D01*
X198997892Y-83215752D02*
X198235988Y-83215752D01*
X198235988Y-83215752D02*
X197140750Y-83596704D01*
X197140750Y-83596704D02*
X196807416Y-83977657D01*
X188188369Y-91215752D02*
X187188369Y-83215752D01*
X187188369Y-83215752D02*
X183616940Y-91215752D01*
X183616940Y-91215752D02*
X182616940Y-83215752D01*
X175712179Y-85882419D02*
X176378845Y-91215752D01*
X179140750Y-85882419D02*
X179664560Y-90072895D01*
X179664560Y-90072895D02*
X179378845Y-90834800D01*
X179378845Y-90834800D02*
X178664560Y-91215752D01*
X178664560Y-91215752D02*
X177521702Y-91215752D01*
X177521702Y-91215752D02*
X176712179Y-90834800D01*
X176712179Y-90834800D02*
X176283607Y-90453847D01*
X172569322Y-91215752D02*
X171902655Y-85882419D01*
X172093131Y-87406228D02*
X171616941Y-86644323D01*
X171616941Y-86644323D02*
X171188369Y-86263371D01*
X171188369Y-86263371D02*
X170378845Y-85882419D01*
X170378845Y-85882419D02*
X169616941Y-85882419D01*
X167950274Y-90834800D02*
X167235988Y-91215752D01*
X167235988Y-91215752D02*
X165712179Y-91215752D01*
X165712179Y-91215752D02*
X164902655Y-90834800D01*
X164902655Y-90834800D02*
X164426464Y-90072895D01*
X164426464Y-90072895D02*
X164378845Y-89691942D01*
X164378845Y-89691942D02*
X164664560Y-88930038D01*
X164664560Y-88930038D02*
X165378845Y-88549085D01*
X165378845Y-88549085D02*
X166521703Y-88549085D01*
X166521703Y-88549085D02*
X167235988Y-88168133D01*
X167235988Y-88168133D02*
X167521703Y-87406228D01*
X167521703Y-87406228D02*
X167474084Y-87025276D01*
X167474084Y-87025276D02*
X166997893Y-86263371D01*
X166997893Y-86263371D02*
X166188369Y-85882419D01*
X166188369Y-85882419D02*
X165045512Y-85882419D01*
X165045512Y-85882419D02*
X164331226Y-86263371D01*
X158045513Y-90834800D02*
X158855036Y-91215752D01*
X158855036Y-91215752D02*
X160378846Y-91215752D01*
X160378846Y-91215752D02*
X161093132Y-90834800D01*
X161093132Y-90834800D02*
X161378846Y-90072895D01*
X161378846Y-90072895D02*
X160997894Y-87025276D01*
X160997894Y-87025276D02*
X160521703Y-86263371D01*
X160521703Y-86263371D02*
X159712179Y-85882419D01*
X159712179Y-85882419D02*
X158188370Y-85882419D01*
X158188370Y-85882419D02*
X157474084Y-86263371D01*
X157474084Y-86263371D02*
X157188370Y-87025276D01*
X157188370Y-87025276D02*
X157283608Y-87787180D01*
X157283608Y-87787180D02*
X161188370Y-88549085D01*
X148188370Y-91215752D02*
X147521703Y-85882419D01*
X147712179Y-87406228D02*
X147235989Y-86644323D01*
X147235989Y-86644323D02*
X146807417Y-86263371D01*
X146807417Y-86263371D02*
X145997893Y-85882419D01*
X145997893Y-85882419D02*
X145235989Y-85882419D01*
X140140751Y-90834800D02*
X140950274Y-91215752D01*
X140950274Y-91215752D02*
X142474084Y-91215752D01*
X142474084Y-91215752D02*
X143188370Y-90834800D01*
X143188370Y-90834800D02*
X143474084Y-90072895D01*
X143474084Y-90072895D02*
X143093132Y-87025276D01*
X143093132Y-87025276D02*
X142616941Y-86263371D01*
X142616941Y-86263371D02*
X141807417Y-85882419D01*
X141807417Y-85882419D02*
X140283608Y-85882419D01*
X140283608Y-85882419D02*
X139569322Y-86263371D01*
X139569322Y-86263371D02*
X139283608Y-87025276D01*
X139283608Y-87025276D02*
X139378846Y-87787180D01*
X139378846Y-87787180D02*
X143283608Y-88549085D01*
X136378846Y-91215752D02*
X135712179Y-85882419D01*
X135807417Y-86644323D02*
X135378846Y-86263371D01*
X135378846Y-86263371D02*
X134569322Y-85882419D01*
X134569322Y-85882419D02*
X133426465Y-85882419D01*
X133426465Y-85882419D02*
X132712179Y-86263371D01*
X132712179Y-86263371D02*
X132426465Y-87025276D01*
X132426465Y-87025276D02*
X132950274Y-91215752D01*
X132426465Y-87025276D02*
X131950274Y-86263371D01*
X131950274Y-86263371D02*
X131140750Y-85882419D01*
X131140750Y-85882419D02*
X129997893Y-85882419D01*
X129997893Y-85882419D02*
X129283608Y-86263371D01*
X129283608Y-86263371D02*
X128997893Y-87025276D01*
X128997893Y-87025276D02*
X129521703Y-91215752D01*
X124569322Y-91215752D02*
X125283607Y-90834800D01*
X125283607Y-90834800D02*
X125616941Y-90453847D01*
X125616941Y-90453847D02*
X125902655Y-89691942D01*
X125902655Y-89691942D02*
X125616941Y-87406228D01*
X125616941Y-87406228D02*
X125140750Y-86644323D01*
X125140750Y-86644323D02*
X124712179Y-86263371D01*
X124712179Y-86263371D02*
X123902655Y-85882419D01*
X123902655Y-85882419D02*
X122759798Y-85882419D01*
X122759798Y-85882419D02*
X122045512Y-86263371D01*
X122045512Y-86263371D02*
X121712179Y-86644323D01*
X121712179Y-86644323D02*
X121426464Y-87406228D01*
X121426464Y-87406228D02*
X121712179Y-89691942D01*
X121712179Y-89691942D02*
X122188369Y-90453847D01*
X122188369Y-90453847D02*
X122616941Y-90834800D01*
X122616941Y-90834800D02*
X123426464Y-91215752D01*
X123426464Y-91215752D02*
X124569322Y-91215752D01*
X118950274Y-85882419D02*
X115902655Y-85882419D01*
X117474084Y-83215752D02*
X118331227Y-90072895D01*
X118331227Y-90072895D02*
X118045512Y-90834800D01*
X118045512Y-90834800D02*
X117331227Y-91215752D01*
X117331227Y-91215752D02*
X116569322Y-91215752D01*
X110807417Y-90834800D02*
X111616940Y-91215752D01*
X111616940Y-91215752D02*
X113140750Y-91215752D01*
X113140750Y-91215752D02*
X113855036Y-90834800D01*
X113855036Y-90834800D02*
X114140750Y-90072895D01*
X114140750Y-90072895D02*
X113759798Y-87025276D01*
X113759798Y-87025276D02*
X113283607Y-86263371D01*
X113283607Y-86263371D02*
X112474083Y-85882419D01*
X112474083Y-85882419D02*
X110950274Y-85882419D01*
X110950274Y-85882419D02*
X110235988Y-86263371D01*
X110235988Y-86263371D02*
X109950274Y-87025276D01*
X109950274Y-87025276D02*
X110045512Y-87787180D01*
X110045512Y-87787180D02*
X113950274Y-88549085D01*
X100950274Y-91215752D02*
X99950274Y-83215752D01*
X99950274Y-83215752D02*
X96902655Y-83215752D01*
X96902655Y-83215752D02*
X96188369Y-83596704D01*
X96188369Y-83596704D02*
X95855036Y-83977657D01*
X95855036Y-83977657D02*
X95569321Y-84739561D01*
X95569321Y-84739561D02*
X95712178Y-85882419D01*
X95712178Y-85882419D02*
X96188369Y-86644323D01*
X96188369Y-86644323D02*
X96616940Y-87025276D01*
X96616940Y-87025276D02*
X97426464Y-87406228D01*
X97426464Y-87406228D02*
X100474083Y-87406228D01*
X88283607Y-90453847D02*
X88712178Y-90834800D01*
X88712178Y-90834800D02*
X89902655Y-91215752D01*
X89902655Y-91215752D02*
X90664559Y-91215752D01*
X90664559Y-91215752D02*
X91759797Y-90834800D01*
X91759797Y-90834800D02*
X92426464Y-90072895D01*
X92426464Y-90072895D02*
X92712178Y-89310990D01*
X92712178Y-89310990D02*
X92902655Y-87787180D01*
X92902655Y-87787180D02*
X92759797Y-86644323D01*
X92759797Y-86644323D02*
X92188369Y-85120514D01*
X92188369Y-85120514D02*
X91712178Y-84358609D01*
X91712178Y-84358609D02*
X90855036Y-83596704D01*
X90855036Y-83596704D02*
X89664559Y-83215752D01*
X89664559Y-83215752D02*
X88902655Y-83215752D01*
X88902655Y-83215752D02*
X87807417Y-83596704D01*
X87807417Y-83596704D02*
X87474083Y-83977657D01*
X81759797Y-87025276D02*
X80664559Y-87406228D01*
X80664559Y-87406228D02*
X80331226Y-87787180D01*
X80331226Y-87787180D02*
X80045512Y-88549085D01*
X80045512Y-88549085D02*
X80188369Y-89691942D01*
X80188369Y-89691942D02*
X80664559Y-90453847D01*
X80664559Y-90453847D02*
X81093131Y-90834800D01*
X81093131Y-90834800D02*
X81902655Y-91215752D01*
X81902655Y-91215752D02*
X84950274Y-91215752D01*
X84950274Y-91215752D02*
X83950274Y-83215752D01*
X83950274Y-83215752D02*
X81283607Y-83215752D01*
X81283607Y-83215752D02*
X80569321Y-83596704D01*
X80569321Y-83596704D02*
X80235988Y-83977657D01*
X80235988Y-83977657D02*
X79950274Y-84739561D01*
X79950274Y-84739561D02*
X80045512Y-85501466D01*
X80045512Y-85501466D02*
X80521702Y-86263371D01*
X80521702Y-86263371D02*
X80950274Y-86644323D01*
X80950274Y-86644323D02*
X81759797Y-87025276D01*
X81759797Y-87025276D02*
X84426464Y-87025276D01*
D11*
%TO.C,J1*%
X78500000Y-73074800D02*
G75*
G02*
X78500000Y-73836800I0J-381000D01*
G01*
X78500000Y-73836800D02*
G75*
G02*
X78500000Y-73074800I0J381000D01*
G01*
%TD*%
M02*
