%TF.GenerationSoftware,KiCad,Pcbnew,9.0.4-9.0.4-0~ubuntu24.04.1*%
%TF.CreationDate,2025-09-30T13:12:32+03:00*%
%TF.ProjectId,Esp32-S3-WROOM-1U-N16R8_ controller,45737033-322d-4533-932d-57524f4f4d2d,VER 1.0.0*%
%TF.SameCoordinates,Original*%
%TF.FileFunction,Paste,Top*%
%TF.FilePolarity,Positive*%
%FSLAX46Y46*%
G04 Gerber Fmt 4.6, Leading zero omitted, Abs format (unit mm)*
G04 Created by KiCad (PCBNEW 9.0.4-9.0.4-0~ubuntu24.04.1) date 2025-09-30 13:12:32*
%MOMM*%
%LPD*%
G01*
G04 APERTURE LIST*
G04 Aperture macros list*
%AMRoundRect*
0 Rectangle with rounded corners*
0 $1 Rounding radius*
0 $2 $3 $4 $5 $6 $7 $8 $9 X,Y pos of 4 corners*
0 Add a 4 corners polygon primitive as box body*
4,1,4,$2,$3,$4,$5,$6,$7,$8,$9,$2,$3,0*
0 Add four circle primitives for the rounded corners*
1,1,$1+$1,$2,$3*
1,1,$1+$1,$4,$5*
1,1,$1+$1,$6,$7*
1,1,$1+$1,$8,$9*
0 Add four rect primitives between the rounded corners*
20,1,$1+$1,$2,$3,$4,$5,0*
20,1,$1+$1,$4,$5,$6,$7,0*
20,1,$1+$1,$6,$7,$8,$9,0*
20,1,$1+$1,$8,$9,$2,$3,0*%
G04 Aperture macros list end*
%ADD10C,0.010000*%
%ADD11RoundRect,0.200000X0.200000X0.275000X-0.200000X0.275000X-0.200000X-0.275000X0.200000X-0.275000X0*%
%ADD12RoundRect,0.225000X0.225000X0.250000X-0.225000X0.250000X-0.225000X-0.250000X0.225000X-0.250000X0*%
%ADD13RoundRect,0.200000X0.275000X-0.200000X0.275000X0.200000X-0.275000X0.200000X-0.275000X-0.200000X0*%
%ADD14R,0.838200X1.600200*%
%ADD15R,3.098800X1.600200*%
%ADD16RoundRect,0.200000X-0.200000X-0.275000X0.200000X-0.275000X0.200000X0.275000X-0.200000X0.275000X0*%
%ADD17RoundRect,0.225000X0.250000X-0.225000X0.250000X0.225000X-0.250000X0.225000X-0.250000X-0.225000X0*%
%ADD18RoundRect,0.250000X0.375000X0.625000X-0.375000X0.625000X-0.375000X-0.625000X0.375000X-0.625000X0*%
%ADD19RoundRect,0.093750X0.093750X-0.156250X0.093750X0.156250X-0.093750X0.156250X-0.093750X-0.156250X0*%
%ADD20RoundRect,0.075000X0.075000X-0.250000X0.075000X0.250000X-0.075000X0.250000X-0.075000X-0.250000X0*%
%ADD21RoundRect,0.200000X-0.275000X0.200000X-0.275000X-0.200000X0.275000X-0.200000X0.275000X0.200000X0*%
%ADD22RoundRect,0.159750X0.905250X-0.965250X0.905250X0.965250X-0.905250X0.965250X-0.905250X-0.965250X0*%
%ADD23RoundRect,0.225000X-0.225000X-0.250000X0.225000X-0.250000X0.225000X0.250000X-0.225000X0.250000X0*%
%ADD24RoundRect,0.250000X0.550000X-1.050000X0.550000X1.050000X-0.550000X1.050000X-0.550000X-1.050000X0*%
%ADD25R,3.810000X0.800000*%
%ADD26RoundRect,0.225000X-0.250000X0.225000X-0.250000X-0.225000X0.250000X-0.225000X0.250000X0.225000X0*%
%ADD27R,1.900000X1.100000*%
%ADD28R,0.800000X3.810000*%
%ADD29R,1.500000X0.900000*%
%ADD30R,0.900000X1.500000*%
%ADD31R,0.900000X0.900000*%
%ADD32RoundRect,0.250000X1.950000X1.000000X-1.950000X1.000000X-1.950000X-1.000000X1.950000X-1.000000X0*%
%ADD33RoundRect,0.051250X0.153750X-0.733750X0.153750X0.733750X-0.153750X0.733750X-0.153750X-0.733750X0*%
%ADD34RoundRect,0.150000X-0.150000X-0.425000X0.150000X-0.425000X0.150000X0.425000X-0.150000X0.425000X0*%
%ADD35RoundRect,0.075000X-0.075000X-0.500000X0.075000X-0.500000X0.075000X0.500000X-0.075000X0.500000X0*%
%ADD36O,1.000000X2.100000*%
%ADD37O,1.000000X1.800000*%
%ADD38R,2.180000X1.600000*%
%ADD39RoundRect,0.250000X1.050000X0.550000X-1.050000X0.550000X-1.050000X-0.550000X1.050000X-0.550000X0*%
%ADD40RoundRect,0.051250X-0.733750X-0.153750X0.733750X-0.153750X0.733750X0.153750X-0.733750X0.153750X0*%
G04 APERTURE END LIST*
D10*
%TO.C,U13*%
X109905000Y-87625000D02*
X108255000Y-87625000D01*
X108255000Y-86275000D01*
X109905000Y-86275000D01*
X109905000Y-87625000D01*
G36*
X109905000Y-87625000D02*
G01*
X108255000Y-87625000D01*
X108255000Y-86275000D01*
X109905000Y-86275000D01*
X109905000Y-87625000D01*
G37*
X109905000Y-89645000D02*
X108255000Y-89645000D01*
X108255000Y-88295000D01*
X109905000Y-88295000D01*
X109905000Y-89645000D01*
G36*
X109905000Y-89645000D02*
G01*
X108255000Y-89645000D01*
X108255000Y-88295000D01*
X109905000Y-88295000D01*
X109905000Y-89645000D01*
G37*
X109905000Y-91665000D02*
X108255000Y-91665000D01*
X108255000Y-90315000D01*
X109905000Y-90315000D01*
X109905000Y-91665000D01*
G36*
X109905000Y-91665000D02*
G01*
X108255000Y-91665000D01*
X108255000Y-90315000D01*
X109905000Y-90315000D01*
X109905000Y-91665000D01*
G37*
X109905000Y-93685000D02*
X108255000Y-93685000D01*
X108255000Y-92335000D01*
X109905000Y-92335000D01*
X109905000Y-93685000D01*
G36*
X109905000Y-93685000D02*
G01*
X108255000Y-93685000D01*
X108255000Y-92335000D01*
X109905000Y-92335000D01*
X109905000Y-93685000D01*
G37*
X109905000Y-95705000D02*
X108255000Y-95705000D01*
X108255000Y-94355000D01*
X109905000Y-94355000D01*
X109905000Y-95705000D01*
G36*
X109905000Y-95705000D02*
G01*
X108255000Y-95705000D01*
X108255000Y-94355000D01*
X109905000Y-94355000D01*
X109905000Y-95705000D01*
G37*
X112665000Y-87625000D02*
X111015000Y-87625000D01*
X111015000Y-86275000D01*
X112665000Y-86275000D01*
X112665000Y-87625000D01*
G36*
X112665000Y-87625000D02*
G01*
X111015000Y-87625000D01*
X111015000Y-86275000D01*
X112665000Y-86275000D01*
X112665000Y-87625000D01*
G37*
X112665000Y-89645000D02*
X111015000Y-89645000D01*
X111015000Y-88295000D01*
X112665000Y-88295000D01*
X112665000Y-89645000D01*
G36*
X112665000Y-89645000D02*
G01*
X111015000Y-89645000D01*
X111015000Y-88295000D01*
X112665000Y-88295000D01*
X112665000Y-89645000D01*
G37*
X112665000Y-91665000D02*
X111015000Y-91665000D01*
X111015000Y-90315000D01*
X112665000Y-90315000D01*
X112665000Y-91665000D01*
G36*
X112665000Y-91665000D02*
G01*
X111015000Y-91665000D01*
X111015000Y-90315000D01*
X112665000Y-90315000D01*
X112665000Y-91665000D01*
G37*
X112665000Y-93685000D02*
X111015000Y-93685000D01*
X111015000Y-92335000D01*
X112665000Y-92335000D01*
X112665000Y-93685000D01*
G36*
X112665000Y-93685000D02*
G01*
X111015000Y-93685000D01*
X111015000Y-92335000D01*
X112665000Y-92335000D01*
X112665000Y-93685000D01*
G37*
X112665000Y-95705000D02*
X111015000Y-95705000D01*
X111015000Y-94355000D01*
X112665000Y-94355000D01*
X112665000Y-95705000D01*
G36*
X112665000Y-95705000D02*
G01*
X111015000Y-95705000D01*
X111015000Y-94355000D01*
X112665000Y-94355000D01*
X112665000Y-95705000D01*
G37*
X115425000Y-87625000D02*
X113775000Y-87625000D01*
X113775000Y-86275000D01*
X115425000Y-86275000D01*
X115425000Y-87625000D01*
G36*
X115425000Y-87625000D02*
G01*
X113775000Y-87625000D01*
X113775000Y-86275000D01*
X115425000Y-86275000D01*
X115425000Y-87625000D01*
G37*
X115425000Y-89645000D02*
X113775000Y-89645000D01*
X113775000Y-88295000D01*
X115425000Y-88295000D01*
X115425000Y-89645000D01*
G36*
X115425000Y-89645000D02*
G01*
X113775000Y-89645000D01*
X113775000Y-88295000D01*
X115425000Y-88295000D01*
X115425000Y-89645000D01*
G37*
X115425000Y-91665000D02*
X113775000Y-91665000D01*
X113775000Y-90315000D01*
X115425000Y-90315000D01*
X115425000Y-91665000D01*
G36*
X115425000Y-91665000D02*
G01*
X113775000Y-91665000D01*
X113775000Y-90315000D01*
X115425000Y-90315000D01*
X115425000Y-91665000D01*
G37*
X115425000Y-93685000D02*
X113775000Y-93685000D01*
X113775000Y-92335000D01*
X115425000Y-92335000D01*
X115425000Y-93685000D01*
G36*
X115425000Y-93685000D02*
G01*
X113775000Y-93685000D01*
X113775000Y-92335000D01*
X115425000Y-92335000D01*
X115425000Y-93685000D01*
G37*
X115425000Y-95705000D02*
X113775000Y-95705000D01*
X113775000Y-94355000D01*
X115425000Y-94355000D01*
X115425000Y-95705000D01*
G36*
X115425000Y-95705000D02*
G01*
X113775000Y-95705000D01*
X113775000Y-94355000D01*
X115425000Y-94355000D01*
X115425000Y-95705000D01*
G37*
%TO.C,U5*%
X133055000Y-32905000D02*
X131705000Y-32905000D01*
X131705000Y-31255000D01*
X133055000Y-31255000D01*
X133055000Y-32905000D01*
G36*
X133055000Y-32905000D02*
G01*
X131705000Y-32905000D01*
X131705000Y-31255000D01*
X133055000Y-31255000D01*
X133055000Y-32905000D01*
G37*
X133055000Y-35665000D02*
X131705000Y-35665000D01*
X131705000Y-34015000D01*
X133055000Y-34015000D01*
X133055000Y-35665000D01*
G36*
X133055000Y-35665000D02*
G01*
X131705000Y-35665000D01*
X131705000Y-34015000D01*
X133055000Y-34015000D01*
X133055000Y-35665000D01*
G37*
X133055000Y-38425000D02*
X131705000Y-38425000D01*
X131705000Y-36775000D01*
X133055000Y-36775000D01*
X133055000Y-38425000D01*
G36*
X133055000Y-38425000D02*
G01*
X131705000Y-38425000D01*
X131705000Y-36775000D01*
X133055000Y-36775000D01*
X133055000Y-38425000D01*
G37*
X135075000Y-32905000D02*
X133725000Y-32905000D01*
X133725000Y-31255000D01*
X135075000Y-31255000D01*
X135075000Y-32905000D01*
G36*
X135075000Y-32905000D02*
G01*
X133725000Y-32905000D01*
X133725000Y-31255000D01*
X135075000Y-31255000D01*
X135075000Y-32905000D01*
G37*
X135075000Y-35665000D02*
X133725000Y-35665000D01*
X133725000Y-34015000D01*
X135075000Y-34015000D01*
X135075000Y-35665000D01*
G36*
X135075000Y-35665000D02*
G01*
X133725000Y-35665000D01*
X133725000Y-34015000D01*
X135075000Y-34015000D01*
X135075000Y-35665000D01*
G37*
X135075000Y-38425000D02*
X133725000Y-38425000D01*
X133725000Y-36775000D01*
X135075000Y-36775000D01*
X135075000Y-38425000D01*
G36*
X135075000Y-38425000D02*
G01*
X133725000Y-38425000D01*
X133725000Y-36775000D01*
X135075000Y-36775000D01*
X135075000Y-38425000D01*
G37*
X137095000Y-32905000D02*
X135745000Y-32905000D01*
X135745000Y-31255000D01*
X137095000Y-31255000D01*
X137095000Y-32905000D01*
G36*
X137095000Y-32905000D02*
G01*
X135745000Y-32905000D01*
X135745000Y-31255000D01*
X137095000Y-31255000D01*
X137095000Y-32905000D01*
G37*
X137095000Y-35665000D02*
X135745000Y-35665000D01*
X135745000Y-34015000D01*
X137095000Y-34015000D01*
X137095000Y-35665000D01*
G36*
X137095000Y-35665000D02*
G01*
X135745000Y-35665000D01*
X135745000Y-34015000D01*
X137095000Y-34015000D01*
X137095000Y-35665000D01*
G37*
X137095000Y-38425000D02*
X135745000Y-38425000D01*
X135745000Y-36775000D01*
X137095000Y-36775000D01*
X137095000Y-38425000D01*
G36*
X137095000Y-38425000D02*
G01*
X135745000Y-38425000D01*
X135745000Y-36775000D01*
X137095000Y-36775000D01*
X137095000Y-38425000D01*
G37*
X139115000Y-32905000D02*
X137765000Y-32905000D01*
X137765000Y-31255000D01*
X139115000Y-31255000D01*
X139115000Y-32905000D01*
G36*
X139115000Y-32905000D02*
G01*
X137765000Y-32905000D01*
X137765000Y-31255000D01*
X139115000Y-31255000D01*
X139115000Y-32905000D01*
G37*
X139115000Y-35665000D02*
X137765000Y-35665000D01*
X137765000Y-34015000D01*
X139115000Y-34015000D01*
X139115000Y-35665000D01*
G36*
X139115000Y-35665000D02*
G01*
X137765000Y-35665000D01*
X137765000Y-34015000D01*
X139115000Y-34015000D01*
X139115000Y-35665000D01*
G37*
X139115000Y-38425000D02*
X137765000Y-38425000D01*
X137765000Y-36775000D01*
X139115000Y-36775000D01*
X139115000Y-38425000D01*
G36*
X139115000Y-38425000D02*
G01*
X137765000Y-38425000D01*
X137765000Y-36775000D01*
X139115000Y-36775000D01*
X139115000Y-38425000D01*
G37*
X141135000Y-32905000D02*
X139785000Y-32905000D01*
X139785000Y-31255000D01*
X141135000Y-31255000D01*
X141135000Y-32905000D01*
G36*
X141135000Y-32905000D02*
G01*
X139785000Y-32905000D01*
X139785000Y-31255000D01*
X141135000Y-31255000D01*
X141135000Y-32905000D01*
G37*
X141135000Y-35665000D02*
X139785000Y-35665000D01*
X139785000Y-34015000D01*
X141135000Y-34015000D01*
X141135000Y-35665000D01*
G36*
X141135000Y-35665000D02*
G01*
X139785000Y-35665000D01*
X139785000Y-34015000D01*
X141135000Y-34015000D01*
X141135000Y-35665000D01*
G37*
X141135000Y-38425000D02*
X139785000Y-38425000D01*
X139785000Y-36775000D01*
X141135000Y-36775000D01*
X141135000Y-38425000D01*
G36*
X141135000Y-38425000D02*
G01*
X139785000Y-38425000D01*
X139785000Y-36775000D01*
X141135000Y-36775000D01*
X141135000Y-38425000D01*
G37*
%TO.C,U4*%
X167945000Y-32905000D02*
X166595000Y-32905000D01*
X166595000Y-31255000D01*
X167945000Y-31255000D01*
X167945000Y-32905000D01*
G36*
X167945000Y-32905000D02*
G01*
X166595000Y-32905000D01*
X166595000Y-31255000D01*
X167945000Y-31255000D01*
X167945000Y-32905000D01*
G37*
X167945000Y-35665000D02*
X166595000Y-35665000D01*
X166595000Y-34015000D01*
X167945000Y-34015000D01*
X167945000Y-35665000D01*
G36*
X167945000Y-35665000D02*
G01*
X166595000Y-35665000D01*
X166595000Y-34015000D01*
X167945000Y-34015000D01*
X167945000Y-35665000D01*
G37*
X167945000Y-38425000D02*
X166595000Y-38425000D01*
X166595000Y-36775000D01*
X167945000Y-36775000D01*
X167945000Y-38425000D01*
G36*
X167945000Y-38425000D02*
G01*
X166595000Y-38425000D01*
X166595000Y-36775000D01*
X167945000Y-36775000D01*
X167945000Y-38425000D01*
G37*
X169965000Y-32905000D02*
X168615000Y-32905000D01*
X168615000Y-31255000D01*
X169965000Y-31255000D01*
X169965000Y-32905000D01*
G36*
X169965000Y-32905000D02*
G01*
X168615000Y-32905000D01*
X168615000Y-31255000D01*
X169965000Y-31255000D01*
X169965000Y-32905000D01*
G37*
X169965000Y-35665000D02*
X168615000Y-35665000D01*
X168615000Y-34015000D01*
X169965000Y-34015000D01*
X169965000Y-35665000D01*
G36*
X169965000Y-35665000D02*
G01*
X168615000Y-35665000D01*
X168615000Y-34015000D01*
X169965000Y-34015000D01*
X169965000Y-35665000D01*
G37*
X169965000Y-38425000D02*
X168615000Y-38425000D01*
X168615000Y-36775000D01*
X169965000Y-36775000D01*
X169965000Y-38425000D01*
G36*
X169965000Y-38425000D02*
G01*
X168615000Y-38425000D01*
X168615000Y-36775000D01*
X169965000Y-36775000D01*
X169965000Y-38425000D01*
G37*
X171985000Y-32905000D02*
X170635000Y-32905000D01*
X170635000Y-31255000D01*
X171985000Y-31255000D01*
X171985000Y-32905000D01*
G36*
X171985000Y-32905000D02*
G01*
X170635000Y-32905000D01*
X170635000Y-31255000D01*
X171985000Y-31255000D01*
X171985000Y-32905000D01*
G37*
X171985000Y-35665000D02*
X170635000Y-35665000D01*
X170635000Y-34015000D01*
X171985000Y-34015000D01*
X171985000Y-35665000D01*
G36*
X171985000Y-35665000D02*
G01*
X170635000Y-35665000D01*
X170635000Y-34015000D01*
X171985000Y-34015000D01*
X171985000Y-35665000D01*
G37*
X171985000Y-38425000D02*
X170635000Y-38425000D01*
X170635000Y-36775000D01*
X171985000Y-36775000D01*
X171985000Y-38425000D01*
G36*
X171985000Y-38425000D02*
G01*
X170635000Y-38425000D01*
X170635000Y-36775000D01*
X171985000Y-36775000D01*
X171985000Y-38425000D01*
G37*
X174005000Y-32905000D02*
X172655000Y-32905000D01*
X172655000Y-31255000D01*
X174005000Y-31255000D01*
X174005000Y-32905000D01*
G36*
X174005000Y-32905000D02*
G01*
X172655000Y-32905000D01*
X172655000Y-31255000D01*
X174005000Y-31255000D01*
X174005000Y-32905000D01*
G37*
X174005000Y-35665000D02*
X172655000Y-35665000D01*
X172655000Y-34015000D01*
X174005000Y-34015000D01*
X174005000Y-35665000D01*
G36*
X174005000Y-35665000D02*
G01*
X172655000Y-35665000D01*
X172655000Y-34015000D01*
X174005000Y-34015000D01*
X174005000Y-35665000D01*
G37*
X174005000Y-38425000D02*
X172655000Y-38425000D01*
X172655000Y-36775000D01*
X174005000Y-36775000D01*
X174005000Y-38425000D01*
G36*
X174005000Y-38425000D02*
G01*
X172655000Y-38425000D01*
X172655000Y-36775000D01*
X174005000Y-36775000D01*
X174005000Y-38425000D01*
G37*
X176025000Y-32905000D02*
X174675000Y-32905000D01*
X174675000Y-31255000D01*
X176025000Y-31255000D01*
X176025000Y-32905000D01*
G36*
X176025000Y-32905000D02*
G01*
X174675000Y-32905000D01*
X174675000Y-31255000D01*
X176025000Y-31255000D01*
X176025000Y-32905000D01*
G37*
X176025000Y-35665000D02*
X174675000Y-35665000D01*
X174675000Y-34015000D01*
X176025000Y-34015000D01*
X176025000Y-35665000D01*
G36*
X176025000Y-35665000D02*
G01*
X174675000Y-35665000D01*
X174675000Y-34015000D01*
X176025000Y-34015000D01*
X176025000Y-35665000D01*
G37*
X176025000Y-38425000D02*
X174675000Y-38425000D01*
X174675000Y-36775000D01*
X176025000Y-36775000D01*
X176025000Y-38425000D01*
G36*
X176025000Y-38425000D02*
G01*
X174675000Y-38425000D01*
X174675000Y-36775000D01*
X176025000Y-36775000D01*
X176025000Y-38425000D01*
G37*
%TO.C,U12*%
X110065000Y-64635000D02*
X108415000Y-64635000D01*
X108415000Y-63285000D01*
X110065000Y-63285000D01*
X110065000Y-64635000D01*
G36*
X110065000Y-64635000D02*
G01*
X108415000Y-64635000D01*
X108415000Y-63285000D01*
X110065000Y-63285000D01*
X110065000Y-64635000D01*
G37*
X110065000Y-66655000D02*
X108415000Y-66655000D01*
X108415000Y-65305000D01*
X110065000Y-65305000D01*
X110065000Y-66655000D01*
G36*
X110065000Y-66655000D02*
G01*
X108415000Y-66655000D01*
X108415000Y-65305000D01*
X110065000Y-65305000D01*
X110065000Y-66655000D01*
G37*
X110065000Y-68675000D02*
X108415000Y-68675000D01*
X108415000Y-67325000D01*
X110065000Y-67325000D01*
X110065000Y-68675000D01*
G36*
X110065000Y-68675000D02*
G01*
X108415000Y-68675000D01*
X108415000Y-67325000D01*
X110065000Y-67325000D01*
X110065000Y-68675000D01*
G37*
X110065000Y-70695000D02*
X108415000Y-70695000D01*
X108415000Y-69345000D01*
X110065000Y-69345000D01*
X110065000Y-70695000D01*
G36*
X110065000Y-70695000D02*
G01*
X108415000Y-70695000D01*
X108415000Y-69345000D01*
X110065000Y-69345000D01*
X110065000Y-70695000D01*
G37*
X110065000Y-72715000D02*
X108415000Y-72715000D01*
X108415000Y-71365000D01*
X110065000Y-71365000D01*
X110065000Y-72715000D01*
G36*
X110065000Y-72715000D02*
G01*
X108415000Y-72715000D01*
X108415000Y-71365000D01*
X110065000Y-71365000D01*
X110065000Y-72715000D01*
G37*
X112825000Y-64635000D02*
X111175000Y-64635000D01*
X111175000Y-63285000D01*
X112825000Y-63285000D01*
X112825000Y-64635000D01*
G36*
X112825000Y-64635000D02*
G01*
X111175000Y-64635000D01*
X111175000Y-63285000D01*
X112825000Y-63285000D01*
X112825000Y-64635000D01*
G37*
X112825000Y-66655000D02*
X111175000Y-66655000D01*
X111175000Y-65305000D01*
X112825000Y-65305000D01*
X112825000Y-66655000D01*
G36*
X112825000Y-66655000D02*
G01*
X111175000Y-66655000D01*
X111175000Y-65305000D01*
X112825000Y-65305000D01*
X112825000Y-66655000D01*
G37*
X112825000Y-68675000D02*
X111175000Y-68675000D01*
X111175000Y-67325000D01*
X112825000Y-67325000D01*
X112825000Y-68675000D01*
G36*
X112825000Y-68675000D02*
G01*
X111175000Y-68675000D01*
X111175000Y-67325000D01*
X112825000Y-67325000D01*
X112825000Y-68675000D01*
G37*
X112825000Y-70695000D02*
X111175000Y-70695000D01*
X111175000Y-69345000D01*
X112825000Y-69345000D01*
X112825000Y-70695000D01*
G36*
X112825000Y-70695000D02*
G01*
X111175000Y-70695000D01*
X111175000Y-69345000D01*
X112825000Y-69345000D01*
X112825000Y-70695000D01*
G37*
X112825000Y-72715000D02*
X111175000Y-72715000D01*
X111175000Y-71365000D01*
X112825000Y-71365000D01*
X112825000Y-72715000D01*
G36*
X112825000Y-72715000D02*
G01*
X111175000Y-72715000D01*
X111175000Y-71365000D01*
X112825000Y-71365000D01*
X112825000Y-72715000D01*
G37*
X115585000Y-64635000D02*
X113935000Y-64635000D01*
X113935000Y-63285000D01*
X115585000Y-63285000D01*
X115585000Y-64635000D01*
G36*
X115585000Y-64635000D02*
G01*
X113935000Y-64635000D01*
X113935000Y-63285000D01*
X115585000Y-63285000D01*
X115585000Y-64635000D01*
G37*
X115585000Y-66655000D02*
X113935000Y-66655000D01*
X113935000Y-65305000D01*
X115585000Y-65305000D01*
X115585000Y-66655000D01*
G36*
X115585000Y-66655000D02*
G01*
X113935000Y-66655000D01*
X113935000Y-65305000D01*
X115585000Y-65305000D01*
X115585000Y-66655000D01*
G37*
X115585000Y-68675000D02*
X113935000Y-68675000D01*
X113935000Y-67325000D01*
X115585000Y-67325000D01*
X115585000Y-68675000D01*
G36*
X115585000Y-68675000D02*
G01*
X113935000Y-68675000D01*
X113935000Y-67325000D01*
X115585000Y-67325000D01*
X115585000Y-68675000D01*
G37*
X115585000Y-70695000D02*
X113935000Y-70695000D01*
X113935000Y-69345000D01*
X115585000Y-69345000D01*
X115585000Y-70695000D01*
G36*
X115585000Y-70695000D02*
G01*
X113935000Y-70695000D01*
X113935000Y-69345000D01*
X115585000Y-69345000D01*
X115585000Y-70695000D01*
G37*
X115585000Y-72715000D02*
X113935000Y-72715000D01*
X113935000Y-71365000D01*
X115585000Y-71365000D01*
X115585000Y-72715000D01*
G36*
X115585000Y-72715000D02*
G01*
X113935000Y-72715000D01*
X113935000Y-71365000D01*
X115585000Y-71365000D01*
X115585000Y-72715000D01*
G37*
%TO.C,U10*%
X109905000Y-52735000D02*
X108255000Y-52735000D01*
X108255000Y-51385000D01*
X109905000Y-51385000D01*
X109905000Y-52735000D01*
G36*
X109905000Y-52735000D02*
G01*
X108255000Y-52735000D01*
X108255000Y-51385000D01*
X109905000Y-51385000D01*
X109905000Y-52735000D01*
G37*
X109905000Y-54755000D02*
X108255000Y-54755000D01*
X108255000Y-53405000D01*
X109905000Y-53405000D01*
X109905000Y-54755000D01*
G36*
X109905000Y-54755000D02*
G01*
X108255000Y-54755000D01*
X108255000Y-53405000D01*
X109905000Y-53405000D01*
X109905000Y-54755000D01*
G37*
X109905000Y-56775000D02*
X108255000Y-56775000D01*
X108255000Y-55425000D01*
X109905000Y-55425000D01*
X109905000Y-56775000D01*
G36*
X109905000Y-56775000D02*
G01*
X108255000Y-56775000D01*
X108255000Y-55425000D01*
X109905000Y-55425000D01*
X109905000Y-56775000D01*
G37*
X109905000Y-58795000D02*
X108255000Y-58795000D01*
X108255000Y-57445000D01*
X109905000Y-57445000D01*
X109905000Y-58795000D01*
G36*
X109905000Y-58795000D02*
G01*
X108255000Y-58795000D01*
X108255000Y-57445000D01*
X109905000Y-57445000D01*
X109905000Y-58795000D01*
G37*
X109905000Y-60815000D02*
X108255000Y-60815000D01*
X108255000Y-59465000D01*
X109905000Y-59465000D01*
X109905000Y-60815000D01*
G36*
X109905000Y-60815000D02*
G01*
X108255000Y-60815000D01*
X108255000Y-59465000D01*
X109905000Y-59465000D01*
X109905000Y-60815000D01*
G37*
X112665000Y-52735000D02*
X111015000Y-52735000D01*
X111015000Y-51385000D01*
X112665000Y-51385000D01*
X112665000Y-52735000D01*
G36*
X112665000Y-52735000D02*
G01*
X111015000Y-52735000D01*
X111015000Y-51385000D01*
X112665000Y-51385000D01*
X112665000Y-52735000D01*
G37*
X112665000Y-54755000D02*
X111015000Y-54755000D01*
X111015000Y-53405000D01*
X112665000Y-53405000D01*
X112665000Y-54755000D01*
G36*
X112665000Y-54755000D02*
G01*
X111015000Y-54755000D01*
X111015000Y-53405000D01*
X112665000Y-53405000D01*
X112665000Y-54755000D01*
G37*
X112665000Y-56775000D02*
X111015000Y-56775000D01*
X111015000Y-55425000D01*
X112665000Y-55425000D01*
X112665000Y-56775000D01*
G36*
X112665000Y-56775000D02*
G01*
X111015000Y-56775000D01*
X111015000Y-55425000D01*
X112665000Y-55425000D01*
X112665000Y-56775000D01*
G37*
X112665000Y-58795000D02*
X111015000Y-58795000D01*
X111015000Y-57445000D01*
X112665000Y-57445000D01*
X112665000Y-58795000D01*
G36*
X112665000Y-58795000D02*
G01*
X111015000Y-58795000D01*
X111015000Y-57445000D01*
X112665000Y-57445000D01*
X112665000Y-58795000D01*
G37*
X112665000Y-60815000D02*
X111015000Y-60815000D01*
X111015000Y-59465000D01*
X112665000Y-59465000D01*
X112665000Y-60815000D01*
G36*
X112665000Y-60815000D02*
G01*
X111015000Y-60815000D01*
X111015000Y-59465000D01*
X112665000Y-59465000D01*
X112665000Y-60815000D01*
G37*
X115425000Y-52735000D02*
X113775000Y-52735000D01*
X113775000Y-51385000D01*
X115425000Y-51385000D01*
X115425000Y-52735000D01*
G36*
X115425000Y-52735000D02*
G01*
X113775000Y-52735000D01*
X113775000Y-51385000D01*
X115425000Y-51385000D01*
X115425000Y-52735000D01*
G37*
X115425000Y-54755000D02*
X113775000Y-54755000D01*
X113775000Y-53405000D01*
X115425000Y-53405000D01*
X115425000Y-54755000D01*
G36*
X115425000Y-54755000D02*
G01*
X113775000Y-54755000D01*
X113775000Y-53405000D01*
X115425000Y-53405000D01*
X115425000Y-54755000D01*
G37*
X115425000Y-56775000D02*
X113775000Y-56775000D01*
X113775000Y-55425000D01*
X115425000Y-55425000D01*
X115425000Y-56775000D01*
G36*
X115425000Y-56775000D02*
G01*
X113775000Y-56775000D01*
X113775000Y-55425000D01*
X115425000Y-55425000D01*
X115425000Y-56775000D01*
G37*
X115425000Y-58795000D02*
X113775000Y-58795000D01*
X113775000Y-57445000D01*
X115425000Y-57445000D01*
X115425000Y-58795000D01*
G36*
X115425000Y-58795000D02*
G01*
X113775000Y-58795000D01*
X113775000Y-57445000D01*
X115425000Y-57445000D01*
X115425000Y-58795000D01*
G37*
X115425000Y-60815000D02*
X113775000Y-60815000D01*
X113775000Y-59465000D01*
X115425000Y-59465000D01*
X115425000Y-60815000D01*
G36*
X115425000Y-60815000D02*
G01*
X113775000Y-60815000D01*
X113775000Y-59465000D01*
X115425000Y-59465000D01*
X115425000Y-60815000D01*
G37*
%TO.C,U11*%
X109905000Y-76135000D02*
X108255000Y-76135000D01*
X108255000Y-74785000D01*
X109905000Y-74785000D01*
X109905000Y-76135000D01*
G36*
X109905000Y-76135000D02*
G01*
X108255000Y-76135000D01*
X108255000Y-74785000D01*
X109905000Y-74785000D01*
X109905000Y-76135000D01*
G37*
X109905000Y-78155000D02*
X108255000Y-78155000D01*
X108255000Y-76805000D01*
X109905000Y-76805000D01*
X109905000Y-78155000D01*
G36*
X109905000Y-78155000D02*
G01*
X108255000Y-78155000D01*
X108255000Y-76805000D01*
X109905000Y-76805000D01*
X109905000Y-78155000D01*
G37*
X109905000Y-80175000D02*
X108255000Y-80175000D01*
X108255000Y-78825000D01*
X109905000Y-78825000D01*
X109905000Y-80175000D01*
G36*
X109905000Y-80175000D02*
G01*
X108255000Y-80175000D01*
X108255000Y-78825000D01*
X109905000Y-78825000D01*
X109905000Y-80175000D01*
G37*
X109905000Y-82195000D02*
X108255000Y-82195000D01*
X108255000Y-80845000D01*
X109905000Y-80845000D01*
X109905000Y-82195000D01*
G36*
X109905000Y-82195000D02*
G01*
X108255000Y-82195000D01*
X108255000Y-80845000D01*
X109905000Y-80845000D01*
X109905000Y-82195000D01*
G37*
X109905000Y-84215000D02*
X108255000Y-84215000D01*
X108255000Y-82865000D01*
X109905000Y-82865000D01*
X109905000Y-84215000D01*
G36*
X109905000Y-84215000D02*
G01*
X108255000Y-84215000D01*
X108255000Y-82865000D01*
X109905000Y-82865000D01*
X109905000Y-84215000D01*
G37*
X112665000Y-76135000D02*
X111015000Y-76135000D01*
X111015000Y-74785000D01*
X112665000Y-74785000D01*
X112665000Y-76135000D01*
G36*
X112665000Y-76135000D02*
G01*
X111015000Y-76135000D01*
X111015000Y-74785000D01*
X112665000Y-74785000D01*
X112665000Y-76135000D01*
G37*
X112665000Y-78155000D02*
X111015000Y-78155000D01*
X111015000Y-76805000D01*
X112665000Y-76805000D01*
X112665000Y-78155000D01*
G36*
X112665000Y-78155000D02*
G01*
X111015000Y-78155000D01*
X111015000Y-76805000D01*
X112665000Y-76805000D01*
X112665000Y-78155000D01*
G37*
X112665000Y-80175000D02*
X111015000Y-80175000D01*
X111015000Y-78825000D01*
X112665000Y-78825000D01*
X112665000Y-80175000D01*
G36*
X112665000Y-80175000D02*
G01*
X111015000Y-80175000D01*
X111015000Y-78825000D01*
X112665000Y-78825000D01*
X112665000Y-80175000D01*
G37*
X112665000Y-82195000D02*
X111015000Y-82195000D01*
X111015000Y-80845000D01*
X112665000Y-80845000D01*
X112665000Y-82195000D01*
G36*
X112665000Y-82195000D02*
G01*
X111015000Y-82195000D01*
X111015000Y-80845000D01*
X112665000Y-80845000D01*
X112665000Y-82195000D01*
G37*
X112665000Y-84215000D02*
X111015000Y-84215000D01*
X111015000Y-82865000D01*
X112665000Y-82865000D01*
X112665000Y-84215000D01*
G36*
X112665000Y-84215000D02*
G01*
X111015000Y-84215000D01*
X111015000Y-82865000D01*
X112665000Y-82865000D01*
X112665000Y-84215000D01*
G37*
X115425000Y-76135000D02*
X113775000Y-76135000D01*
X113775000Y-74785000D01*
X115425000Y-74785000D01*
X115425000Y-76135000D01*
G36*
X115425000Y-76135000D02*
G01*
X113775000Y-76135000D01*
X113775000Y-74785000D01*
X115425000Y-74785000D01*
X115425000Y-76135000D01*
G37*
X115425000Y-78155000D02*
X113775000Y-78155000D01*
X113775000Y-76805000D01*
X115425000Y-76805000D01*
X115425000Y-78155000D01*
G36*
X115425000Y-78155000D02*
G01*
X113775000Y-78155000D01*
X113775000Y-76805000D01*
X115425000Y-76805000D01*
X115425000Y-78155000D01*
G37*
X115425000Y-80175000D02*
X113775000Y-80175000D01*
X113775000Y-78825000D01*
X115425000Y-78825000D01*
X115425000Y-80175000D01*
G36*
X115425000Y-80175000D02*
G01*
X113775000Y-80175000D01*
X113775000Y-78825000D01*
X115425000Y-78825000D01*
X115425000Y-80175000D01*
G37*
X115425000Y-82195000D02*
X113775000Y-82195000D01*
X113775000Y-80845000D01*
X115425000Y-80845000D01*
X115425000Y-82195000D01*
G36*
X115425000Y-82195000D02*
G01*
X113775000Y-82195000D01*
X113775000Y-80845000D01*
X115425000Y-80845000D01*
X115425000Y-82195000D01*
G37*
X115425000Y-84215000D02*
X113775000Y-84215000D01*
X113775000Y-82865000D01*
X115425000Y-82865000D01*
X115425000Y-84215000D01*
G36*
X115425000Y-84215000D02*
G01*
X113775000Y-84215000D01*
X113775000Y-82865000D01*
X115425000Y-82865000D01*
X115425000Y-84215000D01*
G37*
%TO.C,U6*%
X156315000Y-32905000D02*
X154965000Y-32905000D01*
X154965000Y-31255000D01*
X156315000Y-31255000D01*
X156315000Y-32905000D01*
G36*
X156315000Y-32905000D02*
G01*
X154965000Y-32905000D01*
X154965000Y-31255000D01*
X156315000Y-31255000D01*
X156315000Y-32905000D01*
G37*
X156315000Y-35665000D02*
X154965000Y-35665000D01*
X154965000Y-34015000D01*
X156315000Y-34015000D01*
X156315000Y-35665000D01*
G36*
X156315000Y-35665000D02*
G01*
X154965000Y-35665000D01*
X154965000Y-34015000D01*
X156315000Y-34015000D01*
X156315000Y-35665000D01*
G37*
X156315000Y-38425000D02*
X154965000Y-38425000D01*
X154965000Y-36775000D01*
X156315000Y-36775000D01*
X156315000Y-38425000D01*
G36*
X156315000Y-38425000D02*
G01*
X154965000Y-38425000D01*
X154965000Y-36775000D01*
X156315000Y-36775000D01*
X156315000Y-38425000D01*
G37*
X158335000Y-32905000D02*
X156985000Y-32905000D01*
X156985000Y-31255000D01*
X158335000Y-31255000D01*
X158335000Y-32905000D01*
G36*
X158335000Y-32905000D02*
G01*
X156985000Y-32905000D01*
X156985000Y-31255000D01*
X158335000Y-31255000D01*
X158335000Y-32905000D01*
G37*
X158335000Y-35665000D02*
X156985000Y-35665000D01*
X156985000Y-34015000D01*
X158335000Y-34015000D01*
X158335000Y-35665000D01*
G36*
X158335000Y-35665000D02*
G01*
X156985000Y-35665000D01*
X156985000Y-34015000D01*
X158335000Y-34015000D01*
X158335000Y-35665000D01*
G37*
X158335000Y-38425000D02*
X156985000Y-38425000D01*
X156985000Y-36775000D01*
X158335000Y-36775000D01*
X158335000Y-38425000D01*
G36*
X158335000Y-38425000D02*
G01*
X156985000Y-38425000D01*
X156985000Y-36775000D01*
X158335000Y-36775000D01*
X158335000Y-38425000D01*
G37*
X160355000Y-32905000D02*
X159005000Y-32905000D01*
X159005000Y-31255000D01*
X160355000Y-31255000D01*
X160355000Y-32905000D01*
G36*
X160355000Y-32905000D02*
G01*
X159005000Y-32905000D01*
X159005000Y-31255000D01*
X160355000Y-31255000D01*
X160355000Y-32905000D01*
G37*
X160355000Y-35665000D02*
X159005000Y-35665000D01*
X159005000Y-34015000D01*
X160355000Y-34015000D01*
X160355000Y-35665000D01*
G36*
X160355000Y-35665000D02*
G01*
X159005000Y-35665000D01*
X159005000Y-34015000D01*
X160355000Y-34015000D01*
X160355000Y-35665000D01*
G37*
X160355000Y-38425000D02*
X159005000Y-38425000D01*
X159005000Y-36775000D01*
X160355000Y-36775000D01*
X160355000Y-38425000D01*
G36*
X160355000Y-38425000D02*
G01*
X159005000Y-38425000D01*
X159005000Y-36775000D01*
X160355000Y-36775000D01*
X160355000Y-38425000D01*
G37*
X162375000Y-32905000D02*
X161025000Y-32905000D01*
X161025000Y-31255000D01*
X162375000Y-31255000D01*
X162375000Y-32905000D01*
G36*
X162375000Y-32905000D02*
G01*
X161025000Y-32905000D01*
X161025000Y-31255000D01*
X162375000Y-31255000D01*
X162375000Y-32905000D01*
G37*
X162375000Y-35665000D02*
X161025000Y-35665000D01*
X161025000Y-34015000D01*
X162375000Y-34015000D01*
X162375000Y-35665000D01*
G36*
X162375000Y-35665000D02*
G01*
X161025000Y-35665000D01*
X161025000Y-34015000D01*
X162375000Y-34015000D01*
X162375000Y-35665000D01*
G37*
X162375000Y-38425000D02*
X161025000Y-38425000D01*
X161025000Y-36775000D01*
X162375000Y-36775000D01*
X162375000Y-38425000D01*
G36*
X162375000Y-38425000D02*
G01*
X161025000Y-38425000D01*
X161025000Y-36775000D01*
X162375000Y-36775000D01*
X162375000Y-38425000D01*
G37*
X164395000Y-32905000D02*
X163045000Y-32905000D01*
X163045000Y-31255000D01*
X164395000Y-31255000D01*
X164395000Y-32905000D01*
G36*
X164395000Y-32905000D02*
G01*
X163045000Y-32905000D01*
X163045000Y-31255000D01*
X164395000Y-31255000D01*
X164395000Y-32905000D01*
G37*
X164395000Y-35665000D02*
X163045000Y-35665000D01*
X163045000Y-34015000D01*
X164395000Y-34015000D01*
X164395000Y-35665000D01*
G36*
X164395000Y-35665000D02*
G01*
X163045000Y-35665000D01*
X163045000Y-34015000D01*
X164395000Y-34015000D01*
X164395000Y-35665000D01*
G37*
X164395000Y-38425000D02*
X163045000Y-38425000D01*
X163045000Y-36775000D01*
X164395000Y-36775000D01*
X164395000Y-38425000D01*
G36*
X164395000Y-38425000D02*
G01*
X163045000Y-38425000D01*
X163045000Y-36775000D01*
X164395000Y-36775000D01*
X164395000Y-38425000D01*
G37*
%TO.C,U3*%
X144685000Y-32905000D02*
X143335000Y-32905000D01*
X143335000Y-31255000D01*
X144685000Y-31255000D01*
X144685000Y-32905000D01*
G36*
X144685000Y-32905000D02*
G01*
X143335000Y-32905000D01*
X143335000Y-31255000D01*
X144685000Y-31255000D01*
X144685000Y-32905000D01*
G37*
X144685000Y-35665000D02*
X143335000Y-35665000D01*
X143335000Y-34015000D01*
X144685000Y-34015000D01*
X144685000Y-35665000D01*
G36*
X144685000Y-35665000D02*
G01*
X143335000Y-35665000D01*
X143335000Y-34015000D01*
X144685000Y-34015000D01*
X144685000Y-35665000D01*
G37*
X144685000Y-38425000D02*
X143335000Y-38425000D01*
X143335000Y-36775000D01*
X144685000Y-36775000D01*
X144685000Y-38425000D01*
G36*
X144685000Y-38425000D02*
G01*
X143335000Y-38425000D01*
X143335000Y-36775000D01*
X144685000Y-36775000D01*
X144685000Y-38425000D01*
G37*
X146705000Y-32905000D02*
X145355000Y-32905000D01*
X145355000Y-31255000D01*
X146705000Y-31255000D01*
X146705000Y-32905000D01*
G36*
X146705000Y-32905000D02*
G01*
X145355000Y-32905000D01*
X145355000Y-31255000D01*
X146705000Y-31255000D01*
X146705000Y-32905000D01*
G37*
X146705000Y-35665000D02*
X145355000Y-35665000D01*
X145355000Y-34015000D01*
X146705000Y-34015000D01*
X146705000Y-35665000D01*
G36*
X146705000Y-35665000D02*
G01*
X145355000Y-35665000D01*
X145355000Y-34015000D01*
X146705000Y-34015000D01*
X146705000Y-35665000D01*
G37*
X146705000Y-38425000D02*
X145355000Y-38425000D01*
X145355000Y-36775000D01*
X146705000Y-36775000D01*
X146705000Y-38425000D01*
G36*
X146705000Y-38425000D02*
G01*
X145355000Y-38425000D01*
X145355000Y-36775000D01*
X146705000Y-36775000D01*
X146705000Y-38425000D01*
G37*
X148725000Y-32905000D02*
X147375000Y-32905000D01*
X147375000Y-31255000D01*
X148725000Y-31255000D01*
X148725000Y-32905000D01*
G36*
X148725000Y-32905000D02*
G01*
X147375000Y-32905000D01*
X147375000Y-31255000D01*
X148725000Y-31255000D01*
X148725000Y-32905000D01*
G37*
X148725000Y-35665000D02*
X147375000Y-35665000D01*
X147375000Y-34015000D01*
X148725000Y-34015000D01*
X148725000Y-35665000D01*
G36*
X148725000Y-35665000D02*
G01*
X147375000Y-35665000D01*
X147375000Y-34015000D01*
X148725000Y-34015000D01*
X148725000Y-35665000D01*
G37*
X148725000Y-38425000D02*
X147375000Y-38425000D01*
X147375000Y-36775000D01*
X148725000Y-36775000D01*
X148725000Y-38425000D01*
G36*
X148725000Y-38425000D02*
G01*
X147375000Y-38425000D01*
X147375000Y-36775000D01*
X148725000Y-36775000D01*
X148725000Y-38425000D01*
G37*
X150745000Y-32905000D02*
X149395000Y-32905000D01*
X149395000Y-31255000D01*
X150745000Y-31255000D01*
X150745000Y-32905000D01*
G36*
X150745000Y-32905000D02*
G01*
X149395000Y-32905000D01*
X149395000Y-31255000D01*
X150745000Y-31255000D01*
X150745000Y-32905000D01*
G37*
X150745000Y-35665000D02*
X149395000Y-35665000D01*
X149395000Y-34015000D01*
X150745000Y-34015000D01*
X150745000Y-35665000D01*
G36*
X150745000Y-35665000D02*
G01*
X149395000Y-35665000D01*
X149395000Y-34015000D01*
X150745000Y-34015000D01*
X150745000Y-35665000D01*
G37*
X150745000Y-38425000D02*
X149395000Y-38425000D01*
X149395000Y-36775000D01*
X150745000Y-36775000D01*
X150745000Y-38425000D01*
G36*
X150745000Y-38425000D02*
G01*
X149395000Y-38425000D01*
X149395000Y-36775000D01*
X150745000Y-36775000D01*
X150745000Y-38425000D01*
G37*
X152765000Y-32905000D02*
X151415000Y-32905000D01*
X151415000Y-31255000D01*
X152765000Y-31255000D01*
X152765000Y-32905000D01*
G36*
X152765000Y-32905000D02*
G01*
X151415000Y-32905000D01*
X151415000Y-31255000D01*
X152765000Y-31255000D01*
X152765000Y-32905000D01*
G37*
X152765000Y-35665000D02*
X151415000Y-35665000D01*
X151415000Y-34015000D01*
X152765000Y-34015000D01*
X152765000Y-35665000D01*
G36*
X152765000Y-35665000D02*
G01*
X151415000Y-35665000D01*
X151415000Y-34015000D01*
X152765000Y-34015000D01*
X152765000Y-35665000D01*
G37*
X152765000Y-38425000D02*
X151415000Y-38425000D01*
X151415000Y-36775000D01*
X152765000Y-36775000D01*
X152765000Y-38425000D01*
G36*
X152765000Y-38425000D02*
G01*
X151415000Y-38425000D01*
X151415000Y-36775000D01*
X152765000Y-36775000D01*
X152765000Y-38425000D01*
G37*
%TD*%
D11*
%TO.C,R26*%
X126650000Y-91500000D03*
X125000000Y-91500000D03*
%TD*%
D12*
%TO.C,C31*%
X177111286Y-59743713D03*
X175561286Y-59743713D03*
%TD*%
D13*
%TO.C,R11*%
X160680000Y-49840000D03*
X160680000Y-48190000D03*
%TD*%
D14*
%TO.C,U14*%
X137024886Y-98743713D03*
X139336286Y-98743713D03*
X141647686Y-98743713D03*
D15*
X139336286Y-92342913D03*
%TD*%
D16*
%TO.C,R36*%
X125175000Y-76270000D03*
X126825000Y-76270000D03*
%TD*%
D11*
%TO.C,R37*%
X152161286Y-104743713D03*
X150511286Y-104743713D03*
%TD*%
D12*
%TO.C,C22*%
X164111286Y-102243713D03*
X162561286Y-102243713D03*
%TD*%
D17*
%TO.C,C20*%
X128500000Y-78820000D03*
X128500000Y-77270000D03*
%TD*%
D18*
%TO.C,D3*%
X184236286Y-102743713D03*
X181436286Y-102743713D03*
%TD*%
D19*
%TO.C,U8*%
X180723786Y-121593713D03*
D20*
X181261286Y-121668713D03*
D19*
X181798786Y-121593713D03*
X181798786Y-119893713D03*
D20*
X181261286Y-119818713D03*
D19*
X180723786Y-119893713D03*
%TD*%
D13*
%TO.C,R9*%
X137680000Y-49840000D03*
X137680000Y-48190000D03*
%TD*%
D11*
%TO.C,R27*%
X126825000Y-82270000D03*
X125175000Y-82270000D03*
%TD*%
D13*
%TO.C,R13*%
X139680000Y-49840000D03*
X139680000Y-48190000D03*
%TD*%
D21*
%TO.C,R14*%
X151180000Y-48190000D03*
X151180000Y-49840000D03*
%TD*%
D12*
%TO.C,C33*%
X144571286Y-81503713D03*
X143021286Y-81503713D03*
%TD*%
D17*
%TO.C,C2*%
X152000000Y-59275000D03*
X152000000Y-57725000D03*
%TD*%
%TO.C,C24*%
X103000000Y-101050000D03*
X103000000Y-99500000D03*
%TD*%
D22*
%TO.C,D1*%
X142646286Y-123758713D03*
X142646286Y-119408713D03*
%TD*%
D17*
%TO.C,C26*%
X103000000Y-62500000D03*
X103000000Y-60950000D03*
%TD*%
D23*
%TO.C,C11*%
X116225000Y-43000000D03*
X117775000Y-43000000D03*
%TD*%
D16*
%TO.C,R20*%
X150511286Y-102743713D03*
X152161286Y-102743713D03*
%TD*%
D11*
%TO.C,R21*%
X126660000Y-70640000D03*
X125010000Y-70640000D03*
%TD*%
%TO.C,R25*%
X126650000Y-93500000D03*
X125000000Y-93500000D03*
%TD*%
D13*
%TO.C,R1*%
X133180000Y-49840000D03*
X133180000Y-48190000D03*
%TD*%
D24*
%TO.C,C29*%
X146000000Y-72800000D03*
X146000000Y-69200000D03*
%TD*%
D13*
%TO.C,R10*%
X149180000Y-49840000D03*
X149180000Y-48190000D03*
%TD*%
D25*
%TO.C,U13*%
X121500000Y-94800000D03*
X121500000Y-93530000D03*
X121500000Y-92260000D03*
X121500000Y-90990000D03*
X121500000Y-89720000D03*
X121500000Y-88450000D03*
X121500000Y-87180000D03*
%TD*%
D26*
%TO.C,C30*%
X149836286Y-70468713D03*
X149836286Y-72018713D03*
%TD*%
D27*
%TO.C,Y1*%
X147521286Y-79253713D03*
X147521286Y-81753713D03*
%TD*%
D13*
%TO.C,R5*%
X156180000Y-49840000D03*
X156180000Y-48190000D03*
%TD*%
D28*
%TO.C,U5*%
X132610000Y-44500000D03*
X133880000Y-44500000D03*
X135150000Y-44500000D03*
X136420000Y-44500000D03*
X137690000Y-44500000D03*
X138960000Y-44500000D03*
X140230000Y-44500000D03*
%TD*%
D11*
%TO.C,R32*%
X126825000Y-78270000D03*
X125175000Y-78270000D03*
%TD*%
D21*
%TO.C,R39*%
X161836286Y-90243713D03*
X161836286Y-91893713D03*
%TD*%
D12*
%TO.C,C16*%
X164111286Y-104243713D03*
X162561286Y-104243713D03*
%TD*%
%TO.C,C12*%
X189500000Y-43000000D03*
X187950000Y-43000000D03*
%TD*%
D13*
%TO.C,R12*%
X172680000Y-49840000D03*
X172680000Y-48190000D03*
%TD*%
D16*
%TO.C,R19*%
X150511286Y-106743713D03*
X152161286Y-106743713D03*
%TD*%
D28*
%TO.C,U4*%
X167500000Y-44500000D03*
X168770000Y-44500000D03*
X170040000Y-44500000D03*
X171310000Y-44500000D03*
X172580000Y-44500000D03*
X173850000Y-44500000D03*
X175120000Y-44500000D03*
%TD*%
D16*
%TO.C,R34*%
X124675000Y-52500000D03*
X126325000Y-52500000D03*
%TD*%
D29*
%TO.C,U15*%
X152871286Y-70483713D03*
X152871286Y-71753713D03*
X152871286Y-73023713D03*
X152871286Y-74293713D03*
X152871286Y-75563713D03*
X152871286Y-76833713D03*
X152871286Y-78103713D03*
X152871286Y-79373713D03*
X152871286Y-80643713D03*
X152871286Y-81913713D03*
X152871286Y-83183713D03*
X152871286Y-84453713D03*
X152871286Y-85723713D03*
X152871286Y-86993713D03*
D30*
X154636286Y-88243713D03*
X155906286Y-88243713D03*
X157176286Y-88243713D03*
X158446286Y-88243713D03*
X159716286Y-88243713D03*
X160986286Y-88243713D03*
X162256286Y-88243713D03*
X163526286Y-88243713D03*
X164796286Y-88243713D03*
X166066286Y-88243713D03*
X167336286Y-88243713D03*
X168606286Y-88243713D03*
D29*
X170371286Y-86993713D03*
X170371286Y-85723713D03*
X170371286Y-84453713D03*
X170371286Y-83183713D03*
X170371286Y-81913713D03*
X170371286Y-80643713D03*
X170371286Y-79373713D03*
X170371286Y-78103713D03*
X170371286Y-76833713D03*
X170371286Y-75563713D03*
X170371286Y-74293713D03*
X170371286Y-73023713D03*
X170371286Y-71753713D03*
X170371286Y-70483713D03*
D31*
X158721286Y-76803713D03*
X160121286Y-76803713D03*
X161521286Y-76803713D03*
X158721286Y-78203713D03*
X160121286Y-78203713D03*
X161521286Y-78203713D03*
X158721286Y-79603713D03*
X160121286Y-79603713D03*
X161521286Y-79603713D03*
%TD*%
D11*
%TO.C,R28*%
X126825000Y-80270000D03*
X125175000Y-80270000D03*
%TD*%
D17*
%TO.C,C18*%
X128000000Y-55275000D03*
X128000000Y-53725000D03*
%TD*%
D25*
%TO.C,U12*%
X121660000Y-71810000D03*
X121660000Y-70540000D03*
X121660000Y-69270000D03*
X121660000Y-68000000D03*
X121660000Y-66730000D03*
X121660000Y-65460000D03*
X121660000Y-64190000D03*
%TD*%
D16*
%TO.C,R38*%
X156836286Y-101243713D03*
X158486286Y-101243713D03*
%TD*%
D11*
%TO.C,R23*%
X126325000Y-58500000D03*
X124675000Y-58500000D03*
%TD*%
%TO.C,R42*%
X146661286Y-75743713D03*
X145011286Y-75743713D03*
%TD*%
%TO.C,R24*%
X126325000Y-56500000D03*
X124675000Y-56500000D03*
%TD*%
D21*
%TO.C,R16*%
X174680000Y-48190000D03*
X174680000Y-49840000D03*
%TD*%
D23*
%TO.C,C13*%
X183725000Y-43000000D03*
X185275000Y-43000000D03*
%TD*%
D13*
%TO.C,R40*%
X163836286Y-91893713D03*
X163836286Y-90243713D03*
%TD*%
D11*
%TO.C,R30*%
X126325000Y-54500000D03*
X124675000Y-54500000D03*
%TD*%
D26*
%TO.C,C25*%
X103000000Y-57215000D03*
X103000000Y-58765000D03*
%TD*%
D23*
%TO.C,C5*%
X148180000Y-51840000D03*
X149730000Y-51840000D03*
%TD*%
D32*
%TO.C,C8*%
X122900000Y-105500000D03*
X114500000Y-105500000D03*
%TD*%
D23*
%TO.C,C27*%
X140236286Y-101342913D03*
X141786286Y-101342913D03*
%TD*%
%TO.C,C6*%
X159630000Y-51840000D03*
X161180000Y-51840000D03*
%TD*%
D33*
%TO.C,U1*%
X154000000Y-63780000D03*
X154650000Y-63780000D03*
X155300000Y-63780000D03*
X155950000Y-63780000D03*
X156600000Y-63780000D03*
X157250000Y-63780000D03*
X157900000Y-63780000D03*
X158550000Y-63780000D03*
X159200000Y-63780000D03*
X159850000Y-63780000D03*
X159850000Y-58040000D03*
X159200000Y-58040000D03*
X158550000Y-58040000D03*
X157900000Y-58040000D03*
X157250000Y-58040000D03*
X156600000Y-58040000D03*
X155950000Y-58040000D03*
X155300000Y-58040000D03*
X154650000Y-58040000D03*
X154000000Y-58040000D03*
%TD*%
D11*
%TO.C,R22*%
X126660000Y-68640000D03*
X125010000Y-68640000D03*
%TD*%
D13*
%TO.C,R43*%
X102675000Y-129825000D03*
X102675000Y-128175000D03*
%TD*%
D25*
%TO.C,U10*%
X121500000Y-59910000D03*
X121500000Y-58640000D03*
X121500000Y-57370000D03*
X121500000Y-56100000D03*
X121500000Y-54830000D03*
X121500000Y-53560000D03*
X121500000Y-52290000D03*
%TD*%
D17*
%TO.C,C17*%
X128660000Y-67640000D03*
X128660000Y-66090000D03*
%TD*%
D12*
%TO.C,C21*%
X164111286Y-106243713D03*
X162561286Y-106243713D03*
%TD*%
D13*
%TO.C,R3*%
X144680000Y-49840000D03*
X144680000Y-48190000D03*
%TD*%
D17*
%TO.C,C19*%
X128500000Y-90500000D03*
X128500000Y-88950000D03*
%TD*%
D13*
%TO.C,R4*%
X146680000Y-49840000D03*
X146680000Y-48190000D03*
%TD*%
%TO.C,R15*%
X162680000Y-49840000D03*
X162680000Y-48190000D03*
%TD*%
D11*
%TO.C,R33*%
X126660000Y-64640000D03*
X125010000Y-64640000D03*
%TD*%
D13*
%TO.C,R6*%
X158180000Y-49840000D03*
X158180000Y-48190000D03*
%TD*%
D34*
%TO.C,J4*%
X178536286Y-124743713D03*
X179336286Y-124743713D03*
D35*
X180486286Y-124743713D03*
X181486286Y-124743713D03*
X181986286Y-124743713D03*
X182986286Y-124743713D03*
D34*
X184136286Y-124743713D03*
X184936286Y-124743713D03*
X184936286Y-124743713D03*
X184136286Y-124743713D03*
D35*
X183486286Y-124743713D03*
X182486286Y-124743713D03*
X180986286Y-124743713D03*
X179986286Y-124743713D03*
D34*
X179336286Y-124743713D03*
X178536286Y-124743713D03*
D36*
X177416286Y-125318713D03*
D37*
X177416286Y-129498713D03*
D36*
X186056286Y-125318713D03*
D37*
X186056286Y-129498713D03*
%TD*%
D16*
%TO.C,R41*%
X177336286Y-102743713D03*
X178986286Y-102743713D03*
%TD*%
D25*
%TO.C,U11*%
X121500000Y-83310000D03*
X121500000Y-82040000D03*
X121500000Y-80770000D03*
X121500000Y-79500000D03*
X121500000Y-78230000D03*
X121500000Y-76960000D03*
X121500000Y-75690000D03*
%TD*%
D13*
%TO.C,R17*%
X174836286Y-130568713D03*
X174836286Y-128918713D03*
%TD*%
D28*
%TO.C,U6*%
X155870000Y-44500000D03*
X157140000Y-44500000D03*
X158410000Y-44500000D03*
X159680000Y-44500000D03*
X160950000Y-44500000D03*
X162220000Y-44500000D03*
X163490000Y-44500000D03*
%TD*%
D13*
%TO.C,R2*%
X135180000Y-49840000D03*
X135180000Y-48190000D03*
%TD*%
D17*
%TO.C,C15*%
X135195000Y-60960000D03*
X135195000Y-59410000D03*
%TD*%
D23*
%TO.C,C9*%
X117950000Y-98500000D03*
X119500000Y-98500000D03*
%TD*%
%TO.C,C14*%
X184286286Y-122743713D03*
X185836286Y-122743713D03*
%TD*%
D11*
%TO.C,R29*%
X126660000Y-66640000D03*
X125010000Y-66640000D03*
%TD*%
D12*
%TO.C,C10*%
X122550000Y-43000000D03*
X121000000Y-43000000D03*
%TD*%
D38*
%TO.C,SW1*%
X185426286Y-55743713D03*
X176246286Y-55743713D03*
%TD*%
D11*
%TO.C,R35*%
X126650000Y-87500000D03*
X125000000Y-87500000D03*
%TD*%
D39*
%TO.C,C28*%
X143086286Y-105000000D03*
X139486286Y-105000000D03*
%TD*%
D11*
%TO.C,R31*%
X126650000Y-89500000D03*
X125000000Y-89500000D03*
%TD*%
D26*
%TO.C,C23*%
X103000000Y-95500000D03*
X103000000Y-97050000D03*
%TD*%
D13*
%TO.C,R18*%
X174836286Y-127243713D03*
X174836286Y-125593713D03*
%TD*%
D33*
%TO.C,U7*%
X137050000Y-65240000D03*
X137700000Y-65240000D03*
X138350000Y-65240000D03*
X139000000Y-65240000D03*
X139650000Y-65240000D03*
X140300000Y-65240000D03*
X140950000Y-65240000D03*
X141600000Y-65240000D03*
X142250000Y-65240000D03*
X142900000Y-65240000D03*
X142900000Y-59500000D03*
X142250000Y-59500000D03*
X141600000Y-59500000D03*
X140950000Y-59500000D03*
X140300000Y-59500000D03*
X139650000Y-59500000D03*
X139000000Y-59500000D03*
X138350000Y-59500000D03*
X137700000Y-59500000D03*
X137050000Y-59500000D03*
%TD*%
D23*
%TO.C,C7*%
X171680000Y-51840000D03*
X173230000Y-51840000D03*
%TD*%
D13*
%TO.C,R7*%
X168180000Y-49840000D03*
X168180000Y-48190000D03*
%TD*%
D26*
%TO.C,C3*%
X115336286Y-114468713D03*
X115336286Y-116018713D03*
%TD*%
D23*
%TO.C,C4*%
X136680000Y-51840000D03*
X138230000Y-51840000D03*
%TD*%
D12*
%TO.C,C32*%
X144571286Y-79503713D03*
X143021286Y-79503713D03*
%TD*%
D13*
%TO.C,R8*%
X170180000Y-49840000D03*
X170180000Y-48190000D03*
%TD*%
D40*
%TO.C,U9*%
X154466286Y-103268713D03*
X154466286Y-103918713D03*
X154466286Y-104568713D03*
X154466286Y-105218713D03*
X160206286Y-105218713D03*
X160206286Y-104568713D03*
X160206286Y-103918713D03*
X160206286Y-103268713D03*
%TD*%
D28*
%TO.C,U3*%
X144240000Y-44500000D03*
X145510000Y-44500000D03*
X146780000Y-44500000D03*
X148050000Y-44500000D03*
X149320000Y-44500000D03*
X150590000Y-44500000D03*
X151860000Y-44500000D03*
%TD*%
M02*
