%TF.GenerationSoftware,KiCad,Pcbnew,9.0.4-9.0.4-0~ubuntu24.04.1*%
%TF.CreationDate,2025-09-30T13:12:32+03:00*%
%TF.ProjectId,Esp32-S3-WROOM-1U-N16R8_ controller,45737033-322d-4533-932d-57524f4f4d2d,VER 1.0.0*%
%TF.SameCoordinates,Original*%
%TF.FileFunction,Copper,L4,Bot*%
%TF.FilePolarity,Positive*%
%FSLAX46Y46*%
G04 Gerber Fmt 4.6, Leading zero omitted, Abs format (unit mm)*
G04 Created by KiCad (PCBNEW 9.0.4-9.0.4-0~ubuntu24.04.1) date 2025-09-30 13:12:32*
%MOMM*%
%LPD*%
G01*
G04 APERTURE LIST*
G04 Aperture macros list*
%AMRoundRect*
0 Rectangle with rounded corners*
0 $1 Rounding radius*
0 $2 $3 $4 $5 $6 $7 $8 $9 X,Y pos of 4 corners*
0 Add a 4 corners polygon primitive as box body*
4,1,4,$2,$3,$4,$5,$6,$7,$8,$9,$2,$3,0*
0 Add four circle primitives for the rounded corners*
1,1,$1+$1,$2,$3*
1,1,$1+$1,$4,$5*
1,1,$1+$1,$6,$7*
1,1,$1+$1,$8,$9*
0 Add four rect primitives between the rounded corners*
20,1,$1+$1,$2,$3,$4,$5,0*
20,1,$1+$1,$4,$5,$6,$7,0*
20,1,$1+$1,$6,$7,$8,$9,0*
20,1,$1+$1,$8,$9,$2,$3,0*%
G04 Aperture macros list end*
%TA.AperFunction,ComponentPad*%
%ADD10C,1.701800*%
%TD*%
%TA.AperFunction,ComponentPad*%
%ADD11R,4.600000X2.000000*%
%TD*%
%TA.AperFunction,ComponentPad*%
%ADD12O,4.200000X2.000000*%
%TD*%
%TA.AperFunction,ComponentPad*%
%ADD13O,2.000000X4.200000*%
%TD*%
%TA.AperFunction,ComponentPad*%
%ADD14C,1.785000*%
%TD*%
%TA.AperFunction,ComponentPad*%
%ADD15C,2.108200*%
%TD*%
%TA.AperFunction,ComponentPad*%
%ADD16RoundRect,0.035000X1.715000X-1.782500X1.715000X1.782500X-1.715000X1.782500X-1.715000X-1.782500X0*%
%TD*%
%TA.AperFunction,ComponentPad*%
%ADD17RoundRect,0.035000X1.715000X-1.873750X1.715000X1.873750X-1.715000X1.873750X-1.715000X-1.873750X0*%
%TD*%
%TA.AperFunction,ComponentPad*%
%ADD18RoundRect,0.037500X1.837500X-1.871250X1.837500X1.871250X-1.837500X1.871250X-1.837500X-1.871250X0*%
%TD*%
%TA.AperFunction,ComponentPad*%
%ADD19C,0.400000*%
%TD*%
%TA.AperFunction,ComponentPad*%
%ADD20RoundRect,0.250001X0.949999X-0.949999X0.949999X0.949999X-0.949999X0.949999X-0.949999X-0.949999X0*%
%TD*%
%TA.AperFunction,ComponentPad*%
%ADD21C,2.400000*%
%TD*%
%TA.AperFunction,HeatsinkPad*%
%ADD22O,1.000000X2.100000*%
%TD*%
%TA.AperFunction,HeatsinkPad*%
%ADD23O,1.000000X1.800000*%
%TD*%
%TA.AperFunction,ComponentPad*%
%ADD24R,1.800000X1.800000*%
%TD*%
%TA.AperFunction,ComponentPad*%
%ADD25C,1.800000*%
%TD*%
%TA.AperFunction,ViaPad*%
%ADD26C,0.600000*%
%TD*%
%TA.AperFunction,Conductor*%
%ADD27C,2.500000*%
%TD*%
%TA.AperFunction,Conductor*%
%ADD28C,0.500000*%
%TD*%
%TA.AperFunction,Conductor*%
%ADD29C,0.400000*%
%TD*%
%TA.AperFunction,Conductor*%
%ADD30C,0.200000*%
%TD*%
%TA.AperFunction,Conductor*%
%ADD31C,0.250000*%
%TD*%
%TA.AperFunction,Conductor*%
%ADD32C,0.800000*%
%TD*%
%TA.AperFunction,Conductor*%
%ADD33C,0.300000*%
%TD*%
G04 APERTURE END LIST*
D10*
%TO.P,J8,1*%
%TO.N,/3V3*%
X187336286Y-79743713D03*
%TO.P,J8,2*%
%TO.N,/SDA*%
X187336286Y-77203713D03*
%TO.P,J8,3*%
%TO.N,/SCL*%
X187336286Y-74663713D03*
%TO.P,J8,4*%
%TO.N,GND*%
X187336286Y-72123713D03*
%TD*%
%TO.P,J7,1*%
%TO.N,/3V3*%
X187336286Y-93283713D03*
%TO.P,J7,2*%
%TO.N,/SDA*%
X187336286Y-90743713D03*
%TO.P,J7,3*%
%TO.N,/SCL*%
X187336286Y-88203713D03*
%TO.P,J7,4*%
%TO.N,GND*%
X187336286Y-85663713D03*
%TD*%
D11*
%TO.P,J1,1*%
%TO.N,Net-(J1-Pad1)*%
X131686286Y-117893713D03*
D12*
%TO.P,J1,2*%
%TO.N,GNDPWR*%
X131686286Y-124193713D03*
D13*
%TO.P,J1,3*%
%TO.N,N/C*%
X136486286Y-120793713D03*
%TD*%
D14*
%TO.P,X1,S1*%
%TO.N,Net-(J1-Pad1)*%
X124146286Y-126083713D03*
%TO.P,X1,S2*%
X119146286Y-126083713D03*
%TD*%
D15*
%TO.P,J3,1,1*%
%TO.N,Net-(U6-OUT)*%
X188500000Y-38500000D03*
%TO.P,J3,2,2*%
%TO.N,Net-(U4-OUT)*%
X183496200Y-38500000D03*
%TD*%
D16*
%TO.P,U2,1,Vin*%
%TO.N,/24V_BUS*%
X150086286Y-128313713D03*
D17*
%TO.P,U2,2,GND1*%
%TO.N,GNDPWR*%
X150086286Y-115039963D03*
D18*
%TO.P,U2,3,Vout*%
%TO.N,/VBUCK*%
X168461286Y-128222463D03*
%TO.P,U2,4,GND2*%
%TO.N,GND*%
X168461286Y-115039963D03*
%TD*%
D19*
%TO.P,U15,40,GND*%
%TO.N,GND*%
X158721286Y-77503713D03*
X158721286Y-78903713D03*
X159421286Y-76803713D03*
X159421286Y-78203713D03*
X159421286Y-79603713D03*
X160121286Y-77503713D03*
X160121286Y-78903713D03*
X160821286Y-76803713D03*
X160821286Y-78203713D03*
X160821286Y-79603713D03*
X161521286Y-77503713D03*
X161521286Y-78903713D03*
%TD*%
D15*
%TO.P,J6,1,1*%
%TO.N,Net-(U13-OUT)*%
X98000000Y-57496200D03*
%TO.P,J6,2,2*%
%TO.N,Net-(U11-OUT)*%
X98000000Y-62500000D03*
%TD*%
D14*
%TO.P,X2,S1*%
%TO.N,/24V_BUS*%
X124146286Y-119533713D03*
%TO.P,X2,S2*%
X119146286Y-119533713D03*
%TD*%
D15*
%TO.P,J5,1,1*%
%TO.N,Net-(U12-OUT)*%
X98000000Y-96166500D03*
%TO.P,J5,2,2*%
%TO.N,Net-(U10-OUT)*%
X98000000Y-101170300D03*
%TD*%
D20*
%TO.P,C1,1*%
%TO.N,/24V_BUS*%
X105336286Y-120743713D03*
D21*
%TO.P,C1,2*%
%TO.N,GNDPWR*%
X105336286Y-113243713D03*
%TD*%
D22*
%TO.P,J4,S1,SHIELD*%
%TO.N,unconnected-(J4-SHIELD-PadS1)_2*%
X177416286Y-125318713D03*
D23*
%TO.N,unconnected-(J4-SHIELD-PadS1)*%
X177416286Y-129498713D03*
D22*
%TO.N,unconnected-(J4-SHIELD-PadS1)_3*%
X186056286Y-125318713D03*
D23*
%TO.N,unconnected-(J4-SHIELD-PadS1)_1*%
X186056286Y-129498713D03*
%TD*%
D15*
%TO.P,J2,1,1*%
%TO.N,Net-(U5-OUT)*%
X122000000Y-38500000D03*
%TO.P,J2,2,2*%
%TO.N,Net-(U3-OUT)*%
X116996200Y-38500000D03*
%TD*%
D24*
%TO.P,D2,1,K*%
%TO.N,Net-(D2-K)*%
X110000000Y-129000000D03*
D25*
%TO.P,D2,2,A*%
%TO.N,/24V_BUS*%
X112540000Y-129000000D03*
%TD*%
D26*
%TO.N,GND*%
X158836286Y-115243713D03*
X176836286Y-122243713D03*
X136195000Y-66460000D03*
X146836286Y-104743713D03*
X167336286Y-106243713D03*
X143674265Y-78325735D03*
X135695000Y-62460000D03*
X158805000Y-56000000D03*
X173336286Y-128743713D03*
X170000000Y-67500000D03*
X146836286Y-106743713D03*
X135836286Y-100243713D03*
X138500000Y-57500000D03*
X134836286Y-101743713D03*
X135836286Y-103243713D03*
X153000000Y-63000000D03*
X135836286Y-101743713D03*
X157500000Y-56000000D03*
X159000000Y-81500000D03*
X161000000Y-61500000D03*
X140836286Y-79743713D03*
X150836286Y-68743713D03*
X154500000Y-56000000D03*
X189000000Y-58500000D03*
X164336286Y-114743713D03*
X137500000Y-57500000D03*
X142836286Y-71243713D03*
X167336286Y-102243713D03*
X186836286Y-121243713D03*
X144195000Y-57960000D03*
X140500000Y-57000000D03*
X167336286Y-104243713D03*
X146836286Y-102743713D03*
X156000000Y-56500000D03*
X174336286Y-124243713D03*
X134836286Y-100243713D03*
X143195000Y-66960000D03*
X164336286Y-116243713D03*
X184000000Y-120000000D03*
X151500000Y-60500000D03*
X174500000Y-58000000D03*
X142195000Y-57960000D03*
X186836286Y-101743713D03*
X161000000Y-57000000D03*
X134836286Y-103243713D03*
X164336286Y-113243713D03*
%TO.N,/VBUS*%
X183336286Y-122243713D03*
X179336286Y-123243713D03*
X161836286Y-103743713D03*
X178652996Y-120560423D03*
%TO.N,/VBUCK*%
X164836286Y-127743713D03*
X164836286Y-129243713D03*
X164836286Y-126743713D03*
%TO.N,/VIN*%
X177500000Y-88000000D03*
X144836286Y-97743713D03*
X176500000Y-70500000D03*
X143836286Y-97743713D03*
X152336286Y-99243713D03*
X145836286Y-98743713D03*
X177000000Y-90000000D03*
X159336286Y-98743713D03*
X158336286Y-98743713D03*
X150336286Y-99243713D03*
X162336286Y-98743713D03*
X161336286Y-98743713D03*
X166500000Y-99000000D03*
X132500000Y-58000000D03*
X151336286Y-98243713D03*
X157336286Y-97743713D03*
X151336286Y-99243713D03*
X145836286Y-97743713D03*
X143836286Y-98743713D03*
X163336286Y-98743713D03*
X144836286Y-98743713D03*
X150336286Y-98243713D03*
X152336286Y-98243713D03*
X159336286Y-97743713D03*
X157336286Y-98743713D03*
X158336286Y-97743713D03*
%TO.N,/3V3*%
X143336286Y-90743713D03*
X140336286Y-90743713D03*
X144336286Y-74243713D03*
X142500000Y-74000000D03*
X159836286Y-91743713D03*
X165836286Y-91743713D03*
X141336286Y-90743713D03*
X136336286Y-90743713D03*
X139336286Y-90743713D03*
X177336286Y-101243713D03*
X138336286Y-90743713D03*
X137336286Y-90743713D03*
X142336286Y-90743713D03*
%TO.N,/24V_BUS*%
X164000000Y-41500000D03*
X121836286Y-114743713D03*
X119000000Y-74000000D03*
X123836286Y-114743713D03*
X118000000Y-48500000D03*
X178000000Y-41500000D03*
X119836286Y-113743713D03*
X119000000Y-48500000D03*
X116000000Y-46500000D03*
X123836286Y-113743713D03*
X141336286Y-129243713D03*
X122836286Y-115743713D03*
X143336286Y-127243713D03*
X116000000Y-48500000D03*
X124836286Y-113743713D03*
X140336286Y-127243713D03*
X118500000Y-85799997D03*
X121000000Y-62000000D03*
X142336286Y-129243713D03*
X118000000Y-46500000D03*
X121000000Y-63000000D03*
X139336286Y-128243713D03*
X153200003Y-41500000D03*
X143336286Y-129243713D03*
X120000000Y-46500000D03*
X165000000Y-41500000D03*
X139336286Y-127243713D03*
X120836286Y-114743713D03*
X141336286Y-127243713D03*
X153500000Y-46000000D03*
X120000000Y-47500000D03*
X120000000Y-63000000D03*
X142336286Y-128243713D03*
X122836286Y-113743713D03*
X120836286Y-115743713D03*
X119000000Y-47500000D03*
X118000000Y-47500000D03*
X120000000Y-74000000D03*
X139336286Y-129243713D03*
X122836286Y-114743713D03*
X116000000Y-47500000D03*
X118500000Y-86500000D03*
X119000000Y-75000000D03*
X124836286Y-115743713D03*
X120000000Y-62000000D03*
X141336286Y-128243713D03*
X121836286Y-113743713D03*
X140336286Y-129243713D03*
X140336286Y-128243713D03*
X119836286Y-115743713D03*
X117000000Y-47500000D03*
X121000000Y-46500000D03*
X121000000Y-48500000D03*
X124836286Y-114743713D03*
X117000000Y-46500000D03*
X120836286Y-113743713D03*
X121836286Y-115743713D03*
X142336286Y-127243713D03*
X117000000Y-48500000D03*
X119000000Y-46500000D03*
X153500000Y-42500000D03*
X144336286Y-128243713D03*
X120000000Y-48500000D03*
X176000000Y-41000000D03*
X144336286Y-129243713D03*
X140500000Y-41000000D03*
X141500000Y-41000000D03*
X165000000Y-42500000D03*
X123836286Y-115743713D03*
X178500000Y-42500000D03*
X177000000Y-41000000D03*
X144336286Y-127243713D03*
X119500000Y-85500000D03*
X121000000Y-47500000D03*
X141500000Y-42000000D03*
X119836286Y-114743713D03*
X152500000Y-41500000D03*
X143336286Y-128243713D03*
%TO.N,GNDPWR*%
X127500000Y-51000000D03*
X105000000Y-107500000D03*
X128000000Y-84000000D03*
X128836286Y-128243713D03*
X166000000Y-48500000D03*
X140836286Y-114243713D03*
X142500000Y-50000000D03*
X103000000Y-105500000D03*
X128500000Y-64500000D03*
X129836286Y-127243713D03*
X129000000Y-75000000D03*
X107000000Y-106500000D03*
X106000000Y-105500000D03*
X130836286Y-127243713D03*
X132836286Y-127243713D03*
X131836286Y-129243713D03*
X164000000Y-51000000D03*
X142836286Y-115243713D03*
X104000000Y-107500000D03*
X128836286Y-129243713D03*
X129500000Y-87000000D03*
X105000000Y-106500000D03*
X128000000Y-75000000D03*
X107000000Y-105500000D03*
X130836286Y-129243713D03*
X139836286Y-116243713D03*
X141836286Y-116243713D03*
X129000000Y-61500000D03*
X162500000Y-52500000D03*
X120500000Y-41500000D03*
X106000000Y-106500000D03*
X141836286Y-114243713D03*
X128500000Y-86500000D03*
X143836286Y-116243713D03*
X118500000Y-41500000D03*
X176000000Y-52500000D03*
X177500000Y-50500000D03*
X128000000Y-61500000D03*
X125000000Y-96000000D03*
X129000000Y-44000000D03*
X130000000Y-64500000D03*
X133836286Y-129243713D03*
X108000000Y-107500000D03*
X130836286Y-128243713D03*
X144836286Y-116243713D03*
X128097797Y-62364954D03*
X140836286Y-115243713D03*
X140836286Y-116243713D03*
X129836286Y-128243713D03*
X143836286Y-115243713D03*
X129836286Y-129243713D03*
X129000000Y-76000000D03*
X103000000Y-106500000D03*
X128836286Y-127243713D03*
X129020347Y-62385010D03*
X108000000Y-105500000D03*
X128500000Y-52000000D03*
X106000000Y-107500000D03*
X151500000Y-52500000D03*
X141836286Y-115243713D03*
X105000000Y-105500000D03*
X163000000Y-51500000D03*
X132836286Y-129243713D03*
X107000000Y-107500000D03*
X142836286Y-116243713D03*
X139836286Y-115243713D03*
X186000000Y-46500000D03*
X141500000Y-50000000D03*
X153000000Y-50500000D03*
X128500000Y-51000000D03*
X104000000Y-106500000D03*
X143836286Y-114243713D03*
X151500000Y-51500000D03*
X128000000Y-72500000D03*
X130000000Y-88000000D03*
X103000000Y-107500000D03*
X131836286Y-128243713D03*
X176000000Y-51000000D03*
X140000000Y-52500000D03*
X189000000Y-45500000D03*
X131836286Y-127243713D03*
X132836286Y-128243713D03*
X139836286Y-114243713D03*
X141000000Y-52000000D03*
X108000000Y-106500000D03*
X142836286Y-114243713D03*
X133836286Y-128243713D03*
X104000000Y-105500000D03*
X133836286Y-127243713D03*
X154000000Y-48500000D03*
X144836286Y-114243713D03*
X144836286Y-115243713D03*
%TO.N,/BTS3_L_PWM*%
X139000000Y-70000000D03*
X148000000Y-84500000D03*
%TO.N,/BTS3_R_PWM*%
X155375000Y-91625000D03*
X138000000Y-68000000D03*
%TO.N,/BTS4_L_PWM*%
X157500000Y-83500000D03*
X146500000Y-64000000D03*
%TO.N,/BTS4_R_PWM*%
X158500000Y-91000000D03*
X140000000Y-72500000D03*
%TO.N,/SCL*%
X171796286Y-90203713D03*
%TO.N,/EN*%
X176500000Y-54000000D03*
X148336286Y-76743713D03*
%TO.N,Net-(U12-OUT)*%
X98000000Y-88500000D03*
X105500000Y-66500000D03*
%TO.N,/EN1*%
X145000000Y-51000000D03*
X145500000Y-52500000D03*
X146500000Y-56000000D03*
X133000000Y-51000000D03*
%TO.N,/EN2*%
X154500000Y-50000000D03*
X155000000Y-82500000D03*
X168500000Y-51000000D03*
%TO.N,/EN3*%
X156900000Y-80499230D03*
X128500000Y-70500000D03*
X137000000Y-72500000D03*
X151000000Y-76000000D03*
X128000000Y-59000000D03*
%TO.N,/EN4*%
X128500000Y-82500000D03*
X128500000Y-93500000D03*
X172500000Y-84500000D03*
%TO.N,/JNOUT8*%
X132000000Y-71000000D03*
X139500000Y-63000000D03*
%TD*%
D27*
%TO.N,GND*%
X158948786Y-115131213D02*
X158836286Y-115243713D01*
X168336286Y-115131213D02*
X158948786Y-115131213D01*
D28*
%TO.N,/VBUS*%
X178652996Y-120652996D02*
X180000000Y-122000000D01*
X180000000Y-122000000D02*
X183092573Y-122000000D01*
X178652996Y-120560423D02*
X161836286Y-103743713D01*
X183092573Y-122000000D02*
X183336286Y-122243713D01*
X178652996Y-120560423D02*
X178652996Y-120652996D01*
D29*
%TO.N,/VIN*%
X131752349Y-97743713D02*
X122899000Y-88890364D01*
X124650058Y-58000000D02*
X132500000Y-58000000D01*
X176500000Y-87000000D02*
X177500000Y-88000000D01*
X122899000Y-59751058D02*
X124650058Y-58000000D01*
X168000000Y-99000000D02*
X166500000Y-99000000D01*
X177000000Y-90000000D02*
X168000000Y-99000000D01*
X122899000Y-88890364D02*
X122899000Y-59751058D01*
X143836286Y-97743713D02*
X131752349Y-97743713D01*
X176500000Y-70500000D02*
X176500000Y-87000000D01*
D30*
%TO.N,/BTS3_L_PWM*%
X146500000Y-84500000D02*
X148000000Y-84500000D01*
X139000000Y-77000000D02*
X146500000Y-84500000D01*
X139000000Y-70000000D02*
X139000000Y-77000000D01*
%TO.N,/BTS3_R_PWM*%
X151125000Y-91625000D02*
X138000000Y-78500000D01*
X155375000Y-91625000D02*
X151125000Y-91625000D01*
X138000000Y-78500000D02*
X138000000Y-68000000D01*
%TO.N,/BTS4_L_PWM*%
X150000000Y-64000000D02*
X157500000Y-71500000D01*
X146500000Y-64000000D02*
X150000000Y-64000000D01*
X157500000Y-71500000D02*
X157500000Y-83500000D01*
%TO.N,/BTS4_R_PWM*%
X154244768Y-91024000D02*
X155623943Y-91024000D01*
X149283550Y-86062782D02*
X154244768Y-91024000D01*
X140000000Y-72500000D02*
X140000000Y-75500000D01*
X149283550Y-84783550D02*
X149283550Y-86062782D01*
X155623943Y-91024000D02*
X155647943Y-91000000D01*
X155647943Y-91000000D02*
X158500000Y-91000000D01*
X140000000Y-75500000D02*
X149283550Y-84783550D01*
D31*
%TO.N,/SCL*%
X171836286Y-90243713D02*
X172836286Y-89243713D01*
X186296286Y-89243713D02*
X187336286Y-88203713D01*
X172836286Y-89243713D02*
X186296286Y-89243713D01*
X171796286Y-90203713D02*
X171836286Y-90243713D01*
D28*
%TO.N,/EN*%
X163500000Y-84500000D02*
X167500000Y-80500000D01*
X167500000Y-63000000D02*
X176500000Y-54000000D01*
X150000000Y-79000000D02*
X155500000Y-84500000D01*
X155500000Y-84500000D02*
X163500000Y-84500000D01*
X167500000Y-80500000D02*
X167500000Y-63000000D01*
X148336286Y-76743713D02*
X150000000Y-78407427D01*
X150000000Y-78407427D02*
X150000000Y-79000000D01*
D32*
%TO.N,Net-(U12-OUT)*%
X98000000Y-74000000D02*
X105500000Y-66500000D01*
X98000000Y-88500000D02*
X98000000Y-74000000D01*
D29*
%TO.N,/EN1*%
X145000000Y-48000000D02*
X145000000Y-51000000D01*
X133000000Y-48500000D02*
X135500000Y-46000000D01*
X142500000Y-45500000D02*
X145000000Y-48000000D01*
X136000000Y-45500000D02*
X142500000Y-45500000D01*
X133000000Y-51000000D02*
X133000000Y-48500000D01*
X135500000Y-46000000D02*
X136000000Y-45500000D01*
X145500000Y-55000000D02*
X146500000Y-56000000D01*
X145500000Y-52500000D02*
X145500000Y-55000000D01*
D30*
%TO.N,/EN2*%
X155000000Y-82500000D02*
X155000000Y-81500000D01*
X155000000Y-49500000D02*
X156000000Y-49500000D01*
X168500000Y-49000000D02*
X168500000Y-51000000D01*
X154500000Y-50500000D02*
X154500000Y-50000000D01*
X159500000Y-46000000D02*
X165500000Y-46000000D01*
X154500000Y-50000000D02*
X155000000Y-49500000D01*
X144299000Y-60701000D02*
X154500000Y-50500000D01*
X156000000Y-49500000D02*
X159500000Y-46000000D01*
X165500000Y-46000000D02*
X168500000Y-49000000D01*
X155000000Y-81500000D02*
X144299000Y-70799000D01*
X144299000Y-70799000D02*
X144299000Y-60701000D01*
D33*
%TO.N,/EN3*%
X130500000Y-72500000D02*
X128500000Y-70500000D01*
D29*
X124500000Y-59000000D02*
X128000000Y-59000000D01*
X128500000Y-70500000D02*
X127500000Y-70500000D01*
X123500000Y-66500000D02*
X123500000Y-60000000D01*
D33*
X156500000Y-80500000D02*
X152000000Y-76000000D01*
X137000000Y-72500000D02*
X130500000Y-72500000D01*
X156899230Y-80500000D02*
X156500000Y-80500000D01*
X156900000Y-80499230D02*
X156899230Y-80500000D01*
X152000000Y-76000000D02*
X151000000Y-76000000D01*
D29*
X123500000Y-60000000D02*
X124500000Y-59000000D01*
X127500000Y-70500000D02*
X123500000Y-66500000D01*
D30*
%TO.N,/EN4*%
X129500000Y-92500000D02*
X128500000Y-93500000D01*
D29*
X131500000Y-90500000D02*
X128500000Y-93500000D01*
D30*
X168000000Y-92500000D02*
X129500000Y-92500000D01*
D29*
X131500000Y-85500000D02*
X131500000Y-90500000D01*
X128500000Y-82500000D02*
X131500000Y-85500000D01*
D30*
X172500000Y-84500000D02*
X172500000Y-88000000D01*
X172500000Y-88000000D02*
X168000000Y-92500000D01*
%TO.N,/JNOUT8*%
X132000000Y-69805057D02*
X138805057Y-63000000D01*
X138805057Y-63000000D02*
X139500000Y-63000000D01*
X132000000Y-71000000D02*
X132000000Y-69805057D01*
%TD*%
M02*
