M48
; DRILL file {KiCad 9.0.4-9.0.4-0~ubuntu24.04.1} date 2025-09-30T13:12:37+0300
; FORMAT={-:-/ absolute / metric / decimal}
; #@! TF.CreationDate,2025-09-30T13:12:37+03:00
; #@! TF.GenerationSoftware,Kicad,Pcbnew,9.0.4-9.0.4-0~ubuntu24.04.1
; #@! TF.FileFunction,Plated,1,4,PTH
FMAT,2
METRIC
; #@! TA.AperFunction,Plated,PTH,ComponentDrill
T1C0.200
; #@! TA.AperFunction,Plated,PTH,ViaDrill
T2C0.300
; #@! TA.AperFunction,Plated,PTH,ComponentDrill
T3C0.600
; #@! TA.AperFunction,Plated,PTH,ComponentDrill
T4C0.800
; #@! TA.AperFunction,Plated,PTH,ComponentDrill
T5C0.900
; #@! TA.AperFunction,Plated,PTH,ComponentDrill
T6C1.000
; #@! TA.AperFunction,Plated,PTH,ComponentDrill
T7C1.190
; #@! TA.AperFunction,Plated,PTH,ComponentDrill
T8C1.194
; #@! TA.AperFunction,Plated,PTH,ComponentDrill
T9C1.200
; #@! TA.AperFunction,Plated,PTH,ComponentDrill
T10C1.600
%
G90
G05
T1
X158.721Y-77.504
X158.721Y-78.904
X159.421Y-76.804
X159.421Y-78.204
X159.421Y-79.604
X160.121Y-77.504
X160.121Y-78.904
X160.821Y-76.804
X160.821Y-78.204
X160.821Y-79.604
X161.521Y-77.504
X161.521Y-78.904
T2
X98.0Y-88.5
X103.0Y-105.5
X103.0Y-106.5
X103.0Y-107.5
X104.0Y-105.5
X104.0Y-106.5
X104.0Y-107.5
X105.0Y-105.5
X105.0Y-106.5
X105.0Y-107.5
X105.5Y-66.5
X106.0Y-105.5
X106.0Y-106.5
X106.0Y-107.5
X107.0Y-105.5
X107.0Y-106.5
X107.0Y-107.5
X108.0Y-105.5
X108.0Y-106.5
X108.0Y-107.5
X116.0Y-46.5
X116.0Y-47.5
X116.0Y-48.5
X117.0Y-46.5
X117.0Y-47.5
X117.0Y-48.5
X118.0Y-46.5
X118.0Y-47.5
X118.0Y-48.5
X118.5Y-41.5
X118.5Y-85.8
X118.5Y-86.5
X119.0Y-46.5
X119.0Y-47.5
X119.0Y-48.5
X119.0Y-74.0
X119.0Y-75.0
X119.5Y-85.5
X119.836Y-113.744
X119.836Y-114.744
X119.836Y-115.744
X120.0Y-46.5
X120.0Y-47.5
X120.0Y-48.5
X120.0Y-62.0
X120.0Y-63.0
X120.0Y-74.0
X120.5Y-41.5
X120.836Y-113.744
X120.836Y-114.744
X120.836Y-115.744
X121.0Y-46.5
X121.0Y-47.5
X121.0Y-48.5
X121.0Y-62.0
X121.0Y-63.0
X121.836Y-113.744
X121.836Y-114.744
X121.836Y-115.744
X122.836Y-113.744
X122.836Y-114.744
X122.836Y-115.744
X123.836Y-113.744
X123.836Y-114.744
X123.836Y-115.744
X124.836Y-113.744
X124.836Y-114.744
X124.836Y-115.744
X125.0Y-96.0
X127.5Y-51.0
X128.0Y-59.0
X128.0Y-61.5
X128.0Y-72.5
X128.0Y-75.0
X128.0Y-84.0
X128.098Y-62.365
X128.5Y-51.0
X128.5Y-52.0
X128.5Y-64.5
X128.5Y-70.5
X128.5Y-82.5
X128.5Y-86.5
X128.5Y-93.5
X128.836Y-127.244
X128.836Y-128.244
X128.836Y-129.244
X129.0Y-44.0
X129.0Y-61.5
X129.0Y-75.0
X129.0Y-76.0
X129.02Y-62.385
X129.5Y-87.0
X129.836Y-127.244
X129.836Y-128.244
X129.836Y-129.244
X130.0Y-64.5
X130.0Y-88.0
X130.836Y-127.244
X130.836Y-128.244
X130.836Y-129.244
X131.836Y-127.244
X131.836Y-128.244
X131.836Y-129.244
X132.0Y-71.0
X132.5Y-58.0
X132.836Y-127.244
X132.836Y-128.244
X132.836Y-129.244
X133.0Y-51.0
X133.836Y-127.244
X133.836Y-128.244
X133.836Y-129.244
X134.836Y-100.244
X134.836Y-101.744
X134.836Y-103.244
X135.695Y-62.46
X135.836Y-100.244
X135.836Y-101.744
X135.836Y-103.244
X136.195Y-66.46
X136.336Y-90.744
X137.0Y-72.5
X137.336Y-90.744
X137.5Y-57.5
X138.0Y-68.0
X138.336Y-90.744
X138.5Y-57.5
X139.0Y-70.0
X139.336Y-90.744
X139.336Y-127.244
X139.336Y-128.244
X139.336Y-129.244
X139.5Y-63.0
X139.836Y-114.244
X139.836Y-115.244
X139.836Y-116.244
X140.0Y-52.5
X140.0Y-72.5
X140.336Y-90.744
X140.336Y-127.244
X140.336Y-128.244
X140.336Y-129.244
X140.5Y-41.0
X140.5Y-57.0
X140.836Y-79.744
X140.836Y-114.244
X140.836Y-115.244
X140.836Y-116.244
X141.0Y-52.0
X141.336Y-90.744
X141.336Y-127.244
X141.336Y-128.244
X141.336Y-129.244
X141.5Y-41.0
X141.5Y-42.0
X141.5Y-50.0
X141.836Y-114.244
X141.836Y-115.244
X141.836Y-116.244
X142.195Y-57.96
X142.336Y-90.744
X142.336Y-127.244
X142.336Y-128.244
X142.336Y-129.244
X142.5Y-50.0
X142.5Y-74.0
X142.836Y-71.244
X142.836Y-114.244
X142.836Y-115.244
X142.836Y-116.244
X143.195Y-66.96
X143.336Y-90.744
X143.336Y-127.244
X143.336Y-128.244
X143.336Y-129.244
X143.674Y-78.326
X143.836Y-97.744
X143.836Y-98.744
X143.836Y-114.244
X143.836Y-115.244
X143.836Y-116.244
X144.195Y-57.96
X144.336Y-74.244
X144.336Y-127.244
X144.336Y-128.244
X144.336Y-129.244
X144.836Y-97.744
X144.836Y-98.744
X144.836Y-114.244
X144.836Y-115.244
X144.836Y-116.244
X145.0Y-51.0
X145.5Y-52.5
X145.836Y-97.744
X145.836Y-98.744
X146.5Y-56.0
X146.5Y-64.0
X146.836Y-102.744
X146.836Y-104.744
X146.836Y-106.744
X148.0Y-84.5
X148.336Y-76.744
X150.336Y-98.244
X150.336Y-99.244
X150.836Y-68.744
X151.0Y-76.0
X151.336Y-98.244
X151.336Y-99.244
X151.5Y-51.5
X151.5Y-52.5
X151.5Y-60.5
X152.336Y-98.244
X152.336Y-99.244
X152.5Y-41.5
X153.0Y-50.5
X153.0Y-63.0
X153.2Y-41.5
X153.5Y-42.5
X153.5Y-46.0
X154.0Y-48.5
X154.5Y-50.0
X154.5Y-56.0
X155.0Y-82.5
X155.375Y-91.625
X156.0Y-56.5
X156.9Y-80.499
X157.336Y-97.744
X157.336Y-98.744
X157.5Y-56.0
X157.5Y-83.5
X158.336Y-97.744
X158.336Y-98.744
X158.5Y-91.0
X158.805Y-56.0
X158.836Y-115.244
X159.0Y-81.5
X159.336Y-97.744
X159.336Y-98.744
X159.836Y-91.744
X161.0Y-57.0
X161.0Y-61.5
X161.336Y-98.744
X161.836Y-103.744
X162.336Y-98.744
X162.5Y-52.5
X163.0Y-51.5
X163.336Y-98.744
X164.0Y-41.5
X164.0Y-51.0
X164.336Y-113.244
X164.336Y-114.744
X164.336Y-116.244
X164.836Y-126.744
X164.836Y-127.744
X164.836Y-129.244
X165.0Y-41.5
X165.0Y-42.5
X165.836Y-91.744
X166.0Y-48.5
X166.5Y-99.0
X167.336Y-102.244
X167.336Y-104.244
X167.336Y-106.244
X168.5Y-51.0
X170.0Y-67.5
X171.796Y-90.204
X172.5Y-84.5
X173.336Y-128.744
X174.336Y-124.244
X174.5Y-58.0
X176.0Y-41.0
X176.0Y-51.0
X176.0Y-52.5
X176.5Y-54.0
X176.5Y-70.5
X176.836Y-122.244
X177.0Y-41.0
X177.0Y-90.0
X177.336Y-101.244
X177.5Y-50.5
X177.5Y-88.0
X178.0Y-41.5
X178.5Y-42.5
X178.653Y-120.56
X179.336Y-123.244
X183.336Y-122.244
X184.0Y-120.0
X186.0Y-46.5
X186.836Y-101.744
X186.836Y-121.244
X189.0Y-45.5
X189.0Y-58.5
T4
X150.086Y-115.131
X150.086Y-128.314
X168.336Y-115.131
X168.336Y-128.131
T5
X110.0Y-129.0
X112.54Y-129.0
T7
X119.146Y-119.534
X119.146Y-126.084
X124.146Y-119.534
X124.146Y-126.084
T8
X187.336Y-72.124
X187.336Y-74.664
X187.336Y-77.204
X187.336Y-79.744
X187.336Y-85.664
X187.336Y-88.204
X187.336Y-90.744
X187.336Y-93.284
T9
X105.336Y-113.244
X105.336Y-120.744
T10
X98.0Y-57.496
X98.0Y-62.5
X98.0Y-96.166
X98.0Y-101.17
X116.996Y-38.5
X122.0Y-38.5
X183.496Y-38.5
X188.5Y-38.5
T3
G00X177.416Y-124.769
M15
G01X177.416Y-125.869
M16
G05
G00X177.416Y-129.099
M15
G01X177.416Y-129.899
M16
G05
G00X186.056Y-124.769
M15
G01X186.056Y-125.869
M16
G05
G00X186.056Y-129.099
M15
G01X186.056Y-129.899
M16
G05
T6
G00X130.386Y-117.894
M15
G01X132.986Y-117.894
M16
G05
G00X130.586Y-124.194
M15
G01X132.786Y-124.194
M16
G05
G00X136.486Y-119.694
M15
G01X136.486Y-121.894
M16
G05
M30
