%TF.GenerationSoftware,KiCad,Pcbnew,9.0.4-9.0.4-0~ubuntu24.04.1*%
%TF.CreationDate,2025-09-24T17:39:37+03:00*%
%TF.ProjectId,Patient remote control,50617469-656e-4742-9072-656d6f746520,rev?*%
%TF.SameCoordinates,Original*%
%TF.FileFunction,Copper,L2,Bot*%
%TF.FilePolarity,Positive*%
%FSLAX46Y46*%
G04 Gerber Fmt 4.6, Leading zero omitted, Abs format (unit mm)*
G04 Created by KiCad (PCBNEW 9.0.4-9.0.4-0~ubuntu24.04.1) date 2025-09-24 17:39:37*
%MOMM*%
%LPD*%
G01*
G04 APERTURE LIST*
%TA.AperFunction,ComponentPad*%
%ADD10C,2.000000*%
%TD*%
%TA.AperFunction,ComponentPad*%
%ADD11C,1.701800*%
%TD*%
%TA.AperFunction,ViaPad*%
%ADD12C,0.500000*%
%TD*%
%TA.AperFunction,Conductor*%
%ADD13C,0.400000*%
%TD*%
%TA.AperFunction,Conductor*%
%ADD14C,0.200000*%
%TD*%
G04 APERTURE END LIST*
D10*
%TO.P,SW4,1,1*%
%TO.N,/R2*%
X123839000Y-71161000D03*
X130339000Y-71161000D03*
%TO.P,SW4,2,2*%
%TO.N,/C2*%
X123839000Y-75661000D03*
X130339000Y-75661000D03*
%TD*%
%TO.P,SW2,1,1*%
%TO.N,/R2*%
X123863000Y-46588000D03*
X130363000Y-46588000D03*
%TO.P,SW2,2,2*%
%TO.N,/C1*%
X123863000Y-51088000D03*
X130363000Y-51088000D03*
%TD*%
%TO.P,SW1,1,1*%
%TO.N,/R1*%
X106692000Y-46637000D03*
X113192000Y-46637000D03*
%TO.P,SW1,2,2*%
%TO.N,/C1*%
X106692000Y-51137000D03*
X113192000Y-51137000D03*
%TD*%
%TO.P,SW8,1,1*%
%TO.N,/R2*%
X123848000Y-120343000D03*
X130348000Y-120343000D03*
%TO.P,SW8,2,2*%
%TO.N,/C4*%
X123848000Y-124843000D03*
X130348000Y-124843000D03*
%TD*%
%TO.P,SW3,1,1*%
%TO.N,/R1*%
X106630000Y-71158000D03*
X113130000Y-71158000D03*
%TO.P,SW3,2,2*%
%TO.N,/C2*%
X106630000Y-75658000D03*
X113130000Y-75658000D03*
%TD*%
%TO.P,SW6,1,1*%
%TO.N,/R2*%
X123867000Y-95768000D03*
X130367000Y-95768000D03*
%TO.P,SW6,2,2*%
%TO.N,/C3*%
X123867000Y-100268000D03*
X130367000Y-100268000D03*
%TD*%
%TO.P,SW7,1,1*%
%TO.N,/R1*%
X106679000Y-120341000D03*
X113179000Y-120341000D03*
%TO.P,SW7,2,2*%
%TO.N,/C4*%
X106679000Y-124841000D03*
X113179000Y-124841000D03*
%TD*%
D11*
%TO.P,J1,1*%
%TO.N,+3.3V*%
X114500000Y-157000000D03*
%TO.P,J1,2*%
%TO.N,/SDA*%
X117040000Y-157000000D03*
%TO.P,J1,3*%
%TO.N,/SCL*%
X119580000Y-157000000D03*
%TO.P,J1,4*%
%TO.N,GND*%
X122120000Y-157000000D03*
%TD*%
D10*
%TO.P,SW9,1,1*%
%TO.N,/R1*%
X106620000Y-144923000D03*
X113120000Y-144923000D03*
%TO.P,SW9,2,2*%
%TO.N,/C5*%
X106620000Y-149423000D03*
X113120000Y-149423000D03*
%TD*%
%TO.P,SW5,1,1*%
%TO.N,/R1*%
X106649000Y-95744000D03*
X113149000Y-95744000D03*
%TO.P,SW5,2,2*%
%TO.N,/C3*%
X106649000Y-100244000D03*
X113149000Y-100244000D03*
%TD*%
%TO.P,SW10,1,1*%
%TO.N,/R2*%
X123904000Y-144923000D03*
X130404000Y-144923000D03*
%TO.P,SW10,2,2*%
%TO.N,/C5*%
X123904000Y-149423000D03*
X130404000Y-149423000D03*
%TD*%
D12*
%TO.N,+3.3V*%
X109000000Y-134500000D03*
X123000000Y-134780000D03*
X107500000Y-132000000D03*
X112000000Y-132000000D03*
%TO.N,GND*%
X111000000Y-139500000D03*
X124000000Y-139000000D03*
X120500000Y-140500000D03*
X122500000Y-140500000D03*
X102500000Y-141500000D03*
%TD*%
D13*
%TO.N,+3.3V*%
X104500000Y-139000000D02*
X104500000Y-152000000D01*
X109000000Y-133500000D02*
X107500000Y-132000000D01*
X120220000Y-132000000D02*
X112000000Y-132000000D01*
X109500000Y-157000000D02*
X114500000Y-157000000D01*
X109000000Y-134500000D02*
X109000000Y-133500000D01*
X123000000Y-134780000D02*
X120220000Y-132000000D01*
X104500000Y-152000000D02*
X109500000Y-157000000D01*
X109000000Y-134500000D02*
X104500000Y-139000000D01*
D14*
%TO.N,/C3*%
X106649000Y-100244000D02*
X113149000Y-100244000D01*
X123843000Y-100244000D02*
X123867000Y-100268000D01*
X113149000Y-100244000D02*
X123843000Y-100244000D01*
X130367000Y-100268000D02*
X123867000Y-100268000D01*
%TO.N,/R2*%
X123904000Y-144923000D02*
X130404000Y-144923000D01*
%TO.N,/C4*%
X113181000Y-124843000D02*
X113179000Y-124841000D01*
X123848000Y-124843000D02*
X113181000Y-124843000D01*
X113179000Y-124841000D02*
X106679000Y-124841000D01*
X130348000Y-124843000D02*
X123848000Y-124843000D01*
%TO.N,/C1*%
X113192000Y-51137000D02*
X106692000Y-51137000D01*
X130363000Y-51088000D02*
X123863000Y-51088000D01*
%TO.N,/C5*%
X123904000Y-149423000D02*
X113120000Y-149423000D01*
X113120000Y-149423000D02*
X106620000Y-149423000D01*
%TO.N,/R1*%
X113130000Y-71158000D02*
X106630000Y-71158000D01*
X113149000Y-95744000D02*
X106649000Y-95744000D01*
X113192000Y-46637000D02*
X106692000Y-46637000D01*
X113120000Y-144923000D02*
X106620000Y-144923000D01*
X113179000Y-120341000D02*
X106679000Y-120341000D01*
%TO.N,/C2*%
X130339000Y-75661000D02*
X123839000Y-75661000D01*
X113133000Y-75661000D02*
X113130000Y-75658000D01*
X123839000Y-75661000D02*
X113133000Y-75661000D01*
X106630000Y-75658000D02*
X113130000Y-75658000D01*
%TD*%
%TA.AperFunction,Conductor*%
%TO.N,GND*%
G36*
X138942539Y-28520185D02*
G01*
X138988294Y-28572989D01*
X138999500Y-28624500D01*
X138999500Y-167375500D01*
X138979815Y-167442539D01*
X138927011Y-167488294D01*
X138875500Y-167499500D01*
X98124500Y-167499500D01*
X98057461Y-167479815D01*
X98011706Y-167427011D01*
X98000500Y-167375500D01*
X98000500Y-159354648D01*
X99735500Y-159354648D01*
X99735500Y-159559351D01*
X99767522Y-159761534D01*
X99830781Y-159956223D01*
X99923715Y-160138613D01*
X100044028Y-160304213D01*
X100188786Y-160448971D01*
X100343749Y-160561556D01*
X100354390Y-160569287D01*
X100470607Y-160628503D01*
X100536776Y-160662218D01*
X100536778Y-160662218D01*
X100536781Y-160662220D01*
X100641137Y-160696127D01*
X100731465Y-160725477D01*
X100832557Y-160741488D01*
X100933648Y-160757500D01*
X100933649Y-160757500D01*
X101138351Y-160757500D01*
X101138352Y-160757500D01*
X101340534Y-160725477D01*
X101535219Y-160662220D01*
X101717610Y-160569287D01*
X101810590Y-160501732D01*
X101883213Y-160448971D01*
X101883215Y-160448968D01*
X101883219Y-160448966D01*
X102027966Y-160304219D01*
X102027968Y-160304215D01*
X102027971Y-160304213D01*
X102087258Y-160222610D01*
X102148287Y-160138610D01*
X102241220Y-159956219D01*
X102304477Y-159761534D01*
X102336500Y-159559352D01*
X102336500Y-159438648D01*
X134372500Y-159438648D01*
X134372500Y-159643351D01*
X134404522Y-159845534D01*
X134467781Y-160040223D01*
X134560715Y-160222613D01*
X134681028Y-160388213D01*
X134825786Y-160532971D01*
X134980749Y-160645556D01*
X134991390Y-160653287D01*
X135107607Y-160712503D01*
X135173776Y-160746218D01*
X135173778Y-160746218D01*
X135173781Y-160746220D01*
X135278137Y-160780127D01*
X135368465Y-160809477D01*
X135469557Y-160825488D01*
X135570648Y-160841500D01*
X135570649Y-160841500D01*
X135775351Y-160841500D01*
X135775352Y-160841500D01*
X135977534Y-160809477D01*
X136172219Y-160746220D01*
X136354610Y-160653287D01*
X136470231Y-160569284D01*
X136520213Y-160532971D01*
X136520215Y-160532968D01*
X136520219Y-160532966D01*
X136664966Y-160388219D01*
X136664968Y-160388215D01*
X136664971Y-160388213D01*
X136725999Y-160304213D01*
X136785287Y-160222610D01*
X136878220Y-160040219D01*
X136941477Y-159845534D01*
X136973500Y-159643352D01*
X136973500Y-159438648D01*
X136941477Y-159236465D01*
X136878218Y-159041776D01*
X136835417Y-158957776D01*
X136785287Y-158859390D01*
X136777556Y-158848749D01*
X136664971Y-158693786D01*
X136520213Y-158549028D01*
X136354613Y-158428715D01*
X136354612Y-158428714D01*
X136354610Y-158428713D01*
X136297653Y-158399691D01*
X136172223Y-158335781D01*
X135977534Y-158272522D01*
X135802995Y-158244878D01*
X135775352Y-158240500D01*
X135570648Y-158240500D01*
X135546329Y-158244351D01*
X135368465Y-158272522D01*
X135173776Y-158335781D01*
X134991386Y-158428715D01*
X134825786Y-158549028D01*
X134681028Y-158693786D01*
X134560715Y-158859386D01*
X134467781Y-159041776D01*
X134404522Y-159236465D01*
X134372500Y-159438648D01*
X102336500Y-159438648D01*
X102336500Y-159354648D01*
X102304477Y-159152466D01*
X102241220Y-158957781D01*
X102241218Y-158957778D01*
X102241218Y-158957776D01*
X102191085Y-158859386D01*
X102148287Y-158775390D01*
X102088999Y-158693786D01*
X102027971Y-158609786D01*
X101883213Y-158465028D01*
X101717613Y-158344715D01*
X101717612Y-158344714D01*
X101717610Y-158344713D01*
X101660653Y-158315691D01*
X101535223Y-158251781D01*
X101340534Y-158188522D01*
X101165995Y-158160878D01*
X101138352Y-158156500D01*
X100933648Y-158156500D01*
X100909329Y-158160351D01*
X100731465Y-158188522D01*
X100536776Y-158251781D01*
X100354386Y-158344715D01*
X100188786Y-158465028D01*
X100044028Y-158609786D01*
X99923715Y-158775386D01*
X99830781Y-158957776D01*
X99767522Y-159152465D01*
X99735500Y-159354648D01*
X98000500Y-159354648D01*
X98000500Y-152068996D01*
X103799499Y-152068996D01*
X103826418Y-152204322D01*
X103826421Y-152204332D01*
X103879222Y-152331807D01*
X103955887Y-152446545D01*
X109053454Y-157544112D01*
X109168192Y-157620777D01*
X109295667Y-157673578D01*
X109295672Y-157673580D01*
X109295676Y-157673580D01*
X109295677Y-157673581D01*
X109431003Y-157700500D01*
X109431006Y-157700500D01*
X109431007Y-157700500D01*
X113275340Y-157700500D01*
X113342379Y-157720185D01*
X113375657Y-157751614D01*
X113469210Y-157880378D01*
X113619622Y-158030790D01*
X113791712Y-158155821D01*
X113855891Y-158188522D01*
X113981241Y-158252392D01*
X113981244Y-158252393D01*
X114043196Y-158272522D01*
X114183546Y-158318124D01*
X114393642Y-158351400D01*
X114393643Y-158351400D01*
X114606357Y-158351400D01*
X114606358Y-158351400D01*
X114816454Y-158318124D01*
X115018758Y-158252392D01*
X115208288Y-158155821D01*
X115380378Y-158030790D01*
X115530790Y-157880378D01*
X115655821Y-157708288D01*
X115659514Y-157701039D01*
X115707486Y-157650243D01*
X115775307Y-157633446D01*
X115841443Y-157655981D01*
X115880485Y-157701039D01*
X115884179Y-157708288D01*
X116009210Y-157880378D01*
X116159622Y-158030790D01*
X116331712Y-158155821D01*
X116395891Y-158188522D01*
X116521241Y-158252392D01*
X116521244Y-158252393D01*
X116583196Y-158272522D01*
X116723546Y-158318124D01*
X116933642Y-158351400D01*
X116933643Y-158351400D01*
X117146357Y-158351400D01*
X117146358Y-158351400D01*
X117356454Y-158318124D01*
X117558758Y-158252392D01*
X117748288Y-158155821D01*
X117920378Y-158030790D01*
X118070790Y-157880378D01*
X118195821Y-157708288D01*
X118199514Y-157701039D01*
X118247486Y-157650243D01*
X118315307Y-157633446D01*
X118381443Y-157655981D01*
X118420485Y-157701039D01*
X118424179Y-157708288D01*
X118549210Y-157880378D01*
X118699622Y-158030790D01*
X118871712Y-158155821D01*
X118935891Y-158188522D01*
X119061241Y-158252392D01*
X119061244Y-158252393D01*
X119123196Y-158272522D01*
X119263546Y-158318124D01*
X119473642Y-158351400D01*
X119473643Y-158351400D01*
X119686357Y-158351400D01*
X119686358Y-158351400D01*
X119896454Y-158318124D01*
X120098758Y-158252392D01*
X120288288Y-158155821D01*
X120460378Y-158030790D01*
X120610790Y-157880378D01*
X120735821Y-157708288D01*
X120739792Y-157700493D01*
X120787761Y-157649695D01*
X120855581Y-157632894D01*
X120921718Y-157655427D01*
X120960764Y-157700484D01*
X120964608Y-157708029D01*
X121004083Y-157762361D01*
X121004085Y-157762361D01*
X121557918Y-157208528D01*
X121563777Y-157230395D01*
X121642361Y-157366505D01*
X121753495Y-157477639D01*
X121889605Y-157556223D01*
X121911470Y-157562081D01*
X121357636Y-158115914D01*
X121357637Y-158115915D01*
X121411970Y-158155390D01*
X121601433Y-158251928D01*
X121601436Y-158251929D01*
X121803662Y-158317635D01*
X122013683Y-158350900D01*
X122226317Y-158350900D01*
X122436337Y-158317635D01*
X122638563Y-158251929D01*
X122638566Y-158251928D01*
X122828018Y-158155396D01*
X122828031Y-158155388D01*
X122882361Y-158115915D01*
X122882362Y-158115914D01*
X122328529Y-157562081D01*
X122350395Y-157556223D01*
X122486505Y-157477639D01*
X122597639Y-157366505D01*
X122676223Y-157230395D01*
X122682081Y-157208529D01*
X123235914Y-157762362D01*
X123235915Y-157762361D01*
X123275388Y-157708031D01*
X123275396Y-157708018D01*
X123371928Y-157518566D01*
X123371929Y-157518563D01*
X123437635Y-157316337D01*
X123470900Y-157106317D01*
X123470900Y-156893682D01*
X123437635Y-156683662D01*
X123371929Y-156481436D01*
X123371928Y-156481433D01*
X123275390Y-156291970D01*
X123235915Y-156237637D01*
X123235914Y-156237636D01*
X122682081Y-156791469D01*
X122676223Y-156769605D01*
X122597639Y-156633495D01*
X122486505Y-156522361D01*
X122350395Y-156443777D01*
X122328528Y-156437917D01*
X122882361Y-155884085D01*
X122882361Y-155884083D01*
X122828029Y-155844609D01*
X122638566Y-155748071D01*
X122638563Y-155748070D01*
X122436337Y-155682364D01*
X122226317Y-155649100D01*
X122013683Y-155649100D01*
X121803662Y-155682364D01*
X121601436Y-155748070D01*
X121601433Y-155748071D01*
X121411975Y-155844606D01*
X121411973Y-155844607D01*
X121357637Y-155884083D01*
X121357637Y-155884084D01*
X121911471Y-156437917D01*
X121889605Y-156443777D01*
X121753495Y-156522361D01*
X121642361Y-156633495D01*
X121563777Y-156769605D01*
X121557918Y-156791471D01*
X121004084Y-156237637D01*
X121004083Y-156237637D01*
X120964607Y-156291973D01*
X120964605Y-156291977D01*
X120960762Y-156299519D01*
X120912784Y-156350312D01*
X120844963Y-156367104D01*
X120778829Y-156344563D01*
X120739793Y-156299508D01*
X120739515Y-156298963D01*
X120735821Y-156291712D01*
X120610790Y-156119622D01*
X120460378Y-155969210D01*
X120288288Y-155844179D01*
X120098758Y-155747607D01*
X120098755Y-155747606D01*
X119896455Y-155681876D01*
X119791406Y-155665238D01*
X119686358Y-155648600D01*
X119473642Y-155648600D01*
X119403610Y-155659692D01*
X119263544Y-155681876D01*
X119061244Y-155747606D01*
X119061241Y-155747607D01*
X118871711Y-155844179D01*
X118816786Y-155884085D01*
X118699622Y-155969210D01*
X118699620Y-155969212D01*
X118699619Y-155969212D01*
X118549212Y-156119619D01*
X118549212Y-156119620D01*
X118549210Y-156119622D01*
X118549208Y-156119625D01*
X118424177Y-156291713D01*
X118420484Y-156298963D01*
X118372510Y-156349758D01*
X118304689Y-156366553D01*
X118238554Y-156344015D01*
X118199516Y-156298963D01*
X118195822Y-156291713D01*
X118156532Y-156237636D01*
X118070790Y-156119622D01*
X117920378Y-155969210D01*
X117748288Y-155844179D01*
X117558758Y-155747607D01*
X117558755Y-155747606D01*
X117356455Y-155681876D01*
X117251406Y-155665238D01*
X117146358Y-155648600D01*
X116933642Y-155648600D01*
X116863610Y-155659692D01*
X116723544Y-155681876D01*
X116521244Y-155747606D01*
X116521241Y-155747607D01*
X116331711Y-155844179D01*
X116276786Y-155884085D01*
X116159622Y-155969210D01*
X116159620Y-155969212D01*
X116159619Y-155969212D01*
X116009212Y-156119619D01*
X116009212Y-156119620D01*
X116009210Y-156119622D01*
X116009208Y-156119625D01*
X115884177Y-156291713D01*
X115880484Y-156298963D01*
X115832510Y-156349758D01*
X115764689Y-156366553D01*
X115698554Y-156344015D01*
X115659516Y-156298963D01*
X115655822Y-156291713D01*
X115616532Y-156237636D01*
X115530790Y-156119622D01*
X115380378Y-155969210D01*
X115208288Y-155844179D01*
X115018758Y-155747607D01*
X115018755Y-155747606D01*
X114816455Y-155681876D01*
X114711406Y-155665238D01*
X114606358Y-155648600D01*
X114393642Y-155648600D01*
X114323610Y-155659692D01*
X114183544Y-155681876D01*
X113981244Y-155747606D01*
X113981241Y-155747607D01*
X113791711Y-155844179D01*
X113736786Y-155884085D01*
X113619622Y-155969210D01*
X113619620Y-155969212D01*
X113619619Y-155969212D01*
X113469212Y-156119619D01*
X113469207Y-156119625D01*
X113375658Y-156248385D01*
X113320328Y-156291051D01*
X113275340Y-156299500D01*
X109841519Y-156299500D01*
X109774480Y-156279815D01*
X109753838Y-156263181D01*
X105236819Y-151746162D01*
X105203334Y-151684839D01*
X105200500Y-151658481D01*
X105200500Y-150403661D01*
X105220185Y-150336622D01*
X105272989Y-150290867D01*
X105342147Y-150280923D01*
X105405703Y-150309948D01*
X105424815Y-150330771D01*
X105475483Y-150400510D01*
X105642490Y-150567517D01*
X105833567Y-150706343D01*
X105932991Y-150757002D01*
X106044003Y-150813566D01*
X106044005Y-150813566D01*
X106044008Y-150813568D01*
X106164412Y-150852689D01*
X106268631Y-150886553D01*
X106501903Y-150923500D01*
X106501908Y-150923500D01*
X106738097Y-150923500D01*
X106971368Y-150886553D01*
X107195992Y-150813568D01*
X107406433Y-150706343D01*
X107597510Y-150567517D01*
X107764517Y-150400510D01*
X107903343Y-150209433D01*
X107963583Y-150091204D01*
X108011558Y-150040409D01*
X108074068Y-150023500D01*
X111665932Y-150023500D01*
X111732971Y-150043185D01*
X111776416Y-150091203D01*
X111836657Y-150209433D01*
X111975483Y-150400510D01*
X112142490Y-150567517D01*
X112333567Y-150706343D01*
X112432991Y-150757002D01*
X112544003Y-150813566D01*
X112544005Y-150813566D01*
X112544008Y-150813568D01*
X112664412Y-150852689D01*
X112768631Y-150886553D01*
X113001903Y-150923500D01*
X113001908Y-150923500D01*
X113238097Y-150923500D01*
X113471368Y-150886553D01*
X113695992Y-150813568D01*
X113906433Y-150706343D01*
X114097510Y-150567517D01*
X114264517Y-150400510D01*
X114403343Y-150209433D01*
X114463583Y-150091204D01*
X114511558Y-150040409D01*
X114574068Y-150023500D01*
X122449932Y-150023500D01*
X122516971Y-150043185D01*
X122560416Y-150091203D01*
X122620657Y-150209433D01*
X122759483Y-150400510D01*
X122926490Y-150567517D01*
X123117567Y-150706343D01*
X123216991Y-150757002D01*
X123328003Y-150813566D01*
X123328005Y-150813566D01*
X123328008Y-150813568D01*
X123448412Y-150852689D01*
X123552631Y-150886553D01*
X123785903Y-150923500D01*
X123785908Y-150923500D01*
X124022097Y-150923500D01*
X124255368Y-150886553D01*
X124479992Y-150813568D01*
X124690433Y-150706343D01*
X124881510Y-150567517D01*
X125048517Y-150400510D01*
X125187343Y-150209433D01*
X125294568Y-149998992D01*
X125367553Y-149774368D01*
X125404500Y-149541097D01*
X125404500Y-149304902D01*
X128903500Y-149304902D01*
X128903500Y-149541097D01*
X128940446Y-149774368D01*
X129013433Y-149998996D01*
X129120657Y-150209433D01*
X129259483Y-150400510D01*
X129426490Y-150567517D01*
X129617567Y-150706343D01*
X129716991Y-150757002D01*
X129828003Y-150813566D01*
X129828005Y-150813566D01*
X129828008Y-150813568D01*
X129948412Y-150852689D01*
X130052631Y-150886553D01*
X130285903Y-150923500D01*
X130285908Y-150923500D01*
X130522097Y-150923500D01*
X130755368Y-150886553D01*
X130979992Y-150813568D01*
X131190433Y-150706343D01*
X131381510Y-150567517D01*
X131548517Y-150400510D01*
X131687343Y-150209433D01*
X131794568Y-149998992D01*
X131867553Y-149774368D01*
X131904500Y-149541097D01*
X131904500Y-149304902D01*
X131867553Y-149071631D01*
X131794566Y-148847003D01*
X131687342Y-148636566D01*
X131548517Y-148445490D01*
X131381510Y-148278483D01*
X131190433Y-148139657D01*
X130979996Y-148032433D01*
X130755368Y-147959446D01*
X130522097Y-147922500D01*
X130522092Y-147922500D01*
X130285908Y-147922500D01*
X130285903Y-147922500D01*
X130052631Y-147959446D01*
X129828003Y-148032433D01*
X129617566Y-148139657D01*
X129508550Y-148218862D01*
X129426490Y-148278483D01*
X129426488Y-148278485D01*
X129426487Y-148278485D01*
X129259485Y-148445487D01*
X129259485Y-148445488D01*
X129259483Y-148445490D01*
X129259479Y-148445496D01*
X129120657Y-148636566D01*
X129013433Y-148847003D01*
X128940446Y-149071631D01*
X128903500Y-149304902D01*
X125404500Y-149304902D01*
X125367553Y-149071631D01*
X125294566Y-148847003D01*
X125187342Y-148636566D01*
X125048517Y-148445490D01*
X124881510Y-148278483D01*
X124690433Y-148139657D01*
X124479996Y-148032433D01*
X124255368Y-147959446D01*
X124022097Y-147922500D01*
X124022092Y-147922500D01*
X123785908Y-147922500D01*
X123785903Y-147922500D01*
X123552631Y-147959446D01*
X123328003Y-148032433D01*
X123117566Y-148139657D01*
X123008550Y-148218862D01*
X122926490Y-148278483D01*
X122926488Y-148278485D01*
X122926487Y-148278485D01*
X122759485Y-148445487D01*
X122759485Y-148445488D01*
X122759483Y-148445490D01*
X122759479Y-148445496D01*
X122620657Y-148636566D01*
X122560417Y-148754795D01*
X122512442Y-148805591D01*
X122449932Y-148822500D01*
X114574068Y-148822500D01*
X114507029Y-148802815D01*
X114463583Y-148754795D01*
X114403342Y-148636566D01*
X114264517Y-148445490D01*
X114097510Y-148278483D01*
X113906433Y-148139657D01*
X113695996Y-148032433D01*
X113471368Y-147959446D01*
X113238097Y-147922500D01*
X113238092Y-147922500D01*
X113001908Y-147922500D01*
X113001903Y-147922500D01*
X112768631Y-147959446D01*
X112544003Y-148032433D01*
X112333566Y-148139657D01*
X112224550Y-148218862D01*
X112142490Y-148278483D01*
X112142488Y-148278485D01*
X112142487Y-148278485D01*
X111975485Y-148445487D01*
X111975485Y-148445488D01*
X111975483Y-148445490D01*
X111975479Y-148445496D01*
X111836657Y-148636566D01*
X111776417Y-148754795D01*
X111728442Y-148805591D01*
X111665932Y-148822500D01*
X108074068Y-148822500D01*
X108007029Y-148802815D01*
X107963583Y-148754795D01*
X107903342Y-148636566D01*
X107764517Y-148445490D01*
X107597510Y-148278483D01*
X107406433Y-148139657D01*
X107195996Y-148032433D01*
X106971368Y-147959446D01*
X106738097Y-147922500D01*
X106738092Y-147922500D01*
X106501908Y-147922500D01*
X106501903Y-147922500D01*
X106268631Y-147959446D01*
X106044003Y-148032433D01*
X105833566Y-148139657D01*
X105724550Y-148218862D01*
X105642490Y-148278483D01*
X105642488Y-148278485D01*
X105642487Y-148278485D01*
X105475485Y-148445487D01*
X105475478Y-148445496D01*
X105424817Y-148515224D01*
X105369487Y-148557890D01*
X105299874Y-148563868D01*
X105238079Y-148531262D01*
X105203722Y-148470423D01*
X105200500Y-148442338D01*
X105200500Y-145903661D01*
X105220185Y-145836622D01*
X105272989Y-145790867D01*
X105342147Y-145780923D01*
X105405703Y-145809948D01*
X105424815Y-145830771D01*
X105475483Y-145900510D01*
X105642490Y-146067517D01*
X105833567Y-146206343D01*
X105932991Y-146257002D01*
X106044003Y-146313566D01*
X106044005Y-146313566D01*
X106044008Y-146313568D01*
X106164412Y-146352689D01*
X106268631Y-146386553D01*
X106501903Y-146423500D01*
X106501908Y-146423500D01*
X106738097Y-146423500D01*
X106971368Y-146386553D01*
X107195992Y-146313568D01*
X107406433Y-146206343D01*
X107597510Y-146067517D01*
X107764517Y-145900510D01*
X107903343Y-145709433D01*
X107963583Y-145591204D01*
X108011558Y-145540409D01*
X108074068Y-145523500D01*
X111665932Y-145523500D01*
X111732971Y-145543185D01*
X111776416Y-145591203D01*
X111836657Y-145709433D01*
X111975483Y-145900510D01*
X112142490Y-146067517D01*
X112333567Y-146206343D01*
X112432991Y-146257002D01*
X112544003Y-146313566D01*
X112544005Y-146313566D01*
X112544008Y-146313568D01*
X112664412Y-146352689D01*
X112768631Y-146386553D01*
X113001903Y-146423500D01*
X113001908Y-146423500D01*
X113238097Y-146423500D01*
X113471368Y-146386553D01*
X113695992Y-146313568D01*
X113906433Y-146206343D01*
X114097510Y-146067517D01*
X114264517Y-145900510D01*
X114403343Y-145709433D01*
X114510568Y-145498992D01*
X114583553Y-145274368D01*
X114620500Y-145041097D01*
X114620500Y-144804902D01*
X122403500Y-144804902D01*
X122403500Y-145041097D01*
X122440446Y-145274368D01*
X122513433Y-145498996D01*
X122620657Y-145709433D01*
X122759483Y-145900510D01*
X122926490Y-146067517D01*
X123117567Y-146206343D01*
X123216991Y-146257002D01*
X123328003Y-146313566D01*
X123328005Y-146313566D01*
X123328008Y-146313568D01*
X123448412Y-146352689D01*
X123552631Y-146386553D01*
X123785903Y-146423500D01*
X123785908Y-146423500D01*
X124022097Y-146423500D01*
X124255368Y-146386553D01*
X124479992Y-146313568D01*
X124690433Y-146206343D01*
X124881510Y-146067517D01*
X125048517Y-145900510D01*
X125187343Y-145709433D01*
X125247583Y-145591204D01*
X125295558Y-145540409D01*
X125358068Y-145523500D01*
X128949932Y-145523500D01*
X129016971Y-145543185D01*
X129060416Y-145591203D01*
X129120657Y-145709433D01*
X129259483Y-145900510D01*
X129426490Y-146067517D01*
X129617567Y-146206343D01*
X129716991Y-146257002D01*
X129828003Y-146313566D01*
X129828005Y-146313566D01*
X129828008Y-146313568D01*
X129948412Y-146352689D01*
X130052631Y-146386553D01*
X130285903Y-146423500D01*
X130285908Y-146423500D01*
X130522097Y-146423500D01*
X130755368Y-146386553D01*
X130979992Y-146313568D01*
X131190433Y-146206343D01*
X131381510Y-146067517D01*
X131548517Y-145900510D01*
X131687343Y-145709433D01*
X131794568Y-145498992D01*
X131867553Y-145274368D01*
X131904500Y-145041097D01*
X131904500Y-144804902D01*
X131867553Y-144571631D01*
X131794566Y-144347003D01*
X131687342Y-144136566D01*
X131548517Y-143945490D01*
X131381510Y-143778483D01*
X131190433Y-143639657D01*
X130979996Y-143532433D01*
X130755368Y-143459446D01*
X130522097Y-143422500D01*
X130522092Y-143422500D01*
X130285908Y-143422500D01*
X130285903Y-143422500D01*
X130052631Y-143459446D01*
X129828003Y-143532433D01*
X129617566Y-143639657D01*
X129508550Y-143718862D01*
X129426490Y-143778483D01*
X129426488Y-143778485D01*
X129426487Y-143778485D01*
X129259485Y-143945487D01*
X129259485Y-143945488D01*
X129259483Y-143945490D01*
X129259479Y-143945496D01*
X129120657Y-144136566D01*
X129060417Y-144254795D01*
X129012442Y-144305591D01*
X128949932Y-144322500D01*
X125358068Y-144322500D01*
X125291029Y-144302815D01*
X125247583Y-144254795D01*
X125187342Y-144136566D01*
X125048517Y-143945490D01*
X124881510Y-143778483D01*
X124690433Y-143639657D01*
X124479996Y-143532433D01*
X124255368Y-143459446D01*
X124022097Y-143422500D01*
X124022092Y-143422500D01*
X123785908Y-143422500D01*
X123785903Y-143422500D01*
X123552631Y-143459446D01*
X123328003Y-143532433D01*
X123117566Y-143639657D01*
X123008550Y-143718862D01*
X122926490Y-143778483D01*
X122926488Y-143778485D01*
X122926487Y-143778485D01*
X122759485Y-143945487D01*
X122759485Y-143945488D01*
X122759483Y-143945490D01*
X122759479Y-143945496D01*
X122620657Y-144136566D01*
X122513433Y-144347003D01*
X122440446Y-144571631D01*
X122403500Y-144804902D01*
X114620500Y-144804902D01*
X114583553Y-144571631D01*
X114510566Y-144347003D01*
X114403342Y-144136566D01*
X114264517Y-143945490D01*
X114097510Y-143778483D01*
X113906433Y-143639657D01*
X113695996Y-143532433D01*
X113471368Y-143459446D01*
X113238097Y-143422500D01*
X113238092Y-143422500D01*
X113001908Y-143422500D01*
X113001903Y-143422500D01*
X112768631Y-143459446D01*
X112544003Y-143532433D01*
X112333566Y-143639657D01*
X112224550Y-143718862D01*
X112142490Y-143778483D01*
X112142488Y-143778485D01*
X112142487Y-143778485D01*
X111975485Y-143945487D01*
X111975485Y-143945488D01*
X111975483Y-143945490D01*
X111975479Y-143945496D01*
X111836657Y-144136566D01*
X111776417Y-144254795D01*
X111728442Y-144305591D01*
X111665932Y-144322500D01*
X108074068Y-144322500D01*
X108007029Y-144302815D01*
X107963583Y-144254795D01*
X107903342Y-144136566D01*
X107764517Y-143945490D01*
X107597510Y-143778483D01*
X107406433Y-143639657D01*
X107195996Y-143532433D01*
X106971368Y-143459446D01*
X106738097Y-143422500D01*
X106738092Y-143422500D01*
X106501908Y-143422500D01*
X106501903Y-143422500D01*
X106268631Y-143459446D01*
X106044003Y-143532433D01*
X105833566Y-143639657D01*
X105724550Y-143718862D01*
X105642490Y-143778483D01*
X105642488Y-143778485D01*
X105642487Y-143778485D01*
X105475485Y-143945487D01*
X105475478Y-143945496D01*
X105424817Y-144015224D01*
X105369487Y-144057890D01*
X105299874Y-144063868D01*
X105238079Y-144031262D01*
X105203722Y-143970423D01*
X105200500Y-143942338D01*
X105200500Y-139341518D01*
X105220185Y-139274479D01*
X105236814Y-139253842D01*
X109286975Y-135203680D01*
X109327202Y-135176802D01*
X109355495Y-135165084D01*
X109478416Y-135082951D01*
X109582951Y-134978416D01*
X109665084Y-134855495D01*
X109721658Y-134718913D01*
X109750500Y-134573918D01*
X109750500Y-134426082D01*
X109750500Y-134426079D01*
X109721659Y-134281093D01*
X109721658Y-134281087D01*
X109709937Y-134252790D01*
X109700500Y-134205342D01*
X109700500Y-133431004D01*
X109673581Y-133295677D01*
X109673580Y-133295676D01*
X109673580Y-133295672D01*
X109673578Y-133295667D01*
X109620778Y-133168195D01*
X109620771Y-133168182D01*
X109544115Y-133053459D01*
X109544114Y-133053458D01*
X109446542Y-132955886D01*
X109073604Y-132582948D01*
X108564577Y-132073920D01*
X111249499Y-132073920D01*
X111278340Y-132218907D01*
X111278343Y-132218917D01*
X111334912Y-132355488D01*
X111334919Y-132355501D01*
X111417048Y-132478415D01*
X111417051Y-132478419D01*
X111521580Y-132582948D01*
X111521584Y-132582951D01*
X111644498Y-132665080D01*
X111644511Y-132665087D01*
X111777531Y-132720185D01*
X111781087Y-132721658D01*
X111781091Y-132721658D01*
X111781092Y-132721659D01*
X111926079Y-132750500D01*
X111926082Y-132750500D01*
X112073920Y-132750500D01*
X112171462Y-132731096D01*
X112218913Y-132721658D01*
X112233372Y-132715668D01*
X112247206Y-132709939D01*
X112294658Y-132700500D01*
X119878481Y-132700500D01*
X119945520Y-132720185D01*
X119966162Y-132736819D01*
X122296316Y-135066973D01*
X122323196Y-135107201D01*
X122334914Y-135135491D01*
X122334919Y-135135501D01*
X122417048Y-135258415D01*
X122417051Y-135258419D01*
X122521580Y-135362948D01*
X122521584Y-135362951D01*
X122644498Y-135445080D01*
X122644511Y-135445087D01*
X122781082Y-135501656D01*
X122781087Y-135501658D01*
X122781091Y-135501658D01*
X122781092Y-135501659D01*
X122926079Y-135530500D01*
X122926082Y-135530500D01*
X123073920Y-135530500D01*
X123171462Y-135511096D01*
X123218913Y-135501658D01*
X123355495Y-135445084D01*
X123478416Y-135362951D01*
X123582951Y-135258416D01*
X123665084Y-135135495D01*
X123721658Y-134998913D01*
X123731096Y-134951462D01*
X123750500Y-134853920D01*
X123750500Y-134706079D01*
X123721659Y-134561092D01*
X123721658Y-134561091D01*
X123721658Y-134561087D01*
X123721656Y-134561082D01*
X123665087Y-134424511D01*
X123665080Y-134424498D01*
X123582951Y-134301584D01*
X123582948Y-134301580D01*
X123478419Y-134197051D01*
X123478415Y-134197048D01*
X123355501Y-134114919D01*
X123355491Y-134114914D01*
X123327201Y-134103196D01*
X123286973Y-134076316D01*
X120666546Y-131455888D01*
X120666545Y-131455887D01*
X120551807Y-131379222D01*
X120424332Y-131326421D01*
X120424322Y-131326418D01*
X120288996Y-131299500D01*
X120288994Y-131299500D01*
X120288993Y-131299500D01*
X112294658Y-131299500D01*
X112247206Y-131290061D01*
X112218917Y-131278343D01*
X112218907Y-131278340D01*
X112073920Y-131249500D01*
X112073918Y-131249500D01*
X111926082Y-131249500D01*
X111926080Y-131249500D01*
X111781092Y-131278340D01*
X111781082Y-131278343D01*
X111644511Y-131334912D01*
X111644498Y-131334919D01*
X111521584Y-131417048D01*
X111521580Y-131417051D01*
X111417051Y-131521580D01*
X111417048Y-131521584D01*
X111334919Y-131644498D01*
X111334912Y-131644511D01*
X111278343Y-131781082D01*
X111278340Y-131781092D01*
X111249500Y-131926079D01*
X111249500Y-131926082D01*
X111249500Y-132073918D01*
X111249500Y-132073920D01*
X111249499Y-132073920D01*
X108564577Y-132073920D01*
X108498328Y-132007671D01*
X108203683Y-131713026D01*
X108176802Y-131672796D01*
X108165084Y-131644505D01*
X108165080Y-131644498D01*
X108082951Y-131521584D01*
X108082948Y-131521580D01*
X107978419Y-131417051D01*
X107978415Y-131417048D01*
X107855501Y-131334919D01*
X107855488Y-131334912D01*
X107718917Y-131278343D01*
X107718907Y-131278340D01*
X107573920Y-131249500D01*
X107573918Y-131249500D01*
X107426082Y-131249500D01*
X107426080Y-131249500D01*
X107281092Y-131278340D01*
X107281082Y-131278343D01*
X107144511Y-131334912D01*
X107144498Y-131334919D01*
X107021584Y-131417048D01*
X107021580Y-131417051D01*
X106917051Y-131521580D01*
X106917048Y-131521584D01*
X106834919Y-131644498D01*
X106834912Y-131644511D01*
X106778343Y-131781082D01*
X106778340Y-131781092D01*
X106749500Y-131926079D01*
X106749500Y-131926082D01*
X106749500Y-132073918D01*
X106749500Y-132073920D01*
X106749499Y-132073920D01*
X106778340Y-132218907D01*
X106778343Y-132218917D01*
X106834912Y-132355488D01*
X106834919Y-132355501D01*
X106917048Y-132478415D01*
X106917051Y-132478419D01*
X107021580Y-132582948D01*
X107021584Y-132582951D01*
X107144498Y-132665080D01*
X107144505Y-132665084D01*
X107172797Y-132676803D01*
X107213026Y-132703683D01*
X108263181Y-133753837D01*
X108296666Y-133815160D01*
X108299500Y-133841518D01*
X108299500Y-134158480D01*
X108279815Y-134225519D01*
X108263181Y-134246161D01*
X103955888Y-138553453D01*
X103955887Y-138553454D01*
X103879222Y-138668192D01*
X103826421Y-138795667D01*
X103826418Y-138795677D01*
X103799500Y-138931004D01*
X103799500Y-138931007D01*
X103799500Y-151931006D01*
X103799500Y-152068994D01*
X103799500Y-152068996D01*
X103799499Y-152068996D01*
X98000500Y-152068996D01*
X98000500Y-124722902D01*
X105178500Y-124722902D01*
X105178500Y-124959097D01*
X105215446Y-125192368D01*
X105288433Y-125416996D01*
X105395657Y-125627433D01*
X105534483Y-125818510D01*
X105701490Y-125985517D01*
X105892567Y-126124343D01*
X105991991Y-126175002D01*
X106103003Y-126231566D01*
X106103005Y-126231566D01*
X106103008Y-126231568D01*
X106223412Y-126270689D01*
X106327631Y-126304553D01*
X106560903Y-126341500D01*
X106560908Y-126341500D01*
X106797097Y-126341500D01*
X107030368Y-126304553D01*
X107254992Y-126231568D01*
X107465433Y-126124343D01*
X107656510Y-125985517D01*
X107823517Y-125818510D01*
X107962343Y-125627433D01*
X108022583Y-125509204D01*
X108070558Y-125458409D01*
X108133068Y-125441500D01*
X111724932Y-125441500D01*
X111791971Y-125461185D01*
X111835416Y-125509203D01*
X111895657Y-125627433D01*
X112034483Y-125818510D01*
X112201490Y-125985517D01*
X112392567Y-126124343D01*
X112491991Y-126175002D01*
X112603003Y-126231566D01*
X112603005Y-126231566D01*
X112603008Y-126231568D01*
X112723412Y-126270689D01*
X112827631Y-126304553D01*
X113060903Y-126341500D01*
X113060908Y-126341500D01*
X113297097Y-126341500D01*
X113530368Y-126304553D01*
X113754992Y-126231568D01*
X113965433Y-126124343D01*
X114156510Y-125985517D01*
X114323517Y-125818510D01*
X114462343Y-125627433D01*
X114521564Y-125511204D01*
X114569539Y-125460409D01*
X114632049Y-125443500D01*
X122393932Y-125443500D01*
X122460971Y-125463185D01*
X122504416Y-125511203D01*
X122564657Y-125629433D01*
X122703483Y-125820510D01*
X122870490Y-125987517D01*
X123061567Y-126126343D01*
X123160991Y-126177002D01*
X123272003Y-126233566D01*
X123272005Y-126233566D01*
X123272008Y-126233568D01*
X123392412Y-126272689D01*
X123496631Y-126306553D01*
X123729903Y-126343500D01*
X123729908Y-126343500D01*
X123966097Y-126343500D01*
X124199368Y-126306553D01*
X124205523Y-126304553D01*
X124423992Y-126233568D01*
X124634433Y-126126343D01*
X124825510Y-125987517D01*
X124992517Y-125820510D01*
X125131343Y-125629433D01*
X125191583Y-125511204D01*
X125239558Y-125460409D01*
X125302068Y-125443500D01*
X128893932Y-125443500D01*
X128960971Y-125463185D01*
X129004416Y-125511203D01*
X129064657Y-125629433D01*
X129203483Y-125820510D01*
X129370490Y-125987517D01*
X129561567Y-126126343D01*
X129660991Y-126177002D01*
X129772003Y-126233566D01*
X129772005Y-126233566D01*
X129772008Y-126233568D01*
X129892412Y-126272689D01*
X129996631Y-126306553D01*
X130229903Y-126343500D01*
X130229908Y-126343500D01*
X130466097Y-126343500D01*
X130699368Y-126306553D01*
X130705523Y-126304553D01*
X130923992Y-126233568D01*
X131134433Y-126126343D01*
X131325510Y-125987517D01*
X131492517Y-125820510D01*
X131631343Y-125629433D01*
X131738568Y-125418992D01*
X131811553Y-125194368D01*
X131811870Y-125192368D01*
X131848500Y-124961097D01*
X131848500Y-124724902D01*
X131811553Y-124491631D01*
X131738566Y-124267003D01*
X131631342Y-124056566D01*
X131629889Y-124054566D01*
X131492517Y-123865490D01*
X131325510Y-123698483D01*
X131134433Y-123559657D01*
X131130508Y-123557657D01*
X130923996Y-123452433D01*
X130699368Y-123379446D01*
X130466097Y-123342500D01*
X130466092Y-123342500D01*
X130229908Y-123342500D01*
X130229903Y-123342500D01*
X129996631Y-123379446D01*
X129772003Y-123452433D01*
X129561566Y-123559657D01*
X129452550Y-123638862D01*
X129370490Y-123698483D01*
X129370488Y-123698485D01*
X129370487Y-123698485D01*
X129203485Y-123865487D01*
X129203485Y-123865488D01*
X129203483Y-123865490D01*
X129143862Y-123947550D01*
X129064657Y-124056566D01*
X129004417Y-124174795D01*
X128956442Y-124225591D01*
X128893932Y-124242500D01*
X125302068Y-124242500D01*
X125235029Y-124222815D01*
X125191583Y-124174795D01*
X125131342Y-124056566D01*
X125129889Y-124054566D01*
X124992517Y-123865490D01*
X124825510Y-123698483D01*
X124634433Y-123559657D01*
X124630508Y-123557657D01*
X124423996Y-123452433D01*
X124199368Y-123379446D01*
X123966097Y-123342500D01*
X123966092Y-123342500D01*
X123729908Y-123342500D01*
X123729903Y-123342500D01*
X123496631Y-123379446D01*
X123272003Y-123452433D01*
X123061566Y-123559657D01*
X122952550Y-123638862D01*
X122870490Y-123698483D01*
X122870488Y-123698485D01*
X122870487Y-123698485D01*
X122703485Y-123865487D01*
X122703485Y-123865488D01*
X122703483Y-123865490D01*
X122643862Y-123947550D01*
X122564657Y-124056566D01*
X122504417Y-124174795D01*
X122456442Y-124225591D01*
X122393932Y-124242500D01*
X114634087Y-124242500D01*
X114567048Y-124222815D01*
X114523602Y-124174795D01*
X114463362Y-124056567D01*
X114462343Y-124054567D01*
X114323517Y-123863490D01*
X114156510Y-123696483D01*
X113965433Y-123557657D01*
X113754996Y-123450433D01*
X113530368Y-123377446D01*
X113297097Y-123340500D01*
X113297092Y-123340500D01*
X113060908Y-123340500D01*
X113060903Y-123340500D01*
X112827631Y-123377446D01*
X112603003Y-123450433D01*
X112392566Y-123557657D01*
X112283550Y-123636862D01*
X112201490Y-123696483D01*
X112201488Y-123696485D01*
X112201487Y-123696485D01*
X112034485Y-123863487D01*
X112034485Y-123863488D01*
X112034483Y-123863490D01*
X112033030Y-123865490D01*
X111895657Y-124054566D01*
X111835417Y-124172795D01*
X111787442Y-124223591D01*
X111724932Y-124240500D01*
X108133068Y-124240500D01*
X108066029Y-124220815D01*
X108022583Y-124172795D01*
X107963362Y-124056567D01*
X107962343Y-124054567D01*
X107823517Y-123863490D01*
X107656510Y-123696483D01*
X107465433Y-123557657D01*
X107254996Y-123450433D01*
X107030368Y-123377446D01*
X106797097Y-123340500D01*
X106797092Y-123340500D01*
X106560908Y-123340500D01*
X106560903Y-123340500D01*
X106327631Y-123377446D01*
X106103003Y-123450433D01*
X105892566Y-123557657D01*
X105783550Y-123636862D01*
X105701490Y-123696483D01*
X105701488Y-123696485D01*
X105701487Y-123696485D01*
X105534485Y-123863487D01*
X105534485Y-123863488D01*
X105534483Y-123863490D01*
X105533030Y-123865490D01*
X105395657Y-124054566D01*
X105288433Y-124265003D01*
X105215446Y-124489631D01*
X105178500Y-124722902D01*
X98000500Y-124722902D01*
X98000500Y-120222902D01*
X105178500Y-120222902D01*
X105178500Y-120459097D01*
X105215446Y-120692368D01*
X105288433Y-120916996D01*
X105395657Y-121127433D01*
X105534483Y-121318510D01*
X105701490Y-121485517D01*
X105892567Y-121624343D01*
X105991991Y-121675002D01*
X106103003Y-121731566D01*
X106103005Y-121731566D01*
X106103008Y-121731568D01*
X106223412Y-121770689D01*
X106327631Y-121804553D01*
X106560903Y-121841500D01*
X106560908Y-121841500D01*
X106797097Y-121841500D01*
X107030368Y-121804553D01*
X107254992Y-121731568D01*
X107465433Y-121624343D01*
X107656510Y-121485517D01*
X107823517Y-121318510D01*
X107962343Y-121127433D01*
X108022583Y-121009204D01*
X108070558Y-120958409D01*
X108133068Y-120941500D01*
X111724932Y-120941500D01*
X111791971Y-120961185D01*
X111835416Y-121009203D01*
X111895657Y-121127433D01*
X112034483Y-121318510D01*
X112201490Y-121485517D01*
X112392567Y-121624343D01*
X112491991Y-121675002D01*
X112603003Y-121731566D01*
X112603005Y-121731566D01*
X112603008Y-121731568D01*
X112723412Y-121770689D01*
X112827631Y-121804553D01*
X113060903Y-121841500D01*
X113060908Y-121841500D01*
X113297097Y-121841500D01*
X113530368Y-121804553D01*
X113754992Y-121731568D01*
X113965433Y-121624343D01*
X114156510Y-121485517D01*
X114323517Y-121318510D01*
X114462343Y-121127433D01*
X114569568Y-120916992D01*
X114642553Y-120692368D01*
X114679500Y-120459097D01*
X114679500Y-120224902D01*
X122347500Y-120224902D01*
X122347500Y-120461097D01*
X122384446Y-120694368D01*
X122457433Y-120918996D01*
X122563638Y-121127433D01*
X122564657Y-121129433D01*
X122703483Y-121320510D01*
X122870490Y-121487517D01*
X123061567Y-121626343D01*
X123160991Y-121677002D01*
X123272003Y-121733566D01*
X123272005Y-121733566D01*
X123272008Y-121733568D01*
X123392412Y-121772689D01*
X123496631Y-121806553D01*
X123729903Y-121843500D01*
X123729908Y-121843500D01*
X123966097Y-121843500D01*
X124199368Y-121806553D01*
X124205523Y-121804553D01*
X124423992Y-121733568D01*
X124634433Y-121626343D01*
X124825510Y-121487517D01*
X124992517Y-121320510D01*
X125131343Y-121129433D01*
X125238568Y-120918992D01*
X125311553Y-120694368D01*
X125311870Y-120692368D01*
X125348500Y-120461097D01*
X125348500Y-120224902D01*
X128847500Y-120224902D01*
X128847500Y-120461097D01*
X128884446Y-120694368D01*
X128957433Y-120918996D01*
X129063638Y-121127433D01*
X129064657Y-121129433D01*
X129203483Y-121320510D01*
X129370490Y-121487517D01*
X129561567Y-121626343D01*
X129660991Y-121677002D01*
X129772003Y-121733566D01*
X129772005Y-121733566D01*
X129772008Y-121733568D01*
X129892412Y-121772689D01*
X129996631Y-121806553D01*
X130229903Y-121843500D01*
X130229908Y-121843500D01*
X130466097Y-121843500D01*
X130699368Y-121806553D01*
X130705523Y-121804553D01*
X130923992Y-121733568D01*
X131134433Y-121626343D01*
X131325510Y-121487517D01*
X131492517Y-121320510D01*
X131631343Y-121129433D01*
X131738568Y-120918992D01*
X131811553Y-120694368D01*
X131811870Y-120692368D01*
X131848500Y-120461097D01*
X131848500Y-120224902D01*
X131811553Y-119991631D01*
X131738566Y-119767003D01*
X131631342Y-119556566D01*
X131629889Y-119554566D01*
X131492517Y-119365490D01*
X131325510Y-119198483D01*
X131134433Y-119059657D01*
X131130508Y-119057657D01*
X130923996Y-118952433D01*
X130699368Y-118879446D01*
X130466097Y-118842500D01*
X130466092Y-118842500D01*
X130229908Y-118842500D01*
X130229903Y-118842500D01*
X129996631Y-118879446D01*
X129772003Y-118952433D01*
X129561566Y-119059657D01*
X129452550Y-119138862D01*
X129370490Y-119198483D01*
X129370488Y-119198485D01*
X129370487Y-119198485D01*
X129203485Y-119365487D01*
X129203485Y-119365488D01*
X129203483Y-119365490D01*
X129143862Y-119447550D01*
X129064657Y-119556566D01*
X128957433Y-119767003D01*
X128884446Y-119991631D01*
X128847500Y-120224902D01*
X125348500Y-120224902D01*
X125311553Y-119991631D01*
X125238566Y-119767003D01*
X125131342Y-119556566D01*
X125129889Y-119554566D01*
X124992517Y-119365490D01*
X124825510Y-119198483D01*
X124634433Y-119059657D01*
X124630508Y-119057657D01*
X124423996Y-118952433D01*
X124199368Y-118879446D01*
X123966097Y-118842500D01*
X123966092Y-118842500D01*
X123729908Y-118842500D01*
X123729903Y-118842500D01*
X123496631Y-118879446D01*
X123272003Y-118952433D01*
X123061566Y-119059657D01*
X122952550Y-119138862D01*
X122870490Y-119198483D01*
X122870488Y-119198485D01*
X122870487Y-119198485D01*
X122703485Y-119365487D01*
X122703485Y-119365488D01*
X122703483Y-119365490D01*
X122643862Y-119447550D01*
X122564657Y-119556566D01*
X122457433Y-119767003D01*
X122384446Y-119991631D01*
X122347500Y-120224902D01*
X114679500Y-120224902D01*
X114679500Y-120222902D01*
X114642553Y-119989631D01*
X114608689Y-119885412D01*
X114569568Y-119765008D01*
X114569566Y-119765005D01*
X114569566Y-119765003D01*
X114463362Y-119556567D01*
X114462343Y-119554567D01*
X114323517Y-119363490D01*
X114156510Y-119196483D01*
X113965433Y-119057657D01*
X113754996Y-118950433D01*
X113530368Y-118877446D01*
X113297097Y-118840500D01*
X113297092Y-118840500D01*
X113060908Y-118840500D01*
X113060903Y-118840500D01*
X112827631Y-118877446D01*
X112603003Y-118950433D01*
X112392566Y-119057657D01*
X112283550Y-119136862D01*
X112201490Y-119196483D01*
X112201488Y-119196485D01*
X112201487Y-119196485D01*
X112034485Y-119363487D01*
X112034485Y-119363488D01*
X112034483Y-119363490D01*
X112033030Y-119365490D01*
X111895657Y-119554566D01*
X111835417Y-119672795D01*
X111787442Y-119723591D01*
X111724932Y-119740500D01*
X108133068Y-119740500D01*
X108066029Y-119720815D01*
X108022583Y-119672795D01*
X107963362Y-119556567D01*
X107962343Y-119554567D01*
X107823517Y-119363490D01*
X107656510Y-119196483D01*
X107465433Y-119057657D01*
X107254996Y-118950433D01*
X107030368Y-118877446D01*
X106797097Y-118840500D01*
X106797092Y-118840500D01*
X106560908Y-118840500D01*
X106560903Y-118840500D01*
X106327631Y-118877446D01*
X106103003Y-118950433D01*
X105892566Y-119057657D01*
X105783550Y-119136862D01*
X105701490Y-119196483D01*
X105701488Y-119196485D01*
X105701487Y-119196485D01*
X105534485Y-119363487D01*
X105534485Y-119363488D01*
X105534483Y-119363490D01*
X105533030Y-119365490D01*
X105395657Y-119554566D01*
X105288433Y-119765003D01*
X105215446Y-119989631D01*
X105178500Y-120222902D01*
X98000500Y-120222902D01*
X98000500Y-99081648D01*
X99735500Y-99081648D01*
X99735500Y-99286352D01*
X99739878Y-99313995D01*
X99767522Y-99488534D01*
X99830781Y-99683223D01*
X99894691Y-99808653D01*
X99913522Y-99845610D01*
X99923715Y-99865613D01*
X100044028Y-100031213D01*
X100188786Y-100175971D01*
X100326858Y-100276284D01*
X100354390Y-100296287D01*
X100470607Y-100355503D01*
X100536776Y-100389218D01*
X100536778Y-100389218D01*
X100536781Y-100389220D01*
X100641137Y-100423127D01*
X100731465Y-100452477D01*
X100807375Y-100464500D01*
X100933648Y-100484500D01*
X100933649Y-100484500D01*
X101138351Y-100484500D01*
X101138352Y-100484500D01*
X101340534Y-100452477D01*
X101535219Y-100389220D01*
X101717610Y-100296287D01*
X101810590Y-100228732D01*
X101883213Y-100175971D01*
X101883215Y-100175968D01*
X101883219Y-100175966D01*
X101933283Y-100125902D01*
X105148500Y-100125902D01*
X105148500Y-100362097D01*
X105185446Y-100595368D01*
X105258433Y-100819996D01*
X105317645Y-100936205D01*
X105365657Y-101030433D01*
X105504483Y-101221510D01*
X105671490Y-101388517D01*
X105862567Y-101527343D01*
X105909668Y-101551342D01*
X106073003Y-101634566D01*
X106073005Y-101634566D01*
X106073008Y-101634568D01*
X106193412Y-101673689D01*
X106297631Y-101707553D01*
X106530903Y-101744500D01*
X106530908Y-101744500D01*
X106767097Y-101744500D01*
X107000368Y-101707553D01*
X107224992Y-101634568D01*
X107435433Y-101527343D01*
X107626510Y-101388517D01*
X107793517Y-101221510D01*
X107932343Y-101030433D01*
X107992583Y-100912204D01*
X108040558Y-100861409D01*
X108103068Y-100844500D01*
X111694932Y-100844500D01*
X111761971Y-100864185D01*
X111805416Y-100912203D01*
X111865657Y-101030433D01*
X112004483Y-101221510D01*
X112171490Y-101388517D01*
X112362567Y-101527343D01*
X112409668Y-101551342D01*
X112573003Y-101634566D01*
X112573005Y-101634566D01*
X112573008Y-101634568D01*
X112693412Y-101673689D01*
X112797631Y-101707553D01*
X113030903Y-101744500D01*
X113030908Y-101744500D01*
X113267097Y-101744500D01*
X113500368Y-101707553D01*
X113724992Y-101634568D01*
X113935433Y-101527343D01*
X114126510Y-101388517D01*
X114293517Y-101221510D01*
X114432343Y-101030433D01*
X114492583Y-100912204D01*
X114540558Y-100861409D01*
X114603068Y-100844500D01*
X122400703Y-100844500D01*
X122467742Y-100864185D01*
X122511188Y-100912205D01*
X122583657Y-101054433D01*
X122722483Y-101245510D01*
X122889490Y-101412517D01*
X123080567Y-101551343D01*
X123179991Y-101602002D01*
X123291003Y-101658566D01*
X123291005Y-101658566D01*
X123291008Y-101658568D01*
X123411412Y-101697689D01*
X123515631Y-101731553D01*
X123748903Y-101768500D01*
X123748908Y-101768500D01*
X123985097Y-101768500D01*
X124218368Y-101731553D01*
X124442992Y-101658568D01*
X124653433Y-101551343D01*
X124844510Y-101412517D01*
X125011517Y-101245510D01*
X125150343Y-101054433D01*
X125210583Y-100936204D01*
X125258558Y-100885409D01*
X125321068Y-100868500D01*
X128912932Y-100868500D01*
X128979971Y-100888185D01*
X129023416Y-100936203D01*
X129083657Y-101054433D01*
X129222483Y-101245510D01*
X129389490Y-101412517D01*
X129580567Y-101551343D01*
X129679991Y-101602002D01*
X129791003Y-101658566D01*
X129791005Y-101658566D01*
X129791008Y-101658568D01*
X129911412Y-101697689D01*
X130015631Y-101731553D01*
X130248903Y-101768500D01*
X130248908Y-101768500D01*
X130485097Y-101768500D01*
X130718368Y-101731553D01*
X130942992Y-101658568D01*
X131153433Y-101551343D01*
X131344510Y-101412517D01*
X131511517Y-101245510D01*
X131650343Y-101054433D01*
X131757568Y-100843992D01*
X131830553Y-100619368D01*
X131851914Y-100484500D01*
X131867500Y-100386097D01*
X131867500Y-100149902D01*
X131830553Y-99916631D01*
X131757566Y-99692003D01*
X131698355Y-99575795D01*
X131650343Y-99481567D01*
X131511517Y-99290490D01*
X131344510Y-99123483D01*
X131259402Y-99061648D01*
X134073500Y-99061648D01*
X134073500Y-99266352D01*
X134073522Y-99266488D01*
X134105522Y-99468534D01*
X134168781Y-99663223D01*
X134261715Y-99845613D01*
X134382028Y-100011213D01*
X134526786Y-100155971D01*
X134681749Y-100268556D01*
X134692390Y-100276287D01*
X134808607Y-100335503D01*
X134874776Y-100369218D01*
X134874778Y-100369218D01*
X134874781Y-100369220D01*
X134936329Y-100389218D01*
X135069465Y-100432477D01*
X135170557Y-100448488D01*
X135271648Y-100464500D01*
X135271649Y-100464500D01*
X135476351Y-100464500D01*
X135476352Y-100464500D01*
X135678534Y-100432477D01*
X135873219Y-100369220D01*
X136055610Y-100276287D01*
X136148590Y-100208732D01*
X136221213Y-100155971D01*
X136221215Y-100155968D01*
X136221219Y-100155966D01*
X136365966Y-100011219D01*
X136365968Y-100011215D01*
X136365971Y-100011213D01*
X136434687Y-99916632D01*
X136486287Y-99845610D01*
X136579220Y-99663219D01*
X136642477Y-99468534D01*
X136674500Y-99266352D01*
X136674500Y-99061648D01*
X136642477Y-98859466D01*
X136640516Y-98853432D01*
X136585718Y-98684781D01*
X136579220Y-98664781D01*
X136579218Y-98664778D01*
X136579218Y-98664776D01*
X136545503Y-98598607D01*
X136486287Y-98482390D01*
X136478556Y-98471749D01*
X136365971Y-98316786D01*
X136221213Y-98172028D01*
X136055613Y-98051715D01*
X136055612Y-98051714D01*
X136055610Y-98051713D01*
X135998653Y-98022691D01*
X135873223Y-97958781D01*
X135678534Y-97895522D01*
X135503995Y-97867878D01*
X135476352Y-97863500D01*
X135271648Y-97863500D01*
X135247329Y-97867351D01*
X135069465Y-97895522D01*
X134874776Y-97958781D01*
X134692386Y-98051715D01*
X134526786Y-98172028D01*
X134382028Y-98316786D01*
X134261715Y-98482386D01*
X134168781Y-98664776D01*
X134105522Y-98859465D01*
X134085694Y-98984657D01*
X134073500Y-99061648D01*
X131259402Y-99061648D01*
X131153433Y-98984657D01*
X130942996Y-98877433D01*
X130718368Y-98804446D01*
X130485097Y-98767500D01*
X130485092Y-98767500D01*
X130248908Y-98767500D01*
X130248903Y-98767500D01*
X130015631Y-98804446D01*
X129791003Y-98877433D01*
X129580566Y-98984657D01*
X129474598Y-99061648D01*
X129389490Y-99123483D01*
X129389488Y-99123485D01*
X129389487Y-99123485D01*
X129222485Y-99290487D01*
X129222485Y-99290488D01*
X129222483Y-99290490D01*
X129162862Y-99372550D01*
X129083657Y-99481566D01*
X129023417Y-99599795D01*
X128975442Y-99650591D01*
X128912932Y-99667500D01*
X125321068Y-99667500D01*
X125254029Y-99647815D01*
X125210583Y-99599795D01*
X125150343Y-99481567D01*
X125011517Y-99290490D01*
X124844510Y-99123483D01*
X124653433Y-98984657D01*
X124442996Y-98877433D01*
X124218368Y-98804446D01*
X123985097Y-98767500D01*
X123985092Y-98767500D01*
X123748908Y-98767500D01*
X123748903Y-98767500D01*
X123515631Y-98804446D01*
X123291003Y-98877433D01*
X123080566Y-98984657D01*
X122974598Y-99061648D01*
X122889490Y-99123483D01*
X122889488Y-99123485D01*
X122889487Y-99123485D01*
X122722485Y-99290487D01*
X122722485Y-99290488D01*
X122722483Y-99290490D01*
X122662862Y-99372550D01*
X122583657Y-99481566D01*
X122535645Y-99575795D01*
X122487670Y-99626591D01*
X122425160Y-99643500D01*
X114603068Y-99643500D01*
X114536029Y-99623815D01*
X114492583Y-99575795D01*
X114432343Y-99457567D01*
X114293517Y-99266490D01*
X114126510Y-99099483D01*
X113935433Y-98960657D01*
X113724996Y-98853433D01*
X113500368Y-98780446D01*
X113267097Y-98743500D01*
X113267092Y-98743500D01*
X113030908Y-98743500D01*
X113030903Y-98743500D01*
X112797631Y-98780446D01*
X112573003Y-98853433D01*
X112362566Y-98960657D01*
X112253550Y-99039862D01*
X112171490Y-99099483D01*
X112171488Y-99099485D01*
X112171487Y-99099485D01*
X112004485Y-99266487D01*
X112004485Y-99266488D01*
X112004483Y-99266490D01*
X111987046Y-99290490D01*
X111865657Y-99457566D01*
X111805417Y-99575795D01*
X111757442Y-99626591D01*
X111694932Y-99643500D01*
X108103068Y-99643500D01*
X108036029Y-99623815D01*
X107992583Y-99575795D01*
X107932343Y-99457567D01*
X107793517Y-99266490D01*
X107626510Y-99099483D01*
X107435433Y-98960657D01*
X107224996Y-98853433D01*
X107000368Y-98780446D01*
X106767097Y-98743500D01*
X106767092Y-98743500D01*
X106530908Y-98743500D01*
X106530903Y-98743500D01*
X106297631Y-98780446D01*
X106073003Y-98853433D01*
X105862566Y-98960657D01*
X105753550Y-99039862D01*
X105671490Y-99099483D01*
X105671488Y-99099485D01*
X105671487Y-99099485D01*
X105504485Y-99266487D01*
X105504485Y-99266488D01*
X105504483Y-99266490D01*
X105487046Y-99290490D01*
X105365657Y-99457566D01*
X105258433Y-99668003D01*
X105185446Y-99892631D01*
X105148500Y-100125902D01*
X101933283Y-100125902D01*
X102027966Y-100031219D01*
X102027968Y-100031215D01*
X102027971Y-100031213D01*
X102080732Y-99958590D01*
X102148287Y-99865610D01*
X102241220Y-99683219D01*
X102304477Y-99488534D01*
X102336500Y-99286352D01*
X102336500Y-99081648D01*
X102304477Y-98879466D01*
X102303816Y-98877433D01*
X102241218Y-98684776D01*
X102207503Y-98618607D01*
X102148287Y-98502390D01*
X102133753Y-98482386D01*
X102027971Y-98336786D01*
X101883213Y-98192028D01*
X101717613Y-98071715D01*
X101717612Y-98071714D01*
X101717610Y-98071713D01*
X101660653Y-98042691D01*
X101535223Y-97978781D01*
X101340534Y-97915522D01*
X101165995Y-97887878D01*
X101138352Y-97883500D01*
X100933648Y-97883500D01*
X100909329Y-97887351D01*
X100731465Y-97915522D01*
X100536776Y-97978781D01*
X100354386Y-98071715D01*
X100188786Y-98192028D01*
X100044028Y-98336786D01*
X99923715Y-98502386D01*
X99830781Y-98684776D01*
X99767522Y-98879465D01*
X99754663Y-98960657D01*
X99735500Y-99081648D01*
X98000500Y-99081648D01*
X98000500Y-95625902D01*
X105148500Y-95625902D01*
X105148500Y-95862097D01*
X105185446Y-96095368D01*
X105258433Y-96319996D01*
X105365657Y-96530433D01*
X105504483Y-96721510D01*
X105671490Y-96888517D01*
X105862567Y-97027343D01*
X105909668Y-97051342D01*
X106073003Y-97134566D01*
X106073005Y-97134566D01*
X106073008Y-97134568D01*
X106193412Y-97173689D01*
X106297631Y-97207553D01*
X106530903Y-97244500D01*
X106530908Y-97244500D01*
X106767097Y-97244500D01*
X107000368Y-97207553D01*
X107224992Y-97134568D01*
X107435433Y-97027343D01*
X107626510Y-96888517D01*
X107793517Y-96721510D01*
X107932343Y-96530433D01*
X107992583Y-96412204D01*
X108040558Y-96361409D01*
X108103068Y-96344500D01*
X111694932Y-96344500D01*
X111761971Y-96364185D01*
X111805416Y-96412203D01*
X111865657Y-96530433D01*
X112004483Y-96721510D01*
X112171490Y-96888517D01*
X112362567Y-97027343D01*
X112409668Y-97051342D01*
X112573003Y-97134566D01*
X112573005Y-97134566D01*
X112573008Y-97134568D01*
X112693412Y-97173689D01*
X112797631Y-97207553D01*
X113030903Y-97244500D01*
X113030908Y-97244500D01*
X113267097Y-97244500D01*
X113500368Y-97207553D01*
X113724992Y-97134568D01*
X113935433Y-97027343D01*
X114126510Y-96888517D01*
X114293517Y-96721510D01*
X114432343Y-96530433D01*
X114539568Y-96319992D01*
X114612553Y-96095368D01*
X114649500Y-95862097D01*
X114649500Y-95649902D01*
X122366500Y-95649902D01*
X122366500Y-95886097D01*
X122403446Y-96119368D01*
X122476433Y-96343996D01*
X122511188Y-96412205D01*
X122583657Y-96554433D01*
X122722483Y-96745510D01*
X122889490Y-96912517D01*
X123080567Y-97051343D01*
X123179991Y-97102002D01*
X123291003Y-97158566D01*
X123291005Y-97158566D01*
X123291008Y-97158568D01*
X123411412Y-97197689D01*
X123515631Y-97231553D01*
X123748903Y-97268500D01*
X123748908Y-97268500D01*
X123985097Y-97268500D01*
X124218368Y-97231553D01*
X124442992Y-97158568D01*
X124653433Y-97051343D01*
X124844510Y-96912517D01*
X125011517Y-96745510D01*
X125150343Y-96554433D01*
X125257568Y-96343992D01*
X125330553Y-96119368D01*
X125334354Y-96095368D01*
X125367500Y-95886097D01*
X125367500Y-95649902D01*
X128866500Y-95649902D01*
X128866500Y-95886097D01*
X128903446Y-96119368D01*
X128976433Y-96343996D01*
X129011188Y-96412205D01*
X129083657Y-96554433D01*
X129222483Y-96745510D01*
X129389490Y-96912517D01*
X129580567Y-97051343D01*
X129679991Y-97102002D01*
X129791003Y-97158566D01*
X129791005Y-97158566D01*
X129791008Y-97158568D01*
X129911412Y-97197689D01*
X130015631Y-97231553D01*
X130248903Y-97268500D01*
X130248908Y-97268500D01*
X130485097Y-97268500D01*
X130718368Y-97231553D01*
X130942992Y-97158568D01*
X131153433Y-97051343D01*
X131344510Y-96912517D01*
X131511517Y-96745510D01*
X131650343Y-96554433D01*
X131757568Y-96343992D01*
X131830553Y-96119368D01*
X131834354Y-96095368D01*
X131867500Y-95886097D01*
X131867500Y-95649902D01*
X131830553Y-95416631D01*
X131757566Y-95192003D01*
X131650342Y-94981566D01*
X131511517Y-94790490D01*
X131344510Y-94623483D01*
X131153433Y-94484657D01*
X130942996Y-94377433D01*
X130718368Y-94304446D01*
X130485097Y-94267500D01*
X130485092Y-94267500D01*
X130248908Y-94267500D01*
X130248903Y-94267500D01*
X130015631Y-94304446D01*
X129791003Y-94377433D01*
X129580566Y-94484657D01*
X129471550Y-94563862D01*
X129389490Y-94623483D01*
X129389488Y-94623485D01*
X129389487Y-94623485D01*
X129222485Y-94790487D01*
X129222485Y-94790488D01*
X129222483Y-94790490D01*
X129162862Y-94872550D01*
X129083657Y-94981566D01*
X128976433Y-95192003D01*
X128903446Y-95416631D01*
X128866500Y-95649902D01*
X125367500Y-95649902D01*
X125330553Y-95416631D01*
X125257566Y-95192003D01*
X125150342Y-94981566D01*
X125011517Y-94790490D01*
X124844510Y-94623483D01*
X124653433Y-94484657D01*
X124442996Y-94377433D01*
X124218368Y-94304446D01*
X123985097Y-94267500D01*
X123985092Y-94267500D01*
X123748908Y-94267500D01*
X123748903Y-94267500D01*
X123515631Y-94304446D01*
X123291003Y-94377433D01*
X123080566Y-94484657D01*
X122971550Y-94563862D01*
X122889490Y-94623483D01*
X122889488Y-94623485D01*
X122889487Y-94623485D01*
X122722485Y-94790487D01*
X122722485Y-94790488D01*
X122722483Y-94790490D01*
X122662862Y-94872550D01*
X122583657Y-94981566D01*
X122476433Y-95192003D01*
X122403446Y-95416631D01*
X122366500Y-95649902D01*
X114649500Y-95649902D01*
X114649500Y-95625902D01*
X114612553Y-95392631D01*
X114539566Y-95168003D01*
X114483002Y-95056991D01*
X114432343Y-94957567D01*
X114293517Y-94766490D01*
X114126510Y-94599483D01*
X113935433Y-94460657D01*
X113724996Y-94353433D01*
X113500368Y-94280446D01*
X113267097Y-94243500D01*
X113267092Y-94243500D01*
X113030908Y-94243500D01*
X113030903Y-94243500D01*
X112797631Y-94280446D01*
X112573003Y-94353433D01*
X112362566Y-94460657D01*
X112253550Y-94539862D01*
X112171490Y-94599483D01*
X112171488Y-94599485D01*
X112171487Y-94599485D01*
X112004485Y-94766487D01*
X112004485Y-94766488D01*
X112004483Y-94766490D01*
X111987046Y-94790490D01*
X111865657Y-94957566D01*
X111805417Y-95075795D01*
X111757442Y-95126591D01*
X111694932Y-95143500D01*
X108103068Y-95143500D01*
X108036029Y-95123815D01*
X107992583Y-95075795D01*
X107932343Y-94957567D01*
X107793517Y-94766490D01*
X107626510Y-94599483D01*
X107435433Y-94460657D01*
X107224996Y-94353433D01*
X107000368Y-94280446D01*
X106767097Y-94243500D01*
X106767092Y-94243500D01*
X106530908Y-94243500D01*
X106530903Y-94243500D01*
X106297631Y-94280446D01*
X106073003Y-94353433D01*
X105862566Y-94460657D01*
X105753550Y-94539862D01*
X105671490Y-94599483D01*
X105671488Y-94599485D01*
X105671487Y-94599485D01*
X105504485Y-94766487D01*
X105504485Y-94766488D01*
X105504483Y-94766490D01*
X105487046Y-94790490D01*
X105365657Y-94957566D01*
X105258433Y-95168003D01*
X105185446Y-95392631D01*
X105148500Y-95625902D01*
X98000500Y-95625902D01*
X98000500Y-75539902D01*
X105129500Y-75539902D01*
X105129500Y-75776097D01*
X105166446Y-76009368D01*
X105239433Y-76233996D01*
X105287945Y-76329205D01*
X105346657Y-76444433D01*
X105485483Y-76635510D01*
X105652490Y-76802517D01*
X105843567Y-76941343D01*
X105942991Y-76992002D01*
X106054003Y-77048566D01*
X106054005Y-77048566D01*
X106054008Y-77048568D01*
X106174412Y-77087689D01*
X106278631Y-77121553D01*
X106511903Y-77158500D01*
X106511908Y-77158500D01*
X106748097Y-77158500D01*
X106981368Y-77121553D01*
X107205992Y-77048568D01*
X107416433Y-76941343D01*
X107607510Y-76802517D01*
X107774517Y-76635510D01*
X107913343Y-76444433D01*
X107973583Y-76326204D01*
X108021558Y-76275409D01*
X108084068Y-76258500D01*
X111675932Y-76258500D01*
X111742971Y-76278185D01*
X111786416Y-76326203D01*
X111846657Y-76444433D01*
X111985483Y-76635510D01*
X112152490Y-76802517D01*
X112343567Y-76941343D01*
X112442991Y-76992002D01*
X112554003Y-77048566D01*
X112554005Y-77048566D01*
X112554008Y-77048568D01*
X112674412Y-77087689D01*
X112778631Y-77121553D01*
X113011903Y-77158500D01*
X113011908Y-77158500D01*
X113248097Y-77158500D01*
X113481368Y-77121553D01*
X113705992Y-77048568D01*
X113916433Y-76941343D01*
X114107510Y-76802517D01*
X114274517Y-76635510D01*
X114413343Y-76444433D01*
X114472055Y-76329205D01*
X114520030Y-76278409D01*
X114582540Y-76261500D01*
X122384932Y-76261500D01*
X122451971Y-76281185D01*
X122495416Y-76329203D01*
X122555657Y-76447433D01*
X122694483Y-76638510D01*
X122861490Y-76805517D01*
X123052567Y-76944343D01*
X123151991Y-76995002D01*
X123263003Y-77051566D01*
X123263005Y-77051566D01*
X123263008Y-77051568D01*
X123383412Y-77090689D01*
X123487631Y-77124553D01*
X123720903Y-77161500D01*
X123720908Y-77161500D01*
X123957097Y-77161500D01*
X124190368Y-77124553D01*
X124199601Y-77121553D01*
X124414992Y-77051568D01*
X124625433Y-76944343D01*
X124816510Y-76805517D01*
X124983517Y-76638510D01*
X125122343Y-76447433D01*
X125182583Y-76329204D01*
X125230558Y-76278409D01*
X125293068Y-76261500D01*
X128884932Y-76261500D01*
X128951971Y-76281185D01*
X128995416Y-76329203D01*
X129055657Y-76447433D01*
X129194483Y-76638510D01*
X129361490Y-76805517D01*
X129552567Y-76944343D01*
X129651991Y-76995002D01*
X129763003Y-77051566D01*
X129763005Y-77051566D01*
X129763008Y-77051568D01*
X129883412Y-77090689D01*
X129987631Y-77124553D01*
X130220903Y-77161500D01*
X130220908Y-77161500D01*
X130457097Y-77161500D01*
X130690368Y-77124553D01*
X130699601Y-77121553D01*
X130914992Y-77051568D01*
X131125433Y-76944343D01*
X131316510Y-76805517D01*
X131483517Y-76638510D01*
X131622343Y-76447433D01*
X131729568Y-76236992D01*
X131802553Y-76012368D01*
X131803028Y-76009368D01*
X131839500Y-75779097D01*
X131839500Y-75542902D01*
X131802553Y-75309631D01*
X131729566Y-75085003D01*
X131622342Y-74874566D01*
X131620163Y-74871567D01*
X131483517Y-74683490D01*
X131316510Y-74516483D01*
X131125433Y-74377657D01*
X131119545Y-74374657D01*
X130914996Y-74270433D01*
X130690368Y-74197446D01*
X130457097Y-74160500D01*
X130457092Y-74160500D01*
X130220908Y-74160500D01*
X130220903Y-74160500D01*
X129987631Y-74197446D01*
X129763003Y-74270433D01*
X129552566Y-74377657D01*
X129443550Y-74456862D01*
X129361490Y-74516483D01*
X129361488Y-74516485D01*
X129361487Y-74516485D01*
X129194485Y-74683487D01*
X129194485Y-74683488D01*
X129194483Y-74683490D01*
X129134862Y-74765550D01*
X129055657Y-74874566D01*
X129023060Y-74938540D01*
X128996946Y-74989795D01*
X128995417Y-74992795D01*
X128947442Y-75043591D01*
X128884932Y-75060500D01*
X125293068Y-75060500D01*
X125226029Y-75040815D01*
X125182583Y-74992795D01*
X125122343Y-74874567D01*
X124983517Y-74683490D01*
X124816510Y-74516483D01*
X124625433Y-74377657D01*
X124619545Y-74374657D01*
X124414996Y-74270433D01*
X124190368Y-74197446D01*
X123957097Y-74160500D01*
X123957092Y-74160500D01*
X123720908Y-74160500D01*
X123720903Y-74160500D01*
X123487631Y-74197446D01*
X123263003Y-74270433D01*
X123052566Y-74377657D01*
X122943550Y-74456862D01*
X122861490Y-74516483D01*
X122861488Y-74516485D01*
X122861487Y-74516485D01*
X122694485Y-74683487D01*
X122694485Y-74683488D01*
X122694483Y-74683490D01*
X122634862Y-74765550D01*
X122555657Y-74874566D01*
X122523060Y-74938540D01*
X122496946Y-74989795D01*
X122495417Y-74992795D01*
X122447442Y-75043591D01*
X122384932Y-75060500D01*
X114585597Y-75060500D01*
X114518558Y-75040815D01*
X114475112Y-74992795D01*
X114449006Y-74941561D01*
X114413343Y-74871567D01*
X114274517Y-74680490D01*
X114107510Y-74513483D01*
X113916433Y-74374657D01*
X113705996Y-74267433D01*
X113481368Y-74194446D01*
X113248097Y-74157500D01*
X113248092Y-74157500D01*
X113011908Y-74157500D01*
X113011903Y-74157500D01*
X112778631Y-74194446D01*
X112554003Y-74267433D01*
X112343566Y-74374657D01*
X112234550Y-74453862D01*
X112152490Y-74513483D01*
X112152488Y-74513485D01*
X112152487Y-74513485D01*
X111985485Y-74680487D01*
X111985485Y-74680488D01*
X111985483Y-74680490D01*
X111925862Y-74762550D01*
X111846657Y-74871566D01*
X111786417Y-74989795D01*
X111738442Y-75040591D01*
X111675932Y-75057500D01*
X108084068Y-75057500D01*
X108017029Y-75037815D01*
X107973583Y-74989795D01*
X107913343Y-74871567D01*
X107774517Y-74680490D01*
X107607510Y-74513483D01*
X107416433Y-74374657D01*
X107205996Y-74267433D01*
X106981368Y-74194446D01*
X106748097Y-74157500D01*
X106748092Y-74157500D01*
X106511908Y-74157500D01*
X106511903Y-74157500D01*
X106278631Y-74194446D01*
X106054003Y-74267433D01*
X105843566Y-74374657D01*
X105734550Y-74453862D01*
X105652490Y-74513483D01*
X105652488Y-74513485D01*
X105652487Y-74513485D01*
X105485485Y-74680487D01*
X105485485Y-74680488D01*
X105485483Y-74680490D01*
X105425862Y-74762550D01*
X105346657Y-74871566D01*
X105239433Y-75082003D01*
X105166446Y-75306631D01*
X105129500Y-75539902D01*
X98000500Y-75539902D01*
X98000500Y-71039902D01*
X105129500Y-71039902D01*
X105129500Y-71276097D01*
X105166446Y-71509368D01*
X105239433Y-71733996D01*
X105346657Y-71944433D01*
X105485483Y-72135510D01*
X105652490Y-72302517D01*
X105843567Y-72441343D01*
X105942991Y-72492002D01*
X106054003Y-72548566D01*
X106054005Y-72548566D01*
X106054008Y-72548568D01*
X106174412Y-72587689D01*
X106278631Y-72621553D01*
X106511903Y-72658500D01*
X106511908Y-72658500D01*
X106748097Y-72658500D01*
X106981368Y-72621553D01*
X107205992Y-72548568D01*
X107416433Y-72441343D01*
X107607510Y-72302517D01*
X107774517Y-72135510D01*
X107913343Y-71944433D01*
X107973583Y-71826204D01*
X108021558Y-71775409D01*
X108084068Y-71758500D01*
X111675932Y-71758500D01*
X111742971Y-71778185D01*
X111786416Y-71826203D01*
X111846657Y-71944433D01*
X111985483Y-72135510D01*
X112152490Y-72302517D01*
X112343567Y-72441343D01*
X112442991Y-72492002D01*
X112554003Y-72548566D01*
X112554005Y-72548566D01*
X112554008Y-72548568D01*
X112674412Y-72587689D01*
X112778631Y-72621553D01*
X113011903Y-72658500D01*
X113011908Y-72658500D01*
X113248097Y-72658500D01*
X113481368Y-72621553D01*
X113705992Y-72548568D01*
X113916433Y-72441343D01*
X114107510Y-72302517D01*
X114274517Y-72135510D01*
X114413343Y-71944433D01*
X114520568Y-71733992D01*
X114593553Y-71509368D01*
X114630500Y-71276097D01*
X114630500Y-71042902D01*
X122338500Y-71042902D01*
X122338500Y-71279097D01*
X122375446Y-71512368D01*
X122448433Y-71736996D01*
X122493888Y-71826205D01*
X122555657Y-71947433D01*
X122694483Y-72138510D01*
X122861490Y-72305517D01*
X123052567Y-72444343D01*
X123151991Y-72495002D01*
X123263003Y-72551566D01*
X123263005Y-72551566D01*
X123263008Y-72551568D01*
X123383412Y-72590689D01*
X123487631Y-72624553D01*
X123720903Y-72661500D01*
X123720908Y-72661500D01*
X123957097Y-72661500D01*
X124190368Y-72624553D01*
X124199601Y-72621553D01*
X124414992Y-72551568D01*
X124625433Y-72444343D01*
X124816510Y-72305517D01*
X124983517Y-72138510D01*
X125122343Y-71947433D01*
X125229568Y-71736992D01*
X125302553Y-71512368D01*
X125303028Y-71509368D01*
X125339500Y-71279097D01*
X125339500Y-71042902D01*
X128838500Y-71042902D01*
X128838500Y-71279097D01*
X128875446Y-71512368D01*
X128948433Y-71736996D01*
X128993888Y-71826205D01*
X129055657Y-71947433D01*
X129194483Y-72138510D01*
X129361490Y-72305517D01*
X129552567Y-72444343D01*
X129651991Y-72495002D01*
X129763003Y-72551566D01*
X129763005Y-72551566D01*
X129763008Y-72551568D01*
X129883412Y-72590689D01*
X129987631Y-72624553D01*
X130220903Y-72661500D01*
X130220908Y-72661500D01*
X130457097Y-72661500D01*
X130690368Y-72624553D01*
X130699601Y-72621553D01*
X130914992Y-72551568D01*
X131125433Y-72444343D01*
X131316510Y-72305517D01*
X131483517Y-72138510D01*
X131622343Y-71947433D01*
X131729568Y-71736992D01*
X131802553Y-71512368D01*
X131803028Y-71509368D01*
X131839500Y-71279097D01*
X131839500Y-71042902D01*
X131802553Y-70809631D01*
X131729566Y-70585003D01*
X131622342Y-70374566D01*
X131620163Y-70371567D01*
X131483517Y-70183490D01*
X131316510Y-70016483D01*
X131125433Y-69877657D01*
X131119545Y-69874657D01*
X130914996Y-69770433D01*
X130690368Y-69697446D01*
X130457097Y-69660500D01*
X130457092Y-69660500D01*
X130220908Y-69660500D01*
X130220903Y-69660500D01*
X129987631Y-69697446D01*
X129763003Y-69770433D01*
X129552566Y-69877657D01*
X129443550Y-69956862D01*
X129361490Y-70016483D01*
X129361488Y-70016485D01*
X129361487Y-70016485D01*
X129194485Y-70183487D01*
X129194485Y-70183488D01*
X129194483Y-70183490D01*
X129134862Y-70265550D01*
X129055657Y-70374566D01*
X128948433Y-70585003D01*
X128875446Y-70809631D01*
X128838500Y-71042902D01*
X125339500Y-71042902D01*
X125302553Y-70809631D01*
X125229566Y-70585003D01*
X125122342Y-70374566D01*
X125120163Y-70371567D01*
X124983517Y-70183490D01*
X124816510Y-70016483D01*
X124625433Y-69877657D01*
X124619545Y-69874657D01*
X124414996Y-69770433D01*
X124190368Y-69697446D01*
X123957097Y-69660500D01*
X123957092Y-69660500D01*
X123720908Y-69660500D01*
X123720903Y-69660500D01*
X123487631Y-69697446D01*
X123263003Y-69770433D01*
X123052566Y-69877657D01*
X122943550Y-69956862D01*
X122861490Y-70016483D01*
X122861488Y-70016485D01*
X122861487Y-70016485D01*
X122694485Y-70183487D01*
X122694485Y-70183488D01*
X122694483Y-70183490D01*
X122634862Y-70265550D01*
X122555657Y-70374566D01*
X122448433Y-70585003D01*
X122375446Y-70809631D01*
X122338500Y-71042902D01*
X114630500Y-71042902D01*
X114630500Y-71039902D01*
X114593553Y-70806631D01*
X114559689Y-70702412D01*
X114520568Y-70582008D01*
X114520566Y-70582005D01*
X114520566Y-70582003D01*
X114464002Y-70470991D01*
X114413343Y-70371567D01*
X114274517Y-70180490D01*
X114107510Y-70013483D01*
X113916433Y-69874657D01*
X113705996Y-69767433D01*
X113481368Y-69694446D01*
X113248097Y-69657500D01*
X113248092Y-69657500D01*
X113011908Y-69657500D01*
X113011903Y-69657500D01*
X112778631Y-69694446D01*
X112554003Y-69767433D01*
X112343566Y-69874657D01*
X112234550Y-69953862D01*
X112152490Y-70013483D01*
X112152488Y-70013485D01*
X112152487Y-70013485D01*
X111985485Y-70180487D01*
X111985485Y-70180488D01*
X111985483Y-70180490D01*
X111925862Y-70262550D01*
X111846657Y-70371566D01*
X111786417Y-70489795D01*
X111738442Y-70540591D01*
X111675932Y-70557500D01*
X108084068Y-70557500D01*
X108017029Y-70537815D01*
X107973583Y-70489795D01*
X107913343Y-70371567D01*
X107774517Y-70180490D01*
X107607510Y-70013483D01*
X107416433Y-69874657D01*
X107205996Y-69767433D01*
X106981368Y-69694446D01*
X106748097Y-69657500D01*
X106748092Y-69657500D01*
X106511908Y-69657500D01*
X106511903Y-69657500D01*
X106278631Y-69694446D01*
X106054003Y-69767433D01*
X105843566Y-69874657D01*
X105734550Y-69953862D01*
X105652490Y-70013483D01*
X105652488Y-70013485D01*
X105652487Y-70013485D01*
X105485485Y-70180487D01*
X105485485Y-70180488D01*
X105485483Y-70180490D01*
X105425862Y-70262550D01*
X105346657Y-70371566D01*
X105239433Y-70582003D01*
X105166446Y-70806631D01*
X105129500Y-71039902D01*
X98000500Y-71039902D01*
X98000500Y-51018902D01*
X105191500Y-51018902D01*
X105191500Y-51255097D01*
X105228446Y-51488368D01*
X105301433Y-51712996D01*
X105383690Y-51874433D01*
X105408657Y-51923433D01*
X105547483Y-52114510D01*
X105714490Y-52281517D01*
X105905567Y-52420343D01*
X106004991Y-52471002D01*
X106116003Y-52527566D01*
X106116005Y-52527566D01*
X106116008Y-52527568D01*
X106189826Y-52551553D01*
X106340631Y-52600553D01*
X106573903Y-52637500D01*
X106573908Y-52637500D01*
X106810097Y-52637500D01*
X107043368Y-52600553D01*
X107080463Y-52588500D01*
X107267992Y-52527568D01*
X107478433Y-52420343D01*
X107669510Y-52281517D01*
X107836517Y-52114510D01*
X107975343Y-51923433D01*
X108035583Y-51805204D01*
X108083558Y-51754409D01*
X108146068Y-51737500D01*
X111737932Y-51737500D01*
X111804971Y-51757185D01*
X111848416Y-51805203D01*
X111908657Y-51923433D01*
X112047483Y-52114510D01*
X112214490Y-52281517D01*
X112405567Y-52420343D01*
X112504991Y-52471002D01*
X112616003Y-52527566D01*
X112616005Y-52527566D01*
X112616008Y-52527568D01*
X112689826Y-52551553D01*
X112840631Y-52600553D01*
X113073903Y-52637500D01*
X113073908Y-52637500D01*
X113310097Y-52637500D01*
X113543368Y-52600553D01*
X113580463Y-52588500D01*
X113767992Y-52527568D01*
X113978433Y-52420343D01*
X114169510Y-52281517D01*
X114336517Y-52114510D01*
X114475343Y-51923433D01*
X114582568Y-51712992D01*
X114655553Y-51488368D01*
X114663314Y-51439368D01*
X114692500Y-51255097D01*
X114692500Y-51018901D01*
X114687041Y-50984433D01*
X114684739Y-50969902D01*
X122362500Y-50969902D01*
X122362500Y-51206097D01*
X122399446Y-51439368D01*
X122472433Y-51663996D01*
X122579657Y-51874433D01*
X122718483Y-52065510D01*
X122885490Y-52232517D01*
X123076567Y-52371343D01*
X123172733Y-52420342D01*
X123287003Y-52478566D01*
X123287005Y-52478566D01*
X123287008Y-52478568D01*
X123407412Y-52517689D01*
X123511631Y-52551553D01*
X123744903Y-52588500D01*
X123744908Y-52588500D01*
X123981097Y-52588500D01*
X124214368Y-52551553D01*
X124438992Y-52478568D01*
X124649433Y-52371343D01*
X124840510Y-52232517D01*
X125007517Y-52065510D01*
X125146343Y-51874433D01*
X125206583Y-51756204D01*
X125254558Y-51705409D01*
X125317068Y-51688500D01*
X128908932Y-51688500D01*
X128975971Y-51708185D01*
X129019416Y-51756203D01*
X129079657Y-51874433D01*
X129218483Y-52065510D01*
X129385490Y-52232517D01*
X129576567Y-52371343D01*
X129672733Y-52420342D01*
X129787003Y-52478566D01*
X129787005Y-52478566D01*
X129787008Y-52478568D01*
X129907412Y-52517689D01*
X130011631Y-52551553D01*
X130244903Y-52588500D01*
X130244908Y-52588500D01*
X130481097Y-52588500D01*
X130714368Y-52551553D01*
X130938992Y-52478568D01*
X131149433Y-52371343D01*
X131340510Y-52232517D01*
X131507517Y-52065510D01*
X131646343Y-51874433D01*
X131753568Y-51663992D01*
X131826553Y-51439368D01*
X131863500Y-51206097D01*
X131863500Y-50969902D01*
X131826553Y-50736631D01*
X131753566Y-50512003D01*
X131697002Y-50400991D01*
X131646343Y-50301567D01*
X131507517Y-50110490D01*
X131340510Y-49943483D01*
X131149433Y-49804657D01*
X130938996Y-49697433D01*
X130714368Y-49624446D01*
X130481097Y-49587500D01*
X130481092Y-49587500D01*
X130244908Y-49587500D01*
X130244903Y-49587500D01*
X130011631Y-49624446D01*
X129787003Y-49697433D01*
X129576566Y-49804657D01*
X129509124Y-49853657D01*
X129385490Y-49943483D01*
X129385488Y-49943485D01*
X129385487Y-49943485D01*
X129218485Y-50110487D01*
X129218485Y-50110488D01*
X129218483Y-50110490D01*
X129158862Y-50192550D01*
X129079657Y-50301566D01*
X129019417Y-50419795D01*
X128971442Y-50470591D01*
X128908932Y-50487500D01*
X125317068Y-50487500D01*
X125250029Y-50467815D01*
X125206583Y-50419795D01*
X125146343Y-50301567D01*
X125007517Y-50110490D01*
X124840510Y-49943483D01*
X124649433Y-49804657D01*
X124438996Y-49697433D01*
X124214368Y-49624446D01*
X123981097Y-49587500D01*
X123981092Y-49587500D01*
X123744908Y-49587500D01*
X123744903Y-49587500D01*
X123511631Y-49624446D01*
X123287003Y-49697433D01*
X123076566Y-49804657D01*
X123009124Y-49853657D01*
X122885490Y-49943483D01*
X122885488Y-49943485D01*
X122885487Y-49943485D01*
X122718485Y-50110487D01*
X122718485Y-50110488D01*
X122718483Y-50110490D01*
X122658862Y-50192550D01*
X122579657Y-50301566D01*
X122472433Y-50512003D01*
X122399446Y-50736631D01*
X122362500Y-50969902D01*
X114684739Y-50969902D01*
X114655553Y-50785631D01*
X114582566Y-50561003D01*
X114475342Y-50350566D01*
X114439742Y-50301567D01*
X114336517Y-50159490D01*
X114169510Y-49992483D01*
X113978433Y-49853657D01*
X113767996Y-49746433D01*
X113543368Y-49673446D01*
X113310097Y-49636500D01*
X113310092Y-49636500D01*
X113073908Y-49636500D01*
X113073903Y-49636500D01*
X112840631Y-49673446D01*
X112616003Y-49746433D01*
X112405566Y-49853657D01*
X112296550Y-49932862D01*
X112214490Y-49992483D01*
X112214488Y-49992485D01*
X112214487Y-49992485D01*
X112047485Y-50159487D01*
X112047485Y-50159488D01*
X112047483Y-50159490D01*
X111987862Y-50241550D01*
X111908657Y-50350566D01*
X111848417Y-50468795D01*
X111800442Y-50519591D01*
X111737932Y-50536500D01*
X108146068Y-50536500D01*
X108079029Y-50516815D01*
X108035583Y-50468795D01*
X108035084Y-50467815D01*
X107975343Y-50350567D01*
X107836517Y-50159490D01*
X107669510Y-49992483D01*
X107478433Y-49853657D01*
X107267996Y-49746433D01*
X107043368Y-49673446D01*
X106810097Y-49636500D01*
X106810092Y-49636500D01*
X106573908Y-49636500D01*
X106573903Y-49636500D01*
X106340631Y-49673446D01*
X106116003Y-49746433D01*
X105905566Y-49853657D01*
X105796550Y-49932862D01*
X105714490Y-49992483D01*
X105714488Y-49992485D01*
X105714487Y-49992485D01*
X105547485Y-50159487D01*
X105547485Y-50159488D01*
X105547483Y-50159490D01*
X105487862Y-50241550D01*
X105408657Y-50350566D01*
X105301433Y-50561003D01*
X105228446Y-50785631D01*
X105191500Y-51018902D01*
X98000500Y-51018902D01*
X98000500Y-46518902D01*
X105191500Y-46518902D01*
X105191500Y-46755097D01*
X105228446Y-46988368D01*
X105301433Y-47212996D01*
X105383690Y-47374433D01*
X105408657Y-47423433D01*
X105547483Y-47614510D01*
X105714490Y-47781517D01*
X105905567Y-47920343D01*
X106004991Y-47971002D01*
X106116003Y-48027566D01*
X106116005Y-48027566D01*
X106116008Y-48027568D01*
X106189826Y-48051553D01*
X106340631Y-48100553D01*
X106573903Y-48137500D01*
X106573908Y-48137500D01*
X106810097Y-48137500D01*
X107043368Y-48100553D01*
X107080463Y-48088500D01*
X107267992Y-48027568D01*
X107478433Y-47920343D01*
X107669510Y-47781517D01*
X107836517Y-47614510D01*
X107975343Y-47423433D01*
X108035583Y-47305204D01*
X108083558Y-47254409D01*
X108146068Y-47237500D01*
X111737932Y-47237500D01*
X111804971Y-47257185D01*
X111848416Y-47305203D01*
X111908657Y-47423433D01*
X112047483Y-47614510D01*
X112214490Y-47781517D01*
X112405567Y-47920343D01*
X112504991Y-47971002D01*
X112616003Y-48027566D01*
X112616005Y-48027566D01*
X112616008Y-48027568D01*
X112689826Y-48051553D01*
X112840631Y-48100553D01*
X113073903Y-48137500D01*
X113073908Y-48137500D01*
X113310097Y-48137500D01*
X113543368Y-48100553D01*
X113580463Y-48088500D01*
X113767992Y-48027568D01*
X113978433Y-47920343D01*
X114169510Y-47781517D01*
X114336517Y-47614510D01*
X114475343Y-47423433D01*
X114582568Y-47212992D01*
X114655553Y-46988368D01*
X114663314Y-46939368D01*
X114692500Y-46755097D01*
X114692500Y-46518901D01*
X114687041Y-46484433D01*
X114684739Y-46469902D01*
X122362500Y-46469902D01*
X122362500Y-46706097D01*
X122399446Y-46939368D01*
X122472433Y-47163996D01*
X122579657Y-47374433D01*
X122718483Y-47565510D01*
X122885490Y-47732517D01*
X123076567Y-47871343D01*
X123172733Y-47920342D01*
X123287003Y-47978566D01*
X123287005Y-47978566D01*
X123287008Y-47978568D01*
X123407412Y-48017689D01*
X123511631Y-48051553D01*
X123744903Y-48088500D01*
X123744908Y-48088500D01*
X123981097Y-48088500D01*
X124214368Y-48051553D01*
X124438992Y-47978568D01*
X124649433Y-47871343D01*
X124840510Y-47732517D01*
X125007517Y-47565510D01*
X125146343Y-47374433D01*
X125253568Y-47163992D01*
X125326553Y-46939368D01*
X125363500Y-46706097D01*
X125363500Y-46469902D01*
X128862500Y-46469902D01*
X128862500Y-46706097D01*
X128899446Y-46939368D01*
X128972433Y-47163996D01*
X129079657Y-47374433D01*
X129218483Y-47565510D01*
X129385490Y-47732517D01*
X129576567Y-47871343D01*
X129672733Y-47920342D01*
X129787003Y-47978566D01*
X129787005Y-47978566D01*
X129787008Y-47978568D01*
X129907412Y-48017689D01*
X130011631Y-48051553D01*
X130244903Y-48088500D01*
X130244908Y-48088500D01*
X130481097Y-48088500D01*
X130714368Y-48051553D01*
X130938992Y-47978568D01*
X131149433Y-47871343D01*
X131340510Y-47732517D01*
X131507517Y-47565510D01*
X131646343Y-47374433D01*
X131753568Y-47163992D01*
X131826553Y-46939368D01*
X131863500Y-46706097D01*
X131863500Y-46469902D01*
X131826553Y-46236631D01*
X131753566Y-46012003D01*
X131697002Y-45900991D01*
X131646343Y-45801567D01*
X131507517Y-45610490D01*
X131340510Y-45443483D01*
X131149433Y-45304657D01*
X130938996Y-45197433D01*
X130714368Y-45124446D01*
X130481097Y-45087500D01*
X130481092Y-45087500D01*
X130244908Y-45087500D01*
X130244903Y-45087500D01*
X130011631Y-45124446D01*
X129787003Y-45197433D01*
X129576566Y-45304657D01*
X129509124Y-45353657D01*
X129385490Y-45443483D01*
X129385488Y-45443485D01*
X129385487Y-45443485D01*
X129218485Y-45610487D01*
X129218485Y-45610488D01*
X129218483Y-45610490D01*
X129158862Y-45692550D01*
X129079657Y-45801566D01*
X128972433Y-46012003D01*
X128899446Y-46236631D01*
X128862500Y-46469902D01*
X125363500Y-46469902D01*
X125326553Y-46236631D01*
X125253566Y-46012003D01*
X125197002Y-45900991D01*
X125146343Y-45801567D01*
X125007517Y-45610490D01*
X124840510Y-45443483D01*
X124649433Y-45304657D01*
X124438996Y-45197433D01*
X124214368Y-45124446D01*
X123981097Y-45087500D01*
X123981092Y-45087500D01*
X123744908Y-45087500D01*
X123744903Y-45087500D01*
X123511631Y-45124446D01*
X123287003Y-45197433D01*
X123076566Y-45304657D01*
X123009124Y-45353657D01*
X122885490Y-45443483D01*
X122885488Y-45443485D01*
X122885487Y-45443485D01*
X122718485Y-45610487D01*
X122718485Y-45610488D01*
X122718483Y-45610490D01*
X122658862Y-45692550D01*
X122579657Y-45801566D01*
X122472433Y-46012003D01*
X122399446Y-46236631D01*
X122362500Y-46469902D01*
X114684739Y-46469902D01*
X114655553Y-46285631D01*
X114582566Y-46061003D01*
X114475342Y-45850566D01*
X114439742Y-45801567D01*
X114336517Y-45659490D01*
X114169510Y-45492483D01*
X113978433Y-45353657D01*
X113767996Y-45246433D01*
X113543368Y-45173446D01*
X113310097Y-45136500D01*
X113310092Y-45136500D01*
X113073908Y-45136500D01*
X113073903Y-45136500D01*
X112840631Y-45173446D01*
X112616003Y-45246433D01*
X112405566Y-45353657D01*
X112296550Y-45432862D01*
X112214490Y-45492483D01*
X112214488Y-45492485D01*
X112214487Y-45492485D01*
X112047485Y-45659487D01*
X112047485Y-45659488D01*
X112047483Y-45659490D01*
X111987862Y-45741550D01*
X111908657Y-45850566D01*
X111848417Y-45968795D01*
X111800442Y-46019591D01*
X111737932Y-46036500D01*
X108146068Y-46036500D01*
X108079029Y-46016815D01*
X108035583Y-45968795D01*
X107975342Y-45850566D01*
X107939742Y-45801567D01*
X107836517Y-45659490D01*
X107669510Y-45492483D01*
X107478433Y-45353657D01*
X107267996Y-45246433D01*
X107043368Y-45173446D01*
X106810097Y-45136500D01*
X106810092Y-45136500D01*
X106573908Y-45136500D01*
X106573903Y-45136500D01*
X106340631Y-45173446D01*
X106116003Y-45246433D01*
X105905566Y-45353657D01*
X105796550Y-45432862D01*
X105714490Y-45492483D01*
X105714488Y-45492485D01*
X105714487Y-45492485D01*
X105547485Y-45659487D01*
X105547485Y-45659488D01*
X105547483Y-45659490D01*
X105487862Y-45741550D01*
X105408657Y-45850566D01*
X105301433Y-46061003D01*
X105228446Y-46285631D01*
X105191500Y-46518902D01*
X98000500Y-46518902D01*
X98000500Y-37469648D01*
X99895500Y-37469648D01*
X99895500Y-37674352D01*
X99897578Y-37687471D01*
X99927522Y-37876534D01*
X99990781Y-38071223D01*
X100083715Y-38253613D01*
X100204028Y-38419213D01*
X100348786Y-38563971D01*
X100482631Y-38661213D01*
X100514390Y-38684287D01*
X100630607Y-38743503D01*
X100696776Y-38777218D01*
X100696778Y-38777218D01*
X100696781Y-38777220D01*
X100801137Y-38811127D01*
X100891465Y-38840477D01*
X100992557Y-38856488D01*
X101093648Y-38872500D01*
X101093649Y-38872500D01*
X101298351Y-38872500D01*
X101298352Y-38872500D01*
X101500534Y-38840477D01*
X101695219Y-38777220D01*
X101877610Y-38684287D01*
X101970590Y-38616732D01*
X102043213Y-38563971D01*
X102043215Y-38563968D01*
X102043219Y-38563966D01*
X102187966Y-38419219D01*
X102187968Y-38419215D01*
X102187971Y-38419213D01*
X102264979Y-38313219D01*
X102308287Y-38253610D01*
X102401220Y-38071219D01*
X102464477Y-37876534D01*
X102490593Y-37711648D01*
X133952500Y-37711648D01*
X133952500Y-37916351D01*
X133984522Y-38118534D01*
X134047781Y-38313223D01*
X134140715Y-38495613D01*
X134261028Y-38661213D01*
X134405786Y-38805971D01*
X134560749Y-38918556D01*
X134571390Y-38926287D01*
X134687607Y-38985503D01*
X134753776Y-39019218D01*
X134753778Y-39019218D01*
X134753781Y-39019220D01*
X134858137Y-39053127D01*
X134948465Y-39082477D01*
X135049557Y-39098488D01*
X135150648Y-39114500D01*
X135150649Y-39114500D01*
X135355351Y-39114500D01*
X135355352Y-39114500D01*
X135557534Y-39082477D01*
X135752219Y-39019220D01*
X135934610Y-38926287D01*
X136027590Y-38858732D01*
X136100213Y-38805971D01*
X136100215Y-38805968D01*
X136100219Y-38805966D01*
X136244966Y-38661219D01*
X136244968Y-38661215D01*
X136244971Y-38661213D01*
X136315624Y-38563966D01*
X136365287Y-38495610D01*
X136458220Y-38313219D01*
X136521477Y-38118534D01*
X136553500Y-37916352D01*
X136553500Y-37711648D01*
X136521477Y-37509466D01*
X136508539Y-37469648D01*
X136458218Y-37314776D01*
X136424503Y-37248607D01*
X136365287Y-37132390D01*
X136321979Y-37072781D01*
X136244971Y-36966786D01*
X136100213Y-36822028D01*
X135934613Y-36701715D01*
X135934612Y-36701714D01*
X135934610Y-36701713D01*
X135877653Y-36672691D01*
X135752223Y-36608781D01*
X135557534Y-36545522D01*
X135382995Y-36517878D01*
X135355352Y-36513500D01*
X135150648Y-36513500D01*
X135126329Y-36517351D01*
X134948465Y-36545522D01*
X134753776Y-36608781D01*
X134571386Y-36701715D01*
X134405786Y-36822028D01*
X134261028Y-36966786D01*
X134140715Y-37132386D01*
X134047781Y-37314776D01*
X133984522Y-37509465D01*
X133952500Y-37711648D01*
X102490593Y-37711648D01*
X102496500Y-37674352D01*
X102496500Y-37469648D01*
X102464477Y-37267466D01*
X102401220Y-37072781D01*
X102401218Y-37072778D01*
X102401218Y-37072776D01*
X102367503Y-37006607D01*
X102308287Y-36890390D01*
X102258620Y-36822028D01*
X102187971Y-36724786D01*
X102043213Y-36580028D01*
X101877613Y-36459715D01*
X101877612Y-36459714D01*
X101877610Y-36459713D01*
X101820653Y-36430691D01*
X101695223Y-36366781D01*
X101500534Y-36303522D01*
X101325995Y-36275878D01*
X101298352Y-36271500D01*
X101093648Y-36271500D01*
X101069329Y-36275351D01*
X100891465Y-36303522D01*
X100696776Y-36366781D01*
X100514386Y-36459715D01*
X100348786Y-36580028D01*
X100204028Y-36724786D01*
X100083715Y-36890386D01*
X99990781Y-37072776D01*
X99927522Y-37267465D01*
X99895500Y-37469648D01*
X98000500Y-37469648D01*
X98000500Y-28624500D01*
X98020185Y-28557461D01*
X98072989Y-28511706D01*
X98124500Y-28500500D01*
X138875500Y-28500500D01*
X138942539Y-28520185D01*
G37*
%TD.AperFunction*%
%TD*%
M02*
