%TF.GenerationSoftware,KiCad,Pcbnew,9.0.4-9.0.4-0~ubuntu24.04.1*%
%TF.CreationDate,2025-09-24T17:39:37+03:00*%
%TF.ProjectId,Patient remote control,50617469-656e-4742-9072-656d6f746520,rev?*%
%TF.SameCoordinates,Original*%
%TF.FileFunction,Soldermask,Top*%
%TF.FilePolarity,Negative*%
%FSLAX46Y46*%
G04 Gerber Fmt 4.6, Leading zero omitted, Abs format (unit mm)*
G04 Created by KiCad (PCBNEW 9.0.4-9.0.4-0~ubuntu24.04.1) date 2025-09-24 17:39:37*
%MOMM*%
%LPD*%
G01*
G04 APERTURE LIST*
G04 Aperture macros list*
%AMRoundRect*
0 Rectangle with rounded corners*
0 $1 Rounding radius*
0 $2 $3 $4 $5 $6 $7 $8 $9 X,Y pos of 4 corners*
0 Add a 4 corners polygon primitive as box body*
4,1,4,$2,$3,$4,$5,$6,$7,$8,$9,$2,$3,0*
0 Add four circle primitives for the rounded corners*
1,1,$1+$1,$2,$3*
1,1,$1+$1,$4,$5*
1,1,$1+$1,$6,$7*
1,1,$1+$1,$8,$9*
0 Add four rect primitives between the rounded corners*
20,1,$1+$1,$2,$3,$4,$5,0*
20,1,$1+$1,$4,$5,$6,$7,0*
20,1,$1+$1,$6,$7,$8,$9,0*
20,1,$1+$1,$8,$9,$2,$3,0*%
G04 Aperture macros list end*
%ADD10C,2.000000*%
%ADD11C,2.100000*%
%ADD12RoundRect,0.200000X-0.275000X0.200000X-0.275000X-0.200000X0.275000X-0.200000X0.275000X0.200000X0*%
%ADD13RoundRect,0.102000X-1.400000X1.200000X-1.400000X-1.200000X1.400000X-1.200000X1.400000X1.200000X0*%
%ADD14C,1.905800*%
%ADD15RoundRect,0.102000X-0.750000X0.200000X-0.750000X-0.200000X0.750000X-0.200000X0.750000X0.200000X0*%
%ADD16RoundRect,0.250000X-0.650000X0.412500X-0.650000X-0.412500X0.650000X-0.412500X0.650000X0.412500X0*%
G04 APERTURE END LIST*
D10*
%TO.C,SW4*%
X123839000Y-71161000D03*
X130339000Y-71161000D03*
X123839000Y-75661000D03*
X130339000Y-75661000D03*
%TD*%
%TO.C,SW2*%
X123863000Y-46588000D03*
X130363000Y-46588000D03*
X123863000Y-51088000D03*
X130363000Y-51088000D03*
%TD*%
%TO.C,SW1*%
X106692000Y-46637000D03*
X113192000Y-46637000D03*
X106692000Y-51137000D03*
X113192000Y-51137000D03*
%TD*%
D11*
%TO.C,REF5*%
X101036000Y-159457000D03*
%TD*%
D12*
%TO.C,R1*%
X123820000Y-135444000D03*
X123820000Y-137094000D03*
%TD*%
D11*
%TO.C,REF3*%
X101036000Y-99184000D03*
%TD*%
D10*
%TO.C,SW8*%
X123848000Y-120343000D03*
X130348000Y-120343000D03*
X123848000Y-124843000D03*
X130348000Y-124843000D03*
%TD*%
D11*
%TO.C,REF1*%
X101196000Y-37572000D03*
%TD*%
%TO.C,REF4*%
X135374000Y-99164000D03*
%TD*%
D10*
%TO.C,SW3*%
X106630000Y-71158000D03*
X113130000Y-71158000D03*
X106630000Y-75658000D03*
X113130000Y-75658000D03*
%TD*%
%TO.C,SW6*%
X123867000Y-95768000D03*
X130367000Y-95768000D03*
X123867000Y-100268000D03*
X130367000Y-100268000D03*
%TD*%
D13*
%TO.C,C1*%
X104500000Y-132840000D03*
X104500000Y-139240000D03*
%TD*%
D10*
%TO.C,SW7*%
X106679000Y-120341000D03*
X113179000Y-120341000D03*
X106679000Y-124841000D03*
X113179000Y-124841000D03*
%TD*%
D11*
%TO.C,REF2*%
X135253000Y-37814000D03*
%TD*%
D14*
%TO.C,J1*%
X114500000Y-157000000D03*
X117040000Y-157000000D03*
X119580000Y-157000000D03*
X122120000Y-157000000D03*
%TD*%
D10*
%TO.C,SW9*%
X106620000Y-144923000D03*
X113120000Y-144923000D03*
X106620000Y-149423000D03*
X113120000Y-149423000D03*
%TD*%
D15*
%TO.C,IC1*%
X114267000Y-130330000D03*
X114267000Y-130980000D03*
X114267000Y-131630000D03*
X114267000Y-132280000D03*
X114267000Y-132930000D03*
X114267000Y-133580000D03*
X114267000Y-134230000D03*
X114267000Y-134880000D03*
X114267000Y-135530000D03*
X114267000Y-136180000D03*
X114267000Y-136830000D03*
X114267000Y-137480000D03*
X114267000Y-138130000D03*
X114267000Y-138780000D03*
X121517000Y-138780000D03*
X121517000Y-138130000D03*
X121517000Y-137480000D03*
X121517000Y-136830000D03*
X121517000Y-136180000D03*
X121517000Y-135530000D03*
X121517000Y-134880000D03*
X121517000Y-134230000D03*
X121517000Y-133580000D03*
X121517000Y-132930000D03*
X121517000Y-132280000D03*
X121517000Y-131630000D03*
X121517000Y-130980000D03*
X121517000Y-130330000D03*
%TD*%
D10*
%TO.C,SW5*%
X106649000Y-95744000D03*
X113149000Y-95744000D03*
X106649000Y-100244000D03*
X113149000Y-100244000D03*
%TD*%
D16*
%TO.C,C2*%
X111500000Y-134659000D03*
X111500000Y-137784000D03*
%TD*%
D10*
%TO.C,SW10*%
X123904000Y-144923000D03*
X130404000Y-144923000D03*
X123904000Y-149423000D03*
X130404000Y-149423000D03*
%TD*%
D11*
%TO.C,REF6*%
X135673000Y-159541000D03*
%TD*%
M02*
