M48
; DRILL file {KiCad 9.0.4-9.0.4-0~ubuntu24.04.1} date 2025-09-24T17:39:40+0300
; FORMAT={-:-/ absolute / metric / decimal}
; #@! TF.CreationDate,2025-09-24T17:39:40+03:00
; #@! TF.GenerationSoftware,Kicad,Pcbnew,9.0.4-9.0.4-0~ubuntu24.04.1
; #@! TF.FileFunction,Plated,1,2,PTH
FMAT,2
METRIC
; #@! TA.AperFunction,Plated,PTH,ViaDrill
T1C0.300
; #@! TA.AperFunction,Plated,PTH,ComponentDrill
T2C1.100
; #@! TA.AperFunction,Plated,PTH,ComponentDrill
T3C1.194
%
G90
G05
T1
X102.5Y-141.5
X107.5Y-132.0
X109.0Y-134.5
X111.0Y-139.5
X112.0Y-132.0
X120.5Y-140.5
X122.5Y-140.5
X123.0Y-134.78
X124.0Y-139.0
T2
X106.62Y-144.923
X106.62Y-149.423
X106.63Y-71.158
X106.63Y-75.658
X106.649Y-95.744
X106.649Y-100.244
X106.679Y-120.341
X106.679Y-124.841
X106.692Y-46.637
X106.692Y-51.137
X113.12Y-144.923
X113.12Y-149.423
X113.13Y-71.158
X113.13Y-75.658
X113.149Y-95.744
X113.149Y-100.244
X113.179Y-120.341
X113.179Y-124.841
X113.192Y-46.637
X113.192Y-51.137
X123.839Y-71.161
X123.839Y-75.661
X123.848Y-120.343
X123.848Y-124.843
X123.863Y-46.588
X123.863Y-51.088
X123.867Y-95.768
X123.867Y-100.268
X123.904Y-144.923
X123.904Y-149.423
X130.339Y-71.161
X130.339Y-75.661
X130.348Y-120.343
X130.348Y-124.843
X130.363Y-46.588
X130.363Y-51.088
X130.367Y-95.768
X130.367Y-100.268
X130.404Y-144.923
X130.404Y-149.423
T3
X114.5Y-157.0
X117.04Y-157.0
X119.58Y-157.0
X122.12Y-157.0
M30
